<?xml version="1.0" encoding="UTF-8"?>
<svg version="1.1" xmlns="http://www.w3.org/2000/svg" width="1039" height="315">
<path d="M0 0 C1.03819885 -0.00167175 2.07639771 -0.00334351 3.14605713 -0.00506592 C22.80171 -0.00696 42.23251644 0.67738487 61.4375 5.25 C61.88070305 23.96339647 62.12676175 41.98164234 57.4375 60.25 C57.22851074 61.08208984 57.01952148 61.91417969 56.80419922 62.77148438 C53.352976 76.142066 48.29067047 88.76210714 42.4375 101.25 C41.89730225 102.40653076 41.89730225 102.40653076 41.34619141 103.58642578 C27.93571475 131.75146769 8.14192815 157.12179988 -12.5625 180.25 C-13.02769043 180.77303711 -13.49288086 181.29607422 -13.97216797 181.83496094 C-20.67149473 189.34031167 -27.71336845 196.49862646 -34.8125 203.625 C-35.65240479 204.46957764 -36.49230957 205.31415527 -37.35766602 206.18432617 C-41.7617909 210.57713499 -46.2056713 214.76913885 -51.05761719 218.66650391 C-52.84554597 220.54783195 -53.37418162 221.6647299 -53.5625 224.25 C-51.81459668 226.69952648 -50.08844395 228.79864594 -48.0625 231 C-47.47662109 231.65395752 -46.89074219 232.30791504 -46.28710938 232.98168945 C-44.39306968 235.08448353 -42.47941183 237.16805284 -40.5625 239.25 C-39.94117187 239.93304199 -39.31984375 240.61608398 -38.6796875 241.31982422 C-26.51021311 254.68906112 -13.4911606 266.74371516 0.4375 278.25 C1.30375 279.03375 2.17 279.8175 3.0625 280.625 C5.2324472 282.43879929 5.2324472 282.43879929 7.43359375 282.24609375 C15.4056884 278.28335664 22.1504547 270.79666393 28.63671875 264.8046875 C30.76753494 262.86109784 32.92147369 260.97469913 35.109375 259.09765625 C40.30178293 254.56752341 45.139834 249.69348041 50 244.8125 C50.90685547 243.90951172 51.81371094 243.00652344 52.74804688 242.07617188 C57.85402704 236.96278638 62.75877837 231.75593229 67.4375 226.25 C68.32625177 225.22866938 69.21553818 224.20780364 70.10546875 223.1875 C108.25352916 178.71100166 144.65043252 118.46716379 151.4375 59.25 C147.4775 56.94 143.5175 54.63 139.4375 52.25 C139.31616699 53.42312744 139.19483398 54.59625488 139.06982422 55.80493164 C138.56346212 59.82805307 137.58083135 63.50868069 136.3203125 67.37109375 C136.1076474 68.0243866 135.8949823 68.67767944 135.6758728 69.35076904 C134.98169578 71.46658535 134.27391823 73.57742233 133.5625 75.6875 C133.31862549 76.41587067 133.07475098 77.14424133 132.82348633 77.89468384 C128.17009766 91.72989494 122.70836287 105.06331002 116.4375 118.25 C116.01033691 119.16185059 115.58317383 120.07370117 115.14306641 121.01318359 C97.56989721 158.32515864 73.79070708 192.6329109 47.4375 224.25 C46.95684082 224.82975586 46.47618164 225.40951172 45.98095703 226.00683594 C39.85356307 233.38847382 33.53133548 240.55549588 26.98974609 247.57568359 C25.22905018 249.47484254 23.48375208 251.38762327 21.73828125 253.30078125 C20.47161215 254.67992449 19.20468799 256.05883352 17.9375 257.4375 C17.33768311 258.0979834 16.73786621 258.7584668 16.11987305 259.43896484 C15.27162964 260.35669678 15.27162964 260.35669678 14.40625 261.29296875 C13.65504883 262.11317505 13.65504883 262.11317505 12.88867188 262.94995117 C11.4375 264.25 11.4375 264.25 8.4375 265.25 C3.05412147 259.29288271 -2.29678586 253.3114973 -7.5625 247.25 C-4.24007305 243.24604957 -0.83015814 239.46690255 2.875 235.8125 C6.29202609 232.43540576 9.51620155 228.97176814 12.640625 225.32421875 C14.6121243 223.04842282 16.64884395 220.84077333 18.6875 218.625 C23.23552765 213.58446174 27.40442095 208.30121534 31.55859375 202.9375 C33.45526232 200.49218693 35.38297275 198.07848895 37.34765625 195.6875 C45.33537905 185.94602006 52.48087507 175.74810023 59.4375 165.25 C59.92637695 164.51458984 60.41525391 163.77917969 60.91894531 163.02148438 C90.6152358 118.2037699 111.79410511 70.31862033 121.4375 17.25 C136.27644588 21.01516695 150.53247036 28.09224748 163.53710938 36.08789062 C164.81658559 36.87030414 166.10741203 37.63441929 167.40820312 38.38085938 C171.73345873 40.89634837 175.26328778 43.34327727 178.4375 47.25 C179.51454162 51.71442121 178.92022323 55.47575597 177.94238281 59.9296875 C177.39316267 62.45376303 176.9566646 64.98478673 176.5234375 67.53125 C166.71759058 122.03502851 140.2146961 176.13046549 105.90429688 219.38623047 C104.53326575 221.12831629 103.19038063 222.88738549 101.859375 224.66015625 C86.85481146 244.62721349 69.55891389 264.1143372 50.58984375 280.37890625 C48.05697838 282.58079829 45.59417478 284.85195826 43.125 287.125 C38.25309455 291.55703437 33.28617607 295.8182587 28.12304688 299.90771484 C26.86890506 300.90645061 25.62120591 301.91328731 24.37695312 302.92431641 C22.11762108 304.75694054 19.84187802 306.56739344 17.5625 308.375 C16.83659668 308.96837158 16.11069336 309.56174316 15.36279297 310.1730957 C10.20599616 314.20845967 10.20599616 314.20845967 6.8359375 314.390625 C3.62368906 312.8629759 0.78564041 310.98368483 -2.0625 308.875 C-2.67198486 308.43164307 -3.28146973 307.98828613 -3.90942383 307.53149414 C-9.74678246 303.22675296 -15.24517488 298.56942957 -20.71484375 293.81054688 C-22.0984852 292.64191102 -23.506395 291.50190471 -24.92578125 290.37695312 C-32.23443336 284.56518967 -38.86021839 278.2608168 -45.43359375 271.63964844 C-47.18531575 269.87719762 -48.94749428 268.12571432 -50.7109375 266.375 C-57.45217656 259.6422198 -63.67722262 252.75305271 -69.5625 245.25 C-70.63469007 243.92543861 -71.70870428 242.60235014 -72.78515625 241.28125 C-78.58989946 234.07881179 -84.22124727 226.80630165 -89.5625 219.25 C-88.23734429 216.2192184 -86.93234696 214.45904514 -84.32421875 212.4375 C-83.66744141 211.91800781 -83.01066406 211.39851562 -82.33398438 210.86328125 C-81.64626953 210.33089844 -80.95855469 209.79851562 -80.25 209.25 C-68.19651392 199.88175608 -57.32109233 189.19542422 -46.54052734 178.41333008 C-44.80454044 176.67955057 -43.0606489 174.95398462 -41.31640625 173.22851562 C-34.59838095 166.54368497 -28.44114038 159.69382446 -22.5625 152.25 C-21.69954515 151.22208596 -20.83115634 150.19865992 -19.953125 149.18359375 C-7.48073134 134.64005443 2.96400606 118.8762541 12.4375 102.25 C12.85515625 101.52458008 13.2728125 100.79916016 13.703125 100.05175781 C26.80606875 77.11097074 34.24516727 52.55799271 36.4375 26.25 C17.9575 25.92 -0.5225 25.59 -19.5625 25.25 C-20.5525 28.55 -21.5425 31.85 -22.5625 35.25 C-39.54963686 81.65468182 -67.39136391 122.27027083 -100.8125 158.25 C-101.46178467 158.95616455 -102.11106934 159.6623291 -102.7800293 160.38989258 C-107.02384851 164.90847983 -111.47949052 168.70230799 -116.5625 172.25 C-136.40011635 138.01533588 -146.95604273 101.15679464 -152.4375 62.0625 C-152.55770508 61.20897949 -152.67791016 60.35545898 -152.80175781 59.47607422 C-153.11076271 57.06956701 -153.34471575 54.66629782 -153.5625 52.25 C-153.67827393 51.38479736 -153.79404785 50.51959473 -153.91333008 49.62817383 C-154.44961936 43.3374712 -154.44961936 43.3374712 -152.14746094 40.51538086 C-150.01719944 38.88377709 -147.85616523 37.59679462 -145.5 36.3125 C-144.64946045 35.8165332 -143.7989209 35.32056641 -142.92260742 34.80957031 C-140.16302722 33.23323853 -137.37346607 31.73257501 -134.5625 30.25 C-133.64823242 29.76321777 -132.73396484 29.27643555 -131.79199219 28.77490234 C-109.17479471 16.92380998 -78.73049426 4.25 -52.5625 4.25 C-53.17779713 8.77871632 -55.00381997 12.45074992 -57.10546875 16.4453125 C-57.46584732 17.14236298 -57.82622589 17.83941345 -58.19752502 18.55758667 C-59.37579378 20.83316901 -60.56278464 23.10407438 -61.75 25.375 C-62.56794014 26.95023157 -63.38531821 28.52575511 -64.20214844 30.1015625 C-65.8566087 33.29109276 -67.51448796 36.4788081 -69.17529297 39.66503906 C-71.34642534 43.83170471 -73.50577212 48.00434281 -75.66015625 52.1796875 C-76.87733382 54.53659812 -78.09490278 56.89330611 -79.3125 59.25 C-79.8593042 60.30848145 -80.4061084 61.36696289 -80.96948242 62.45751953 C-81.99580526 64.4370947 -83.02867455 66.41329412 -84.0690918 68.38549805 C-85.09672669 70.35660156 -86.09403514 72.3437175 -87.06567383 74.34301758 C-90.79319087 81.76712547 -90.79319087 81.76712547 -94.66796875 84.19921875 C-95.68503906 84.44285156 -96.70210937 84.68648438 -97.75 84.9375 C-98.77480469 85.20949219 -99.79960938 85.48148437 -100.85546875 85.76171875 C-103.5625 86.25 -103.5625 86.25 -106.5625 86.25 C-107.73650588 82.81496228 -108.90043209 79.37659286 -110.0625 75.9375 C-110.39636719 74.96103516 -110.73023438 73.98457031 -111.07421875 72.97851562 C-111.39003906 72.04072266 -111.70585938 71.10292969 -112.03125 70.13671875 C-112.32451172 69.27264404 -112.61777344 68.40856934 -112.91992188 67.51831055 C-113.5625 65.25 -113.5625 65.25 -113.5625 62.25 C-111.0875 61.755 -111.0875 61.755 -108.5625 61.25 C-108.29695313 60.39148437 -108.03140625 59.53296875 -107.7578125 58.6484375 C-106.55226199 55.22089192 -105.09005614 52.10826202 -103.4375 48.875 C-102.89867187 47.81539062 -102.35984375 46.75578125 -101.8046875 45.6640625 C-101.39476562 44.86742187 -100.98484375 44.07078125 -100.5625 43.25 C-112.52580767 48.28775988 -112.52580767 48.28775988 -123.9609375 54.40234375 C-125.5625 55.25 -125.5625 55.25 -127.5625 55.25 C-123.39561774 80.04769246 -118.83202879 104.75580261 -109.5625 128.25 C-105.56314411 125.2951986 -102.50831802 121.98419623 -99.5 118.0625 C-99.02739746 117.45156494 -98.55479492 116.84062988 -98.06787109 116.21118164 C-73.45309321 84.1100492 -53.70832059 48.93668781 -41.5625 10.25 C-40.67006725 7.487126 -39.73404347 4.9125988 -38.5625 2.25 C-26.87163201 -1.646956 -12.18780118 0.01035047 0 0 Z " fill="#335497" transform="translate(153.5625,-0.25)"/>
<path d="M0 0 C3.43814183 0.64244723 6.87539335 1.28953926 10.3125 1.9375 C11.28896484 2.11990234 12.26542969 2.30230469 13.27148438 2.49023438 C14.20927734 2.66748047 15.14707031 2.84472656 16.11328125 3.02734375 C16.97735596 3.18968506 17.84143066 3.35202637 18.73168945 3.51928711 C21 4 21 4 24 5 C21.68938219 28.80544402 17.82301575 51.33003879 10 74 C9.52820313 75.37599365 9.52820313 75.37599365 9.046875 76.77978516 C4.1868104 90.72930319 -2.012991 103.99084193 -8.60400391 117.19824219 C-9.79860732 119.59580581 -10.97047296 122.00265626 -12.13671875 124.4140625 C-22.12974473 144.60149764 -35.93760571 163.48767205 -50 181 C-50.78375 181.98355469 -51.5675 182.96710938 -52.375 183.98046875 C-54.55526098 186.67854172 -56.76805184 189.34455398 -59 192 C-59.43070801 192.515625 -59.86141602 193.03125 -60.30517578 193.5625 C-70.92291029 206.24843007 -82.13028499 218.4715867 -94 230 C-98.64080887 227.90308431 -101.73327953 224.67171494 -105.3125 221.125 C-105.97056641 220.49980469 -106.62863281 219.87460938 -107.30664062 219.23046875 C-107.92345703 218.62074219 -108.54027344 218.01101562 -109.17578125 217.3828125 C-109.74208252 216.82996582 -110.30838379 216.27711914 -110.8918457 215.70751953 C-112 214 -112 214 -111.92700195 212.05517578 C-110.71397339 209.36587517 -109.10958075 207.78912889 -106.9921875 205.734375 C-106.16976562 204.92613281 -105.34734375 204.11789063 -104.5 203.28515625 C-103.63375 202.44855469 -102.7675 201.61195313 -101.875 200.75 C-95.99389692 195.02176963 -90.31169087 189.2620962 -85 183 C-84.154375 182.03578125 -83.30875 181.0715625 -82.4375 180.078125 C-74.12101626 170.42887143 -66.53023492 160.26923885 -59 150 C-58.45134277 149.25669434 -57.90268555 148.51338867 -57.33740234 147.74755859 C-40.29835125 124.58353097 -26.47119743 98.82503543 -16.94873047 71.67919922 C-15.96814826 68.9100512 -14.94021114 66.16124339 -13.91015625 63.41015625 C-8.1238491 47.52257944 -5.39228133 31.66902462 -3 15 C-2.64750482 12.57619725 -2.29091947 10.15298481 -1.9296875 7.73046875 C-1.69741455 6.14915161 -1.69741455 6.14915161 -1.46044922 4.53588867 C-1 2 -1 2 0 0 Z " fill="#314C90" transform="translate(232,7)"/>
<path d="M0 0 C1.00023193 0.00523682 2.00046387 0.01047363 3.03100586 0.01586914 C4.1105957 0.0190918 5.19018555 0.02231445 6.30249023 0.02563477 C8.00695312 0.03820313 8.00695312 0.03820313 9.74584961 0.05102539 C11.45611328 0.05779297 11.45611328 0.05779297 13.20092773 0.06469727 C16.02845312 0.07652792 18.85587601 0.09301129 21.68334961 0.11352539 C21.88450201 6.46239805 21.36248316 11.87419012 19.68334961 17.98852539 C19.35004639 19.21563232 19.35004639 19.21563232 19.01000977 20.4675293 C10.07293617 51.9248247 -8.46309363 81.23614633 -29.31665039 106.11352539 C-30.00235107 106.93336914 -30.00235107 106.93336914 -30.7019043 107.76977539 C-33.01542756 110.52780795 -35.34360326 113.27266833 -37.68383789 116.00805664 C-40.20003256 118.95772888 -42.63558008 121.96822957 -45.06665039 124.98852539 C-48.08722017 128.7024288 -51.21566498 132.13401442 -54.65649414 135.45727539 C-56.37189874 137.16864374 -57.93462896 138.95541947 -59.50415039 140.80102539 C-66.6493013 149.025888 -74.34423072 156.57756958 -82.81665039 163.42602539 C-83.40389893 163.91240479 -83.99114746 164.39878418 -84.59619141 164.89990234 C-88.73033345 168.1473459 -88.73033345 168.1473459 -91.33129883 167.99731445 C-94.01817584 166.80123787 -94.69240911 165.41424483 -96.11352539 162.85961914 C-96.59692383 162.00561523 -97.08032227 161.15161133 -97.57836914 160.27172852 C-98.31506836 158.92498047 -98.31506836 158.92498047 -99.06665039 157.55102539 C-99.57325195 156.64932617 -100.07985352 155.74762695 -100.60180664 154.81860352 C-101.85183028 152.58978778 -103.0893994 150.35493658 -104.31665039 148.11352539 C-101.32198425 145.07697581 -98.2826695 142.16308159 -95.06665039 139.36352539 C-90.0957207 134.91585145 -85.35142716 130.26104182 -80.62915039 125.55102539 C-79.91662109 124.84300781 -79.2040918 124.13499023 -78.4699707 123.40551758 C-73.8816744 118.80443457 -69.53620577 114.05369777 -65.31665039 109.11352539 C-64.85492432 108.57880615 -64.39319824 108.04408691 -63.91748047 107.49316406 C-56.79467739 99.23145931 -49.94358349 90.77717646 -43.31665039 82.11352539 C-42.85226563 81.50750488 -42.38788086 80.90148437 -41.90942383 80.27709961 C-24.77430308 57.78355306 -9.0826637 31.78900302 -3.85961914 3.71118164 C-3.11581363 0.15268767 -3.11581363 0.15268767 0 0 Z " fill="#E91D24" transform="translate(147.316650390625,34.886474609375)"/>
<path d="M0 0 C23 0 23 0 27.9921875 4.3203125 C29.55859375 7.13671875 29.55859375 7.13671875 30.875 10.125 C31.87065011 12.02435364 32.86807691 13.92277688 33.8671875 15.8203125 C35.41792969 18.87925781 35.41792969 18.87925781 37 22 C39.97 26.62 42.94 31.24 46 36 C46.33 24.12 46.66 12.24 47 0 C52.94 0 58.88 0 65 0 C65 23.43 65 46.86 65 71 C46 71 46 71 42.046875 67.6875 C40.82324219 65.46020508 40.82324219 65.46020508 39.75 63 C38.83665152 61.27298065 37.91979819 59.54781168 37 57.82421875 C36.53207031 56.89270996 36.06414063 55.96120117 35.58203125 55.00146484 C32.6336494 49.40772929 29.1426754 44.14358548 25.75 38.8125 C23.5225 35.244375 21.295 31.67625 19 28 C18.67 42.19 18.34 56.38 18 71 C12.06 71 6.12 71 0 71 C0 47.57 0 24.14 0 0 Z " fill="#FFFFFF" transform="translate(971,97)"/>
<path d="M0 0 C9.1265625 -0.061875 9.1265625 -0.061875 18.4375 -0.125 C20.33943115 -0.14320801 22.2413623 -0.16141602 24.20092773 -0.18017578 C25.73681355 -0.18602617 27.27270251 -0.19112043 28.80859375 -0.1953125 C29.58303833 -0.20554443 30.35748291 -0.21577637 31.15539551 -0.22631836 C39.21393542 -0.22884653 46.63462822 0.69552352 53 6 C56.90503262 11.40553442 56.80462767 16.5454867 56 23 C54.1573889 26.62168388 52.00935265 29.29158262 49 32 C49.886875 32.37125 50.77375 32.7425 51.6875 33.125 C56.33469167 35.75548585 59.2732809 38.81984269 61 44 C61.68956984 50.99743822 61.59363028 57.37187925 57 63 C49.10588476 69.96357121 40.64860845 71.32191278 30.46875 71.1953125 C29.30134277 71.19229126 29.30134277 71.19229126 28.11035156 71.18920898 C25.24017327 71.17885036 22.37007987 71.15092893 19.5 71.125 C13.065 71.08375 6.63 71.0425 0 71 C0 47.57 0 24.14 0 0 Z M19 14 C19 18.62 19 23.24 19 28 C21.5678125 28.061875 21.5678125 28.061875 24.1875 28.125 C25.63189453 28.15980469 25.63189453 28.15980469 27.10546875 28.1953125 C30.19128085 27.98709306 32.26351379 27.42732096 35 26 C37.35062805 23.10622176 37.35062805 23.10622176 36.875 19.4375 C36.39191293 16.02346619 36.39191293 16.02346619 34.3671875 14.79296875 C31.24387452 13.74671044 28.53664548 13.80926709 25.25 13.875 C23.1875 13.91625 21.125 13.9575 19 14 Z M19 41 C19 46.28 19 51.56 19 57 C22.774375 57.12375 22.774375 57.12375 26.625 57.25 C27.40568848 57.28641602 28.18637695 57.32283203 28.99072266 57.36035156 C34.06422016 57.44020859 37.07831124 56.4947553 41 53 C42.01096147 50.02423207 41.45957347 48.2170143 41 45 C39.45661909 42.82523599 38.36334727 42.18167363 36 41 C33.11629667 40.92805131 30.25760336 40.90708292 27.375 40.9375 C26.17230469 40.94426758 26.17230469 40.94426758 24.9453125 40.95117188 C22.96350994 40.96296832 20.98174567 40.98090395 19 41 Z " fill="#FFFFFF" transform="translate(352,97)"/>
<path d="M0 0 C6.3791464 4.6253355 11.39081278 9.47583219 14 17 C14.4125 18.175625 14.825 19.35125 15.25 20.5625 C17.80417291 32.40457442 16.38801245 44.66277634 10.75 55.375 C6.00081657 62.49877515 -1.82032123 66.88787637 -10 69 C-20.34487939 69.9933385 -31.89386639 70.60377453 -41 65 C-41.63679687 64.649375 -42.27359375 64.29875 -42.9296875 63.9375 C-49.60636989 59.81113835 -53.53091695 53.23585891 -55.875 45.875 C-58.51372273 34.56167381 -58.07755071 22.55199892 -53 12 C-42.04411826 -4.31109889 -17.3111407 -10.38111813 0 0 Z M-32.75 15.8125 C-38.00748314 23.26060112 -37.60478849 31.19276769 -37 40 C-35.91401438 45.59961334 -33.39847852 49.35248123 -29 53 C-24.72370361 55.5285155 -20.85600234 55.54924263 -16 55 C-11.44330115 53.13589593 -8.86160554 49.9443752 -6 46 C-2.73994999 38.02594039 -2.37650372 27.92856369 -5.625 19.875 C-8.22172439 14.9772636 -11.67504406 11.77498531 -17 10 C-23.93581032 9.47654262 -27.87447471 10.82616731 -32.75 15.8125 Z " fill="#FFFFFF" transform="translate(941,100)"/>
<path d="M0 0 C1 1 1 1 1.09765625 4.81640625 C1.09098089 6.39846682 1.07901875 7.98051159 1.0625 9.5625 C1.05798828 10.36880859 1.05347656 11.17511719 1.04882812 12.00585938 C1.03700518 14.00393756 1.01906914 16.00197783 1 18 C-2.78075988 17.40481777 -5.69010612 16.29305023 -9.0625 14.5 C-14.41406758 11.6634218 -18.35779481 10.83434273 -24.4375 10.75 C-25.54996094 10.72421875 -26.66242187 10.6984375 -27.80859375 10.671875 C-31.39572936 11.04068698 -33.26429861 11.64780815 -36 14 C-36.41780879 16.62694422 -36.41780879 16.62694422 -36 19 C-29.62091278 21.02690352 -23.28396286 22.97241039 -16.75 24.4375 C-9.07475974 26.31570033 -2.42695617 29.17510924 2 36 C3.51578428 39.03156857 3.24971927 41.87966614 3.3125 45.25 C3.36857422 47.20679688 3.36857422 47.20679688 3.42578125 49.203125 C2.80492275 54.73958799 0.02938681 58.46218572 -4.0625 62.125 C-14.72459469 70.56582496 -28.02064388 70.2048049 -41 69 C-54.10855107 66.89144893 -54.10855107 66.89144893 -57 64 C-57.08631874 62.65732587 -57.10706473 61.31025678 -57.09765625 59.96484375 C-57.09443359 59.15595703 -57.09121094 58.34707031 -57.08789062 57.51367188 C-57.07951172 56.66353516 -57.07113281 55.81339844 -57.0625 54.9375 C-57.05798828 54.08349609 -57.05347656 53.22949219 -57.04882812 52.34960938 C-57.03700373 50.23304337 -57.01906769 48.11651315 -57 46 C-53.76203477 46.53152528 -52.0587777 46.9589923 -49.3125 48.875 C-41.07165048 54.16158271 -31.6402437 55.20061643 -22 54 C-19.1524275 52.59704602 -19.1524275 52.59704602 -17 51 C-16.94832473 48.57732914 -16.94832473 48.57732914 -18 46 C-22.98055297 43.45210786 -27.86164914 42.27853314 -33.3125 41.1875 C-41.4666534 39.39861913 -49.46712457 36.97981926 -54.5625 29.875 C-57.62609551 23.74780897 -57.98684912 17.43794626 -55.9375 10.875 C-52.99005067 3.883376 -46.91183615 0.62834868 -40.2109375 -2.23828125 C-27.26355674 -6.6989513 -12.67223017 -4.10857463 0 0 Z " fill="#FFFFFF" transform="translate(818,100)"/>
<path d="M0 0 C6.27 0 12.54 0 19 0 C19.01458252 1.48846436 19.02916504 2.97692871 19.04418945 4.51049805 C19.10219091 10.03645775 19.17942447 15.56201077 19.26245117 21.08764648 C19.29569167 23.47852983 19.32372629 25.86949148 19.34643555 28.26049805 C19.37999683 31.69874419 19.43231524 35.13627329 19.48828125 38.57421875 C19.49467117 39.64210129 19.5010611 40.70998383 19.50764465 41.81022644 C19.55205668 48.93627207 19.55205668 48.93627207 23 55 C26.22747055 57.15164703 27.20505639 57.27245079 30.9375 57.25 C31.79214844 57.25515625 32.64679687 57.2603125 33.52734375 57.265625 C36.37889215 56.95929753 37.73771053 56.79471816 40 55 C43.00257546 48.55639536 43.46607925 42.98547559 43.51171875 35.9375 C43.52966995 34.90560547 43.54762115 33.87371094 43.56611633 32.81054688 C43.61995456 29.54040516 43.65403022 26.27040719 43.6875 23 C43.72069642 20.77211553 43.75518821 18.54424996 43.79101562 16.31640625 C43.87566593 10.87770832 43.9426033 5.43905106 44 0 C50.27 0 56.54 0 63 0 C63.07453662 6.93763926 63.12878482 13.87504186 63.16479492 20.81298828 C63.17981778 23.16980046 63.20024196 25.52658498 63.22631836 27.88330078 C63.26298821 31.28424942 63.27979196 34.68482621 63.29296875 38.0859375 C63.30845261 39.12801361 63.32393646 40.17008972 63.33988953 41.2437439 C63.34193732 50.2836018 62.16527359 58.74388777 55.74609375 65.53125 C48.42247532 71.69160913 40.55446043 72.22107111 31.375 72.3125 C30.42753906 72.34150391 29.48007812 72.37050781 28.50390625 72.40039062 C20.40667233 72.47239065 14.16546085 70.40671071 7.1875 66.375 C0.30140171 58.89866471 -0.71265215 51.03185957 -0.48828125 41.2109375 C-0.48120651 40.02650055 -0.47413177 38.8420636 -0.46684265 37.62173462 C-0.43905573 33.87215599 -0.3763425 30.12412042 -0.3125 26.375 C-0.28739703 23.81903212 -0.26458739 21.26304062 -0.24414062 18.70703125 C-0.18927985 12.4707678 -0.10311308 6.23564469 0 0 Z " fill="#FFFFFF" transform="translate(489,97)"/>
<path d="M0 0 C16.83 0 33.66 0 51 0 C51 4.95 51 9.9 51 15 C40.44 15 29.88 15 19 15 C19 18.63 19 22.26 19 26 C28.9 26 38.8 26 49 26 C49 30.62 49 35.24 49 40 C39.1 40 29.2 40 19 40 C19 45.61 19 51.22 19 57 C29.56 57 40.12 57 51 57 C51 61.62 51 66.24 51 71 C34.17 71 17.34 71 0 71 C0 47.57 0 24.14 0 0 Z " fill="#FFFFFF" transform="translate(569,97)"/>
<path d="M0 0 C6.6 0 13.2 0 20 0 C23.84220294 9.23247795 27.03436991 18.66164154 30.25 28.125 C30.80965611 29.76570679 31.36955007 31.40633247 31.9296875 33.046875 C33.28920167 37.03032038 34.64549458 41.01484884 36 45 C37.68740112 42.46889832 38.55218287 40.72424176 39.49633789 37.91162109 C39.77324966 37.09422455 40.05016144 36.276828 40.33546448 35.43466187 C40.62823776 34.55645782 40.92101105 33.67825378 41.22265625 32.7734375 C41.52819931 31.87001617 41.83374237 30.96659485 42.14854431 30.03579712 C43.12403127 27.15025105 44.09373466 24.26280905 45.0625 21.375 C46.03533759 18.48022667 47.00945108 15.58590891 47.98716736 12.69277954 C48.59558295 10.89200458 49.20109129 9.09024438 49.80348206 7.28744507 C50.07724167 6.47635284 50.35100128 5.66526062 50.63305664 4.82958984 C50.87351212 4.11249847 51.11396759 3.3954071 51.36170959 2.65658569 C52 1 52 1 53 0 C54.41570123 -0.08651611 55.835595 -0.10704904 57.25390625 -0.09765625 C58.53491211 -0.09282227 58.53491211 -0.09282227 59.84179688 -0.08789062 C60.73962891 -0.07951172 61.63746094 -0.07113281 62.5625 -0.0625 C63.46419922 -0.05798828 64.36589844 -0.05347656 65.29492188 -0.04882812 C67.53001634 -0.03700223 69.76496493 -0.01968245 72 0 C70.48808608 7.96124704 67.8436666 15.35197397 65.02734375 22.93359375 C64.5388832 24.2609816 64.05090009 25.58854524 63.56336975 26.91627502 C62.54724204 29.68008891 61.52747811 32.4425205 60.50463867 35.20385742 C59.19289967 38.74513298 57.88722502 42.28860388 56.58383846 45.83296108 C55.33765573 49.22134155 54.0890369 52.60882215 52.83984375 55.99609375 C52.60193556 56.64150053 52.36402737 57.28690731 52.11890984 57.95187187 C51.44769957 59.77105523 50.77455633 61.58952505 50.10131836 63.40795898 C49.71874374 64.44226547 49.33616913 65.47657196 48.94200134 66.54222107 C48 69 48 69 47 71 C39.74 71 32.48 71 25 71 C22.03326256 62.77721245 19.06849567 54.55372165 16.10714149 46.3289938 C14.73182515 42.50949749 13.35566529 38.69030963 11.97753906 34.87182617 C10.64631768 31.18320659 9.31736262 27.49377763 7.98994064 23.80378914 C7.48442723 22.39978352 6.9781133 20.99606585 6.47096634 19.59264946 C5.75794874 17.61909405 5.04784696 15.64451147 4.33837891 13.66967773 C3.9342276 12.54826889 3.53007629 11.42686005 3.11367798 10.27146912 C1.96073428 6.88465554 0.98286395 3.44002381 0 0 Z " fill="#FFFFFF" transform="translate(628,97)"/>
<path d="M0 0 C13.86 0 27.72 0 42 0 C42 4.62 42 9.24 42 14 C38.37 14 34.74 14 31 14 C31 28.52 31 43.04 31 58 C34.63 58 38.26 58 42 58 C42 62.29 42 66.58 42 71 C28.14 71 14.28 71 0 71 C0 66.71 0 62.42 0 58 C3.96 58 7.92 58 12 58 C12 43.48 12 28.96 12 14 C8.04 14 4.08 14 0 14 C0 9.38 0 4.76 0 0 Z " fill="#FFFFFF" transform="translate(831,97)"/>
<path d="M0 0 C13.53 0 27.06 0 41 0 C41 4.62 41 9.24 41 14 C37.37 14 33.74 14 30 14 C30 28.52 30 43.04 30 58 C33.63 58 37.26 58 41 58 C41 62.29 41 66.58 41 71 C27.47 71 13.94 71 0 71 C0 66.71 0 62.42 0 58 C3.63 58 7.26 58 11 58 C11 43.48 11 28.96 11 14 C7.37 14 3.74 14 0 14 C0 9.38 0 4.76 0 0 Z " fill="#FFFFFF" transform="translate(708,97)"/>
<path d="M0 0 C6.27 0 12.54 0 19 0 C19 18.81 19 37.62 19 57 C29.56 57 40.12 57 51 57 C51 61.62 51 66.24 51 71 C34.17 71 17.34 71 0 71 C0 47.57 0 24.14 0 0 Z " fill="#FFFFFF" transform="translate(427,97)"/>
<path d="M0 0 C2.701875 -0.04125 5.40375 -0.0825 8.1875 -0.125 C9.02949951 -0.14320801 9.87149902 -0.16141602 10.73901367 -0.18017578 C14.92976735 -0.21105974 18.2195 -0.03620151 22 2 C24 4 24 4 24.1875 7.875 C24.14069788 10.22361562 23.97550181 12.09309311 23.375 14.375 C23.25125 14.91125 23.1275 15.4475 23 16 C23.66 16.66 24.32 17.32 25 18 C25.56112224 24.95791583 25.56112224 24.95791583 23.6875 28.4375 C20.87315574 31.04337431 18.20786787 31.12220046 14.55078125 31.09765625 C13.78677002 31.09515869 13.02275879 31.09266113 12.2355957 31.09008789 C11.27097412 31.08098389 10.30635254 31.07187988 9.3125 31.0625 C4.7028125 31.0315625 4.7028125 31.0315625 0 31 C0 20.77 0 10.54 0 0 Z M5 6 C5 8.31 5 10.62 5 13 C6.60379341 13.05416188 8.20811406 13.09286638 9.8125 13.125 C10.70582031 13.14820313 11.59914063 13.17140625 12.51953125 13.1953125 C15.25402714 13.18285827 15.25402714 13.18285827 18 11 C17.67 9.35 17.34 7.7 17 6 C13.04 6 9.08 6 5 6 Z M5 18 C5 20.64 5 23.28 5 26 C6.77049689 26.05410687 8.54146849 26.09284119 10.3125 26.125 C11.79169922 26.15980469 11.79169922 26.15980469 13.30078125 26.1953125 C16.22406527 26.20682639 16.22406527 26.20682639 19 24 C18.62095792 20.70924004 18.62095792 20.70924004 17 18 C14.98035801 17.92755947 12.95832876 17.91622812 10.9375 17.9375 C9.83277344 17.94652344 8.72804688 17.95554688 7.58984375 17.96484375 C6.73519531 17.97644531 5.88054688 17.98804688 5 18 Z " fill="#FFFFFF" transform="translate(699,196)"/>
<path d="M0 0 C2.84625 -0.061875 5.6925 -0.12375 8.625 -0.1875 C9.51010254 -0.21481201 10.39520508 -0.24212402 11.30712891 -0.27026367 C16.29643739 -0.32248128 19.67408001 0.23546676 24 3 C26.62998478 6.34725336 26.43342998 9.8824152 26 14 C24.125 16.9375 24.125 16.9375 22 19 C21.34 19 20.68 19 20 19 C20.3609375 19.61488281 20.721875 20.22976562 21.09375 20.86328125 C21.5578125 21.67152344 22.021875 22.47976562 22.5 23.3125 C22.9640625 24.11300781 23.428125 24.91351563 23.90625 25.73828125 C25 28 25 28 25 31 C22.375 31.625 22.375 31.625 19 31 C17.51171875 28.80859375 17.51171875 28.80859375 16.0625 26.0625 C14.26031476 22.37986375 14.26031476 22.37986375 11.06640625 20.11328125 C8.93336773 19.79847075 8.93336773 19.79847075 6 20 C6 23.63 6 27.26 6 31 C4.02 31 2.04 31 0 31 C0 20.77 0 10.54 0 0 Z M6 6 C6 8.97 6 11.94 6 15 C7.77007714 15.08114106 9.54122098 15.13925505 11.3125 15.1875 C12.29863281 15.22230469 13.28476562 15.25710937 14.30078125 15.29296875 C17.01488722 15.22299589 17.01488722 15.22299589 18.87109375 13.65234375 C20.27954247 11.96915145 20.27954247 11.96915145 19.75 9.375 C19.22254355 7.0687593 19.22254355 7.0687593 18 6 C15.98035801 5.92755947 13.95832876 5.91622812 11.9375 5.9375 C10.83277344 5.94652344 9.72804688 5.95554688 8.58984375 5.96484375 C7.73519531 5.97644531 6.88054687 5.98804688 6 6 Z " fill="#FFFFFF" transform="translate(387,196)"/>
<path d="M0 0 C2.660625 -0.061875 5.32125 -0.12375 8.0625 -0.1875 C8.8862915 -0.21481201 9.71008301 -0.24212402 10.55883789 -0.27026367 C15.79136505 -0.32853514 19.37019621 0.52123761 24 3 C26.09878934 6.06073445 26.10862484 8.53859911 25.8125 12.125 C25 16 25 16 23.5625 18 C22 19 22 19 20 19 C20.3609375 19.69867188 20.721875 20.39734375 21.09375 21.1171875 C21.5578125 22.02726562 22.021875 22.93734375 22.5 23.875 C22.9640625 24.77992188 23.428125 25.68484375 23.90625 26.6171875 C25 29 25 29 25 31 C22.375 31.625 22.375 31.625 19 31 C17.51171875 28.80859375 17.51171875 28.80859375 16.0625 26.0625 C14.26031476 22.37986375 14.26031476 22.37986375 11.06640625 20.11328125 C8.93336773 19.79847075 8.93336773 19.79847075 6 20 C6 23.63 6 27.26 6 31 C4.02 31 2.04 31 0 31 C0 20.77 0 10.54 0 0 Z M6 6 C6 8.97 6 11.94 6 15 C7.58246707 15.08153933 9.16616273 15.13943557 10.75 15.1875 C11.63171875 15.22230469 12.5134375 15.25710937 13.421875 15.29296875 C16.44671583 14.94923684 17.75583602 13.99772541 20 12 C19.62095792 8.70924004 19.62095792 8.70924004 18 6 C15.98035801 5.92755947 13.95832876 5.91622812 11.9375 5.9375 C10.83277344 5.94652344 9.72804688 5.95554688 8.58984375 5.96484375 C7.73519531 5.97644531 6.88054688 5.98804688 6 6 Z " fill="#FFFFFF" transform="translate(760,196)"/>
<path d="M0 0 C2.701875 -0.04125 5.40375 -0.0825 8.1875 -0.125 C9.02949951 -0.14320801 9.87149902 -0.16141602 10.73901367 -0.18017578 C15.82919213 -0.21768809 19.85998514 0.08136599 23.8125 3.625 C25.88853083 7.77706166 25.596865 12.06018875 24.25 16.4375 C23 18 23 18 19 19 C20.98 22.96 22.96 26.92 25 31 C21.875 31.625 21.875 31.625 18 31 C16.25416327 28.53915979 14.94970432 25.96612259 13.5546875 23.29296875 C12.22091738 20.89983312 12.22091738 20.89983312 10.0703125 20.11328125 C7.93399802 19.79857055 7.93399802 19.79857055 5 20 C5 23.63 5 27.26 5 31 C3.35 31 1.7 31 0 31 C0 20.77 0 10.54 0 0 Z M5 6 C5 8.97 5 11.94 5 15 C6.77049689 15.05410687 8.54146849 15.09284119 10.3125 15.125 C11.79169922 15.15980469 11.79169922 15.15980469 13.30078125 15.1953125 C16.22406527 15.20682639 16.22406527 15.20682639 19 13 C19.41666667 10.5 19.41666667 10.5 19 8 C17.1371051 5.69939466 17.1371051 5.69939466 14.1796875 5.8046875 C13.08914063 5.82789063 11.99859375 5.85109375 10.875 5.875 C9.23144531 5.90207031 9.23144531 5.90207031 7.5546875 5.9296875 C6.71164062 5.95289063 5.86859375 5.97609375 5 6 Z " fill="#FFFFFF" transform="translate(934,196)"/>
<path d="M0 0 C7.26 0 14.52 0 22 0 C22 1.98 22 3.96 22 6 C16.72 6 11.44 6 6 6 C6 7.98 6 9.96 6 12 C11.28 12 16.56 12 22 12 C22 13.98 22 15.96 22 18 C16.72 18 11.44 18 6 18 C6 20.31 6 22.62 6 25 C11.28 25 16.56 25 22 25 C22 26.98 22 28.96 22 31 C14.74 31 7.48 31 0 31 C0 20.77 0 10.54 0 0 Z " fill="#FFFFFF" transform="translate(837,196)"/>
<path d="M0 0 C7.26 0 14.52 0 22 0 C22 1.98 22 3.96 22 6 C16.72 6 11.44 6 6 6 C6 7.98 6 9.96 6 12 C10.95 12 15.9 12 21 12 C21 13.98 21 15.96 21 18 C16.05 18 11.1 18 6 18 C6 20.31 6 22.62 6 25 C11.28 25 16.56 25 22 25 C22 26.98 22 28.96 22 31 C14.74 31 7.48 31 0 31 C0 20.77 0 10.54 0 0 Z " fill="#FFFFFF" transform="translate(731,196)"/>
<path d="M0 0 C1.62890625 0.828125 1.62890625 0.828125 3.87890625 2.328125 C2.88890625 3.978125 1.89890625 5.628125 0.87890625 7.328125 C-0.13171875 6.9775 -1.14234375 6.626875 -2.18359375 6.265625 C-6.04446753 5.1388802 -9.17503961 5.52280783 -13.12109375 6.328125 C-13.45109375 7.648125 -13.78109375 8.968125 -14.12109375 10.328125 C-13.0846875 10.49828125 -12.04828125 10.6684375 -10.98046875 10.84375 C-9.61052905 11.08771186 -8.24074516 11.33254979 -6.87109375 11.578125 C-6.18917969 11.68769531 -5.50726562 11.79726562 -4.8046875 11.91015625 C-0.40331738 12.72205948 2.20902564 13.66889777 4.87890625 17.328125 C5.32259363 21.46920723 5.41965178 24.89811854 2.87890625 28.328125 C-0.75682948 30.76951276 -4.2063733 30.62778153 -8.49609375 30.640625 C-9.78257812 30.65738281 -11.0690625 30.67414063 -12.39453125 30.69140625 C-16.31258829 30.30945729 -18.75110989 29.30525176 -22.12109375 27.328125 C-21.46109375 25.678125 -20.80109375 24.028125 -20.12109375 22.328125 C-19.15171875 22.658125 -18.18234375 22.988125 -17.18359375 23.328125 C-12.49876014 24.67620977 -6.60146418 25.56831022 -2.12109375 23.328125 C-1.46896083 21.30349245 -1.46896083 21.30349245 -1.12109375 19.328125 C-2.0853125 19.13476562 -3.04953125 18.94140625 -4.04296875 18.7421875 C-5.30625 18.48179687 -6.56953125 18.22140625 -7.87109375 17.953125 C-9.75054688 17.57027344 -9.75054688 17.57027344 -11.66796875 17.1796875 C-14.49582255 16.48232084 -16.68153141 15.87949717 -19.12109375 14.328125 C-20.71361018 11.14309213 -20.51239136 7.7948845 -20.12109375 4.328125 C-16.48748622 -2.42000327 -6.64626333 -2.10526205 0 0 Z " fill="#FFFFFF" transform="translate(825.12109375,196.671875)"/>
<path d="M0 0 C2.660625 -0.061875 5.32125 -0.12375 8.0625 -0.1875 C8.8862915 -0.21481201 9.71008301 -0.24212402 10.55883789 -0.27026367 C15.79136505 -0.32853514 19.37019621 0.52123761 24 3 C26.45057194 6.57375075 26.2020954 9.9986838 25.546875 14.1328125 C24.72703568 16.93197817 23.31608123 18.2969991 21 20 C17.71480525 21.09506492 15.26336585 21.09960608 11.8125 21.0625 C10.18248047 21.04896484 10.18248047 21.04896484 8.51953125 21.03515625 C7.68808594 21.02355469 6.85664063 21.01195312 6 21 C6 24.3 6 27.6 6 31 C4.02 31 2.04 31 0 31 C0 20.77 0 10.54 0 0 Z M6 6 C6 8.97 6 11.94 6 15 C7.95766281 15.08082094 9.91626728 15.13910778 11.875 15.1875 C12.96554687 15.22230469 14.05609375 15.25710937 15.1796875 15.29296875 C16.57574219 15.14794922 16.57574219 15.14794922 18 15 C20.31543207 12.23011924 20.31543207 12.23011924 19.6875 9.375 C19.2258486 7.06498035 19.2258486 7.06498035 18 6 C15.98035801 5.92755947 13.95832876 5.91622812 11.9375 5.9375 C10.83277344 5.94652344 9.72804688 5.95554688 8.58984375 5.96484375 C7.73519531 5.97644531 6.88054687 5.98804688 6 6 Z " fill="#FFFFFF" transform="translate(355,196)"/>
<path d="M0 0 C1.4540625 0.0309375 1.4540625 0.0309375 2.9375 0.0625 C4.65098735 4.15405867 6.35986208 8.24750311 8.06445312 12.34277344 C8.6452131 13.73620761 9.22723926 15.12911475 9.81054688 16.52148438 C10.64785383 18.52076832 11.48061689 20.52189176 12.3125 22.5234375 C13.06660156 24.33013916 13.06660156 24.33013916 13.8359375 26.17333984 C14.9375 29.0625 14.9375 29.0625 14.9375 31.0625 C12.0625 31.25 12.0625 31.25 8.9375 31.0625 C6.9375 28.0625 6.9375 28.0625 6.9375 25.0625 C2.3175 25.0625 -2.3025 25.0625 -7.0625 25.0625 C-7.7225 27.0425 -8.3825 29.0225 -9.0625 31.0625 C-11.0425 31.0625 -13.0225 31.0625 -15.0625 31.0625 C-13.0825675 24.02872835 -10.68859161 17.26687917 -7.9375 10.5 C-7.57785156 9.59958984 -7.21820312 8.69917969 -6.84765625 7.77148438 C-3.74641521 0.07645745 -3.74641521 0.07645745 0 0 Z M-1.0625 9.0625 C-2.3825 12.6925 -3.7025 16.3225 -5.0625 20.0625 C-2.0925 20.0625 0.8775 20.0625 3.9375 20.0625 C3.48873384 18.41403231 3.02819512 16.76876545 2.5625 15.125 C2.17964844 13.75021484 2.17964844 13.75021484 1.7890625 12.34765625 C1.17089896 9.89504913 1.17089896 9.89504913 -1.0625 9.0625 Z " fill="#FFFFFF" transform="translate(574.0625,195.9375)"/>
<path d="M0 0 C1.4540625 0.0309375 1.4540625 0.0309375 2.9375 0.0625 C4.65098735 4.15405867 6.35986208 8.24750311 8.06445312 12.34277344 C8.6452131 13.73620761 9.22723926 15.12911475 9.81054688 16.52148438 C10.64785383 18.52076832 11.48061689 20.52189176 12.3125 22.5234375 C13.06660156 24.33013916 13.06660156 24.33013916 13.8359375 26.17333984 C14.9375 29.0625 14.9375 29.0625 14.9375 31.0625 C12.0625 31.25 12.0625 31.25 8.9375 31.0625 C6.9375 28.0625 6.9375 28.0625 6.9375 25.0625 C2.3175 25.0625 -2.3025 25.0625 -7.0625 25.0625 C-7.7225 27.0425 -8.3825 29.0225 -9.0625 31.0625 C-11.0425 31.0625 -13.0225 31.0625 -15.0625 31.0625 C-13.0825675 24.02872835 -10.68859161 17.26687917 -7.9375 10.5 C-7.57785156 9.59958984 -7.21820313 8.69917969 -6.84765625 7.77148438 C-3.74641521 0.07645745 -3.74641521 0.07645745 0 0 Z M-1.0625 9.0625 C-2.3825 12.6925 -3.7025 16.3225 -5.0625 20.0625 C-2.0925 20.0625 0.8775 20.0625 3.9375 20.0625 C3.33051257 15.93498551 1.89939209 12.7303852 -0.0625 9.0625 C-0.3925 9.0625 -0.7225 9.0625 -1.0625 9.0625 Z " fill="#FFFFFF" transform="translate(432.0625,195.9375)"/>
<path d="M0 0 C1.98 0 3.96 0 6 0 C6.02505615 0.61520508 6.0501123 1.23041016 6.07592773 1.86425781 C6.19218487 4.65970156 6.31477642 7.45483298 6.4375 10.25 C6.47681641 11.21808594 6.51613281 12.18617188 6.55664062 13.18359375 C6.61948242 14.58544922 6.61948242 14.58544922 6.68359375 16.015625 C6.72025146 16.87446289 6.75690918 17.73330078 6.79467773 18.61816406 C6.98703514 20.84960143 7.38846244 22.84982524 8 25 C9.4370809 25.05422947 10.87475462 25.09289723 12.3125 25.125 C13.11300781 25.14820313 13.91351562 25.17140625 14.73828125 25.1953125 C17.28388576 25.15817322 17.28388576 25.15817322 20 23 C20.9300889 20.2097333 21.18698769 18.23470458 21.31640625 15.33203125 C21.35830078 14.43935547 21.40019531 13.54667969 21.44335938 12.62695312 C21.48267578 11.69818359 21.52199219 10.76941406 21.5625 9.8125 C21.60568359 8.87212891 21.64886719 7.93175781 21.69335938 6.96289062 C21.79938665 4.64207146 21.90145029 2.32114675 22 0 C23.65 0 25.3 0 27 0 C27.11611395 4.24977046 27.18722349 8.49913337 27.25 12.75 C27.30027344 14.55984375 27.30027344 14.55984375 27.3515625 16.40625 C27.36445312 17.56640625 27.37734375 18.7265625 27.390625 19.921875 C27.41157227 20.99018555 27.43251953 22.05849609 27.45410156 23.15917969 C26.88969165 26.69007957 25.76450474 27.8109688 23 30 C16.76204319 32.47794485 10.21285084 32.56132328 4 30 C1.05069817 27.32719522 0.63450682 24.83462819 0 21 C-0.07700286 19.30742755 -0.10805067 17.61226001 -0.09765625 15.91796875 C-0.09443359 14.98662109 -0.09121094 14.05527344 -0.08789062 13.09570312 C-0.07951172 12.13599609 -0.07113281 11.17628906 -0.0625 10.1875 C-0.05798828 9.20845703 -0.05347656 8.22941406 -0.04882812 7.22070312 C-0.03708684 4.81373889 -0.02066419 2.40690143 0 0 Z " fill="#FFFFFF" transform="translate(898,196)"/>
<path d="M0 0 C0.763125 0.495 1.52625 0.99 2.3125 1.5 C1.9825 2.82 1.6525 4.14 1.3125 5.5 C-2.4375 6.625 -2.4375 6.625 -4.6875 5.5 C-8.91523846 5.00213891 -12.48613324 4.82606255 -16.25 6.9375 C-18.40150957 10.77279967 -18.31115149 14.20548846 -17.6875 18.5 C-16.89176487 21.11760705 -16.89176487 21.11760705 -14.6875 22.5 C-11.06801541 23.52974721 -7.92780112 24.05124494 -4.4375 22.5 C-3.86 22.17 -3.2825 21.84 -2.6875 21.5 C-0.4375 21.875 -0.4375 21.875 1.3125 22.5 C1.6425 23.82 1.9725 25.14 2.3125 26.5 C-1.77399553 29.4255593 -4.69722534 29.90726471 -9.6875 29.875 C-10.88375 29.88273437 -12.08 29.89046875 -13.3125 29.8984375 C-16.93198536 29.47113714 -18.79306729 28.66692718 -21.6875 26.5 C-25.6866815 21.1217904 -25.33864204 14.91462906 -24.6875 8.5 C-23.18777657 4.22578824 -21.59111026 1.81776859 -17.6875 -0.5 C-11.85125752 -2.44541416 -5.67462842 -2.30832343 0 0 Z " fill="#FFFFFF" transform="translate(474.6875,197.5)"/>
<path d="M0 0 C0.763125 0.495 1.52625 0.99 2.3125 1.5 C1.9825 2.82 1.6525 4.14 1.3125 5.5 C-2.4375 6.625 -2.4375 6.625 -4.6875 5.5 C-6.79604036 5.2647268 -6.79604036 5.2647268 -9.125 5.25 C-10.29869141 5.21132812 -10.29869141 5.21132812 -11.49609375 5.171875 C-14.20488351 5.57746919 -15.0091094 6.38533049 -16.6875 8.5 C-18.62820371 12.38140743 -18.0607542 16.35535379 -16.75 20.375 C-13.96620373 23.24315373 -11.72159363 23.29687475 -7.84375 23.65234375 C-5.38783248 23.6574912 -5.38783248 23.6574912 -2.6875 21.5 C-0.625 21.6875 -0.625 21.6875 1.3125 22.5 C1.9725 23.49 2.6325 24.48 3.3125 25.5 C0.53699902 28.53983441 -1.46762727 29.4163148 -5.6484375 29.703125 C-7.33839844 29.72632813 -7.33839844 29.72632813 -9.0625 29.75 C-10.18398438 29.77578125 -11.30546875 29.8015625 -12.4609375 29.828125 C-16.87637051 29.37909791 -19.48702806 27.82909394 -22.4375 24.5625 C-25.21398375 19.98130181 -25.29428997 14.71326593 -24.6875 9.5 C-23.37723232 5.17237305 -21.70210865 2.29188968 -18.125 -0.5 C-11.89524857 -2.31229133 -6.0381113 -2.45618087 0 0 Z " fill="#FFFFFF" transform="translate(552.6875,197.5)"/>
<path d="M0 0 C0.763125 0.495 1.52625 0.99 2.3125 1.5 C1.9825 2.82 1.6525 4.14 1.3125 5.5 C-2.4375 6.625 -2.4375 6.625 -4.6875 5.5 C-6.79604036 5.2647268 -6.79604036 5.2647268 -9.125 5.25 C-10.29869141 5.21132812 -10.29869141 5.21132812 -11.49609375 5.171875 C-14.20488351 5.57746919 -15.0091094 6.38533049 -16.6875 8.5 C-18.62820371 12.38140743 -18.0607542 16.35535379 -16.75 20.375 C-13.96620373 23.24315373 -11.72159363 23.29687475 -7.84375 23.65234375 C-5.38783248 23.6574912 -5.38783248 23.6574912 -2.6875 21.5 C-0.625 21.6875 -0.625 21.6875 1.3125 22.5 C1.9725 23.49 2.6325 24.48 3.3125 25.5 C0.53699902 28.53983441 -1.46762727 29.4163148 -5.6484375 29.703125 C-7.33839844 29.72632813 -7.33839844 29.72632813 -9.0625 29.75 C-10.18398438 29.77578125 -11.30546875 29.8015625 -12.4609375 29.828125 C-16.87637051 29.37909791 -19.48702806 27.82909394 -22.4375 24.5625 C-25.21398375 19.98130181 -25.29428997 14.71326593 -24.6875 9.5 C-23.37723232 5.17237305 -21.70210865 2.29188968 -18.125 -0.5 C-11.89524857 -2.31229133 -6.0381113 -2.45618087 0 0 Z " fill="#FFFFFF" transform="translate(656.6875,197.5)"/>
<path d="M0 0 C2.50953858 1.07817213 3.93524005 2.16465782 6 4 C5.01 5.32 4.02 6.64 3 8 C2.34 7.835 1.68 7.67 1 7.5 C-6.0126096 6.24767486 -6.0126096 6.24767486 -12.4375 8.6875 C-15.11961931 12.65703657 -15.19009753 14.98038599 -14.3125 19.6875 C-13.31983714 22.97397513 -13.31983714 22.97397513 -11.25 24.4375 C-6.02796572 25.74300857 -1.96667763 24.89206767 3 23 C4.5 24.375 4.5 24.375 6 26 C6 26.66 6 27.32 6 28 C0.32221077 32.38982192 -6.16193854 31.72950011 -13 31 C-16.26931055 29.85544783 -18.19371983 28.22768095 -20.12109375 25.29296875 C-21.32341317 22.15625096 -21.30176846 19.41431898 -21.3125 16.0625 C-21.32925781 14.85722656 -21.34601562 13.65195313 -21.36328125 12.41015625 C-20.84156293 7.5127359 -19.08146855 5.02600862 -15.5625 1.6875 C-10.3877055 -0.76371845 -5.63196917 -0.80017048 0 0 Z " fill="#FFFFFF" transform="translate(886,196)"/>
<path d="M0 0 C9.24 0 18.48 0 28 0 C28 1.98 28 3.96 28 6 C24.37 6 20.74 6 17 6 C17 14.25 17 22.5 17 31 C15.02 31 13.04 31 11 31 C11 22.75 11 14.5 11 6 C7.37 6 3.74 6 0 6 C0 4.02 0 2.04 0 0 Z " fill="#FFFFFF" transform="translate(481,196)"/>
<path d="M0 0 C3.22265625 -0.40625 3.22265625 -0.40625 7 0 C8.92409498 2.24838066 10.105419 3.94219177 11.4375 6.5 C11.78748047 7.12003906 12.13746094 7.74007812 12.49804688 8.37890625 C13.35569369 9.9062225 14.18111194 11.45155713 15 13 C15.58007812 12.0615625 16.16015625 11.123125 16.7578125 10.15625 C17.54577304 8.93678726 18.33489688 7.71807564 19.125 6.5 C19.50398437 5.87996094 19.88296875 5.25992188 20.2734375 4.62109375 C21.4453125 2.84375 21.4453125 2.84375 24 0 C27.3046875 -0.40625 27.3046875 -0.40625 30 0 C28.73238278 3.70587548 26.93987947 6.62846619 24.67358398 9.81005859 C19.76660936 16.76685572 17.59997433 22.26343931 18 31 C16.02 31 14.04 31 12 31 C12.05542969 30.33097656 12.11085938 29.66195312 12.16796875 28.97265625 C12.23800221 18.53767142 6.89617459 11.7186859 0.99389648 3.59716797 C0 2 0 2 0 0 Z " fill="#FFFFFF" transform="translate(663,196)"/>
<path d="M0 0 C3.22265625 -0.40625 3.22265625 -0.40625 7 0 C8.92409498 2.24838066 10.105419 3.94219177 11.4375 6.5 C11.78748047 7.12003906 12.13746094 7.74007812 12.49804688 8.37890625 C13.35569369 9.9062225 14.18111194 11.45155713 15 13 C16.1254191 11.39612733 17.25031972 9.79189084 18.375 8.1875 C19.00148438 7.29417969 19.62796875 6.40085938 20.2734375 5.48046875 C21.53550239 3.66732122 22.77458808 1.83811789 24 0 C27.125 -0.1875 27.125 -0.1875 30 0 C28.73238278 3.70587548 26.93987947 6.62846619 24.67358398 9.81005859 C19.76660936 16.76685572 17.59997433 22.26343931 18 31 C16.02 31 14.04 31 12 31 C12.08314453 30.01386719 12.08314453 30.01386719 12.16796875 29.0078125 C12.23973601 18.41496496 6.71613324 11.04264566 0.99389648 2.57543945 C0 1 0 1 0 0 Z " fill="#FFFFFF" transform="translate(1009,196)"/>
<path d="M0 0 C8.91 0 17.82 0 27 0 C27 1.98 27 3.96 27 6 C23.7 6 20.4 6 17 6 C17 14.25 17 22.5 17 31 C15.02 31 13.04 31 11 31 C11 22.75 11 14.5 11 6 C7.37 6 3.74 6 0 6 C0 4.02 0 2.04 0 0 Z " fill="#FFFFFF" transform="translate(979,196)"/>
<path d="M0 0 C1.98 0 3.96 0 6 0 C6 8.58 6 17.16 6 26 C10.95 26 15.9 26 21 26 C21 27.65 21 29.3 21 31 C14.07 31 7.14 31 0 31 C0 20.77 0 10.54 0 0 Z " fill="#FFFFFF" transform="translate(595,196)"/>
<path d="M0 0 C1.98 0 3.96 0 6 0 C6 10.23 6 20.46 6 31 C4.02 31 2.04 31 0 31 C0 20.77 0 10.54 0 0 Z " fill="#FFFFFF" transform="translate(967,196)"/>
<path d="M0 0 C1.98 0 3.96 0 6 0 C6 10.23 6 20.46 6 31 C4.02 31 2.04 31 0 31 C0 20.77 0 10.54 0 0 Z " fill="#FFFFFF" transform="translate(515,196)"/>
</svg>
