<?xml version="1.0" encoding="UTF-8"?>
<svg version="1.1" xmlns="http://www.w3.org/2000/svg" width="1205" height="732">
<path d="M0 0 C1.99608044 1.00780101 3.99555322 2.00894344 6 3 C7.33333333 3.66666667 8.66666667 4.33333333 10 5 C10 5.66 10 6.32 10 7 C10.55042969 7.24492188 11.10085938 7.48984375 11.66796875 7.7421875 C19.00490531 11.69946317 25.30011804 17.87964342 30.5625 24.2734375 C31.94532718 26.00024043 31.94532718 26.00024043 33.46166992 27.39941406 C35.97604714 30.01554754 37.56695911 33.2206084 39.3125 36.375 C39.90744263 37.44802368 39.90744263 37.44802368 40.5144043 38.54272461 C57.73881519 69.94331799 59.70722245 103.27505587 49.75 137.4375 C46.98320904 146.57674037 43.63669816 155.37178466 39.80126953 164.10888672 C38.54609458 167.07128316 37.48524519 170.10579591 36.375 173.125 C30.53180326 187.78782078 22.06476251 201.72211956 12.8046875 214.4765625 C10.95633897 216.96367848 10.95633897 216.96367848 9.50390625 219.66796875 C6.43998007 224.41904389 1.36523175 226.29742444 -3.90625 227.86328125 C-12.57319979 229.68378746 -18.42110766 228.07346068 -26.3125 224.5 C-31.20100307 219.95255529 -33.1658079 213.86753536 -35 207.5625 C-35 198.2513537 -31.48129282 190.00610418 -27 182 C-26.34 182 -25.68 182 -25 182 C-24.76152344 181.33742187 -24.52304688 180.67484375 -24.27734375 179.9921875 C-22.34690339 175.47011619 -19.82745137 171.30822765 -17.36523438 167.05859375 C-14.93444166 162.81178451 -12.83893911 158.53675078 -11 154 C-10.46209839 152.72116943 -10.46209839 152.72116943 -9.91333008 151.41650391 C5.53885664 114.68579536 5.53885664 114.68579536 2 76 C1.59974609 74.86884766 1.59974609 74.86884766 1.19140625 73.71484375 C-5.33544156 57.26718728 -18.94282779 46.54083642 -34.62109375 39.3359375 C-97.78697008 13.26084065 -178.67346441 31.228437 -241.14453125 50.58984375 C-244.31282596 51.55747248 -247.41847884 52.29568519 -250.6796875 52.87109375 C-257.77395142 54.21568571 -264.51598645 56.74117129 -271.3125 59.125 C-272.73993268 59.62077122 -274.16742349 60.1163751 -275.5949707 60.61181641 C-288.10738038 64.97158375 -300.52014472 69.58305614 -312.8125 74.53125 C-318.36482032 76.74189605 -323.54451213 78.56867035 -329.48828125 79.34765625 C-332.53371241 80.13861582 -335.05824212 81.47530405 -337.84350586 82.91918945 C-341.35081555 84.67701352 -344.98475779 86.1057484 -348.625 87.5625 C-352.62392333 89.1670502 -356.5487491 90.77229983 -360.3984375 92.71484375 C-363 94 -363 94 -365 94 C-360.86683729 98.37628993 -356.78253365 102.07248878 -351 104 C-349.32026204 105.65349205 -347.65604752 107.32278142 -346 109 C-343.71861761 110.92184635 -341.3629215 112.74234359 -339 114.5625 C-337.79153187 115.50112856 -336.5831962 116.43992768 -335.375 117.37890625 C-334.80096436 117.82427734 -334.22692871 118.26964844 -333.63549805 118.72851562 C-327.45213849 123.53564155 -327.45213849 123.53564155 -324.6875 126.375 C-322.61141125 128.40280761 -320.7769663 129.91423965 -318.4375 131.5625 C-310.16819373 137.62352562 -303.052366 145.53928461 -296.453125 153.33984375 C-294.86631721 155.20987166 -294.86631721 155.20987166 -292.3125 157.5 C-286.62430903 163.64939565 -284.62454944 170.78164754 -284.72265625 179.01171875 C-285.30329208 185.26786534 -287.3927614 190.19675669 -291.5625 194.875 C-297.0049423 198.72319152 -303.84225938 201.50044345 -310.5625 201 C-312.05179603 200.7153204 -313.53224166 200.38043474 -315 200 C-315.76699219 199.82984375 -316.53398438 199.6596875 -317.32421875 199.484375 C-324.92565186 197.18313599 -329.44208216 191.91833796 -334.74609375 186.33203125 C-338.4076836 182.5003884 -342.38393496 179.26131905 -346.5625 176 C-349.22442355 173.8158576 -351.58612816 171.45459667 -354 169 C-362.81056492 160.53887943 -362.81056492 160.53887943 -372.76953125 153.51171875 C-374.73991065 152.17627772 -376.43376789 150.78511075 -378.21875 149.21875 C-382.17144598 145.77778462 -386.38308787 142.79422184 -390.6875 139.8125 C-392.17091201 138.77782974 -393.65399582 137.74268875 -395.13671875 136.70703125 C-395.78342529 136.2581958 -396.43013184 135.80936035 -397.09643555 135.34692383 C-398.44929915 134.38966482 -399.78465051 133.40744386 -401.10717773 132.40869141 C-403.11758929 130.91248676 -405.16649679 129.74424295 -407.375 128.5625 C-410.15607786 127.06254161 -412.72244751 125.51739034 -415.25 123.625 C-417.80116798 121.76077502 -417.80116798 121.76077502 -420.3046875 122.1875 C-423.52104516 123.15706869 -426.01534965 124.61464381 -428.875 126.375 C-433.14494916 128.99494269 -437.39107484 131.04391642 -442 133 C-443.9988896 134.06804733 -445.9774199 135.17479585 -447.9375 136.3125 C-448.80544189 136.81366333 -448.80544189 136.81366333 -449.69091797 137.32495117 C-453.65117498 139.61691094 -457.595997 141.93526483 -461.54296875 144.25 C-471.37305306 150.01089034 -481.21104972 155.74520694 -491.1875 161.25 C-492.00621582 161.7035083 -492.82493164 162.1570166 -493.66845703 162.62426758 C-497.37728679 164.65570369 -501.01072402 166.56098261 -505 168 C-505 168.66 -505 169.32 -505 170 C-506.40185547 171.04980469 -506.40185547 171.04980469 -508.3671875 172.171875 C-509.08261719 172.58550293 -509.79804687 172.99913086 -510.53515625 173.42529297 C-511.30730469 173.86244629 -512.07945312 174.29959961 -512.875 174.75 C-514.45576461 175.66400121 -516.03649401 176.57806331 -517.6171875 177.4921875 C-519.99531229 178.85527126 -522.37582065 180.21399419 -524.7578125 181.5703125 C-536.34756612 188.31417611 -547.37330779 196.29033854 -557.5078125 205.0625 C-559.9504417 206.96147192 -562.48145399 208.41232767 -565.18408203 209.90625 C-568.32244598 211.79652568 -571.05782553 214.1695542 -573.875 216.5 C-582.2240884 223.18499757 -589.91550837 227.6394899 -601 227 C-607.4439766 225.55858418 -612.99989466 223.4546891 -617 218 C-620.92962346 211.55906089 -622.04152825 205.46954603 -621 198 C-618.41655042 188.41222456 -613.16103871 182.59357948 -605.28125 176.80859375 C-602.91400601 175.01021299 -602.91400601 175.01021299 -600.7265625 172.671875 C-597.34145969 169.35466824 -593.69478671 166.60784148 -589.875 163.8125 C-588.66046143 162.92087158 -588.66046143 162.92087158 -587.42138672 162.01123047 C-580.10975882 156.70196839 -572.64176519 151.63709382 -565.125 146.625 C-564.56794373 146.25299469 -564.01088745 145.88098938 -563.43695068 145.49771118 C-542.80917736 131.74852296 -542.80917736 131.74852296 -533.75 127.375 C-529.78093795 125.45714922 -526.23670196 123.22977014 -522.609375 120.734375 C-517.4452923 117.30196075 -512.0701241 114.20446769 -506.73925781 111.04003906 C-505.25332983 110.15148584 -503.77786931 109.24546714 -502.3046875 108.3359375 C-497.48193479 105.35951916 -492.55670549 102.67746291 -487.5 100.125 C-486.58142212 99.65876221 -486.58142212 99.65876221 -485.64428711 99.18310547 C-481.24657125 97 -481.24657125 97 -479 97 C-479 96.34 -479 95.68 -479 95 C-476.03 94.01 -476.03 94.01 -473 93 C-475.32993087 90.35609674 -477.53838383 89.14649248 -480.78125 87.80859375 C-481.70550781 87.42123047 -482.62976563 87.03386719 -483.58203125 86.63476562 C-484.54496094 86.23966797 -485.50789062 85.84457031 -486.5 85.4375 C-488.40737066 84.64723063 -490.3136702 83.85436976 -492.21875 83.05859375 C-493.06373047 82.71111084 -493.90871094 82.36362793 -494.77929688 82.00561523 C-497 81 -497 81 -500 79 C-501.66947199 78.6483486 -503.35368002 78.36395397 -505.04296875 78.125 C-510.85373045 77.14177225 -515.89942016 75.2759875 -521.3125 73 C-535.32137588 67.31977834 -549.61347645 62.61622334 -564 58 C-564.91168945 57.70544922 -565.82337891 57.41089844 -566.76269531 57.10742188 C-569.00402112 56.38940582 -571.24962015 55.68903438 -573.5 55 C-574.6446875 54.649375 -575.789375 54.29875 -576.96875 53.9375 C-581.64389219 52.71740802 -586.43645597 52.2035029 -591.21679688 51.55371094 C-597.51972316 50.63121243 -603.75056045 49.35166391 -610 48.125 C-682.64966087 34.13302265 -758.88636884 32.77506245 -830.83007812 51.47680664 C-833.15962793 52.03848815 -835.4955031 52.48142938 -837.8515625 52.91796875 C-843.47472497 54.01878804 -848.82789636 55.72780207 -854.25 57.5625 C-855.28560059 57.91111084 -856.32120117 58.25972168 -857.38818359 58.61889648 C-871.98145896 63.6137837 -886.34879237 69.24365623 -899.9296875 76.58984375 C-903 78 -903 78 -906.61328125 78.74609375 C-912.79778624 80.17379644 -917.96817885 83.83323119 -923.3125 87.125 C-924.90868164 88.0840625 -924.90868164 88.0840625 -926.53710938 89.0625 C-932.74933511 92.83759264 -938.69476166 96.83951613 -944.50878906 101.20336914 C-947.07760897 103.05597064 -949.71617082 104.69420317 -952.4375 106.3125 C-957.87244586 109.70644201 -962.38643614 113.8481683 -967.015625 118.2265625 C-969.8217651 120.86989525 -972.75275915 123.32405644 -975.75 125.75 C-976.65621094 126.48476562 -977.56242188 127.21953125 -978.49609375 127.9765625 C-979.98694752 129.1813398 -981.47877504 130.38491617 -982.97265625 131.5859375 C-989.71572556 137.22663667 -995.49408782 143.86104071 -1001.42724609 150.32519531 C-1002.7598796 151.74429898 -1004.14978162 153.10928395 -1005.55078125 154.4609375 C-1008.71490926 157.741134 -1011.30843096 161.33052233 -1014 165 C-1015.04561583 166.37404226 -1016.09511801 167.74513555 -1017.1484375 169.11328125 C-1019.93199273 172.73437391 -1022.7056383 176.3628364 -1025.47265625 179.99658203 C-1026.76935177 181.69745854 -1028.07158163 183.3941136 -1029.375 185.08984375 C-1033.58113361 190.68433005 -1037.00100282 196.41822385 -1040.1640625 202.6640625 C-1041.62701613 205.32228037 -1043.14769878 207.73804231 -1044.85546875 210.234375 C-1048.19593411 215.17132521 -1050.96019484 220.33059502 -1053.6875 225.625 C-1054.15994141 226.52734375 -1054.63238281 227.4296875 -1055.11914062 228.359375 C-1058.5204678 234.90442532 -1061.62162079 241.33289103 -1063.6875 248.4375 C-1064.99178123 252.80684212 -1066.373601 257.13014088 -1067.859375 261.44140625 C-1087.57545653 318.74214965 -1088.03703479 376.75865529 -1066.84521484 433.90771484 C-1063.20763827 444.05463898 -1062.67793239 452.55414869 -1066.81640625 462.62109375 C-1069.82694604 468.67198065 -1074.25320179 471.04516929 -1080.390625 473.26953125 C-1088.30859242 475.486088 -1094.81957175 473.7611767 -1102 470 C-1108.54680206 465.76383396 -1111.21536764 459.93415199 -1113.8125 452.8125 C-1114.06894287 452.11543945 -1114.32538574 451.41837891 -1114.58959961 450.70019531 C-1115.40291601 448.47020619 -1116.20376501 446.23614171 -1117 444 C-1117.25716797 443.28054199 -1117.51433594 442.56108398 -1117.77929688 441.81982422 C-1141.29164976 375.42584555 -1137.92396447 304.4696774 -1113.98828125 238.74169922 C-1113.15922912 236.44173494 -1112.36243581 234.13702212 -1111.59375 231.81640625 C-1108.83680327 223.61076413 -1105.18191053 216.0300634 -1101.21240234 208.36474609 C-1099.83440369 205.6770105 -1098.48760008 202.97488753 -1097.14453125 200.26953125 C-1096.65484863 199.28339844 -1096.16516602 198.29726562 -1095.66064453 197.28125 C-1094.69614817 195.33755166 -1093.73225749 193.39355263 -1092.76904297 191.44921875 C-1090.65058439 187.19852051 -1088.51352022 183.03413051 -1086 179 C-1085.41605469 177.97648438 -1084.83210938 176.95296875 -1084.23046875 175.8984375 C-1079.31743635 167.37227157 -1073.82404766 159.44895079 -1067.8737793 151.61083984 C-1065.3516336 148.273738 -1062.93119867 145.0271912 -1060.9453125 141.33984375 C-1058.745672 137.56335253 -1056.20428088 134.69002768 -1053.1875 131.5625 C-1052.11392085 130.42380132 -1051.04100081 129.28448084 -1049.96875 128.14453125 C-1049.45570312 127.6026416 -1048.94265625 127.06075195 -1048.4140625 126.50244141 C-1044.2839499 122.11419676 -1040.43919391 117.6063226 -1036.875 112.75 C-1031.21718819 105.36020498 -1023.92458467 99.19632152 -1016.7421875 93.3203125 C-1014.29261285 91.24759549 -1012.47511333 89.10887943 -1010.48046875 86.6171875 C-1006.93636913 82.74579636 -1002.51427353 78.93225873 -997.56640625 77.09765625 C-994.23716115 75.67373255 -992.11555206 73.62306532 -989.4375 71.1875 C-974.13398764 57.80722178 -955.66389095 47.88632978 -938 38 C-937.43544098 37.68353516 -936.87088196 37.36707031 -936.28921509 37.04101562 C-926.72093248 31.71051426 -916.96385077 27.22455879 -906.8125 23.125 C-906.0784494 22.82663239 -905.3443988 22.52826477 -904.58810425 22.22085571 C-899.40418586 20.1162207 -894.20729417 18.04607102 -889 16 C-888.36843994 15.75147278 -887.73687988 15.50294556 -887.08618164 15.24688721 C-805.04114503 -16.9094027 -713.4599099 -19.95425756 -507.8671875 23.45703125 C-503.724647 25.02134308 -499.57071128 26.4820082 -495.35444641 27.83540344 C-487.58652844 30.33290607 -480.33840718 33.45278168 -473 37 C-470.89372506 37.98043439 -468.78564752 38.9570056 -466.67578125 39.9296875 C-465.63566895 40.41131348 -464.59555664 40.89293945 -463.52392578 41.38916016 C-453.85759843 45.86150836 -444.1816633 50.30366696 -434.4309082 54.58935547 C-431.24847219 55.98930372 -428.08795176 57.40059935 -425 59 C-425 59.66 -425 60.32 -425 61 C-420.44952666 62.84185826 -417.7556118 63.15907384 -413 62 C-410.3600144 60.87107759 -407.84453061 59.53856549 -405.3125 58.1875 C-400.79794621 55.85038538 -396.38852041 53.63581367 -391.5625 52 C-387.07047787 50.46742775 -382.83278453 48.55787628 -378.5625 46.5 C-358.25556762 36.79947223 -337.5814602 28.50661498 -316.31486511 21.18318176 C-310.99149049 19.34946309 -305.68165212 17.47917336 -300.375 15.59765625 C-297.90769383 14.72431836 -295.44029221 13.85125059 -292.97286987 12.97824097 C-291.39724604 12.42048972 -289.82181841 11.8621838 -288.24661255 11.30325317 C-274.40036485 6.39554484 -260.67055533 1.55674201 -246.1953125 -1.1328125 C-241.17194096 -2.11898093 -236.25364952 -3.48253078 -231.3125 -4.8125 C-217.97767342 -8.36719362 -204.5286509 -11.28468636 -191 -14 C-189.56333984 -14.29003906 -189.56333984 -14.29003906 -188.09765625 -14.5859375 C-175.33119637 -17.11358666 -162.48798306 -18.74186057 -149.5625 -20.1875 C-148.80799561 -20.27235657 -148.05349121 -20.35721313 -147.27612305 -20.44464111 C-97.46798032 -25.98838353 -44.97263023 -24.35584709 0 0 Z " fill="#174480" transform="translate(1136,26)"/>
<path d="M0 0 C1.32102219 0.00040787 1.32102219 0.00040787 2.66873169 0.00082397 C19.77414489 0.02507321 36.54220507 0.88379719 53.4375 3.6875 C54.15284912 3.80585205 54.86819824 3.9242041 55.60522461 4.04614258 C57.272672 4.35415572 58.92130116 4.76121459 60.5625 5.1875 C69.7297791 23.52205821 58.55430726 59.2053269 52.5625 77.1875 C45.1886639 98.582892 34.3997892 118.59589353 21.5625 137.1875 C21.14258789 137.79883789 20.72267578 138.41017578 20.29003906 139.04003906 C10.57667202 153.10584379 -0.12852972 166.37816882 -11.4375 179.1875 C-12.10241455 179.94135986 -12.10241455 179.94135986 -12.78076172 180.71044922 C-19.79537978 188.60418391 -27.23469711 196.08589217 -34.6875 203.5625 C-35.1593573 204.03703613 -35.6312146 204.51157227 -36.11737061 205.00048828 C-41.25296482 210.15819076 -46.3890981 215.17279643 -52.06542969 219.73681641 C-53.78107377 221.21796523 -53.78107377 221.21796523 -53.4375 224.1875 C-51.91309887 226.24604169 -50.37315155 228.14346364 -48.6875 230.0625 C-48.19306396 230.63476318 -47.69862793 231.20702637 -47.18920898 231.79663086 C-33.06165388 248.04365247 -18.10211757 262.97849774 -1.4375 276.625 C-0.66277344 277.26115234 0.11195313 277.89730469 0.91015625 278.55273438 C2.79333611 280.09880179 4.67745775 281.64370433 6.5625 283.1875 C22.72885272 271.13617324 37.12953521 257.68451167 51.4375 243.5 C52.30487793 242.64567383 53.17225586 241.79134766 54.06591797 240.91113281 C59.24955808 235.73443729 64.01530351 230.37308319 68.57739258 224.64013672 C70.4352521 222.34471712 72.36770428 220.16476317 74.375 218 C112.88530182 174.87451466 141.82126642 116.13625015 151.5625 59.1875 C147.9325 57.2075 144.3025 55.2275 140.5625 53.1875 C140.02882813 54.99089844 139.49515625 56.79429687 138.9453125 58.65234375 C123.06056657 111.55573684 97.42751342 160.5287719 63.5625 204.1875 C63.13227539 204.74244141 62.70205078 205.29738281 62.25878906 205.86914062 C54.0281275 216.46560625 45.699882 226.95145887 36.66015625 236.875 C34.86742554 238.85134372 33.11454773 240.8520673 31.375 242.875 C24.71210042 250.53024633 17.77119914 258.04215331 10.5625 265.1875 C6.16009124 263.54988901 3.50897039 260.20531644 0.4375 256.8125 C-0.10003906 256.235 -0.63757813 255.6575 -1.19140625 255.0625 C-3.79768134 252.21574566 -5.80700506 249.71721075 -7.4375 246.1875 C-6.98947021 245.74470703 -6.54144043 245.30191406 -6.07983398 244.84570312 C-4.00879904 242.79573317 -1.94189303 240.74164567 0.125 238.6875 C0.82947266 237.99140625 1.53394531 237.2953125 2.25976562 236.578125 C6.91004587 231.94927462 11.29236199 227.16690661 15.5625 222.1875 C16.60792933 220.99612571 17.65477229 219.80599017 18.703125 218.6171875 C25.94749758 210.35434475 32.92080627 201.94245992 39.5625 193.1875 C40.09456055 192.4867334 40.62662109 191.7859668 41.17480469 191.06396484 C53.97673274 174.12154015 65.97136951 156.6016246 76.5625 138.1875 C76.93761719 137.54409668 77.31273437 136.90069336 77.69921875 136.23779297 C99.41874801 98.86901817 113.40610389 59.53779814 121.5625 17.1875 C133.0996256 20.95705589 143.88547276 25.41022414 154.5625 31.1875 C155.63371094 31.765 156.70492188 32.3425 157.80859375 32.9375 C160.78307668 34.6084709 163.67030052 36.37841952 166.5625 38.1875 C167.69816406 38.82945312 168.83382813 39.47140625 170.00390625 40.1328125 C173.38581782 42.25679404 175.98723816 44.13194954 178.5625 47.1875 C179.50200674 51.38506227 178.93162774 54.94752257 178.01269531 59.12109375 C177.53981906 61.29160601 177.16713225 63.46472359 176.8046875 65.65625 C162.60304081 147.50479363 111.65274224 228.95970617 48.49609375 282.53125 C46.25913065 284.44735577 44.10446422 286.44262856 41.9375 288.4375 C36.32838542 293.4977104 30.40927702 298.11201472 24.43847656 302.73193359 C21.17558476 305.26360472 17.9327991 307.82084481 14.6875 310.375 C13.50269059 311.30609957 12.31780302 312.23709969 11.1328125 313.16796875 C10.28460938 313.83441406 9.43640625 314.50085938 8.5625 315.1875 C2.20466332 311.88463087 -3.45620975 308.13885704 -9.0625 303.6875 C-9.8344873 303.08019043 -10.60647461 302.47288086 -11.40185547 301.84716797 C-21.25327189 294.03760063 -30.94184943 285.98472473 -39.6875 276.9375 C-41.5059113 275.1190887 -43.4099413 273.47051828 -45.375 271.8125 C-49.2946799 268.43530991 -52.68964077 264.71556673 -56.1015625 260.83203125 C-57.6331818 259.09807428 -59.18996807 257.38595792 -60.7734375 255.69921875 C-71.37133316 244.39822645 -80.43838758 231.77538232 -89.4375 219.1875 C-87.98451296 215.66323355 -86.20975083 213.9691993 -83.1875 211.6875 C-74.09238128 204.62230633 -65.22481851 197.24532926 -57.2109375 188.9609375 C-55.44443361 187.19443361 -53.60284458 185.60263526 -51.6875 184 C-46.3288538 179.38590151 -41.69513036 174.09273507 -36.95898438 168.85742188 C-35.5232416 167.28160663 -34.0709844 165.7236819 -32.609375 164.171875 C-26.27741169 157.42685969 -20.45977596 150.3895911 -14.85107422 143.03369141 C-13.42562557 141.17199147 -11.98149687 139.32596652 -10.53515625 137.48046875 C11.6288014 108.91497192 36.13961603 69.31697032 35.625 31.75 C35.60416667 30.22916667 35.58333333 28.70833333 35.5625 27.1875 C24.17503666 25.95793155 12.75352357 25.85517333 1.3125 25.625 C-0.70443435 25.58171745 -2.72136155 25.53810039 -4.73828125 25.49414062 C-9.63794692 25.38806979 -14.53768714 25.28652793 -19.4375 25.1875 C-19.61746521 25.83075226 -19.79743042 26.47400452 -19.98284912 27.13674927 C-29.51936846 60.83695845 -48.5425211 93.2819308 -69.4375 121.1875 C-69.83501465 121.72246094 -70.2325293 122.25742187 -70.64208984 122.80859375 C-81.57884132 137.49068748 -93.79127962 150.96832382 -106.4375 164.1875 C-107.31535156 165.10789062 -108.19320312 166.02828125 -109.09765625 166.9765625 C-112.99210887 170.9770347 -112.99210887 170.9770347 -114.4375 172.1875 C-115.0975 172.1875 -115.7575 172.1875 -116.4375 172.1875 C-137.78252168 135.18363045 -148.346148 95.47782919 -153.4375 53.1875 C-153.57414063 52.28902344 -153.71078125 51.39054687 -153.8515625 50.46484375 C-154.17293657 46.89997215 -154.25987807 44.28789793 -152.0625 41.34765625 C-149.64339489 39.33961002 -147.14896432 37.78447773 -144.4375 36.1875 C-143.82551758 35.81657227 -143.21353516 35.44564453 -142.58300781 35.06347656 C-114.64356133 18.24016114 -85.05598802 10.53213887 -53.4375 4.1875 C-52.4375 7.1875 -52.4375 7.1875 -53.96948242 10.74316406 C-54.73363684 12.23515947 -55.50900895 13.72144039 -56.29296875 15.203125 C-56.70608307 16.00281708 -57.11919739 16.80250916 -57.54483032 17.62643433 C-58.89540982 20.23516818 -60.2600034 22.83628512 -61.625 25.4375 C-62.55319405 27.22334544 -63.48052009 29.00964229 -64.40698242 30.79638672 C-66.67103597 35.1576429 -68.94596392 39.51311123 -71.2244873 43.86682129 C-73.42155556 48.07014871 -75.60104689 52.28255929 -77.78271484 56.49389648 C-79.19120595 59.19955869 -80.61760715 61.89511583 -82.046875 64.58984375 C-83.56520893 67.46484813 -84.99323568 70.3519964 -86.328125 73.31640625 C-89.09988212 79.21610423 -90.88657038 82.58034524 -97.125 85 C-100.46432399 85.93047641 -102.92592375 86.1875 -106.4375 86.1875 C-107.63963133 82.75494035 -108.82164794 79.31578802 -110 75.875 C-110.34224609 74.89853516 -110.68449219 73.92207031 -111.03710938 72.91601562 C-111.35615234 71.97822266 -111.67519531 71.04042969 -112.00390625 70.07421875 C-112.45165405 68.77810669 -112.45165405 68.77810669 -112.90844727 67.45581055 C-113.4375 65.1875 -113.4375 65.1875 -112.4375 62.1875 C-111.4475 61.8575 -110.4575 61.5275 -109.4375 61.1875 C-108.19255044 59.38896058 -108.19255044 59.38896058 -107.17578125 57.15234375 C-106.77939453 56.34345703 -106.38300781 55.53457031 -105.97460938 54.70117188 C-105.57048828 53.85103516 -105.16636719 53.00089844 -104.75 52.125 C-104.33427734 51.27099609 -103.91855469 50.41699219 -103.49023438 49.53710938 C-102.46356515 47.42476695 -101.44649792 45.30832567 -100.4375 43.1875 C-103.29448583 44.4311238 -106.14752546 45.68356731 -109 46.9375 C-109.79986328 47.28554687 -110.59972656 47.63359375 -111.42382812 47.9921875 C-115.19567148 49.65487763 -118.8468676 51.36242759 -122.40234375 53.453125 C-125.4375 55.1875 -125.4375 55.1875 -127.4375 55.1875 C-123.4431279 80.2367704 -118.34420439 104.36601845 -109.4375 128.1875 C-105.46088721 125.24764697 -102.42505314 121.96579102 -99.4375 118.0625 C-98.73246338 117.14887695 -98.73246338 117.14887695 -98.01318359 116.21679688 C-96.4781178 114.21431839 -94.95672318 112.20201851 -93.4375 110.1875 C-92.9209082 109.50848633 -92.40431641 108.82947266 -91.87207031 108.12988281 C-82.72566527 96.04940583 -74.83361209 83.40503787 -67.4375 70.1875 C-66.95007324 69.31722168 -66.46264648 68.44694336 -65.96044922 67.55029297 C-55.39234112 48.48448978 -46.85027502 28.44551723 -40.65234375 7.5390625 C-39.9375 5.3125 -39.9375 5.3125 -38.4375 2.1875 C-26.60193255 -1.34762977 -12.26856762 -0.01426092 0 0 Z " fill="#FFFFFF" transform="translate(313.4375,180.8125)"/>
<path d="M0 0 C3.80147249 3.45666773 7.4151179 8.82931492 7.99609375 14 C8.26162891 21.85371313 7.55222932 28.1748523 2.72265625 34.56640625 C-6.10168067 43.20128115 -17.39850295 49.22996109 -28.09765625 55.19140625 C-30.613564 56.5946165 -32.96751537 58.03118005 -35.36328125 59.64453125 C-38.71527566 61.85522998 -42.16598447 63.57742368 -45.77734375 65.31640625 C-53.47017998 69.09287339 -60.87000671 73.25600014 -68.27734375 77.56640625 C-83.72943021 86.5399228 -83.72943021 86.5399228 -91.4140625 89.35546875 C-95.54907081 91.10424443 -99.45004561 93.25443866 -103.40234375 95.37890625 C-110.05735116 98.94936018 -116.74551415 102.21124533 -123.69848633 105.15673828 C-127.74891897 106.87690431 -131.67871135 108.7380141 -135.58984375 110.75390625 C-140.12167943 113.06868485 -144.65932652 114.85296926 -149.4609375 116.51953125 C-153.61293203 118.06285238 -157.56808629 119.98278633 -161.57421875 121.8671875 C-168.24376254 124.96585315 -175.06184737 127.73417093 -181.85205078 130.55517578 C-184.23579055 131.54908056 -186.61436752 132.55452733 -188.9921875 133.5625 C-190.48295766 134.18907638 -191.97383828 134.81539002 -193.46484375 135.44140625 C-194.13483398 135.72749756 -194.80482422 136.01358887 -195.49511719 136.30834961 C-199.24192799 137.86983348 -202.87874374 138.97001834 -206.84008789 139.89990234 C-212.07342384 141.33103598 -217.14268626 143.31474447 -222.24154663 145.16116333 C-235.08541598 149.7989602 -247.9975557 154.20540631 -261.00994873 158.347229 C-262.62237849 158.86065204 -264.23394253 159.37680346 -265.84454346 159.89593506 C-274.72148547 162.75117631 -283.45057598 165.14542938 -292.62524414 166.8527832 C-298.28353326 167.95841721 -303.84268239 169.42322763 -309.42214966 170.86846924 C-358.8758375 183.61620581 -410.05370601 191.7717269 -461.21484375 191.81640625 C-462.02905792 191.81741333 -462.84327209 191.81842041 -463.68215942 191.81945801 C-513.05465216 191.77872509 -573.87338092 185.31507187 -611.77734375 150.25390625 C-612.60234375 149.36703125 -613.42734375 148.48015625 -614.27734375 147.56640625 C-614.97859375 146.85871094 -615.67984375 146.15101563 -616.40234375 145.421875 C-623.6603955 137.84150845 -628.41210564 130.71372352 -628.90234375 120.00390625 C-628.58764188 112.45106129 -626.18321529 106.54874809 -620.90234375 101.12890625 C-613.55054137 96.7528334 -607.87547185 95.58188777 -599.27734375 96.56640625 C-592.95695266 98.19465105 -588.56952322 100.57819767 -584.27734375 105.56640625 C-579.94646288 110.24502208 -575.90320358 113.610446 -570.27734375 116.56640625 C-568.78907308 117.42583016 -567.30985807 118.30111589 -565.83984375 119.19140625 C-565.16050781 119.59617187 -564.48117187 120.0009375 -563.78125 120.41796875 C-563.03681641 120.98644531 -563.03681641 120.98644531 -562.27734375 121.56640625 C-562.27734375 122.22640625 -562.27734375 122.88640625 -562.27734375 123.56640625 C-561.6649585 123.74308838 -561.05257324 123.91977051 -560.42163086 124.10180664 C-555.29251807 125.60725492 -550.26353466 127.26232435 -545.25097656 129.11669922 C-518.24747317 139.05298226 -491.05854689 139.77314153 -462.58984375 139.69140625 C-461.52720306 139.68885834 -460.46456238 139.68631042 -459.36972046 139.6836853 C-453.19067664 139.66631522 -447.01188898 139.63395379 -440.83300781 139.58599854 C-438.66473299 139.56937606 -436.49642998 139.55649761 -434.328125 139.54443359 C-391.66072577 139.16115458 -349.36933444 128.63016861 -308.2734375 118.17578125 C-306.89264008 117.82608025 -306.89264008 117.82608025 -305.48394775 117.46931458 C-301.9544072 116.56432374 -298.48508909 115.63609189 -295.02905273 114.47680664 C-292.11487171 113.51265253 -289.27172003 112.94591965 -286.25390625 112.390625 C-277.09544803 110.4716985 -268.35328014 107.42771502 -259.52099609 104.37084961 C-256.68137098 103.38894349 -253.8372619 102.42106526 -250.9921875 101.45507812 C-240.85438439 97.98845276 -230.84086369 94.32154447 -220.95321655 90.18940735 C-217.37244151 88.71075209 -213.89353616 87.39852675 -210.12084961 86.5 C-206.44636788 85.60746248 -203.16686998 84.44103034 -199.6796875 82.9921875 C-198.4728833 82.49275635 -197.2660791 81.9933252 -196.02270508 81.47875977 C-194.75324195 80.94589439 -193.48395781 80.41260246 -192.21484375 79.87890625 C-190.90717422 79.33318236 -189.59947552 78.78752839 -188.29174805 78.24194336 C-176.92377469 73.48224611 -165.70442497 68.49766293 -154.81640625 62.70703125 C-152.27734375 61.56640625 -152.27734375 61.56640625 -148.4765625 60.41015625 C-141.87783454 58.26040591 -135.76247435 55.01384167 -129.58569336 51.88867188 C-127.48335897 50.82576723 -125.37595134 49.773522 -123.26757812 48.72265625 C-115.96690076 45.06371239 -108.83640873 41.25992448 -101.85205078 37.02124023 C-98.53117485 35.14478474 -95.10664015 33.80363245 -91.5390625 32.4765625 C-89.31688539 31.58231851 -87.33662463 30.53499102 -85.27734375 29.31640625 C-82.27734375 27.56640625 -82.27734375 27.56640625 -80.27734375 27.56640625 C-80.27734375 26.90640625 -80.27734375 26.24640625 -80.27734375 25.56640625 C-79.32480713 25.05255371 -79.32480713 25.05255371 -78.35302734 24.52832031 C-75.45116347 22.96068931 -72.55174329 21.38859011 -69.65234375 19.81640625 C-68.65332031 19.27757812 -67.65429688 18.73875 -66.625 18.18359375 C-60.64704683 14.96597725 -60.64704683 14.96597725 -54.94140625 11.30078125 C-52.27734375 9.56640625 -52.27734375 9.56640625 -49.41015625 8.625 C-45.24688673 7.21820943 -41.85930803 4.95402406 -38.15234375 2.62890625 C-25.73884797 -4.85927786 -12.97719373 -8.92681704 0 0 Z " fill="#174480" transform="translate(984.27734375,406.43359375)"/>
<path d="M0 0 C3.15938177 2.71634203 5.50935973 5.74778431 6 10 C6.66 10 7.32 10 8 10 C12.30463641 25.49669109 11.13853021 41.42127214 10.1875 57.3125 C10.14365173 58.0513443 10.09980347 58.7901886 10.05462646 59.55142212 C8.23869252 89.58383384 3.28098197 117.17753748 -9.87109375 144.5234375 C-11.16494816 147.3618586 -12.19639597 150.25169487 -13.25 153.1875 C-17.72956721 164.99346218 -24.67475198 175.64919979 -31.40893555 186.27612305 C-33.87702161 190.17292417 -36.23028314 194.10770772 -38.5 198.125 C-41.1586668 202.73041571 -44.05264817 207.10239795 -47.125 211.4375 C-47.53298828 212.01709473 -47.94097656 212.59668945 -48.36132812 213.19384766 C-50.96510585 216.80611602 -53.82321287 219.8912495 -57 223 C-57.96965263 224.20396458 -58.91088395 225.43177493 -59.8125 226.6875 C-60.32683594 227.38101563 -60.84117187 228.07453125 -61.37109375 228.7890625 C-62.45337781 230.25806197 -63.52896727 231.73201827 -64.59765625 233.2109375 C-69.4965064 239.69249308 -75.1768719 245.05560649 -81.14282227 250.52807617 C-84.73738234 253.83594581 -88.15205571 257.13873977 -91.3125 260.875 C-95.97389727 266.33401413 -101.79890642 272.32471729 -108.546875 275.015625 C-111.45676784 276.18328901 -113.21949098 277.73196975 -115.5625 279.8125 C-127.7844984 289.98666356 -141.54986831 297.95022274 -155.5 305.5 C-156.560979 306.07516357 -157.62195801 306.65032715 -158.71508789 307.24291992 C-184.04228937 320.70793933 -184.04228937 320.70793933 -198.1875 316.6875 C-204.25238378 314.64732503 -207.57482421 313.19419264 -210.75 307.4375 C-214.42778204 299.41853853 -214.82192721 292.61236563 -211.9609375 284.265625 C-210.25748308 280.24935035 -208.09911508 277.09911508 -205 274 C-203.0049994 273.31851849 -201.00421358 272.6538902 -199 272 C-194.79768743 270.00238846 -190.71965976 267.77134943 -186.625 265.5625 C-184.88802856 264.62784912 -184.88802856 264.62784912 -183.1159668 263.67431641 C-175.14791219 259.3234598 -167.60576245 254.64345068 -160.26953125 249.3046875 C-158.02523928 247.67636342 -155.74874907 246.23847054 -153.33203125 244.87890625 C-150.68690491 243.38734029 -148.29037387 241.88666311 -145.875 240.0625 C-144.94300781 239.36833984 -144.94300781 239.36833984 -143.9921875 238.66015625 C-141.50230588 236.5852549 -139.27972451 234.30350703 -137 232 C-135.07297136 230.17397424 -133.14050084 228.36010552 -131.1875 226.5625 C-130.39811035 225.83365601 -130.39811035 225.83365601 -129.59277344 225.09008789 C-126.7596699 222.50433942 -123.90118588 220.12149021 -120.75 217.9375 C-116.83376537 215.11267502 -114.18568359 211.66293176 -111.26953125 207.84375 C-108.64221441 204.55169035 -105.82181796 201.50331416 -102.9375 198.4375 C-96.94007402 192.02249623 -91.24971078 185.5938943 -87.03515625 177.83984375 C-85.73156958 175.52290292 -84.31976153 173.29404733 -82.875 171.0625 C-82.37742187 170.29035156 -81.87984375 169.51820313 -81.3671875 168.72265625 C-80.69042969 167.86994141 -80.69042969 167.86994141 -80 167 C-79.34 167 -78.68 167 -78 167 C-77.77183594 166.34644531 -77.54367187 165.69289063 -77.30859375 165.01953125 C-75.92688674 161.83129388 -74.26489088 158.99339754 -72.47143555 156.02441406 C-65.29905085 144.12802413 -59.54443152 131.72080893 -54 119 C-53.67628418 118.27296875 -53.35256836 117.5459375 -53.01904297 116.796875 C-49.7698985 109.4748593 -47.28951105 102.04608507 -45.25 94.3125 C-45.05100098 93.58385742 -44.85200195 92.85521484 -44.64697266 92.10449219 C-40.17878661 74.00929753 -40.49872241 54.67651891 -39.97094727 36.16357422 C-39.87895682 33.03303179 -39.77054586 29.90337773 -39.66015625 26.7734375 C-39.63816666 25.83785004 -39.61617706 24.90226257 -39.59352112 23.93832397 C-39.30726147 16.25239283 -37.98457006 9.24747829 -33.9375 2.625 C-24.3109473 -5.97745135 -10.97550447 -6.4468729 0 0 Z " fill="#174480" transform="translate(1044,406)"/>
<path d="M0 0 C3.20111757 -0.00963902 6.40157319 -0.04070958 9.60253906 -0.07226562 C46.05774347 -0.25868109 88.74707654 6.27016501 116.36816406 32.24023438 C117.23828125 33.03171875 118.10839844 33.82320312 119.00488281 34.63867188 C134.03056783 48.87825977 142.87728378 68.60332156 143.75097656 89.22851562 C144.28570666 111.93208325 140.61474137 131.19956599 132.36816406 152.24023438 C132.10696777 152.90909668 131.84577148 153.57795898 131.57666016 154.26708984 C123.45175955 174.67077915 112.45995068 193.96093892 100.36816406 212.24023438 C96.99353691 211.69299754 95.28581407 211.18533438 92.36816406 209.24023438 C94.02546147 204.45560739 96.62759224 200.43621637 99.30566406 196.17773438 C110.220188 178.46761348 119.17942631 160.80179725 126.36816406 141.24023438 C126.65449707 140.47195312 126.94083008 139.70367187 127.23583984 138.91210938 C135.82489498 115.46437451 138.12337932 87.31946937 128.68066406 63.80273438 C118.49090042 42.12451172 100.04756847 28.98174221 78.36816406 20.24023438 C74.08086665 18.69561914 69.77257713 17.40562566 65.36816406 16.24023438 C64.40265625 15.97597656 63.43714844 15.71171875 62.44238281 15.43945312 C40.93737911 10.00044441 18.46451169 8.80661085 -3.63183594 9.24023438 C-4.44233398 9.25280273 -5.25283203 9.26537109 -6.08789062 9.27832031 C-35.75187999 9.83120562 -64.72964353 14.79826167 -93.69372559 20.83856201 C-96.51695111 21.42367404 -99.34417199 21.98871993 -102.17089844 22.55664062 C-114.7572558 25.1331519 -127.02503955 28.50542199 -139.31396484 32.23828125 C-142.90850165 33.32378375 -146.50969058 34.38498507 -150.11230469 35.44335938 C-164.42734072 39.6582957 -178.63646656 44.05023241 -192.63183594 49.24023438 C-194.189104 49.81547852 -194.189104 49.81547852 -195.77783203 50.40234375 C-210.10749557 55.71649237 -224.33789753 61.26282099 -238.50683594 66.99023438 C-239.15857788 67.2524176 -239.81031982 67.51460083 -240.48181152 67.784729 C-249.37807369 71.36978567 -258.08898975 75.25349711 -266.75653076 79.35845947 C-269.88792671 80.83085255 -273.03786219 82.26227511 -276.18652344 83.69726562 C-278.01512245 84.53504894 -279.84329076 85.37376612 -281.67138672 86.21264648 C-282.91913255 86.78374164 -284.16786986 87.3526745 -285.41748047 87.91967773 C-287.25982898 88.75635791 -289.09825373 89.60166156 -290.93652344 90.44726562 C-292.0088623 90.93686768 -293.08120117 91.42646973 -294.18603516 91.9309082 C-296.75361791 93.00256866 -296.75361791 93.00256866 -297.63183594 95.24023438 C-295.96121094 96.23990234 -295.96121094 96.23990234 -294.25683594 97.25976562 C-273.34992531 109.85008961 -252.99880125 123.69673515 -234.55371094 139.72070312 C-231.71259277 142.17059781 -228.81143072 144.52236783 -225.88183594 146.86523438 C-221.56022244 150.3777214 -217.63601606 154.12832216 -213.75292969 158.11523438 C-211.13373448 160.73925314 -208.35730342 163.13505213 -205.54589844 165.54882812 C-202.42990607 168.30234791 -199.53755506 171.26830899 -196.63183594 174.24023438 C-195.82746094 175.04460937 -195.02308594 175.84898437 -194.19433594 176.67773438 C-193.67871094 177.19335938 -193.16308594 177.70898438 -192.63183594 178.24023438 C-193.96515689 182.24019723 -196.12761864 183.07805774 -199.63183594 185.24023438 C-200.31246094 184.47582031 -200.99308594 183.71140625 -201.69433594 182.92382812 C-217.6363402 165.22635553 -235.56542752 149.48467946 -254.63183594 135.24023438 C-255.20482422 134.80888184 -255.7778125 134.3775293 -256.36816406 133.93310547 C-265.75942721 126.874195 -275.39240209 120.22917662 -285.23339844 113.81347656 C-287.7640531 112.15350724 -290.27556892 110.466569 -292.78808594 108.77929688 C-294.48525366 107.66097195 -296.18315124 106.54375373 -297.88183594 105.42773438 C-298.6678418 104.89349854 -299.45384766 104.3592627 -300.26367188 103.80883789 C-301.00907227 103.32600342 -301.75447266 102.84316895 -302.52246094 102.34570312 C-303.49747559 101.69831177 -303.49747559 101.69831177 -304.4921875 101.0378418 C-308.33668595 99.60470893 -311.5819357 100.79769578 -315.24291992 102.34082031 C-316.11247314 102.7974707 -316.98202637 103.25412109 -317.87792969 103.72460938 C-318.86809082 104.24087891 -319.85825195 104.75714844 -320.87841797 105.2890625 C-322.45792236 106.13114258 -322.45792236 106.13114258 -324.06933594 106.99023438 C-325.17390137 107.57224609 -326.2784668 108.15425781 -327.41650391 108.75390625 C-337.65802039 114.18370726 -347.74939689 119.8663473 -357.80664062 125.62841797 C-360.60843962 127.22688642 -363.41894823 128.80869314 -366.23339844 130.38476562 C-381.17945465 138.75968858 -395.93473076 147.43720143 -410.63183594 156.24023438 C-412.20457275 157.17947754 -412.20457275 157.17947754 -413.80908203 158.13769531 C-426.03608251 165.45028164 -438.06423534 172.91801932 -449.63183594 181.24023438 C-450.37884766 181.77616211 -451.12585938 182.31208984 -451.89550781 182.86425781 C-461.3206114 189.65234598 -470.55055939 196.62218517 -479.46972656 204.06591797 C-482.72633484 206.77083678 -485.90996577 209.18117693 -489.63183594 211.24023438 C-491.28183594 208.93023437 -492.93183594 206.62023437 -494.63183594 204.24023438 C-458.19099497 174.05948201 -418.65792602 149.60763538 -377.63183594 126.24023438 C-376.64876465 125.67852539 -375.66569336 125.11681641 -374.65283203 124.53808594 C-363.81131432 118.34656435 -352.9155394 112.26166077 -341.94433594 106.30273438 C-340.98897949 105.78308105 -340.03362305 105.26342773 -339.04931641 104.72802734 C-332.31326248 101.08847044 -325.49726776 97.62892664 -318.63183594 94.24023438 C-326.27378259 89.47642348 -334.14117343 85.26301981 -342.19433594 81.24023438 C-342.83844421 80.91831116 -343.48255249 80.59638794 -344.1461792 80.26470947 C-371.13527351 66.83390702 -399.12088448 55.97247872 -427.63183594 46.24023438 C-428.60766632 45.90605499 -428.60766632 45.90605499 -429.60321045 45.56512451 C-466.15153385 33.09009786 -504.31598214 26.87497187 -542.59454346 22.47454834 C-543.9386035 22.31996472 -545.28248159 22.16378973 -546.62615967 22.00592041 C-566.42468128 19.68819641 -586.07422969 18.97213291 -606.00683594 18.99023438 C-607.61322937 18.9912616 -607.61322937 18.9912616 -609.2520752 18.99230957 C-630.01115955 19.03617072 -650.53317158 19.77281794 -671.13183594 22.42773438 C-671.99035156 22.53694214 -672.84886719 22.6461499 -673.73339844 22.75866699 C-753.04737739 32.93978016 -828.20150845 64.00415445 -887.09375 118.81982422 C-888.65459292 120.26125027 -890.23030704 121.68448768 -891.81152344 123.10351562 C-896.77928753 127.57211903 -901.58430679 132.04733297 -905.88183594 137.18164062 C-907.92967908 139.59059897 -910.09336163 141.87210871 -912.25683594 144.17773438 C-967.51834042 204.88991836 -995.92117175 285.74693951 -992.63183594 367.24023438 C-991.00603808 397.39276309 -983.05637552 426.39244721 -971.63183594 454.24023438 C-975.59183594 456.22023438 -975.59183594 456.22023438 -979.63183594 458.24023438 C-1010.99790754 390.75565608 -1008.75121863 313.51226348 -983.56933594 244.55273438 C-975.95215753 224.35021569 -966.28707817 204.42133805 -954.63183594 186.24023438 C-953.94057617 185.15790527 -953.94057617 185.15790527 -953.23535156 184.05371094 C-941.23521702 165.39662593 -927.81207602 148.10949357 -912.88183594 131.71289062 C-911.28701785 129.960252 -909.70491724 128.19600253 -908.13183594 126.42382812 C-903.90027011 121.68266824 -899.67065024 117.18783839 -894.80371094 113.09960938 C-892.64974938 111.25557034 -890.57921676 109.33690757 -888.51171875 107.39697266 C-881.55262641 100.89173417 -874.24023971 94.96711339 -866.63183594 89.24023438 C-865.95910645 88.73234375 -865.28637695 88.22445312 -864.59326172 87.70117188 C-826.29639065 58.96746034 -782.0079737 37.31629651 -735.63183594 25.24023438 C-734.6323291 24.97645996 -733.63282227 24.71268555 -732.60302734 24.44091797 C-718.90302258 20.86501153 -705.1684197 17.78793236 -691.19433594 15.49023438 C-690.0804248 15.30396484 -688.96651367 15.11769531 -687.81884766 14.92578125 C-683.76436696 14.2937376 -679.70318398 13.74911613 -675.63183594 13.24023438 C-674.63742493 13.11388611 -673.64301392 12.98753784 -672.61846924 12.85736084 C-652.76900562 10.40987763 -633.17286144 9.76331484 -613.19287109 9.84912109 C-609.19583947 9.86615347 -605.1994101 9.85605629 -601.20239925 9.83880806 C-572.41678945 9.73352959 -544.03806285 11.72009545 -515.56933594 16.11523438 C-514.71383148 16.24440247 -513.85832703 16.37357056 -512.97689819 16.50665283 C-452.21952812 25.68293846 -392.20462086 44.79739981 -337.63183594 73.24023438 C-336.63200684 73.76117676 -335.63217773 74.28211914 -334.60205078 74.81884766 C-333.50199707 75.39231934 -332.40194336 75.96579102 -331.26855469 76.55664062 C-329.58125244 77.43582153 -329.58125244 77.43582153 -327.85986328 78.33276367 C-325.62021961 79.50157271 -323.3822017 80.67350345 -321.14599609 81.84887695 C-320.11651855 82.38794678 -319.08704102 82.9270166 -318.02636719 83.48242188 C-317.10702393 83.96565918 -316.18768066 84.44889648 -315.24047852 84.94677734 C-314.37962646 85.37361816 -313.51877441 85.80045898 -312.63183594 86.24023438 C-311.81328125 86.67609863 -310.99472656 87.11196289 -310.15136719 87.56103516 C-306.62463942 88.51174801 -305.13922957 87.52252843 -301.92480469 85.86523438 C-300.23460205 85.01638672 -300.23460205 85.01638672 -298.51025391 84.15039062 C-297.6113443 83.68463623 -297.6113443 83.68463623 -296.6942749 83.20947266 C-293.45057566 81.53266208 -290.17419047 79.9217447 -286.90136719 78.30273438 C-286.21989624 77.96395264 -285.53842529 77.6251709 -284.83630371 77.27612305 C-250.37728198 60.21976801 -214.0176903 46.54261493 -177.63183594 34.24023438 C-176.63313477 33.90185547 -176.63313477 33.90185547 -175.61425781 33.55664062 C-129.24523517 17.87366718 -81.36388848 6.30578118 -32.63183594 1.24023438 C-31.78524414 1.14307129 -30.93865234 1.0459082 -30.06640625 0.94580078 C-20.07575226 -0.06782295 -10.03146373 0.01817843 0 0 Z " fill="#F6F6F9" transform="translate(1027.6318359375,24.759765625)"/>
<path d="M0 0 C11.88 2.475 11.88 2.475 24 5 C19.87845763 46.21542373 8.76380657 82.99184403 -10 120 C-10.66563965 121.3307959 -10.66563965 121.3307959 -11.34472656 122.68847656 C-16.84867575 133.6671652 -22.92231347 143.9668264 -30 154 C-30.4125 154.59119629 -30.825 155.18239258 -31.25 155.79150391 C-39.96614002 168.27669353 -49.23101727 180.31865524 -59 192 C-59.44037598 192.52674316 -59.88075195 193.05348633 -60.33447266 193.59619141 C-68.2459258 203.02664355 -76.51003641 212.08865955 -85 221 C-85.47695313 221.50563477 -85.95390625 222.01126953 -86.4453125 222.53222656 C-87.68391367 223.84235514 -88.93519217 225.14046689 -90.1875 226.4375 C-90.86167969 227.13746094 -91.53585937 227.83742188 -92.23046875 228.55859375 C-94 230 -94 230 -97 230 C-98.54296875 228.53125 -98.54296875 228.53125 -100.1875 226.5 C-103.39716894 222.62365464 -106.86083047 219.23014562 -110.59375 215.859375 C-112 214 -112 214 -111.84765625 212.1574707 C-110.7170676 209.27987512 -109.06844745 207.76419122 -106.84375 205.62109375 C-105.99006836 204.78747314 -105.13638672 203.95385254 -104.25683594 203.0949707 C-103.34708008 202.21800537 -102.43732422 201.34104004 -101.5 200.4375 C-95.22286696 194.28328588 -89.17644937 188.22473341 -83.78125 181.27734375 C-82.02960919 179.03785561 -80.1771935 176.96410935 -78.25 174.875 C-48.78454158 142.01867533 -27.38065308 102.49845603 -13 61 C-12.68450195 60.10635742 -12.36900391 59.21271484 -12.04394531 58.29199219 C-7.1480925 44.12275188 -5.0999868 29.39694006 -2.91479492 14.61938477 C-2.79378418 13.80254211 -2.67277344 12.98569946 -2.5480957 12.144104 C-2.31995599 10.59130915 -2.09543938 9.03797654 -1.875 7.48406982 C-1.10845657 2.21691313 -1.10845657 2.21691313 0 0 Z " fill="#FFFFFF" transform="translate(392,188)"/>
<path d="M0 0 C3 1 3 1 4.6875 4.0625 C5.120625 5.031875 5.55375 6.00125 6 7 C0.01898716 11.05664061 -6.04361291 14.92310952 -12.25 18.625 C-13.11206055 19.14006104 -13.97412109 19.65512207 -14.86230469 20.18579102 C-32.32446928 30.57941032 -50.05638033 40.46322835 -68 50 C-69.10311523 50.58652344 -70.20623047 51.17304688 -71.34277344 51.77734375 C-135.83484477 85.92344471 -205.67907765 116.2704572 -276.83251953 133.22851562 C-281.3894542 134.31620364 -285.87769991 135.54315817 -290.37109375 136.87109375 C-299.32398175 139.44906868 -308.39143439 141.43086362 -317.5 143.375 C-318.40752014 143.56942688 -319.31504028 143.76385376 -320.25006104 143.96417236 C-348.56071301 149.99641696 -377.14460967 154.56560561 -406 157 C-407.6077832 157.14139404 -407.6077832 157.14139404 -409.24804688 157.28564453 C-421.36001848 158.23072998 -433.48226976 158.24348032 -445.625 158.25 C-446.7566156 158.25067474 -447.8882312 158.25134949 -449.05413818 158.25204468 C-466.55495212 158.23549566 -483.68603317 157.76805512 -501 155 C-502.59207275 154.75056641 -502.59207275 154.75056641 -504.21630859 154.49609375 C-535.79645074 149.34482453 -572.4055198 138.20828031 -592.625 111.4375 C-593.42798427 110.29956925 -594.2245504 109.15686994 -595 108 C-593.9024777 105.00675737 -593.32317108 104.15389099 -590.375 102.75 C-589.59125 102.5025 -588.8075 102.255 -588 102 C-587.26910156 102.99966797 -587.26910156 102.99966797 -586.5234375 104.01953125 C-576.39921719 117.18101766 -564.0346869 125.30911148 -549 132 C-547.28296875 132.79857422 -547.28296875 132.79857422 -545.53125 133.61328125 C-527.14076757 141.62805231 -506.82911142 144.87780754 -487 147 C-486.1904335 147.08692108 -485.380867 147.17384216 -484.54676819 147.26339722 C-477.49816254 147.96348993 -470.50649586 148.18976555 -463.42578125 148.23828125 C-461.64781158 148.25304001 -461.64781158 148.25304001 -459.83392334 148.26809692 C-431.99744666 148.45111526 -404.60289394 147.90430809 -377 144 C-376.11566284 143.8764917 -375.23132568 143.7529834 -374.32019043 143.62573242 C-349.93972748 140.20364958 -325.90947019 135.87533959 -302 130 C-300.16824489 129.56394253 -298.33623443 129.12895561 -296.50390625 128.6953125 C-284.64283229 125.85030802 -272.94897998 122.45067999 -261.26220703 118.96557617 C-258.87478965 118.25892778 -256.48571479 117.56145954 -254.09326172 116.87231445 C-243.80476462 113.89913286 -233.63171877 110.65669765 -223.5 107.1875 C-222.69884766 106.91365479 -221.89769531 106.63980957 -221.07226562 106.35766602 C-190.8369612 95.98425744 -161.15818947 84.08952391 -132 71 C-130.89833496 70.50628906 -129.79666992 70.01257813 -128.66162109 69.50390625 C-125.4791758 68.07282604 -122.30078283 66.63330021 -119.125 65.1875 C-118.229021 64.77975342 -117.33304199 64.37200684 -116.40991211 63.9519043 C-108.17729734 60.1603392 -100.08716542 56.09003472 -92 52 C-91.33589111 51.66416901 -90.67178223 51.32833801 -89.98754883 50.98233032 C-71.74630605 41.74491434 -53.66764232 32.30346806 -36 22 C-34.5754248 21.17242187 -34.5754248 21.17242187 -33.12207031 20.328125 C-22.75110001 14.29309924 -12.48697924 8.19302328 -2.58203125 1.4140625 C-1.30392578 0.71410156 -1.30392578 0.71410156 0 0 Z " fill="#F5F5F9" transform="translate(970,420)"/>
<path d="M0 0 C1.00023193 0.00523682 2.00046387 0.01047363 3.03100586 0.01586914 C4.1105957 0.0190918 5.19018555 0.02231445 6.30249023 0.02563477 C8.00695312 0.03820312 8.00695312 0.03820312 9.74584961 0.05102539 C11.45611328 0.05779297 11.45611328 0.05779297 13.20092773 0.06469727 C16.02845312 0.07652792 18.85587601 0.09301129 21.68334961 0.11352539 C21.88450201 6.46239805 21.36248316 11.87419012 19.68334961 17.98852539 C19.35004639 19.21563232 19.35004639 19.21563232 19.01000977 20.4675293 C9.26946583 54.75293208 -11.64195008 85.1216866 -34.31665039 112.11352539 C-34.7483252 112.63011719 -35.18 113.14670898 -35.62475586 113.67895508 C-41.02080912 120.13429746 -46.48916965 126.50695645 -52.15258789 132.73071289 C-53.58591704 134.30892729 -55.00801819 135.89741824 -56.41821289 137.49633789 C-64.78525157 146.95869799 -73.4608915 156.13303829 -83.37915039 163.98852539 C-84.18304199 164.64111328 -84.18304199 164.64111328 -85.00317383 165.30688477 C-88.73506592 168.15859125 -88.73506592 168.15859125 -91.31103516 167.95898438 C-95.31696183 166.2703022 -97.03280116 161.89261605 -99.19165039 158.30102539 C-99.71500977 157.48053711 -100.23836914 156.66004883 -100.77758789 155.81469727 C-101.26227539 155.01999023 -101.74696289 154.2252832 -102.24633789 153.40649414 C-102.69219238 152.67970459 -103.13804687 151.95291504 -103.59741211 151.20410156 C-104.31665039 149.11352539 -104.31665039 149.11352539 -103.69213867 147.03759766 C-102.12624687 144.84718351 -100.57357004 143.59391452 -98.37915039 142.03540039 C-93.05990214 138.0395811 -88.41083965 133.51051511 -83.73266602 128.7902832 C-82.32541471 127.3723562 -80.90699002 125.96554729 -79.48852539 124.55883789 C-74.09195514 119.14719342 -69.07712381 113.58154968 -64.32592773 107.59423828 C-62.28403904 105.07326246 -60.14320725 102.68304198 -57.94165039 100.30102539 C-33.84539231 73.74085184 -9.62598723 38.92810663 -3.67602539 2.87133789 C-3.12627374 0.18233527 -2.78369617 0.13641255 0 0 Z " fill="#FFFFFF" transform="translate(307.316650390625,215.886474609375)"/>
<path d="M0 0 C23 0 23 0 28.24609375 4.828125 C29.96289062 7.9453125 29.96289062 7.9453125 31.4375 11.25 C32.53831792 13.36044381 33.64118561 15.46981971 34.74609375 17.578125 C35.81988281 19.69734375 36.89367188 21.8165625 38 24 C41.96 29.94 41.96 29.94 46 36 C46.33 24.12 46.66 12.24 47 0 C52.61 0 58.22 0 64 0 C64 23.43 64 46.86 64 71 C58.06 71 52.12 71 46 71 C40.64121897 64.66689515 40.64121897 64.66689515 39.2109375 61.47265625 C36.65715205 56.13832472 33.47360087 51.24015993 30.3125 46.25 C29.24297435 44.52797517 28.1764936 42.80405493 27.11328125 41.078125 C26.65735596 40.33981445 26.20143066 39.60150391 25.73168945 38.84082031 C23.13115403 34.57466634 20.57056693 30.28427822 18 26 C17.67 40.85 17.34 55.7 17 71 C11.39 71 5.78 71 0 71 C0 47.57 0 24.14 0 0 Z " fill="#FFFFFF" transform="translate(1137,264)"/>
<path d="M0 0 C6.22875 -0.061875 12.4575 -0.12375 18.875 -0.1875 C21.79255127 -0.22846802 21.79255127 -0.22846802 24.76904297 -0.27026367 C43.69566026 -0.42571942 43.69566026 -0.42571942 52 4.9375 C56.42846456 9.50435408 56.47726269 13.85198723 56.39453125 20.01171875 C55.68205507 25.40819674 52.77594635 28.22405365 49 32 C50.0725 32.556875 51.145 33.11375 52.25 33.6875 C56.68709774 36.22041814 59.36509192 39.09527577 61 44 C61.74342454 50.86144291 61.10051321 56.34202183 57 62 C52.33211528 67.46031078 46.99025939 69.78822729 40 71 C33.13985339 71.47988783 26.2450647 71.28144723 19.375 71.1875 C12.98125 71.125625 6.5875 71.06375 0 71 C0 47.57 0 24.14 0 0 Z M19 14 C19 18.62 19 23.24 19 28 C27.95726075 28.40672195 27.95726075 28.40672195 36 25 C37.5 22.16666667 37.5 22.16666667 37 19 C35.51369948 15.83959345 35.51369948 15.83959345 32 14 C27.57747472 13.57753386 23.46170267 13.77466148 19 14 Z M19 41 C19 46.28 19 51.56 19 57 C21.536875 57.061875 24.07375 57.12375 26.6875 57.1875 C27.87218872 57.22846802 27.87218872 57.22846802 29.08081055 57.27026367 C33.60318145 57.32344113 36.43303549 56.81674253 40 54 C41.56430248 50.87139505 41.35627284 48.44397075 41 45 C38.88262014 42.62685742 37.19942705 41.18899886 33.99511719 40.68408203 C31.71284626 40.60665688 29.46877263 40.65056481 27.1875 40.75 C26.39923828 40.76804687 25.61097656 40.78609375 24.79882812 40.8046875 C22.86535739 40.85155952 20.93251715 40.9232959 19 41 Z " fill="#FFFFFF" transform="translate(518,264)"/>
<path d="M0 0 C0.82999512 0.00902344 1.65999023 0.01804687 2.51513672 0.02734375 C12.77670262 0.31589393 20.22630864 3.02112339 27.68359375 10.23828125 C35.13068618 18.67432358 37.1247113 28.54010049 36.875 39.57421875 C35.94588678 50.21546856 32.69412022 58.74513013 25 66.1875 C14.68989301 74.50026154 2.32797004 74.73707937 -10.375 73.4375 C-14.14625898 72.62579009 -17.09953745 71.45316926 -20.375 69.4375 C-21.0865625 69.025 -21.798125 68.6125 -22.53125 68.1875 C-30.26708215 63.10725202 -34.34274682 55.3088883 -36.375 46.4375 C-36.66189135 43.49376029 -36.70942426 40.58132957 -36.6875 37.625 C-36.68186035 36.83037354 -36.6762207 36.03574707 -36.67041016 35.21704102 C-36.46529719 25.28124722 -34.05102043 17.02983696 -27.375 9.4375 C-19.4057118 2.56380133 -10.39353893 -0.13611346 0 0 Z M-12.921875 20.33203125 C-17.53608738 27.94029717 -17.6321987 36.82558179 -16.375 45.4375 C-14.90267877 50.71061523 -12.72989838 54.9388976 -8.125 58.0625 C-3.64700741 59.70443061 -0.08162545 60.28778453 4.625 59.4375 C10.09569556 56.65054188 13.51467636 53.10227674 15.875 47.4375 C18.06019732 38.31926755 17.5557729 28.5348243 12.625 20.4375 C8.95778431 16.29153552 5.40408942 14.58575745 -0.125 14.125 C-5.67907911 14.25748262 -9.44024992 16.06791973 -12.921875 20.33203125 Z " fill="#FFFFFF" transform="translate(1086.375,262.5625)"/>
<path d="M0 0 C2.05078125 0.03255208 4.1015625 0.06510417 6.15234375 0.09765625 C7.17604015 88.0426945 -15.74989396 157.57805494 -78.37109375 221.74609375 C-86.51124385 230.02196687 -94.5867101 238.07500524 -103.84765625 245.09765625 C-104.84539062 245.88914062 -105.843125 246.680625 -106.87109375 247.49609375 C-127.40250224 263.73571471 -150.07707061 276.25148488 -173.84765625 287.09765625 C-176.63998696 284.54488206 -177.33733231 282.87405343 -177.84765625 279.09765625 C-176.44580078 278.40542969 -176.44580078 278.40542969 -175.015625 277.69921875 C-151.31569216 265.97789002 -151.31569216 265.97789002 -128.84765625 252.09765625 C-128.27208984 251.70610352 -127.69652344 251.31455078 -127.10351562 250.91113281 C-118.81036715 245.23759518 -111.02199973 239.12361116 -103.46020508 232.50537109 C-102.33079188 231.51942158 -101.19460697 230.54120033 -100.0534668 229.56884766 C-94.2482768 224.58418697 -88.82095243 219.25455135 -83.41015625 213.84765625 C-82.52005859 212.96980469 -81.62996094 212.09195313 -80.71289062 211.1875 C-74.65225481 205.14014534 -69.13303362 198.8303304 -63.84765625 192.09765625 C-63.21061768 191.28893066 -62.5735791 190.48020508 -61.91723633 189.64697266 C-53.05046234 178.26545989 -45.03485845 166.60421578 -37.84765625 154.09765625 C-37.42145996 153.36337402 -36.99526367 152.6290918 -36.55615234 151.87255859 C-22.07100399 126.82086993 -8.46543832 99.27229213 -5.22265625 70.22265625 C-5.09785889 69.12679199 -4.97306152 68.03092773 -4.84448242 66.90185547 C-2.86501378 48.78846959 -2.73877211 30.76263127 -2.8840332 12.56298828 C-2.88836868 11.8130661 -2.89270416 11.06314392 -2.89717102 10.29049683 C-2.90567902 8.86397174 -2.91829408 7.43746389 -2.93547058 6.01101685 C-2.94386625 4.37298994 -2.9010715 2.73483353 -2.84765625 1.09765625 C-1.84765625 0.09765625 -1.84765625 0.09765625 0 0 Z " fill="#F7F7FA" transform="translate(1027.84765625,419.90234375)"/>
<path d="M0 0 C6.6 0 13.2 0 20 0 C20.0093457 1.51875732 20.01869141 3.03751465 20.02832031 4.60229492 C20.06820896 10.24012523 20.13396571 15.87740922 20.20751953 21.51489258 C20.23573547 23.95427428 20.25694685 26.39374752 20.27099609 28.83325195 C20.2924161 32.34113448 20.33906435 35.84791571 20.390625 39.35546875 C20.39185364 40.44522507 20.39308228 41.53498138 20.39434814 42.65776062 C20.48864527 48.71499429 20.48864527 48.71499429 22.91308594 54.1652832 C26.49658474 57.31572699 29.1216262 57.27465614 33.7421875 57.22265625 C36.80267911 56.92084306 38.63453205 55.93538287 41 54 C43.17089653 50.74365521 43.26291012 49.75356718 43.31884766 45.9777832 C43.33871735 44.95695145 43.35858704 43.93611969 43.37905884 42.88435364 C43.39061005 41.78427475 43.40216125 40.68419586 43.4140625 39.55078125 C43.43342865 38.4230278 43.4527948 37.29527435 43.4727478 36.13334656 C43.53259307 32.52647497 43.57894922 28.91957156 43.625 25.3125 C43.66317518 22.8691266 43.70222664 20.42576672 43.7421875 17.98242188 C43.83829886 11.9883909 43.92231194 5.99429693 44 0 C50.6 0 57.2 0 64 0 C64.04610179 6.51059699 64.08587069 13.0206194 64.10986328 19.53125 C64.11987347 21.74253263 64.13348568 23.95380218 64.15087891 26.16503906 C64.17534738 29.35745487 64.18653325 32.54969449 64.1953125 35.7421875 C64.20563507 36.71864227 64.21595764 37.69509705 64.22659302 38.70114136 C64.22823369 48.91282306 63.21032264 58.27138778 56 66 C48.35734907 71.54986263 41.56818373 72.22093442 32.375 72.3125 C31.42753906 72.34150391 30.48007812 72.37050781 29.50390625 72.40039062 C21.39955083 72.47245398 14.21669133 70.63740298 7.625 65.75 C-0.34216986 57.4034411 -0.15331474 47.74920061 -0.09765625 36.81640625 C-0.0962413 35.76090073 -0.09482635 34.7053952 -0.09336853 33.61790466 C-0.08779722 30.26607357 -0.07525002 26.91431071 -0.0625 23.5625 C-0.05748129 21.28190201 -0.05291903 19.00130297 -0.04882812 16.72070312 C-0.03783719 11.14710936 -0.02059238 5.57356623 0 0 Z " fill="#FFFFFF" transform="translate(654,264)"/>
<path d="M0 0 C1 1 1 1 1.09765625 4.81640625 C1.09098089 6.39846682 1.07901875 7.98051159 1.0625 9.5625 C1.05798828 10.36880859 1.05347656 11.17511719 1.04882812 12.00585938 C1.03700518 14.00393756 1.01906914 16.00197783 1 18 C-2.78075988 17.40481777 -5.69010612 16.29305023 -9.0625 14.5 C-14.41406758 11.6634218 -18.35779481 10.83434273 -24.4375 10.75 C-25.54996094 10.72421875 -26.66242187 10.6984375 -27.80859375 10.671875 C-31.39572936 11.04068698 -33.26429861 11.64780815 -36 14 C-36.41780879 16.62694422 -36.41780879 16.62694422 -36 19 C-29.64036858 21.0207216 -23.33654785 22.95820417 -16.8125 24.375 C-9.84669855 26.09107824 -2.66902587 29.01182719 1.625 35.0625 C4.28862707 40.75758835 4.13288826 48.2527542 2.33984375 54.18359375 C-1.27019089 61.20050091 -7.78233751 65.46045209 -15 68 C-28.0860243 71.46681987 -43.46472329 69.61728388 -56 65 C-57 64 -57 64 -57.11352539 62.23413086 C-57.10828857 61.48526611 -57.10305176 60.73640137 -57.09765625 59.96484375 C-57.09443359 59.15595703 -57.09121094 58.34707031 -57.08789062 57.51367188 C-57.07951172 56.66353516 -57.07113281 55.81339844 -57.0625 54.9375 C-57.05798828 54.08349609 -57.05347656 53.22949219 -57.04882812 52.34960938 C-57.03700373 50.23304337 -57.01906769 48.11651315 -57 46 C-53.74846908 46.75390993 -51.14257856 47.86921422 -48.1875 49.4375 C-39.49426522 53.80304316 -31.71436295 54.8046001 -22 54 C-18.84243059 52.81079368 -18.84243059 52.81079368 -17 50.125 C-16.79918347 47.89100931 -16.79918347 47.89100931 -18.36328125 46.01953125 C-22.8990874 42.54543973 -28.42456827 42.10567395 -33.93945312 41.02148438 C-41.40187588 39.43498505 -48.02095547 37.05543029 -53.4375 31.5 C-57.04663222 25.72538845 -57.81463129 20.75422147 -57 14 C-55.17644983 7.80866499 -51.3701715 3.47162602 -46 0 C-31.4635273 -6.95577012 -14.83946231 -4.8682821 0 0 Z " fill="#FFFFFF" transform="translate(984,267)"/>
<path d="M0 0 C16.83 0 33.66 0 51 0 C51 4.95 51 9.9 51 15 C40.44 15 29.88 15 19 15 C19 18.63 19 22.26 19 26 C28.9 26 38.8 26 49 26 C49 30.62 49 35.24 49 40 C39.1 40 29.2 40 19 40 C19 45.28 19 50.56 19 56 C29.56 56 40.12 56 51 56 C51 60.95 51 65.9 51 71 C34.17 71 17.34 71 0 71 C0 47.57 0 24.14 0 0 Z " fill="#FFFFFF" transform="translate(735,264)"/>
<path d="M0 0 C6.6 0 13.2 0 20 0 C30.76595745 30.10638298 30.76595745 30.10638298 36 45 C40.11243162 35.59838676 43.48229569 26.0312356 46.75 16.3125 C47.48871763 14.12016895 48.22866963 11.92828851 48.972229 9.7375946 C49.43035678 8.38752045 49.8856673 7.03648624 50.33782959 5.68440247 C51.88763726 1.11236274 51.88763726 1.11236274 53 0 C54.41570123 -0.08651611 55.835595 -0.10704904 57.25390625 -0.09765625 C58.53491211 -0.09282227 58.53491211 -0.09282227 59.84179688 -0.08789062 C60.73962891 -0.07951172 61.63746094 -0.07113281 62.5625 -0.0625 C63.46419922 -0.05798828 64.36589844 -0.05347656 65.29492188 -0.04882812 C67.53001314 -0.03700225 69.76497437 -0.0205222 72 0 C71.31392118 3.97940175 70.15861184 7.61409507 68.79101562 11.41088867 C68.56814377 12.03263474 68.34527191 12.6543808 68.11564636 13.29496765 C67.3825892 15.33721187 66.64450912 17.37759986 65.90625 19.41796875 C65.39413658 20.84082904 64.88229982 22.26378893 64.37072754 23.68684387 C63.3002476 26.66237122 62.22746074 29.63705252 61.15283203 32.61108398 C59.77419621 36.42657767 58.39974306 40.24356059 57.02680206 44.06110668 C55.97100636 46.99622989 54.91382003 49.93085049 53.85612488 52.86528969 C53.34872651 54.27304647 52.84157438 55.68089203 52.33467102 57.08882713 C51.62740368 59.0521201 50.91846158 61.01479963 50.20898438 62.97729492 C49.80562866 64.0947258 49.40227295 65.21215668 48.98669434 66.3634491 C48 69 48 69 47 71 C39.74 71 32.48 71 25 71 C24.38479492 69.30061279 23.76958984 67.60122559 23.13574219 65.8503418 C21.08824892 60.19458817 19.04068285 54.53886091 16.9930687 48.88315105 C15.75331341 45.45881801 14.51358609 42.03447485 13.27392578 38.61010742 C12.07446279 35.29678215 10.87492227 31.98348495 9.67533112 28.67020607 C9.00182453 26.80991604 8.32839537 24.94959798 7.65496826 23.08927917 C7.23483459 21.9289064 6.81470093 20.76853363 6.38183594 19.57299805 C5.98283081 18.4687851 5.58382568 17.36457214 5.17272949 16.22689819 C4.38948798 14.07172034 3.59884327 11.91921891 2.80090332 9.7694397 C2.43380249 8.77793915 2.06670166 7.7864386 1.68847656 6.76489258 C1.19906586 5.45455803 1.19906586 5.45455803 0.69976807 4.11775208 C0 2 0 2 0 0 Z " fill="#FFFFFF" transform="translate(794,264)"/>
<path d="M0 0 C13.86 0 27.72 0 42 0 C42 4.62 42 9.24 42 14 C38.04 14 34.08 14 30 14 C30 28.52 30 43.04 30 58 C33.96 58 37.92 58 42 58 C42 62.29 42 66.58 42 71 C28.14 71 14.28 71 0 71 C0 66.71 0 62.42 0 58 C3.63 58 7.26 58 11 58 C11 43.48 11 28.96 11 14 C7.37 14 3.74 14 0 14 C0 9.38 0 4.76 0 0 Z " fill="#FFFFFF" transform="translate(997,264)"/>
<path d="M0 0 C13.86 0 27.72 0 42 0 C42 4.62 42 9.24 42 14 C38.37 14 34.74 14 31 14 C31 28.52 31 43.04 31 58 C34.63 58 38.26 58 42 58 C42 62.29 42 66.58 42 71 C28.14 71 14.28 71 0 71 C0 66.71 0 62.42 0 58 C3.96 58 7.92 58 12 58 C12 43.48 12 28.96 12 14 C8.04 14 4.08 14 0 14 C0 9.38 0 4.76 0 0 Z " fill="#FFFFFF" transform="translate(873,264)"/>
<path d="M0 0 C6.27 0 12.54 0 19 0 C19 18.48 19 36.96 19 56 C29.56 56 40.12 56 51 56 C51 60.95 51 65.9 51 71 C34.17 71 17.34 71 0 71 C0 47.57 0 24.14 0 0 Z " fill="#FFFFFF" transform="translate(593,264)"/>
<path d="M0 0 C4.3003125 -0.061875 4.3003125 -0.061875 8.6875 -0.125 C9.58170654 -0.14320801 10.47591309 -0.16141602 11.3972168 -0.18017578 C15.6614533 -0.20982506 19.20381879 -0.19205875 23 2 C25.46270288 5.69405432 25.22985417 7.63277072 25 12 C24.690625 13.11375 24.690625 13.11375 24.375 14.25 C24.25125 14.8275 24.1275 15.405 24 16 C24.66 16.99 25.32 17.98 26 19 C26.1875 21.15625 26.1875 21.15625 26 23.5 C25.95875 24.2734375 25.9175 25.046875 25.875 25.84375 C25 28 25 28 22.5546875 29.76953125 C17.94807936 31.36412638 13.95166646 31.32814294 9.125 31.1875 C6.11375 31.125625 3.1025 31.06375 0 31 C0 20.77 0 10.54 0 0 Z M6 6 C6 8.31 6 10.62 6 13 C7.41623216 13.05447047 8.83308191 13.09300508 10.25 13.125 C11.43335938 13.15980469 11.43335938 13.15980469 12.640625 13.1953125 C15.20731941 12.9828378 16.7916067 12.28654105 19 11 C18.67 9.35 18.34 7.7 18 6 C14.04 6 10.08 6 6 6 Z M6 18 C6 20.64 6 23.28 6 26 C7.60407328 26.02708567 9.2082785 26.04643483 10.8125 26.0625 C12.15248047 26.07990234 12.15248047 26.07990234 13.51953125 26.09765625 C16.13413791 26.11009967 16.13413791 26.11009967 19 25 C19.33 23.35 19.66 21.7 20 20 C16.57905758 17.71937172 15.31812778 17.78074993 11.3125 17.875 C10.31863281 17.89304687 9.32476563 17.91109375 8.30078125 17.9296875 C7.54152344 17.95289063 6.78226563 17.97609375 6 18 Z " fill="#FFFFFF" transform="translate(864,363)"/>
<path d="M0 0 C4.3003125 -0.061875 4.3003125 -0.061875 8.6875 -0.125 C9.58170654 -0.14320801 10.47591309 -0.16141602 11.3972168 -0.18017578 C15.68816204 -0.21001077 19.14364417 -0.12432653 23 2 C25.14843419 4.36327761 25.97226255 6.01358698 26.0625 9.22265625 C25.59072765 15.26723947 25.59072765 15.26723947 23.5703125 17.7734375 C22 19 22 19 20 19 C20.3609375 19.69867188 20.721875 20.39734375 21.09375 21.1171875 C21.5578125 22.02726562 22.021875 22.93734375 22.5 23.875 C22.9640625 24.77992188 23.428125 25.68484375 23.90625 26.6171875 C25 29 25 29 25 31 C22.375 31.625 22.375 31.625 19 31 C17.51171875 28.80859375 17.51171875 28.80859375 16.0625 26.0625 C14.26031476 22.37986375 14.26031476 22.37986375 11.06640625 20.11328125 C8.93336773 19.79847075 8.93336773 19.79847075 6 20 C6 23.63 6 27.26 6 31 C4.02 31 2.04 31 0 31 C0 20.77 0 10.54 0 0 Z M6 6 C6 8.97 6 11.94 6 15 C7.60407328 15.02708567 9.2082785 15.04643483 10.8125 15.0625 C12.15248047 15.07990234 12.15248047 15.07990234 13.51953125 15.09765625 C16.13413791 15.11009967 16.13413791 15.11009967 19 14 C19.67801034 11.09926819 19.67801034 11.09926819 20 8 C18.1371051 5.69939466 18.1371051 5.69939466 15.1796875 5.8046875 C14.08914063 5.82789063 12.99859375 5.85109375 11.875 5.875 C10.23144531 5.90207031 10.23144531 5.90207031 8.5546875 5.9296875 C7.71164062 5.95289063 6.86859375 5.97609375 6 6 Z " fill="#FFFFFF" transform="translate(1099,363)"/>
<path d="M0 0 C2.84625 -0.061875 5.6925 -0.12375 8.625 -0.1875 C9.51010254 -0.21481201 10.39520508 -0.24212402 11.30712891 -0.27026367 C16.28773578 -0.32239021 19.69739176 0.20766766 24 3 C26.02678624 6.08423993 26.11423949 8.55004298 25.8125 12.125 C25 16 25 16 23.5625 18 C22 19 22 19 20 19 C20.3609375 19.69867188 20.721875 20.39734375 21.09375 21.1171875 C21.5578125 22.02726562 22.021875 22.93734375 22.5 23.875 C22.9640625 24.77992188 23.428125 25.68484375 23.90625 26.6171875 C25 29 25 29 25 31 C22.375 31.625 22.375 31.625 19 31 C17.51171875 28.80859375 17.51171875 28.80859375 16.0625 26.0625 C14.26031476 22.37986375 14.26031476 22.37986375 11.06640625 20.11328125 C8.93336773 19.79847075 8.93336773 19.79847075 6 20 C6 23.63 6 27.26 6 31 C4.02 31 2.04 31 0 31 C0 20.77 0 10.54 0 0 Z M6 6 C6 8.97 6 11.94 6 15 C7.58246707 15.08153933 9.16616273 15.13943557 10.75 15.1875 C11.63171875 15.22230469 12.5134375 15.25710938 13.421875 15.29296875 C16.44671583 14.94923684 17.75583602 13.99772541 20 12 C19.62095792 8.70924004 19.62095792 8.70924004 18 6 C15.98035801 5.92755947 13.95832876 5.91622812 11.9375 5.9375 C10.83277344 5.94652344 9.72804688 5.95554687 8.58984375 5.96484375 C7.73519531 5.97644531 6.88054688 5.98804688 6 6 Z " fill="#FFFFFF" transform="translate(553,363)"/>
<path d="M0 0 C2.84625 -0.061875 5.6925 -0.12375 8.625 -0.1875 C9.51010254 -0.21481201 10.39520508 -0.24212402 11.30712891 -0.27026367 C16.28263308 -0.32233681 19.70417885 0.20161808 24 3 C25.85493664 6.70987327 25.59596347 10.96139651 25 15 C23.55214852 17.29327525 22.20749707 18.34437719 20 20 C20.3609375 20.62648438 20.721875 21.25296875 21.09375 21.8984375 C21.78984375 23.12433594 21.78984375 23.12433594 22.5 24.375 C22.9640625 25.18710937 23.428125 25.99921875 23.90625 26.8359375 C25 29 25 29 25 31 C22.375 31.5625 22.375 31.5625 19 31 C16.30767599 27.99842256 13 24.17107607 13 20 C10.69 20 8.38 20 6 20 C6 23.63 6 27.26 6 31 C4.02 31 2.04 31 0 31 C0 20.77 0 10.54 0 0 Z M6 6 C6 8.97 6 11.94 6 15 C12.73881911 15.67277818 12.73881911 15.67277818 18.625 13 C19.07875 12.34 19.5325 11.68 20 11 C19.34 9.35 18.68 7.7 18 6 C14.04 6 10.08 6 6 6 Z " fill="#FFFFFF" transform="translate(926,363)"/>
<path d="M0 0 C7.26 0 14.52 0 22 0 C22 1.98 22 3.96 22 6 C16.72 6 11.44 6 6 6 C6 7.98 6 9.96 6 12 C10.95 12 15.9 12 21 12 C21 13.98 21 15.96 21 18 C16.05 18 11.1 18 6 18 C6 20.31 6 22.62 6 25 C11.28 25 16.56 25 22 25 C22 26.98 22 28.96 22 31 C14.74 31 7.48 31 0 31 C0 20.77 0 10.54 0 0 Z " fill="#FFFFFF" transform="translate(1003,363)"/>
<path d="M0 0 C6.93 0 13.86 0 21 0 C21 1.98 21 3.96 21 6 C15.72 6 10.44 6 5 6 C5 7.98 5 9.96 5 12 C10.28 12 15.56 12 21 12 C21 13.98 21 15.96 21 18 C15.72 18 10.44 18 5 18 C5 20.31 5 22.62 5 25 C10.61 25 16.22 25 22 25 C22 26.98 22 28.96 22 31 C14.74 31 7.48 31 0 31 C0 20.77 0 10.54 0 0 Z " fill="#FFFFFF" transform="translate(897,363)"/>
<path d="M0 0 C1.1034375 0.01289063 2.206875 0.02578125 3.34375 0.0390625 C6.42685657 0.36721493 8.70458953 1.07117049 11.5 2.375 C10.92655063 5.24224686 10.6385485 6.2364515 8.5 8.375 C7.654375 8.024375 6.80875 7.67375 5.9375 7.3125 C2.04982467 6.25222491 -0.58425639 6.59185128 -4.5 7.375 C-4.83 8.695 -5.16 10.015 -5.5 11.375 C-3.94539062 11.61283203 -3.94539062 11.61283203 -2.359375 11.85546875 C-0.98939596 12.0900542 0.38038607 12.32579223 1.75 12.5625 C2.43191406 12.66369141 3.11382813 12.76488281 3.81640625 12.86914062 C7.4390487 13.51980941 9.31244887 14.18953941 11.953125 16.80078125 C13.88682364 20.01872924 14.11610503 21.67836981 13.5 25.375 C11.70006226 28.07490662 10.416227 29.9168865 7.5 31.375 C5.08656122 31.5251182 2.6679357 31.5965537 0.25 31.625 C-1.05453125 31.65078125 -2.3590625 31.6765625 -3.703125 31.703125 C-7.68091119 31.3593657 -10.08935866 30.38749023 -13.5 28.375 C-12.84 26.725 -12.18 25.075 -11.5 23.375 C-10.530625 23.705 -9.56125 24.035 -8.5625 24.375 C-3.87766639 25.72308477 2.01962957 26.61518522 6.5 24.375 C6.17 23.055 5.84 21.735 5.5 20.375 C4.68015625 20.18164062 3.8603125 19.98828125 3.015625 19.7890625 C1.93796875 19.52867187 0.8603125 19.26828125 -0.25 19 C-1.85101562 18.61714844 -1.85101562 18.61714844 -3.484375 18.2265625 C-6.07777581 17.49422911 -8.20947952 16.77714104 -10.5 15.375 C-11.64363112 13.08773777 -11.76501932 11.54647573 -11.875 9 C-11.92398438 8.22914063 -11.97296875 7.45828125 -12.0234375 6.6640625 C-11.5 4.375 -11.5 4.375 -9.3828125 2.109375 C-5.95441437 0.04676149 -3.97137163 -0.10206796 0 0 Z " fill="#FFFFFF" transform="translate(982.5,362.625)"/>
<path d="M0 0 C2.84625 -0.061875 5.6925 -0.12375 8.625 -0.1875 C9.51010254 -0.21481201 10.39520508 -0.24212402 11.30712891 -0.27026367 C16.28263308 -0.32233681 19.70417885 0.20161808 24 3 C25.9651843 6.9303686 25.46909886 11.7147185 25 16 C22.81381363 19.16620095 21.63108389 19.7896387 18 21 C15.93854893 21.068991 13.87498599 21.08467727 11.8125 21.0625 C10.18248047 21.04896484 10.18248047 21.04896484 8.51953125 21.03515625 C7.68808594 21.02355469 6.85664062 21.01195312 6 21 C6 24.3 6 27.6 6 31 C4.02 31 2.04 31 0 31 C0 20.77 0 10.54 0 0 Z M6 6 C6 8.97 6 11.94 6 15 C9.96 15 13.92 15 18 15 C19.19595537 12.1628485 19.19595537 12.1628485 20 9 C19.34 8.01 18.68 7.02 18 6 C15.10391601 5.63501966 15.10391601 5.63501966 11.875 5.8125 C10.77929688 5.83957031 9.68359375 5.86664063 8.5546875 5.89453125 C7.29011719 5.94673828 7.29011719 5.94673828 6 6 Z " fill="#FFFFFF" transform="translate(521,363)"/>
<path d="M0 0 C1.98 0 3.96 0 6 0 C6.01458252 0.65073486 6.02916504 1.30146973 6.04418945 1.97192383 C6.11864549 4.91938306 6.21531266 7.86570642 6.3125 10.8125 C6.33505859 11.83666016 6.35761719 12.86082031 6.38085938 13.91601562 C6.41630859 14.89892578 6.45175781 15.88183594 6.48828125 16.89453125 C6.51446533 17.80050049 6.54064941 18.70646973 6.56762695 19.63989258 C7.07977643 22.43545949 7.6996138 23.36286019 10 25 C14.36706908 25.38991688 16.30513897 25.46324069 20 23 C20.50904384 20.5842887 20.50904384 20.5842887 20.51171875 17.7734375 C20.54716797 16.7421875 20.58261719 15.7109375 20.61914062 14.6484375 C20.64169922 13.56820313 20.66425781 12.48796875 20.6875 11.375 C20.72166016 10.28703125 20.75582031 9.1990625 20.79101562 8.078125 C20.87368334 5.38551937 20.94277087 2.69324709 21 0 C22.98 0 24.96 0 27 0 C27.11638426 4.06225821 27.18731373 8.1240863 27.25 12.1875 C27.30027344 13.91323242 27.30027344 13.91323242 27.3515625 15.67382812 C27.36445312 16.78564453 27.37734375 17.89746094 27.390625 19.04296875 C27.41157227 20.06414795 27.43251953 21.08532715 27.45410156 22.13745117 C26.88121902 25.74876717 25.50385825 27.38934073 23 30 C20.0129054 31.4935473 16.9626552 31.30631228 13.6875 31.375 C11.71330078 31.44847656 11.71330078 31.44847656 9.69921875 31.5234375 C5.15063935 30.87981592 3.78846623 29.56798119 1 26 C-0.01973129 22.94080612 -0.11533602 20.87581975 -0.09765625 17.67578125 C-0.09443359 16.64775391 -0.09121094 15.61972656 -0.08789062 14.56054688 C-0.07951172 13.48869141 -0.07113281 12.41683594 -0.0625 11.3125 C-0.05798828 10.22904297 -0.05347656 9.14558594 -0.04882812 8.02929688 C-0.03703743 5.35280915 -0.02058063 2.67643223 0 0 Z " fill="#FFFFFF" transform="translate(1064,363)"/>
<path d="M0 0 C2.31 0 4.62 0 7 0 C8.71117059 4.25327531 10.42010968 8.50743753 12.12695312 12.76245117 C12.70836551 14.21094192 13.29039555 15.6591849 13.87304688 17.10717773 C14.70864345 19.18408996 15.54204147 21.26187236 16.375 23.33984375 C16.63748535 23.99089584 16.8999707 24.64194794 17.17041016 25.31272888 C19 29.88612829 19 29.88612829 19 31 C16.69 31 14.38 31 12 31 C11.34 29.35 10.68 27.7 10 26 C5.71 26 1.42 26 -3 26 C-3.99 28.475 -3.99 28.475 -5 31 C-6.98 31 -8.96 31 -11 31 C-10.3339303 27.0577597 -9.16360451 23.54698373 -7.71484375 19.82421875 C-7.26689453 18.66728516 -6.81894531 17.51035156 -6.35742188 16.31835938 C-5.88884766 15.12017578 -5.42027344 13.92199219 -4.9375 12.6875 C-4.46505859 11.46998047 -3.99261719 10.25246094 -3.50585938 8.99804688 C-2.34085239 5.9972713 -1.17211211 2.99800584 0 0 Z M3 8 C2.3291288 9.6232687 1.66342971 11.24867578 1 12.875 C0.62875 13.77992188 0.2575 14.68484375 -0.125 15.6171875 C-1.11490226 17.88983858 -1.11490226 17.88983858 -1 20 C1.97 20 4.94 20 8 20 C7.54738642 18.56068883 7.08767021 17.12361001 6.625 15.6875 C6.36976563 14.88699219 6.11453125 14.08648437 5.8515625 13.26171875 C5.01168189 10.77275472 5.01168189 10.77275472 3 8 Z " fill="#FFFFFF" transform="translate(736,363)"/>
<path d="M0 0 C1.4540625 0.0309375 1.4540625 0.0309375 2.9375 0.0625 C4.64867059 4.31577531 6.35760968 8.56993753 8.06445312 12.82495117 C8.64586551 14.27344192 9.22789555 15.7216849 9.81054688 17.16967773 C10.64614345 19.24658996 11.47954147 21.32437236 12.3125 23.40234375 C12.57498535 24.05339584 12.8374707 24.70444794 13.10791016 25.37522888 C14.9375 29.94862829 14.9375 29.94862829 14.9375 31.0625 C12.6275 31.0625 10.3175 31.0625 7.9375 31.0625 C7.6075 29.0825 7.2775 27.1025 6.9375 25.0625 C2.3175 25.3925 -2.3025 25.7225 -7.0625 26.0625 C-8.0525 28.5375 -8.0525 28.5375 -9.0625 31.0625 C-11.0425 31.0625 -13.0225 31.0625 -15.0625 31.0625 C-14.40942236 27.19195021 -13.27342807 23.78023141 -11.8125 20.140625 C-11.3690625 19.03332031 -10.925625 17.92601562 -10.46875 16.78515625 C-10.0046875 15.63917969 -9.540625 14.49320312 -9.0625 13.3125 C-8.5984375 12.15105469 -8.134375 10.98960937 -7.65625 9.79296875 C-3.74692095 0.07646777 -3.74692095 0.07646777 0 0 Z M-1.0625 8.0625 C-1.7333712 9.6857687 -2.39907029 11.31117578 -3.0625 12.9375 C-3.43375 13.84242188 -3.805 14.74734375 -4.1875 15.6796875 C-5.17740226 17.95233858 -5.17740226 17.95233858 -5.0625 20.0625 C-2.0925 20.0625 0.8775 20.0625 3.9375 20.0625 C3.48715877 18.43526701 3.02694646 16.81076336 2.5625 15.1875 C2.30726563 14.28257812 2.05203125 13.37765625 1.7890625 12.4453125 C1.0770685 9.91680274 1.0770685 9.91680274 -1.0625 8.0625 Z " fill="#FFFFFF" transform="translate(598.0625,362.9375)"/>
<path d="M0 0 C1.54300781 -0.03867187 1.54300781 -0.03867187 3.1171875 -0.078125 C6.4998189 0.29088933 8.36435854 1.31449492 11.125 3.25 C10.795 4.57 10.465 5.89 10.125 7.25 C6.375 8.375 6.375 8.375 4.125 7.25 C2.01544938 7.05261277 2.01544938 7.05261277 -0.3125 7.0625 C-1.09496094 7.04832031 -1.87742187 7.03414063 -2.68359375 7.01953125 C-5.16705987 7.10913936 -5.16705987 7.10913936 -7.875 9.25 C-9.3952442 13.81073259 -9.7021167 18.23390304 -7.875 22.6875 C-4.82792237 25.0680294 -1.68847683 25.35829346 2.125 25.25 C4.32567421 24.31716704 4.32567421 24.31716704 6.125 23.25 C8.375 23.625 8.375 23.625 10.125 24.25 C10.455 25.57 10.785 26.89 11.125 28.25 C7.17680476 31.03436157 4.43345578 31.65870413 -0.375 31.625 C-1.4784375 31.63273437 -2.581875 31.64046875 -3.71875 31.6484375 C-8.08485857 31.09727033 -10.74421625 29.54232429 -13.625 26.25 C-16.70993579 21.31410274 -16.32551022 15.87333295 -15.875 10.25 C-14.35752552 6.00107147 -12.76598319 3.56027127 -8.875 1.25 C-5.71490467 0.19663489 -3.3196864 0.04967112 0 0 Z " fill="#FFFFFF" transform="translate(813.875,362.75)"/>
<path d="M0 0 C1.640625 1.09765625 1.640625 1.09765625 3.890625 3.09765625 C2.900625 4.41765625 1.910625 5.73765625 0.890625 7.09765625 C0.25125 6.93265625 -0.388125 6.76765625 -1.046875 6.59765625 C-3.65956761 6.17109419 -6.09506769 5.93376742 -8.734375 5.84765625 C-9.48976563 5.821875 -10.24515625 5.79609375 -11.0234375 5.76953125 C-13.69543616 6.18984565 -14.51369141 6.94079953 -16.109375 9.09765625 C-17.13261396 13.977719 -17.8402704 17.67620655 -15.109375 22.09765625 C-11.93325031 24.47974977 -8.98021987 24.40732384 -5.109375 24.09765625 C-1.83373137 23.17350684 -1.83373137 23.17350684 0.890625 22.09765625 C1.880625 23.41765625 2.870625 24.73765625 3.890625 26.09765625 C1.12951681 29.12172713 -0.88431593 29.99788508 -5.03515625 30.3359375 C-10.02611652 30.44531264 -14.05605356 30.51535269 -18.734375 28.66015625 C-22.62248736 24.46508765 -24.04098566 20.1706173 -24.16796875 14.46484375 C-23.83735951 9.7519035 -23.31793658 5.74877804 -20.109375 2.09765625 C-14.70680154 -1.91964196 -6.22725519 -2.66388139 0 0 Z " fill="#FFFFFF" transform="translate(1054.109375,363.90234375)"/>
<path d="M0 0 C1.63671875 0.8203125 1.63671875 0.8203125 3.88671875 2.3203125 C3.13671875 4.2578125 3.13671875 4.2578125 1.88671875 6.3203125 C-0.17578125 7.1328125 -0.17578125 7.1328125 -2.11328125 7.3203125 C-2.44328125 6.9903125 -2.77328125 6.6603125 -3.11328125 6.3203125 C-7.29961595 5.80232788 -10.91748252 5.6786644 -14.67578125 7.6953125 C-16.8976341 11.75260901 -16.57450278 15.79126826 -16.11328125 20.3203125 C-15.78328125 21.3103125 -15.45328125 22.3003125 -15.11328125 23.3203125 C-9.09285286 24.20077041 -4.91494782 24.44287344 0.88671875 22.3203125 C1.87671875 22.9803125 2.86671875 23.6403125 3.88671875 24.3203125 C3.63671875 26.1953125 3.63671875 26.1953125 2.88671875 28.3203125 C-0.59032786 30.71972723 -3.91976932 30.61958621 -8.05078125 30.6328125 C-9.25605469 30.64957031 -10.46132813 30.66632813 -11.703125 30.68359375 C-15.36310758 30.2936987 -17.19419844 29.50962461 -20.11328125 27.3203125 C-24.31195263 21.81860517 -23.86879579 14.91847278 -23.11328125 8.3203125 C-18.77829485 -0.99188051 -9.41985597 -3.02967641 0 0 Z " fill="#FFFFFF" transform="translate(639.11328125,363.6796875)"/>
<path d="M0 0 C1.640625 0.81640625 1.640625 0.81640625 3.890625 2.31640625 C3.890625 3.30640625 3.890625 4.29640625 3.890625 5.31640625 C1.515625 6.37890625 1.515625 6.37890625 -1.109375 7.31640625 C-1.769375 6.98640625 -2.429375 6.65640625 -3.109375 6.31640625 C-7.33711346 5.81854516 -10.90800824 5.6424688 -14.671875 7.75390625 C-16.82338457 11.58920592 -16.73302649 15.02189471 -16.109375 19.31640625 C-15.31363987 21.9340133 -15.31363987 21.9340133 -13.109375 23.31640625 C-9.48989041 24.34615346 -6.34967612 24.86765119 -2.859375 23.31640625 C-2.281875 22.98640625 -1.704375 22.65640625 -1.109375 22.31640625 C1.140625 22.69140625 1.140625 22.69140625 2.890625 23.31640625 C3.220625 24.63640625 3.550625 25.95640625 3.890625 27.31640625 C-0.05757024 30.10076782 -2.80091922 30.72511038 -7.609375 30.69140625 C-8.7128125 30.69914062 -9.81625 30.706875 -10.953125 30.71484375 C-15.31923357 30.16367658 -17.97859125 28.60873054 -20.859375 25.31640625 C-23.94944363 20.37229644 -23.54499467 14.94719385 -23.109375 9.31640625 C-21.85370079 5.47962394 -20.54651702 3.7423395 -17.671875 0.94140625 C-12.13880596 -1.5824498 -5.84729622 -1.89495711 0 0 Z " fill="#FFFFFF" transform="translate(717.109375,363.68359375)"/>
<path d="M0 0 C9.24 0 18.48 0 28 0 C28 1.98 28 3.96 28 6 C24.37 6 20.74 6 17 6 C17 14.25 17 22.5 17 31 C15.02 31 13.04 31 11 31 C11 22.75 11 14.5 11 6 C7.37 6 3.74 6 0 6 C0 4.02 0 2.04 0 0 Z " fill="#FFFFFF" transform="translate(647,363)"/>
<path d="M0 0 C3.0625 -0.6875 3.0625 -0.6875 7 0 C9.96109769 3.48129053 14 8.25837425 14 13 C16.97144806 10.37141133 18.85767867 7.62105011 20.875 4.25 C22.40625 1.86328125 22.40625 1.86328125 24 0 C27.375 -0.5625 27.375 -0.5625 30 0 C28.73238278 3.70587548 26.93987947 6.62846619 24.67358398 9.81005859 C19.76660936 16.76685572 17.59997433 22.26343931 18 31 C16.02 31 14.04 31 12 31 C12.05542969 30.33097656 12.11085938 29.66195313 12.16796875 28.97265625 C12.23800221 18.53767142 6.89617459 11.7186859 0.99389648 3.59716797 C0 2 0 2 0 0 Z " fill="#FFFFFF" transform="translate(1175,363)"/>
<path d="M0 0 C3.0625 -0.6875 3.0625 -0.6875 7 0 C9.96109769 3.48129053 14 8.25837425 14 13 C17.43401804 9.87722227 19.57742567 6.01020852 21.98828125 2.08203125 C24 0 24 0 27.23046875 -0.30078125 C28.60138672 -0.15189453 28.60138672 -0.15189453 30 0 C28.73238278 3.70587548 26.93987947 6.62846619 24.67358398 9.81005859 C19.76660936 16.76685572 17.59997433 22.26343931 18 31 C16.02 31 14.04 31 12 31 C12.05542969 30.33097656 12.11085938 29.66195313 12.16796875 28.97265625 C12.23800221 18.53767142 6.89617459 11.7186859 0.99389648 3.59716797 C0 2 0 2 0 0 Z " fill="#FFFFFF" transform="translate(829,363)"/>
<path d="M0 0 C8.91 0 17.82 0 27 0 C27 1.98 27 3.96 27 6 C23.37 6 19.74 6 16 6 C16 14.25 16 22.5 16 31 C14.35 31 12.7 31 11 31 C11 22.75 11 14.5 11 6 C7.37 6 3.74 6 0 6 C0 4.02 0 2.04 0 0 Z " fill="#FFFFFF" transform="translate(1145,363)"/>
<path d="M0 0 C1.65 0 3.3 0 5 0 C5 8.25 5 16.5 5 25 C10.28 25 15.56 25 21 25 C21 26.98 21 28.96 21 31 C14.07 31 7.14 31 0 31 C0 20.77 0 10.54 0 0 Z " fill="#FFFFFF" transform="translate(761,363)"/>
<path d="M0 0 C1.98 0 3.96 0 6 0 C6 10.23 6 20.46 6 31 C4.02 31 2.04 31 0 31 C0 20.77 0 10.54 0 0 Z " fill="#FFFFFF" transform="translate(681,363)"/>
<path d="M0 0 C1.65 0 3.3 0 5 0 C5 10.23 5 20.46 5 31 C3.35 31 1.7 31 0 31 C0 20.77 0 10.54 0 0 Z " fill="#FFFFFF" transform="translate(1133,363)"/>
<path d="M0 0 C1.88343932 3.76687864 2.22057835 5.02958963 2 9 C-0.31 10.32 -2.62 11.64 -5 13 C-6.33855056 12.21718695 -7.67073644 11.42348123 -9 10.625 C-10.11375 9.96371094 -10.11375 9.96371094 -11.25 9.2890625 C-11.8275 8.86367187 -12.405 8.43828125 -13 8 C-13 7.34 -13 6.68 -13 6 C-8.71 4.02 -4.42 2.04 0 0 Z " fill="#D5D5E5" transform="translate(733,107)"/>
<path d="M0 0 C2.54508807 1.27433888 5.01258058 2.61704136 7.45703125 4.07421875 C4.61201028 5.97089939 1.8840324 7.30685353 -1.23046875 8.69921875 C-2.22433594 9.14523438 -3.21820312 9.59125 -4.2421875 10.05078125 C-5.00144531 10.38851562 -5.76070312 10.72625 -6.54296875 11.07421875 C-7.20296875 10.41421875 -7.86296875 9.75421875 -8.54296875 9.07421875 C-8.54296875 8.08421875 -8.54296875 7.09421875 -8.54296875 6.07421875 C-9.53296875 5.74421875 -10.52296875 5.41421875 -11.54296875 5.07421875 C-10.22738172 4.05098439 -8.889287 3.0566672 -7.54296875 2.07421875 C-6.84171875 1.41421875 -6.14046875 0.75421875 -5.41796875 0.07421875 C-2.54296875 -0.92578125 -2.54296875 -0.92578125 0 0 Z " fill="#C8C9DD" transform="translate(712.54296875,118.92578125)"/>
<path d="M0 0 C0.99 0.66 1.98 1.32 3 2 C3 2.66 3 3.32 3 4 C0.31382597 6.0721914 -1.1917705 7.05773068 -4.625 6.8125 C-7 6 -7 6 -10 4 C-7.56416768 -1.39362871 -5.65150386 -1.26870495 0 0 Z " fill="#FDFDFE" transform="translate(723,116)"/>
<path d="M0 0 C0 0.66 0 1.32 0 2 C0.66 2 1.32 2 2 2 C2 2.66 2 3.32 2 4 C2.66 4 3.32 4 4 4 C4.33 4.99 4.66 5.98 5 7 C4.01 7.66 3.02 8.32 2 9 C0.66144944 8.21718695 -0.67073644 7.42348123 -2 6.625 C-2.7425 6.18414062 -3.485 5.74328125 -4.25 5.2890625 C-5.11625 4.65097656 -5.11625 4.65097656 -6 4 C-6 3.34 -6 2.68 -6 2 C-2.25 0 -2.25 0 0 0 Z " fill="#AFB2CD" transform="translate(726,111)"/>
<path d="M0 0 C3.3 1.65 6.6 3.3 10 5 C7 7 7 7 4 8 C4 7.01 4 6.02 4 5 C2.68 5 1.36 5 0 5 C0 4.34 0 3.68 0 3 C-0.99 2.67 -1.98 2.34 -3 2 C-2.01 1.34 -1.02 0.68 0 0 Z " fill="#B5B8D1" transform="translate(710,118)"/>
<path d="M0 0 C0.33 0.66 0.66 1.32 1 2 C3.02463255 2.65213292 3.02463255 2.65213292 5 3 C5 3.99 5 4.98 5 6 C4.01 6.33 3.02 6.66 2 7 C1.34 6.34 0.68 5.68 0 5 C0 4.01 0 3.02 0 2 C-0.66 1.67 -1.32 1.34 -2 1 C-1.34 0.67 -0.68 0.34 0 0 Z " fill="#DCDDEA" transform="translate(704,123)"/>
<path d="M0 0 C1.4606285 2.64738916 2 3.89448334 2 7 C2.66 7.33 3.32 7.66 4 8 C3.01 8 2.02 8 1 8 C1 7.34 1 6.68 1 6 C0.34 6 -0.32 6 -1 6 C-1 5.34 -1 4.68 -1 4 C-1.66 4 -2.32 4 -3 4 C-2.67 3.01 -2.34 2.02 -2 1 C-1.34 0.67 -0.68 0.34 0 0 Z " fill="#C5C7DB" transform="translate(729,109)"/>
</svg>
