<?xml version="1.0" encoding="UTF-8"?>
<svg version="1.1" xmlns="http://www.w3.org/2000/svg" width="1213" height="743">
<path d="M0 0 C38.53218213 -1.16254591 79.04337939 3.64715323 112.86401367 23.13623047 C114.89713228 24.26469693 114.89713228 24.26469693 118.26074219 25.58642578 C121.68844574 27.10940775 124.08748475 28.79182412 126.94042969 31.20751953 C127.88015625 32.00287109 128.81988281 32.79822266 129.78808594 33.61767578 C130.72523437 34.43107422 131.66238281 35.24447266 132.62792969 36.08251953 C133.51351563 36.84435547 134.39910156 37.60619141 135.31152344 38.39111328 C144.12437728 46.13086468 150.40714026 53.55202212 155.62792969 64.08251953 C155.94938965 64.71367676 156.27084961 65.34483398 156.60205078 65.99511719 C173.10792812 98.51752116 172.40476508 133.13512804 161.52636719 167.50439453 C159.17300337 174.59109134 156.37812937 181.44510136 153.38623047 188.28173828 C152.28290147 190.90187824 151.37753181 193.58665699 150.44042969 196.27001953 C144.46653775 211.93183491 135.17509599 226.38441136 125.62792969 240.08251953 C124.95890625 241.14986328 124.28988281 242.21720703 123.60058594 243.31689453 C119.65633777 248.84665236 113.7250526 251.06402431 107.25292969 252.58251953 C99.89806214 253.67595005 93.91015508 251.54128637 87.25292969 248.58251953 C82.43695201 243.99587413 80.45631232 237.93008482 78.62792969 231.64501953 C78.62792969 221.12952784 83.11943558 212.58489457 88.50292969 203.83251953 C89.11523438 202.80900391 89.72753906 201.78548828 90.35839844 200.73095703 C92.9833586 196.35789706 95.66116744 192.02641171 98.41699219 187.73486328 C100.40240406 184.57007935 101.85169354 181.4183429 103.12792969 177.89501953 C103.7428125 176.22826172 103.7428125 176.22826172 104.37011719 174.52783203 C104.78519531 173.39087891 105.20027344 172.25392578 105.62792969 171.08251953 C106.49877078 168.81008805 107.37368338 166.53921211 108.25292969 164.27001953 C108.87361328 162.64580078 108.87361328 162.64580078 109.50683594 160.98876953 C110.14418185 159.33655574 110.79113715 157.68778521 111.46777344 156.05126953 C113.31859959 151.48923317 114.54726508 146.78686517 115.75292969 142.02001953 C115.92381104 141.34672607 116.09469238 140.67343262 116.27075195 139.97973633 C120.67952635 122.03051081 120.02965354 103.80545351 110.36230469 87.62939453 C98.31084692 69.9322088 80.13630659 61.78200068 60.06542969 56.33251953 C59.33485352 56.13360107 58.60427734 55.93468262 57.8515625 55.72973633 C55.45356571 55.11709598 53.05152916 54.58458518 50.62792969 54.08251953 C49.72888916 53.89415527 48.82984863 53.70579102 47.90356445 53.51171875 C34.97457747 51.24709694 21.7701045 51.68706914 8.69042969 51.70751953 C7.39181 51.70806335 6.09319031 51.70860718 4.75521851 51.70916748 C-14.64970153 51.74660357 -33.26435053 52.52029463 -52.37207031 56.08251953 C-54.86156248 56.51143443 -57.35114873 56.93980354 -59.84082031 57.36767578 C-85.36676433 61.91476815 -110.73273751 68.1544496 -135.47753906 75.89501953 C-138.68722075 76.89464335 -141.90438849 77.71518701 -145.18457031 78.45751953 C-155.1380994 80.84749121 -164.75149162 84.62446852 -174.37207031 88.08251953 C-175.26571289 88.40333496 -176.15935547 88.72415039 -177.08007812 89.0546875 C-179.57540954 89.95396982 -182.06820691 90.85980678 -184.55957031 91.77001953 C-185.63380249 92.16108887 -185.63380249 92.16108887 -186.72973633 92.56005859 C-190.88314051 94.0943581 -194.97246814 95.74328012 -199.05175781 97.46533203 C-204.54074022 99.77093871 -210.09012069 101.86551776 -215.67480469 103.92651367 C-228.60506601 108.70588149 -241.11084776 114.00328974 -253.45800781 120.15722656 C-255.72004884 121.25073874 -258.01827593 122.20459219 -260.37207031 123.08251953 C-257.19667475 126.50830902 -257.19667475 126.50830902 -253.37207031 129.08251953 C-253.37207031 129.74251953 -253.37207031 130.40251953 -253.37207031 131.08251953 C-252.49373535 131.2466333 -252.49373535 131.2466333 -251.59765625 131.4140625 C-249.1114539 132.16079594 -247.75569631 133.12987671 -245.76269531 134.77783203 C-245.09415527 135.32568359 -244.42561523 135.87353516 -243.73681641 136.43798828 C-243.0389502 137.02193359 -242.34108398 137.60587891 -241.62207031 138.20751953 C-240.90486816 138.79919922 -240.18766602 139.39087891 -239.44873047 140.00048828 C-235.22827457 143.49433851 -231.04934789 147.0315823 -226.95800781 150.67626953 C-225.45555623 152.00849261 -223.91468066 153.29701091 -222.37207031 154.58251953 C-214.01208037 161.54917782 -206.21885759 168.77005872 -199.13769531 177.04736328 C-197.94761017 178.41912071 -196.72770421 179.76549434 -195.48144531 181.08642578 C-188.84022118 188.21597522 -186.69375379 194.30343066 -186.95410156 204.10986328 C-187.77635294 209.95783804 -190.5661481 214.11725124 -194.49707031 218.39501953 C-200.94545562 222.17994134 -207.57124115 225.068989 -215.12207031 223.68017578 C-223.02404569 221.58121357 -228.06173772 218.9616614 -233.63769531 212.89501953 C-235.66317482 210.77830221 -237.85741234 209.56552295 -240.37207031 208.08251953 C-242.19534971 206.3649988 -243.93419264 204.58088025 -245.67675781 202.78173828 C-247.76588176 200.68780068 -250.05214769 198.91403739 -252.37207031 197.08251953 C-254.03873698 195.41585286 -255.70540365 193.7491862 -257.37207031 192.08251953 C-258.84094796 190.71719912 -260.32106429 189.36391358 -261.80957031 188.02001953 C-262.89044922 187.04355469 -262.89044922 187.04355469 -263.99316406 186.04736328 C-266.39974376 183.99090475 -266.39974376 183.99090475 -269.32519531 182.11767578 C-272.32569238 180.11349761 -274.96193059 177.94660612 -277.68457031 175.58251953 C-284.58037099 169.71859249 -291.93161447 164.54223294 -299.39794922 159.43505859 C-300.64410867 158.58127139 -301.88651845 157.72196123 -303.12353516 156.85498047 C-304.61255864 155.81153083 -306.11675011 154.78981811 -307.62207031 153.77001953 C-308.43160156 153.21701172 -309.24113281 152.66400391 -310.07519531 152.09423828 C-313.01246121 150.80044259 -314.35307266 151.08572568 -317.37207031 152.08251953 C-319.57295788 153.14483156 -319.57295788 153.14483156 -321.68457031 154.45751953 C-324.53720854 156.11101919 -326.97911393 157.2949848 -330.12207031 158.39501953 C-335.65923208 160.3633075 -340.41727498 163.69907139 -345.36132812 166.82128906 C-377.3941104 186.91373117 -377.3941104 186.91373117 -391.37207031 192.08251953 C-391.37207031 192.74251953 -391.37207031 193.40251953 -391.37207031 194.08251953 C-392.80566406 195.13232422 -392.80566406 195.13232422 -394.80957031 196.25439453 C-395.5360376 196.66866699 -396.26250488 197.08293945 -397.01098633 197.50976562 C-397.79014404 197.94627441 -398.56930176 198.3827832 -399.37207031 198.83251953 C-404.68780455 201.87211178 -409.76364948 204.90228342 -414.54150391 208.75244141 C-416.3460474 210.06361144 -418.07050825 210.96121559 -420.09472656 211.88720703 C-424.54369254 214.06289293 -428.33763929 216.81279463 -432.24707031 219.83251953 C-432.94179443 220.36039063 -433.63651855 220.88826172 -434.35229492 221.43212891 C-438.26650408 224.41836723 -442.11749012 227.47273903 -445.93457031 230.58251953 C-449.02094412 233.08859343 -452.02761788 235.11266661 -455.53613281 236.95751953 C-457.96967304 238.44871014 -460.05921779 240.25145527 -462.24707031 242.08251953 C-469.83385823 248.22747445 -477.4275036 251.65624453 -487.37207031 251.08251953 C-494.87354853 249.4045573 -500.07471809 246.76650662 -504.55175781 240.40673828 C-508.49941764 233.83184278 -508.31966265 226.83473072 -506.85253906 219.47705078 C-504.29906831 211.56506504 -498.35087507 206.49950112 -492.37207031 201.08251953 C-491.71078125 200.45603516 -491.04949219 199.82955078 -490.36816406 199.18408203 C-483.31889317 192.6981438 -475.21570514 187.30150588 -467.25097656 182.00830078 C-464.58602851 180.22564218 -462.0083276 178.36852415 -459.43457031 176.45751953 C-453.1165843 171.83586949 -446.61433903 167.50967968 -440.07470703 163.21069336 C-438.46099136 162.14143897 -436.86325859 161.04817691 -435.26660156 159.95361328 C-432.52806021 158.1833551 -429.82234376 156.77485248 -426.87207031 155.39501953 C-422.2397754 153.12171081 -417.87279714 150.59419222 -413.55957031 147.77001953 C-402.28550508 140.39356414 -390.82859612 133.62735407 -378.80493164 127.53198242 C-374.61803913 125.38446191 -370.93596101 123.2098694 -367.37207031 120.08251953 C-399.08178267 103.84815881 -433.07649686 91.09498378 -467.12207031 80.64501953 C-467.83435791 80.42225342 -468.54664551 80.1994873 -469.28051758 79.9699707 C-476.14181221 77.93719761 -483.17035715 76.75790832 -490.20117188 75.4828186 C-493.79815156 74.81955974 -497.38524897 74.10694725 -500.97363281 73.39892578 C-580.36406994 57.85949844 -660.91664035 55.2121421 -739.51660156 76.32910156 C-742.72232098 77.17493348 -745.94192605 77.93691772 -749.17114258 78.68652344 C-757.89202229 80.73605567 -766.08799533 83.72831293 -774.37207031 87.08251953 C-775.49186279 87.53135498 -775.49186279 87.53135498 -776.63427734 87.98925781 C-787.14885305 92.22542494 -797.33677342 96.92240249 -807.41894531 102.10205078 C-809.85823242 103.35041942 -812.24657079 104.44472682 -814.78613281 105.49658203 C-819.41075112 107.54189253 -823.66848205 110.04017976 -827.99707031 112.64501953 C-828.87572754 113.171521 -829.75438477 113.69802246 -830.65966797 114.24047852 C-837.01500934 118.11084532 -842.8976188 122.30631876 -848.64550781 127.02392578 C-851.43936557 129.13332841 -854.2358264 130.54571825 -857.37207031 132.08251953 C-863.89965491 136.65072798 -869.69086804 142.15086286 -875.48583984 147.59472656 C-878.81138218 150.7021367 -882.21644018 153.59449163 -885.80957031 156.39501953 C-894.92979465 163.70992087 -902.74665586 172.75200893 -910.09936523 181.81054688 C-911.37207031 183.08251953 -911.37207031 183.08251953 -913.37207031 183.08251953 C-913.74332031 183.88689453 -913.74332031 183.88689453 -914.12207031 184.70751953 C-917.25110464 190.65268476 -921.44188345 196.01101602 -925.43457031 201.39501953 C-925.96373047 202.12269531 -926.49289062 202.85037109 -927.03808594 203.60009766 C-927.55177734 204.29167969 -928.06546875 204.98326172 -928.59472656 205.69580078 C-929.28707397 206.63613159 -929.28707397 206.63613159 -929.9934082 207.59545898 C-931.37207031 209.08251953 -931.37207031 209.08251953 -934.37207031 210.08251953 C-935.09662666 211.72484725 -935.74981427 213.39876788 -936.37207031 215.08251953 C-938.6246844 219.14014405 -940.98673237 223.11142177 -943.41601562 227.06616211 C-948.79111665 235.84864989 -953.60867418 244.88860902 -958.31640625 254.04296875 C-959.18564721 255.72234872 -960.07671672 257.390412 -960.97363281 259.05517578 C-963.71872977 264.23380961 -965.51736546 269.40213691 -967.14550781 275.02783203 C-968.08496438 278.22132626 -969.13859204 281.36526425 -970.22363281 284.51220703 C-990.58027976 343.5793789 -988.99674948 401.43168995 -968.32421875 460.12597656 C-965.09789582 470.14412288 -965.77672132 478.57333202 -970.37207031 488.08251953 C-974.47765132 493.75788152 -980.87917754 496.3260631 -987.66894531 497.46923828 C-995.01306023 497.84686121 -1002.04952844 495.15039882 -1007.80957031 490.64501953 C-1011.82118264 486.6334072 -1013.61216416 482.70828681 -1015.50488281 477.39111328 C-1016.0944807 475.8215081 -1016.73774903 474.27125453 -1017.42675781 472.74267578 C-1028.26404242 448.62440514 -1033.20162988 421.30325944 -1035.37207031 395.08251953 C-1035.48292969 393.85146484 -1035.59378906 392.62041016 -1035.70800781 391.35205078 C-1039.14620619 348.00287396 -1031.4489792 305.54281342 -1017.26220703 264.69140625 C-1016.4821617 262.40518453 -1015.74292023 260.11368192 -1015.03222656 257.80517578 C-1012.33048902 249.13596408 -1008.72500499 241.35027207 -1004.53271484 233.33642578 C-1003.24719611 230.84002088 -1002.00791032 228.32377165 -1000.77441406 225.80126953 C-1000.33379639 224.9036792 -999.89317871 224.00608887 -999.43920898 223.08129883 C-998.58019993 221.32936618 -997.72472161 219.5756966 -996.87329102 217.82006836 C-994.72131026 213.46593904 -992.47826698 209.84231175 -989.37207031 206.08251953 C-988.40702051 204.231957 -987.49148591 202.35489121 -986.62207031 200.45751953 C-983.5175038 194.09315817 -979.63445212 188.71066453 -975.37207031 183.08251953 C-973.60634177 180.67705395 -971.8624811 178.25634107 -970.12207031 175.83251953 C-969.70989258 175.2661377 -969.29771484 174.69975586 -968.87304688 174.11621094 C-966.82951804 171.27466172 -964.96729621 168.42911704 -963.27441406 165.36376953 C-961.6944294 162.63853931 -960.4804492 160.89597611 -958.18457031 158.83251953 C-954.25177764 155.08539519 -950.91345326 150.95253385 -947.50878906 146.72705078 C-945.2881646 143.97867279 -943.01029614 141.29172191 -940.69238281 138.62548828 C-939.42325382 137.14233458 -938.20870301 135.61300294 -936.99707031 134.08251953 C-933.74263276 130.36316232 -930.12334204 127.2867308 -926.37207031 124.08251953 C-919.59297481 118.29714183 -919.59297481 118.29714183 -913.55957031 111.77001953 C-910.77991822 108.35501839 -907.83576481 105.93043605 -904.03222656 103.72705078 C-901.23486958 101.99770087 -898.82493287 100.0745215 -896.30957031 97.95751953 C-885.85827977 89.30672049 -875.0894903 81.10964216 -863.14941406 74.62548828 C-859.37388243 72.52797071 -855.6556646 70.33731717 -851.93457031 68.14501953 C-851.18788086 67.70609375 -850.44119141 67.26716797 -849.671875 66.81494141 C-845.79387072 64.53014628 -841.94712624 62.20518106 -838.12207031 59.83251953 C-831.03265873 55.57646121 -823.59641736 51.96682266 -815.63769531 49.69189453 C-810.08881689 48.07641803 -804.91091337 45.83039463 -799.62207031 43.52001953 C-714.32853112 7.28836444 -618.06579137 3.55114724 -413.24023438 46.50317383 C-407.37969181 48.73593721 -401.81187731 50.53633226 -395.63549805 51.61621094 C-391.94040738 52.37746897 -388.57595248 53.78069298 -385.12207031 55.27001953 C-384.38811035 55.5797168 -383.65415039 55.88941406 -382.89794922 56.20849609 C-377.28130907 58.61197488 -371.81877936 61.27263126 -366.37988281 64.05517578 C-361.16905371 66.71250735 -355.89473476 69.238267 -350.62207031 71.77001953 C-349.66349121 72.23375977 -348.70491211 72.6975 -347.71728516 73.17529297 C-342.33487285 75.75550719 -336.9246635 78.13737482 -331.359375 80.29663086 C-329.37207031 81.08251953 -329.37207031 81.08251953 -327.37207031 82.08251953 C-327.37207031 82.74251953 -327.37207031 83.40251953 -327.37207031 84.08251953 C-326.58832031 84.30939453 -325.80457031 84.53626953 -324.99707031 84.77001953 C-321.37207031 86.08251953 -321.37207031 86.08251953 -319.28540039 87.51318359 C-316.62134985 89.25294893 -314.47573855 90.33475129 -311.37207031 91.08251953 C-306.60912937 89.92434494 -302.65029546 87.59784971 -298.43457031 85.14501953 C-296.22019113 83.92199888 -294.00276651 82.70447487 -291.78222656 81.49267578 C-290.70674561 80.89986816 -289.63126465 80.30706055 -288.52319336 79.69628906 C-284.73666566 77.7571128 -280.90149513 76.34014 -276.88110352 74.97094727 C-273.08709279 73.62751971 -269.53756986 71.8650908 -265.93457031 70.08251953 C-257.74993547 66.13026905 -249.46649114 62.43441177 -241.12207031 58.83251953 C-239.41966187 58.09001953 -239.41966187 58.09001953 -237.68286133 57.33251953 C-230.58424613 54.2887217 -223.43131142 51.69739702 -216.08691406 49.31103516 C-210.1644214 47.35244005 -204.33968348 45.14045193 -198.49707031 42.95751953 C-174.99564472 34.26664674 -151.5618748 26.14890918 -127.07080078 20.70458984 C-123.03606618 19.77456417 -119.05203716 18.67730483 -115.05957031 17.58251953 C-83.40688079 9.08941795 -50.99321607 3.90469175 -18.37207031 1.08251953 C-17.56640625 1.01049316 -16.76074219 0.9384668 -15.93066406 0.86425781 C-10.62269299 0.40359826 -5.32322582 0.18518427 0 0 Z " fill="#174480" transform="translate(1038.3720703125,1.91748046875)"/>
<path d="M0 0 C0.43625453 19.05089984 0.72210424 37.39303297 -4 56 C-4.17660156 56.73347656 -4.35320312 57.46695313 -4.53515625 58.22265625 C-13.12053458 93.26371892 -33.47945528 126.26417124 -56 154 C-56.75539063 154.94617188 -57.51078125 155.89234375 -58.2890625 156.8671875 C-62.58860121 162.20097951 -67.04171283 167.36172035 -71.6640625 172.41796875 C-72.90011137 173.78423682 -74.13134301 175.15574952 -75.3190918 176.56420898 C-81.04122673 183.30321027 -87.33187166 189.48252902 -93.58862305 195.71899414 C-95.56480114 197.68979488 -97.53555548 199.66590656 -99.50585938 201.64257812 C-100.77572103 202.91177922 -102.04589272 204.18067021 -103.31640625 205.44921875 C-103.89781876 206.03265549 -104.47923126 206.61609222 -105.07826233 207.21720886 C-108.57080122 210.69000252 -112.17149302 213.90049113 -116 217 C-111.88197508 222.84223861 -107.27560217 228.10301991 -102.4296875 233.3515625 C-100.46605453 235.49198557 -98.56563178 237.66048641 -96.6875 239.875 C-93.45924261 243.58520103 -90.03043533 247.07820882 -86.5625 250.5625 C-85.7739563 251.35793213 -85.7739563 251.35793213 -84.96948242 252.16943359 C-78.05174627 259.06062432 -70.54872469 265.25591869 -63 271.4375 C-62.22527344 272.07365234 -61.45054687 272.70980469 -60.65234375 273.36523438 C-58.76916389 274.91130179 -56.88504225 276.45620433 -55 278 C-50.71010192 275.240379 -46.7498898 272.25951572 -42.875 268.9375 C-42.31224365 268.45780762 -41.7494873 267.97811523 -41.16967773 267.48388672 C-35.86833887 262.93733739 -30.71242678 258.24090497 -25.60058594 253.48291016 C-23.8695742 251.87916316 -22.1269376 250.28869009 -20.3828125 248.69921875 C-12.24369132 241.26668655 -12.24369132 241.26668655 -4.8203125 233.1328125 C-2.88353659 230.86354287 -0.85173033 228.69699592 1.1953125 226.52734375 C7.44630615 219.88369974 13.15979599 212.94931845 18.69287109 205.70117188 C19.94275202 204.07450578 21.21131238 202.46482299 22.48828125 200.859375 C33.11944392 187.36271554 42.4701129 172.90492783 51 158 C51.45342773 157.21206055 51.90685547 156.42412109 52.37402344 155.61230469 C68.19390899 127.93543077 90 87.13117713 90 54 C86.04 52.02 82.08 50.04 78 48 C77.82597656 49.46373047 77.82597656 49.46373047 77.6484375 50.95703125 C69.02522651 110.58847474 25.94826004 171.82659955 -12 217 C-12.4316748 217.5165918 -12.86334961 218.03318359 -13.30810547 218.56542969 C-19.39373504 225.84571781 -25.59860774 232.99409178 -32 240 C-32.90773117 241.00113974 -33.81527481 242.00244953 -34.72265625 243.00390625 C-40.00468659 248.81750745 -45.3719959 254.51713067 -51 260 C-55.17101773 258.41244952 -57.68742385 255.32557564 -60.5625 252.0625 C-64.6720299 247.42813943 -64.6720299 247.42813943 -69 243 C-67.57925676 239.754387 -65.86237319 237.6373841 -63.33203125 235.171875 C-62.60306641 234.45386719 -61.87410156 233.73585938 -61.12304688 232.99609375 C-60.36056641 232.25488281 -59.59808594 231.51367188 -58.8125 230.75 C-53.2882108 225.35507404 -48.00995903 219.87646854 -43 214 C-42.01527155 212.87026618 -41.02963304 211.74132478 -40.04296875 210.61328125 C-33.39795478 202.95398005 -27.06781543 195.12480907 -21 187 C-20.46084961 186.28150879 -19.92169922 185.56301758 -19.36621094 184.82275391 C-11.57697074 174.42622756 -4.00491465 163.94207875 3 153 C3.48259277 152.25121582 3.96518555 151.50243164 4.46240234 150.73095703 C31.95648787 107.88246888 50.38150008 62.94195154 60 13 C78.47604682 15.44288157 97.11936086 27.34248987 112 38 C112.96164062 38.62261719 113.92328125 39.24523437 114.9140625 39.88671875 C117 42 117 42 117.48046875 44.94140625 C112.11866174 111.21334085 76.35084547 177.20045533 34.41064453 227.30126953 C32.44349082 229.6701611 30.54106003 232.08970393 28.625 234.5 C19.47446326 245.63978385 9.22614586 255.85712656 -0.9375 266.0625 C-1.71786621 266.84753906 -2.49823242 267.63257813 -3.30224609 268.44140625 C-8.04036769 273.16638045 -12.9181265 277.64896672 -18 282 C-19.08297224 282.94944858 -20.16505077 283.89991784 -21.24609375 284.8515625 C-27.69036266 290.47141322 -34.27415607 295.86213712 -41.0625 301.0625 C-41.77656006 301.6105127 -42.49062012 302.15852539 -43.22631836 302.72314453 C-46.71273734 305.3682422 -50.17876636 307.84729723 -54 310 C-66.05835907 302.29236755 -77.24555076 293.72066081 -87.78515625 284.03515625 C-89.76565997 282.21532831 -91.77626277 280.44433669 -93.8125 278.6875 C-109.97885682 264.55836701 -109.97885682 264.55836701 -116.15234375 257.15625 C-118.06359252 254.92578632 -120.07168544 252.80415166 -122.09643555 250.67700195 C-129.16890791 243.20690777 -135.41188042 235.22550329 -141.53417969 226.96679688 C-142.88327503 225.15661832 -144.25291978 223.36486831 -145.6328125 221.578125 C-146.37273437 220.60359375 -147.11265625 219.6290625 -147.875 218.625 C-148.51179688 217.79226563 -149.14859375 216.95953125 -149.8046875 216.1015625 C-150.39636719 215.06128906 -150.39636719 215.06128906 -151 214 C-149.66571833 209.99715498 -147.01122796 208.48899863 -143.75 206.0625 C-136.94393072 200.86434272 -130.68876787 195.24440921 -124.46679688 189.36962891 C-122.3484495 187.39161147 -120.17322549 185.47984572 -118 183.5625 C-109.87970143 176.27675088 -101.95978449 168.57503952 -94.90625 160.2421875 C-93.3666952 158.43131772 -91.80355711 156.65363477 -90.21875 154.8828125 C-57.74313007 118.37486618 -27.44845324 72.22396684 -25 22 C-37.1403028 21.04430148 -49.26528933 20.69856904 -61.4375 20.4375 C-63.34440787 20.39417962 -65.251309 20.35056172 -67.15820312 20.30664062 C-71.77206516 20.20100584 -76.38599889 20.09936669 -81 20 C-81.26719849 20.9283667 -81.26719849 20.9283667 -81.53979492 21.87548828 C-91.83092933 56.98877215 -110.97644176 90.00607006 -133 119 C-133.48597656 119.64291992 -133.97195312 120.28583984 -134.47265625 120.94824219 C-139.9253877 128.12816719 -145.61578102 134.96297021 -151.75390625 141.5703125 C-153.62254095 143.59168778 -155.413538 145.64652343 -157.1875 147.75 C-160.88631438 152.00274311 -164.8494785 155.99547845 -168.8125 160 C-169.48369873 160.68416992 -170.15489746 161.36833984 -170.84643555 162.07324219 C-171.79836792 163.0269873 -171.79836792 163.0269873 -172.76953125 164 C-173.34292236 164.5775 -173.91631348 165.155 -174.50708008 165.75 C-176 167 -176 167 -178 167 C-199.46006982 129.52013858 -210.6623091 88.92953992 -215 46 C-215.12713379 44.77953979 -215.12713379 44.77953979 -215.25683594 43.53442383 C-215.45830248 40.14346084 -215.36351381 38.43667867 -213.15625 35.78515625 C-212.2796875 35.21667969 -211.403125 34.64820313 -210.5 34.0625 C-209.48292969 33.40121094 -208.46585938 32.73992187 -207.41796875 32.05859375 C-206.29003906 31.37925781 -205.16210938 30.69992188 -204 30 C-203.43748535 29.64824707 -202.8749707 29.29649414 -202.29541016 28.93408203 C-175.23007991 12.07979717 -144.87245146 5.03920688 -114 -1 C-114.58791146 2.55574509 -115.52720883 5.42129203 -117.15234375 8.6328125 C-117.81399536 9.94946899 -117.81399536 9.94946899 -118.48901367 11.29272461 C-119.2060144 12.69470093 -119.2060144 12.69470093 -119.9375 14.125 C-120.43548096 15.10927979 -120.93346191 16.09355957 -121.4465332 17.10766602 C-124.85475757 23.82076963 -128.32072191 30.50310143 -131.86572266 37.14501953 C-134.28370974 41.68758987 -136.64148173 46.2557674 -138.94676208 50.8563385 C-140.37115465 53.6973602 -141.80565739 56.53323504 -143.24014282 59.36917114 C-143.95064444 60.78097439 -144.65626108 62.19524747 -145.35678101 63.61203003 C-146.34650243 65.61246796 -147.35308869 67.60358919 -148.36328125 69.59375 C-148.94376221 70.75583984 -149.52424316 71.91792969 -150.12231445 73.11523438 C-153.52165525 78.33778161 -158.11215661 79.60832793 -164 81 C-165.32 81 -166.64 81 -168 81 C-169.20213133 77.56744035 -170.38414794 74.12828802 -171.5625 70.6875 C-171.90474609 69.71103516 -172.24699219 68.73457031 -172.59960938 67.72851562 C-172.91865234 66.79072266 -173.23769531 65.85292969 -173.56640625 64.88671875 C-174.01415405 63.59060669 -174.01415405 63.59060669 -174.47094727 62.26831055 C-175 60 -175 60 -174 57 C-173.01 56.67 -172.02 56.34 -171 56 C-169.75875157 54.2997818 -169.75875157 54.2997818 -168.73828125 52.18359375 C-168.14370117 51.03793945 -168.14370117 51.03793945 -167.53710938 49.86914062 C-167.13298828 49.06669922 -166.72886719 48.26425781 -166.3125 47.4375 C-165.89677734 46.63119141 -165.48105469 45.82488281 -165.05273438 44.99414062 C-164.02636638 43.0003913 -163.00928802 41.00243503 -162 39 C-166.65499387 39 -171.41509759 42.25171422 -175.5625 44.1875 C-176.64208984 44.67025391 -177.72167969 45.15300781 -178.83398438 45.65039062 C-179.85943359 46.13056641 -180.88488281 46.61074219 -181.94140625 47.10546875 C-182.88701416 47.54012451 -183.83262207 47.97478027 -184.80688477 48.42260742 C-187.17881716 49.81922498 -187.17881716 49.81922498 -187.86303711 52.32470703 C-188.0134126 55.26198797 -187.75265036 57.8001733 -187.25 60.69921875 C-187.05728516 61.81345215 -186.86457031 62.92768555 -186.66601562 64.07568359 C-186.44623047 65.26758301 -186.22644531 66.45948242 -186 67.6875 C-185.77505859 68.92322754 -185.55011719 70.15895508 -185.31835938 71.43212891 C-181.51957437 99.31129107 -181.51957437 99.31129107 -170 124 C-140.61668359 88.58387709 -117.57033177 49.80780816 -103 6 C-102.55188965 4.66050293 -102.55188965 4.66050293 -102.09472656 3.29394531 C-101.39403621 1.19677992 -100.69662218 -0.90147976 -100 -3 C-66.86232879 -7.04734915 -32.80642974 -6.12885467 0 0 Z " fill="#335497" transform="translate(381,171)"/>
<path d="M0 0 C4.79662608 4.33980455 7.20966808 9.61053289 8.03125 15.93359375 C8.46622718 24.79131094 5.71482264 32.07446342 -0.2109375 38.73046875 C-4.19599339 42.36595834 -8.5881877 44.933353 -13.27734375 47.55859375 C-16.40681736 49.34249451 -19.52967716 51.13781105 -22.65234375 52.93359375 C-23.85117188 53.61808594 -23.85117188 53.61808594 -25.07421875 54.31640625 C-29.88090915 57.08530881 -34.51624813 60.02072706 -39.11181641 63.12597656 C-42.41891706 65.3138082 -45.82574587 67.29683479 -49.27734375 69.24609375 C-50.24800781 69.81166992 -50.24800781 69.81166992 -51.23828125 70.38867188 C-54.59454586 72.28900747 -57.79326644 73.79242475 -61.48828125 74.91015625 C-67.7004679 76.86227272 -73.22383255 80.10828493 -78.90234375 83.24609375 C-80.05371826 83.87314209 -81.20509277 84.50019043 -82.39135742 85.14624023 C-86.51130854 87.39024318 -90.62438805 89.64645945 -94.73193359 91.91308594 C-96.68146256 92.98822354 -98.63532551 94.05506625 -100.58984375 95.12109375 C-101.59660156 95.67925781 -102.60335937 96.23742187 -103.640625 96.8125 C-106.79764876 98.42938507 -110.07113233 99.64240623 -113.390625 100.88671875 C-120.18646173 103.45470179 -126.64561752 106.52596262 -133.15234375 109.74609375 C-141.99817862 114.06242744 -150.87667308 118.25574184 -159.90234375 122.18359375 C-160.81870605 122.58473389 -161.73506836 122.98587402 -162.67919922 123.39916992 C-166.56431278 125.07269644 -170.42905932 126.65350089 -174.45703125 127.94921875 C-180.62931982 129.93787121 -186.61478052 132.42182422 -192.63296509 134.82769775 C-203.73193416 139.25768177 -214.85519832 143.60790632 -226.08984375 147.68359375 C-227.05277344 148.03695801 -228.01570313 148.39032227 -229.0078125 148.75439453 C-234.63900041 150.77243404 -240.2642239 152.33899004 -246.07788086 153.73632812 C-251.50193704 155.13031677 -256.81024073 156.88595704 -262.13980103 158.60089111 C-278.37964544 163.80723546 -294.72635473 168.43346236 -311.27734375 172.55859375 C-311.93633667 172.72381531 -312.59532959 172.88903687 -313.27429199 173.05926514 C-361.43542916 185.10608005 -411.49524174 192.76517331 -461.21484375 192.80859375 C-462.02905792 192.80960083 -462.84327209 192.81060791 -463.68215942 192.81164551 C-517.50908865 192.76723762 -575.6607031 184.07598555 -616.7109375 146.3203125 C-623.55345223 139.24497118 -628.51786624 130.34187714 -628.90234375 120.37109375 C-628.49553899 113.38144832 -626.77351292 106.44029221 -621.46484375 101.55859375 C-613.80582433 96.7529345 -605.21242439 96.50639109 -596.45703125 98.05859375 C-591.03247093 99.48355288 -587.95807308 101.19983534 -584.27734375 105.55859375 C-579.0906438 111.41124036 -573.51685311 115.59288972 -566.84985352 119.58886719 C-565.29610118 120.53166471 -563.78233583 121.53976484 -562.27734375 122.55859375 C-562.27734375 123.21859375 -562.27734375 123.87859375 -562.27734375 124.55859375 C-561.61992188 124.70554687 -560.9625 124.8525 -560.28515625 125.00390625 C-554.73654805 126.31211469 -549.34151958 127.83616672 -543.96264648 129.71313477 C-533.85938831 133.23232114 -523.83278872 135.80910481 -513.27734375 137.55859375 C-512.38724609 137.7095752 -511.49714844 137.86055664 -510.58007812 138.01611328 C-476.24588752 143.53028423 -439.6630004 141.95078263 -405.27734375 137.55859375 C-404.24084686 137.42777405 -404.24084686 137.42777405 -403.18341064 137.29431152 C-386.20387392 135.14123376 -369.4226904 132.44965078 -352.7331543 128.61401367 C-347.29884715 127.36957035 -341.93223515 126.33369327 -336.40234375 125.609375 C-328.95148017 124.59759911 -321.78962493 122.85791488 -314.52734375 120.93359375 C-313.86159332 120.75907684 -313.1958429 120.58455994 -312.50991821 120.40475464 C-293.14644248 115.32500508 -274.09556592 109.37940217 -255.25268555 102.61547852 C-250.36767302 100.88008087 -245.55778132 99.33941304 -240.50390625 98.17578125 C-232.89893555 96.34967306 -225.76202695 93.4116287 -218.52734375 90.49609375 C-217.07320345 89.91704575 -215.61885504 89.33852014 -214.16430664 88.76049805 C-204.33689856 84.84323084 -194.55346134 80.82075555 -184.83886719 76.63061523 C-180.9579834 74.9771897 -177.20683001 73.44795991 -173.09375 72.484375 C-169.10745149 71.5173814 -165.49992627 70.11381451 -161.77734375 68.43359375 C-161.0901123 68.1279248 -160.40288086 67.82225586 -159.69482422 67.50732422 C-152.10455034 64.09334314 -144.69093255 60.33677071 -137.27734375 56.55859375 C-134.11350858 54.9487717 -130.94623786 53.34593014 -127.77734375 51.74609375 C-127.04789551 51.37307129 -126.31844727 51.00004883 -125.56689453 50.61572266 C-122.16883858 48.90075049 -118.8131468 47.34258383 -115.2265625 46.0625 C-111.08182191 44.56304622 -107.38872891 42.52611344 -103.58984375 40.30859375 C-102.19841232 39.51215428 -100.806477 38.71659453 -99.4140625 37.921875 C-98.72489746 37.52693848 -98.03573242 37.13200195 -97.32568359 36.72509766 C-94.20344834 34.94702375 -91.05902539 33.21212105 -87.90234375 31.49609375 C-86.86335937 30.92761719 -85.824375 30.35914063 -84.75390625 29.7734375 C-82.27734375 28.55859375 -82.27734375 28.55859375 -80.27734375 28.55859375 C-80.27734375 27.89859375 -80.27734375 27.23859375 -80.27734375 26.55859375 C-75.67759403 23.91973507 -71.15089074 21.50145864 -66.24609375 19.47265625 C-59.81527467 16.48691882 -53.81372501 12.50926494 -47.78125 8.796875 C-46.99596924 8.31412109 -46.21068848 7.83136719 -45.40161133 7.33398438 C-43.85627036 6.38183187 -42.31302005 5.42627509 -40.7722168 4.46679688 C-27.6626661 -3.62929353 -14.28051241 -9.8819973 0 0 Z " fill="#174480" transform="translate(952.27734375,403.44140625)"/>
<path d="M0 0 C2.15180898 1.88347789 3.36860644 3.57762774 5 6 C5.556875 6.78375 6.11375 7.5675 6.6875 8.375 C14.31160352 23.62320705 11.0297891 43.98102417 9.88305664 60.36352539 C9.68910483 63.1643251 9.50926019 65.96579979 9.33007812 68.76757812 C8.0186148 88.33266319 4.92468108 106.55255141 -1.875 125 C-2.22796143 125.96478271 -2.58092285 126.92956543 -2.94458008 127.92358398 C-5.03394137 133.57217295 -7.25934826 139.09307559 -9.87109375 144.5234375 C-11.16494816 147.3618586 -12.19639597 150.25169487 -13.25 153.1875 C-17.72959631 164.99353888 -24.67378538 175.65305788 -31.41113281 186.27832031 C-33.8651294 190.1509443 -36.19383766 194.06246237 -38.4375 198.0625 C-41.28687617 203.00459982 -44.46702419 207.63620533 -47.8125 212.25 C-48.29323975 212.919104 -48.77397949 213.58820801 -49.26928711 214.27758789 C-50.46068682 215.89157176 -51.72449477 217.45162549 -53 219 C-53.66 219 -54.32 219 -55 219 C-55.27585937 219.58523438 -55.55171875 220.17046875 -55.8359375 220.7734375 C-57.78565169 224.50275659 -60.43357615 227.67806711 -63 231 C-63.54269531 231.7425 -64.08539062 232.485 -64.64453125 233.25 C-69.33050821 239.45713288 -74.6983562 244.59414269 -80.42602539 249.8112793 C-84.12717385 253.19686541 -87.58563688 256.63941289 -90.875 260.4375 C-94.83681673 264.96845831 -99.12036698 268.49974037 -104 272 C-105.87541901 273.35358632 -107.75040526 274.70777238 -109.625 276.0625 C-110.91277344 276.97708984 -110.91277344 276.97708984 -112.2265625 277.91015625 C-114.34398509 279.50567891 -116.30503503 281.12312459 -118.2890625 282.87109375 C-122.21503108 286.2725683 -126.41879861 289.14230011 -130.75 292 C-131.48476563 292.495 -132.21953125 292.99 -132.9765625 293.5 C-138.79874307 297.36802308 -144.83296469 300.7173407 -151 304 C-151.94069336 304.51095215 -152.88138672 305.0219043 -153.85058594 305.54833984 C-156.72607198 307.10944386 -159.61188776 308.64990178 -162.5 310.1875 C-163.45519531 310.70763672 -164.41039062 311.22777344 -165.39453125 311.76367188 C-176.03656792 317.40150321 -186.27033135 321.00954259 -198.1875 317.6875 C-204.25238378 315.64732503 -207.57482421 314.19419264 -210.75 308.4375 C-214.4257316 300.42300926 -214.83760696 293.59623638 -211.94921875 285.2578125 C-208.45402565 276.94414332 -202.70090468 273.12250471 -194.8125 269.375 C-177.14954177 260.85166723 -177.14954177 260.85166723 -161.1484375 249.65625 C-157.60702833 246.92614548 -153.70139638 244.83979508 -149.796875 242.67578125 C-144.87627059 239.72754201 -141.00930742 236.07051822 -137 232 C-135.04262129 230.12196539 -133.05560803 228.27748834 -131.0625 226.4375 C-130.56298828 225.96892578 -130.06347656 225.50035156 -129.54882812 225.01757812 C-127.09223919 222.75117672 -124.77259848 220.85373023 -121.9453125 219.03515625 C-118.6404471 216.75155563 -116.2949606 214.10539321 -113.8125 211 C-112.85770916 209.83669921 -111.90061552 208.67528523 -110.94140625 207.515625 C-110.45687988 206.92974609 -109.97235352 206.34386719 -109.47314453 205.74023438 C-107.15088227 202.99693219 -104.70304301 200.37601399 -102.25 197.75 C-96.5021376 191.55075066 -91.15846379 185.36354375 -87.12890625 177.89453125 C-85.74197148 175.56697637 -84.13604641 173.47261877 -82.5 171.3125 C-70.62892181 155.08869314 -62.02758069 137.3662745 -54 119 C-53.49315674 117.86473877 -53.49315674 117.86473877 -52.97607422 116.70654297 C-49.7327956 109.41765401 -47.28402059 102.01320173 -45.25 94.3125 C-45.05092041 93.58369629 -44.85184082 92.85489258 -44.64672852 92.10400391 C-40.23115946 74.21801057 -40.50699582 55.11317987 -39.97094727 36.81176758 C-39.87878988 33.75812674 -39.7704271 30.70537687 -39.66015625 27.65234375 C-39.63816666 26.74379135 -39.61617706 25.83523895 -39.59352112 24.89915466 C-39.30816944 17.40950213 -38.41067802 8.83087162 -33.9375 2.5625 C-24.21701624 -5.91707094 -11.00337662 -6.46672224 0 0 Z " fill="#174480" transform="translate(1044,417)"/>
<path d="M0 0 C0.82741699 0.12358887 1.65483398 0.24717773 2.50732422 0.37451172 C33.62288408 5.17001646 66.1331983 17.18490618 85.5390625 43.31640625 C100.99240748 65.40301174 103.52476138 91.86913746 99.03515625 117.859375 C92.75908807 150.74173419 76.51479477 184.67538649 56 211 C52.535 209.02 52.535 209.02 49 207 C50.21461023 203.50397902 51.81132339 200.70063421 53.96923828 197.70263672 C66.96636983 179.53790818 77.00723334 158.14648045 84 137 C84.25458984 136.24299805 84.50917969 135.48599609 84.77148438 134.70605469 C92.63559027 110.97957245 95.08653426 83.09567665 84.42578125 59.79296875 C72.51299489 36.4569626 52.0322742 23.83404513 27.75 15.8125 C22.3235457 14.2496275 16.83909436 13.02238062 11.3125 11.875 C10.56000977 11.71620361 9.80751953 11.55740723 9.03222656 11.39379883 C-6.77227813 8.28103842 -22.50355182 7.65632699 -38.5625 7.75 C-39.52932709 7.75343414 -40.49615417 7.75686829 -41.49227905 7.76040649 C-94.29741984 7.97983578 -147.02278089 18.78647326 -197.24072266 34.8046875 C-199.88422412 35.64522414 -202.52905674 36.47923842 -205.17724609 37.3046875 C-250.62011931 51.47820648 -294.5484221 69.46204119 -337.28295898 90.40307617 C-339.18305145 91.33341092 -341.08544432 92.25888829 -342.98828125 93.18359375 C-344.09727783 93.72556396 -345.20627441 94.26753418 -346.34887695 94.82592773 C-349 96 -349 96 -351 96 C-351 96.66 -351 97.32 -351 98 C-350.33871094 98.226875 -349.67742188 98.45375 -348.99609375 98.6875 C-345.07318265 100.40601125 -341.63622746 102.65338126 -338.0625 105 C-337.31323242 105.48911865 -336.56396484 105.9782373 -335.79199219 106.48217773 C-320.18016039 116.74171239 -305.33151705 128.02141858 -291 140 C-290.4519873 140.45632812 -289.90397461 140.91265625 -289.33935547 141.3828125 C-281.99585943 147.51503135 -275.01476407 153.82882332 -268.328125 160.671875 C-266.52286254 162.47713746 -264.74798706 164.11014179 -262.75 165.6875 C-259.11339973 168.74555023 -255.75018586 172.11068391 -253 176 C-253 179 -253 179 -255 181.1875 C-255.66 181.785625 -256.32 182.38375 -257 183 C-261.27459991 181.40211384 -263.81496912 178.14135104 -266.75 174.8125 C-270.59061571 170.55615052 -274.42477815 166.53575227 -278.83203125 162.85546875 C-281.11150625 160.90456673 -283.29169416 158.86220984 -285.47363281 156.8034668 C-292.0566843 150.61068788 -298.92213645 144.96329083 -306.09716797 139.47460938 C-308.0769044 137.94040254 -310.0261121 136.37294025 -311.97265625 134.796875 C-323.83912603 125.26183534 -336.40199712 116.97364823 -349.21777344 108.79248047 C-351.22450794 107.4996194 -353.19799679 106.15463936 -355.1484375 104.77832031 C-357.90195672 102.72398224 -357.90195672 102.72398224 -361.265625 102.9296875 C-366.19784187 104.34331451 -370.30895333 106.58921967 -374.75 109.125 C-375.69955566 109.65561035 -376.64911133 110.1862207 -377.62744141 110.73291016 C-379.68075309 111.88086638 -381.73161634 113.03321073 -383.78027344 114.18945312 C-387.04420568 116.02485815 -390.32056102 117.83592974 -393.6015625 119.640625 C-407.49816093 127.29302122 -421.26989229 135.13563543 -434.93261719 143.19775391 C-438.09549634 145.05610904 -441.26949878 146.89431769 -444.4453125 148.73046875 C-467.47855863 162.11668998 -490.03578235 176.52556947 -511 193 C-512.28357712 193.99775235 -513.56743765 194.99514019 -514.8515625 195.9921875 C-520.30679488 200.24369291 -525.70212488 204.553285 -531 209 C-532.875 208.3125 -532.875 208.3125 -535 207 C-535.7211874 205.35619011 -536.39401025 203.68967412 -537 202 C-528.32476549 194.45373437 -519.40055599 187.36427314 -510.12988281 180.56347656 C-508.69697636 179.5116273 -507.26667568 178.45621997 -505.83886719 177.39746094 C-494.55781982 169.03349224 -482.98556709 161.31630595 -471 154 C-470.20899902 153.51708496 -469.41799805 153.03416992 -468.60302734 152.53662109 C-454.84788467 144.16842034 -440.93679074 136.06094246 -427 128 C-425.8852832 127.35482422 -424.77056641 126.70964844 -423.62207031 126.04492188 C-409.55912463 117.91931135 -395.42171695 109.97301182 -381.08447266 102.33984375 C-380.06530762 101.79714844 -379.04614258 101.25445312 -377.99609375 100.6953125 C-376.65309204 99.9839917 -376.65309204 99.9839917 -375.28295898 99.25830078 C-372.83521344 97.95092533 -372.83521344 97.95092533 -370 96 C-415.12357667 71.39758495 -461.60964335 51.40964811 -511 37 C-511.68205505 36.7992688 -512.36411011 36.5985376 -513.0668335 36.39172363 C-524.16044758 33.1433087 -535.25033105 30.54720933 -546.625 28.5 C-547.42360443 28.35414459 -548.22220886 28.20828918 -549.04501343 28.05801392 C-584.69431314 21.5834472 -620.78561113 17.93848264 -657 17 C-657.83789062 16.97663574 -658.67578125 16.95327148 -659.5390625 16.92919922 C-733.85222148 15.12886007 -808.06928469 30.3775422 -874 65 C-874.94141846 65.4935498 -874.94141846 65.4935498 -875.90185547 65.99707031 C-899.70644854 78.61563821 -921.80055656 94.76418326 -941.6796875 112.8984375 C-943.69397731 114.72282794 -945.74148614 116.49093802 -947.8125 118.25 C-951.54138907 121.50140937 -955.05740463 124.94887923 -958.5625 128.4375 C-959.09270752 128.96311523 -959.62291504 129.48873047 -960.16918945 130.03027344 C-964.31058046 134.18761496 -968.18214077 138.54538424 -972 143 C-972.54100342 143.62898193 -973.08200684 144.25796387 -973.6394043 144.90600586 C-1026.88459229 207.26559772 -1057.28121876 286.66319801 -1051.49609375 368.9609375 C-1049.2315234 396.23566386 -1043.22450169 422.65826583 -1032.3203125 447.7890625 C-1031 451 -1031 451 -1031 453 C-1036.75 456 -1036.75 456 -1039 456 C-1055.44804471 421.22157303 -1061.41634746 384.04728374 -1061.5 345.875 C-1061.50476349 344.80897552 -1061.50952698 343.74295105 -1061.51443481 342.6446228 C-1061.54731881 323.15418621 -1059.76898372 303.97096373 -1055.4375 284.9375 C-1055.18701904 283.83229004 -1054.93653809 282.72708008 -1054.6784668 281.58837891 C-1041.6351425 226.52683452 -1013.18233749 174.74652438 -974.9609375 133.14453125 C-973.17707266 131.19365117 -971.46047206 129.20251952 -969.75 127.1875 C-962.1795773 118.5053369 -953.81078485 110.41017949 -945 103 C-944.10667969 102.21753906 -943.21335937 101.43507813 -942.29296875 100.62890625 C-872.50667009 39.84219814 -777.17431552 8.13767401 -685.15234375 7.796875 C-683.87401672 7.78981537 -682.5956897 7.78275574 -681.27862549 7.77548218 C-677.1649112 7.75593257 -673.05125638 7.7507887 -668.9375 7.75 C-668.23417667 7.74970543 -667.53085335 7.74941086 -666.80621719 7.74910736 C-644.08491601 7.74757146 -621.57136277 8.19315171 -599 11 C-598.17512085 11.1018158 -597.3502417 11.20363159 -596.50036621 11.30853271 C-557.55680857 16.16034109 -520.25664886 24.04459123 -482.875 36.0625 C-482.09567108 36.3120343 -481.31634216 36.5615686 -480.51339722 36.81866455 C-471.43458234 39.73569445 -462.52984894 42.88428743 -453.70727539 46.50415039 C-450.53124574 47.7856475 -447.34482666 48.99254326 -444.12886047 50.16703796 C-434.86037845 53.55659727 -425.89537952 57.49108891 -416.9375 61.625 C-416.18152527 61.97216064 -415.42555054 62.31932129 -414.64666748 62.67700195 C-380.46625947 78.39242136 -380.46625947 78.39242136 -365.71875 88.76953125 C-361.98359359 90.46001152 -359.95313912 89.99988684 -356 89 C-353.23038139 87.94619561 -350.59125732 86.69070756 -347.9375 85.375 C-347.27556641 85.05660156 -346.61363281 84.73820312 -345.93164062 84.41015625 C-342.57020076 82.78436181 -339.23124925 81.11724596 -335.90087891 79.42871094 C-326.87556766 74.8652791 -317.74274564 70.60430983 -308.5 66.5 C-307.73154755 66.15850922 -306.96309509 65.81701843 -306.1713562 65.46517944 C-226.77652864 30.28871488 -137.88547707 -0.53646227 0 0 Z " fill="#F6F6F9" transform="translate(1087,26)"/>
<path d="M0 0 C8.18088206 0.5466488 16.01785939 2.17123868 24 4 C21.09835496 43.89873016 9.42714673 80.14116667 -8 116 C-8.38559082 116.80775879 -8.77118164 117.61551758 -9.16845703 118.44775391 C-24.22515733 149.75278667 -46.70610398 178.2011335 -69.9765625 203.7578125 C-71.73342396 205.70460493 -73.43220252 207.68535882 -75.125 209.6875 C-81.01928172 216.4821016 -87.60341592 222.68360453 -94 229 C-97.04332765 227.6415798 -99.12309151 226.11536976 -101.453125 223.7421875 C-102.071875 223.11699219 -102.690625 222.49179687 -103.328125 221.84765625 C-104.27945312 220.87119141 -104.27945312 220.87119141 -105.25 219.875 C-105.8996875 219.21628906 -106.549375 218.55757812 -107.21875 217.87890625 C-108.81711727 216.25703357 -110.41061897 214.6306719 -112 213 C-110.28974534 209.33565049 -108.24002076 207.0654411 -105.3125 204.25 C-101.66899857 200.67936859 -98.21588255 197.058485 -94.90234375 193.18359375 C-92.99326626 190.99227071 -91.03035916 188.85696899 -89.05297852 186.72729492 C-83.44489584 180.68007703 -78.10842125 174.47997486 -73 168 C-72.52336914 167.39591309 -72.04673828 166.79182617 -71.55566406 166.16943359 C-47.79258691 135.92210984 -28.28121276 103.6798831 -15.4375 67.3125 C-15.1895166 66.61364685 -14.9415332 65.9147937 -14.68603516 65.19476318 C-9.18137118 49.56242081 -5.60437473 34.02651573 -3.3125 17.625 C-2.99587999 15.3987731 -2.676876 13.17293683 -2.35404968 10.94760132 C-2.06742441 8.96659168 -1.78800592 6.98454319 -1.5090332 5.00244141 C-1 2 -1 2 0 0 Z " fill="#314C90" transform="translate(398,174)"/>
<path d="M0 0 C3.75376152 1.25125384 4.24073289 2.5652404 6 6 C6 6.66 6 7.32 6 8 C4.36132813 9.19824219 4.36132813 9.19824219 2.03125 10.546875 C0.72824951 11.30871094 0.72824951 11.30871094 -0.60107422 12.0859375 C-1.55771973 12.63507813 -2.51436523 13.18421875 -3.5 13.75 C-4.98330811 14.61238281 -4.98330811 14.61238281 -6.49658203 15.4921875 C-8.59931247 16.71434377 -10.70369438 17.93366231 -12.80957031 19.15039062 C-15.86898857 20.92404786 -18.91677681 22.71593252 -21.9609375 24.515625 C-43.24654576 37.07675738 -65.01904786 48.7067251 -87 60 C-87.93714844 60.48291504 -88.87429688 60.96583008 -89.83984375 61.46337891 C-130.80691471 82.50185242 -173.50655211 99.93540836 -217 115 C-217.67053406 115.23289734 -218.34106812 115.46579468 -219.03192139 115.70574951 C-237.50758328 122.11641133 -256.12353865 127.8852702 -275 133 C-276.22267578 133.33241699 -277.44535156 133.66483398 -278.70507812 134.00732422 C-319.79278197 145.09675747 -361.57806332 153.19393275 -404 157 C-405.42662964 157.14139404 -405.42662964 157.14139404 -406.88208008 157.28564453 C-418.53855623 158.2997244 -430.23400235 158.22197629 -441.92602539 158.24023438 C-445.63386158 158.24986074 -449.34112319 158.28092617 -453.04882812 158.3125 C-499.19427458 158.51711019 -551.54960618 151.40460955 -586.5703125 118.46484375 C-593.13889668 111.80121575 -593.13889668 111.80121575 -595 108 C-594 105 -594 105 -590.9375 103.3125 C-589.968125 102.879375 -588.99875 102.44625 -588 102 C-587.52691406 102.6290625 -587.05382812 103.258125 -586.56640625 103.90625 C-564.82188015 132.05121165 -528.983649 141.63161868 -495.19824219 146.39501953 C-489.47829124 147.11241899 -483.75066957 147.60833531 -478 148 C-477.19433594 148.05639648 -476.38867188 148.11279297 -475.55859375 148.17089844 C-452.25208154 149.73143749 -429.13975088 148.86097022 -405.86621094 147.26464844 C-403.54693679 147.10589034 -401.22735222 146.9514503 -398.90722656 146.80566406 C-374.15154639 145.22779032 -349.60330203 140.22118712 -325.3125 135.375 C-324.60976959 135.23510651 -323.90703918 135.09521301 -323.18301392 134.95108032 C-309.26138276 132.16527806 -295.37328957 129.1453637 -281.75 125.125 C-280.18236738 124.66901048 -278.61465391 124.21329883 -277.046875 123.7578125 C-275.71136597 123.36662231 -275.71136597 123.36662231 -274.34887695 122.9675293 C-271.68896326 122.19904946 -269.02626388 121.44479672 -266.36010742 120.69848633 C-254.07026868 117.24711122 -241.91565901 113.49387287 -229.8125 109.4375 C-228.91502045 109.13764191 -228.01754089 108.83778381 -227.09286499 108.52883911 C-165.16120765 87.78683406 -103.82535898 61.35339073 -47.39941406 28.38769531 C-43.46701311 26.11340074 -39.48121054 23.93729199 -35.5 21.75 C-24.11150148 15.4510517 -12.99314965 8.89675426 -2.390625 1.3359375 C-1.60171875 0.89507812 -0.8128125 0.45421875 0 0 Z " fill="#F6F6F9" transform="translate(937,417)"/>
<path d="M0 0 C7.92 0.33 15.84 0.66 24 1 C24 40.66591436 -5.32898433 80.12771355 -29.53515625 109.23095703 C-31.61102466 111.73791412 -33.64547748 114.2779474 -35.6875 116.8125 C-39.45604698 121.41773356 -43.40788304 125.82873534 -47.4453125 130.19921875 C-49.41138244 132.35468075 -51.32644984 134.53306378 -53.23046875 136.7421875 C-63.40510863 148.39719907 -74.64591739 160.92938383 -88 169 C-88.66 169 -89.32 169 -90 169 C-92.32511232 165.9073093 -94.20880467 162.50961334 -96.1875 159.1875 C-96.75919922 158.25873047 -97.33089844 157.32996094 -97.91992188 156.37304688 C-98.72333008 155.0340332 -98.72333008 155.0340332 -99.54296875 153.66796875 C-100.2858313 152.43469849 -100.2858313 152.43469849 -101.04370117 151.17651367 C-102 149 -102 149 -101 146 C-99.35546875 144.5625 -99.35546875 144.5625 -97.1875 143 C-83.21436705 132.42633383 -71.22790522 119.4799567 -60.3046875 105.8359375 C-58.12071772 103.14854418 -55.88027456 100.52544867 -53.61108398 97.91040039 C-28.65862816 69.14210314 -9.29220522 37.16882088 0 0 Z " fill="#E91D24" transform="translate(311,201)"/>
<path d="M0 0 C23 0 23 0 27.1875 3.8125 C28.15217347 5.86243112 29.08420169 7.92777271 30 10 C31.98001137 13.3031367 34.0929305 16.51868856 36.1875 19.75 C37.64845899 22.07472257 39.10223877 24.40381009 40.55541992 26.73339844 C42.3287587 29.51583502 44.16976809 32.25465214 46 35 C46.33 23.45 46.66 11.9 47 0 C52.94 0 58.88 0 65 0 C65 23.1 65 46.2 65 70 C58.73 70 52.46 70 46 70 C40.57224026 63.66761364 40.57224026 63.66761364 39.1796875 60.48046875 C36.64472902 55.08539981 33.43374569 50.15506995 30.25 45.125 C29.16949985 43.37907184 28.09129168 41.6317227 27.015625 39.8828125 C24.36312553 35.57597636 21.68104003 31.28966405 19 27 C18.67 41.19 18.34 55.38 18 70 C12.06 70 6.12 70 0 70 C0 46.9 0 23.8 0 0 Z " fill="#FFFFFF" transform="translate(1137,264)"/>
<path d="M0 0 C6.909375 -0.0825 13.81875 -0.165 20.9375 -0.25 C23.10046631 -0.28641602 25.26343262 -0.32283203 27.49194336 -0.36035156 C29.2329001 -0.3720491 30.97386791 -0.38223839 32.71484375 -0.390625 C33.59724731 -0.41108887 34.47965088 -0.43155273 35.38879395 -0.45263672 C41.62349551 -0.45609324 46.63439047 0.72545112 52 4 C55.86589519 8.25248471 57.07654408 12.36854234 57 18 C56.02879362 24.25888553 53.56423106 26.93188101 49 31 C49.54269531 31.31453125 50.08539062 31.6290625 50.64453125 31.953125 C55.72762979 34.99382539 59.06749047 37.20247142 61 43 C61.69653414 50.06810872 61.49125432 56.25069125 57 62 C49.60965605 69.19797058 42.05806863 70.3119479 32.12890625 70.1953125 C31.31031128 70.19329834 30.49171631 70.19128418 29.64831543 70.18920898 C26.61965247 70.17882387 23.59107001 70.15090187 20.5625 70.125 C13.776875 70.08375 6.99125 70.0425 0 70 C0 46.9 0 23.8 0 0 Z M19 13 C19 17.62 19 22.24 19 27 C22.0628125 27.12375 22.0628125 27.12375 25.1875 27.25 C26.91033203 27.31960938 26.91033203 27.31960938 28.66796875 27.390625 C32.65363126 26.92337265 34.23426477 25.85809745 37 23 C37.53337026 19.73310717 37.65322976 17.94718315 35.75 15.1875 C32.16854251 12.75722528 28.47218244 12.88723592 24.25 12.9375 C21.65125 12.9684375 21.65125 12.9684375 19 13 Z M19 40 C19 45.61 19 51.22 19 57 C29.89270882 57.57860111 29.89270882 57.57860111 39.73046875 53.67578125 C41.6811132 51.10093058 41.41527669 48.99776345 41.2890625 45.87109375 C41.11239508 43.88537075 41.11239508 43.88537075 39.75 42.0625 C35.55441362 39.5151797 31.01220181 39.8794369 26.25 39.9375 C23.8575 39.958125 21.465 39.97875 19 40 Z " fill="#FFFFFF" transform="translate(518,264)"/>
<path d="M0 0 C7.14139184 5.6638625 11.44844744 13.4347531 12.8125 22.4375 C13.54922649 35.62773772 12.7287551 46.93121295 3.8125 57.4375 C-4.69269169 65.50246437 -14.7095641 67.80438772 -26.1875 67.6484375 C-36.21080282 66.94367402 -44.97842398 63.95500815 -51.96875 56.55078125 C-60.34927911 46.09566037 -61.15348798 33.82582975 -59.94921875 20.875 C-58.47312742 12.52539248 -53.77745084 4.89967327 -47.11328125 -0.31640625 C-33.09161518 -9.389249 -13.86270933 -9.39086761 0 0 Z M-34.1875 11.4375 C-40.69842035 19.33784752 -40.9607952 27.47058407 -40.1875 37.4375 C-39.01176795 42.34490333 -37.32675209 46.13549761 -34 49.9375 C-29.5161373 52.32889344 -25.13169618 53.89572016 -20.00390625 53.09765625 C-14.82502162 51.44315436 -12.17744004 48.92241006 -9.1875 44.4375 C-5.91171591 36.43259098 -5.54177578 25.34504244 -8.8125 17.25 C-11.32617916 12.66932334 -14.12700308 9.39709922 -19.29296875 7.77734375 C-25.06114181 6.75475885 -29.59566761 7.7460269 -34.1875 11.4375 Z " fill="#FFFFFF" transform="translate(1110.1875,268.5625)"/>
<path d="M0 0 C3.39424608 18.27043078 1.12270034 38.5040027 -0.3125 56.9375 C-0.37135376 57.72366699 -0.43020752 58.50983398 -0.49084473 59.31982422 C-1.55555786 73.26399041 -3.13448993 87.23741528 -8 100.4375 C-8.29632324 101.25766602 -8.59264648 102.07783203 -8.89794922 102.92285156 C-18.5705986 129.07067857 -31.19840047 154.02230903 -47 177 C-47.42909668 177.62583984 -47.85819336 178.25167969 -48.30029297 178.89648438 C-53.82865135 186.90956877 -59.71561269 194.56175797 -66 202 C-66.8780546 203.06473287 -67.75563823 204.12985426 -68.6328125 205.1953125 C-79.10148281 217.78932452 -90.51319516 229.89976358 -103.4453125 239.9921875 C-105.1666145 241.34501507 -106.8493677 242.74818911 -108.4921875 244.1953125 C-126.84160901 260.31089139 -148.55870933 272.55402197 -170.4375 283.1875 C-171.65530151 283.78679321 -171.65530151 283.78679321 -172.89770508 284.39819336 C-173.65204834 284.75534424 -174.4063916 285.11249512 -175.18359375 285.48046875 C-175.84931396 285.79910889 -176.51503418 286.11774902 -177.20092773 286.44604492 C-179 287 -179 287 -182 286 C-183.1875 282.4375 -183.1875 282.4375 -184 279 C-183.31599121 278.67837891 -182.63198242 278.35675781 -181.92724609 278.02539062 C-157.17957155 266.35690577 -134.15696918 253.45681603 -113 236 C-112.44425293 235.5472168 -111.88850586 235.09443359 -111.31591797 234.62792969 C-98.14190973 223.85644153 -85.49388733 211.99121685 -75.0078125 198.5546875 C-73.65498493 196.8333855 -72.25181089 195.1506323 -70.8046875 193.5078125 C-46.02264529 165.29063573 -27.88632023 129.43398301 -16 94 C-15.64156006 92.93483154 -15.28312012 91.86966309 -14.91381836 90.7722168 C-11.99289001 81.42216931 -10.97407663 72.39742488 -10.3125 62.6875 C-10.1910418 61.05517262 -10.06954018 59.42284847 -9.94799805 57.79052734 C-8.60104285 38.8886554 -8.26484426 19.94294941 -8 1 C-5.10765685 0.17361624 -3.11257569 0 0 0 Z " fill="#F6F6F9" transform="translate(1034,431)"/>
<path d="M0 0 C0 5.61 0 11.22 0 17 C-5.00792708 15.99841458 -8.73261065 14.35390721 -13.28125 12.15625 C-19.07196064 9.69353398 -26.04422052 8.75613515 -32.13671875 10.671875 C-33.78780474 11.38187547 -35.39934035 12.18264188 -37 13 C-37 14.65 -37 16.3 -37 18 C-31.93150598 20.35156866 -27.14475362 21.75368033 -21.6875 22.875 C-13.77738211 24.63004402 -6.57922036 26.68922117 -0.5 32.3125 C3.04837661 38.6700081 3.85323588 44.99206831 2 52 C-0.73843201 58.7171404 -5.57750083 62.81914079 -12 66 C-26.33515691 70.83473452 -43.09678993 69.90548971 -57 64 C-58 63 -58 63 -58.11352539 61.23413086 C-58.10828857 60.48526611 -58.10305176 59.73640137 -58.09765625 58.96484375 C-58.09443359 58.15595703 -58.09121094 57.34707031 -58.08789062 56.51367188 C-58.07951172 55.66353516 -58.07113281 54.81339844 -58.0625 53.9375 C-58.05798828 53.08349609 -58.05347656 52.22949219 -58.04882812 51.34960938 C-58.03700373 49.23304337 -58.01906769 47.11651315 -58 45 C-54.40833591 45.81639612 -51.56847355 47.1967246 -48.3125 48.9375 C-38.04984192 54.10610262 -29.19340175 55.05274593 -18 52 C-17.58253392 49.12635209 -17.58253392 49.12635209 -18 46 C-22.01082991 42.84137372 -26.37409679 42.06168245 -31.25 41.0625 C-40.238268 39.0720152 -48.47231108 36.83853125 -55 30 C-57.95061778 24.80288913 -58.56016714 19.88175499 -58 14 C-55.56187831 6.42899055 -50.91511834 1.77188273 -44 -2 C-30.2661486 -6.77521728 -13.19094807 -6.59547403 0 0 Z " fill="#FFFFFF" transform="translate(985,267)"/>
<path d="M0 0 C6.27 0 12.54 0 19 0 C19.01981934 1.45817139 19.03963867 2.91634277 19.06005859 4.41870117 C19.13617587 9.83277549 19.22488429 15.2465832 19.31738281 20.66040039 C19.35564716 23.00279473 19.39050446 25.34524733 19.421875 27.68774414 C19.46758025 31.056364 19.52556661 34.42458373 19.5859375 37.79296875 C19.59748871 38.83897751 19.60903992 39.88498627 19.62094116 40.96269226 C19.64081085 41.94333145 19.66068054 42.92397064 19.68115234 43.93432617 C19.69447601 44.79370285 19.70779968 45.65307953 19.7215271 46.53849792 C20.03741359 49.33070953 20.78167151 51.47358022 22 54 C26.33469533 57.12060124 31.91519002 56.73823908 37 56 C40.19991928 53.7600565 41.63968702 52.41678952 42.60435486 48.62361145 C42.98192957 46.11982906 43.15653524 43.73967277 43.20532227 41.2097168 C43.22526749 40.28913986 43.24521271 39.36856293 43.26576233 38.42008972 C43.29083107 36.94950859 43.29083107 36.94950859 43.31640625 35.44921875 C43.33718735 34.43527542 43.35796844 33.42133209 43.37937927 32.37666321 C43.44461114 29.14700915 43.50363702 25.91727579 43.5625 22.6875 C43.60571029 20.49413252 43.64932538 18.30077297 43.69335938 16.10742188 C43.80026549 10.73836193 43.90160697 5.36922243 44 0 C50.27 0 56.54 0 63 0 C63.09947585 6.91931041 63.17175527 13.8381971 63.21972656 20.75805664 C63.23974175 23.10806538 63.26696244 25.45802496 63.30175781 27.80786133 C63.35072124 31.20145867 63.37307059 34.59439296 63.390625 37.98828125 C63.41127014 39.02519608 63.43191528 40.0621109 63.45318604 41.13044739 C63.45556163 48.99503797 62.40570537 57.06487983 57.0869751 63.21040344 C48.81648779 71.00246959 39.49804929 72.33692188 28.44921875 72.2109375 C19.44906491 71.66053172 11.35320434 69.66841588 5 63 C0.00291609 55.69892078 -0.69004072 49.0898734 -0.48828125 40.4296875 C-0.48120651 39.26744659 -0.47413177 38.10520569 -0.46684265 36.90774536 C-0.43906215 33.22948291 -0.37635061 29.55279512 -0.3125 25.875 C-0.28739618 23.36720963 -0.26458669 20.85939517 -0.24414062 18.3515625 C-0.18928845 12.23377689 -0.10312663 6.11715455 0 0 Z " fill="#FFFFFF" transform="translate(655,264)"/>
<path d="M0 0 C17.16 0 34.32 0 52 0 C52 4.62 52 9.24 52 14 C41.11 14 30.22 14 19 14 C19 17.63 19 21.26 19 25 C28.9 25 38.8 25 49 25 C49 29.95 49 34.9 49 40 C39.1 40 29.2 40 19 40 C19 45.28 19 50.56 19 56 C29.89 56 40.78 56 52 56 C52 60.62 52 65.24 52 70 C34.84 70 17.68 70 0 70 C0 46.9 0 23.8 0 0 Z " fill="#FFFFFF" transform="translate(735,264)"/>
<path d="M0 0 C6.93 0 13.86 0 21 0 C25.95 14.52 30.9 29.04 36 44 C37.66317432 41.50523852 38.54512479 39.76702052 39.49633789 37.00341797 C39.91170555 35.80735428 39.91170555 35.80735428 40.33546448 34.58712769 C40.62823776 33.73079742 40.92101105 32.87446716 41.22265625 31.9921875 C41.52819931 31.11096222 41.83374237 30.22973694 42.14854431 29.32180786 C43.12390261 26.50758318 44.09366134 23.69147522 45.0625 20.875 C46.03538247 18.05155454 47.00950261 15.22856207 47.98716736 12.4067688 C48.59552001 10.65051244 49.20102755 8.8932676 49.80348206 7.13497925 C51.8877019 1.1122981 51.8877019 1.1122981 53 0 C54.41570123 -0.08651611 55.835595 -0.10704904 57.25390625 -0.09765625 C58.53491211 -0.09282227 58.53491211 -0.09282227 59.84179688 -0.08789062 C60.73962891 -0.07951172 61.63746094 -0.07113281 62.5625 -0.0625 C63.46419922 -0.05798828 64.36589844 -0.05347656 65.29492188 -0.04882812 C67.53001314 -0.03700225 69.76497437 -0.0205222 72 0 C71.33816581 5.9440203 69.22090714 11.25069778 67.140625 16.8125 C66.75436951 17.85841309 66.36811401 18.90432617 65.97015381 19.98193359 C64.73509976 23.32316424 63.49278636 26.66163866 62.25 30 C61.02572379 33.3032267 59.80294777 36.60700553 58.58044434 39.91088867 C57.79311884 42.03772567 57.00480372 44.16419661 56.2154541 46.2902832 C53.69835587 53.07705769 51.24154364 59.88111107 48.86621094 66.71875 C48 69 48 69 47 70 C45.36527118 70.08700342 43.72685945 70.10701063 42.08984375 70.09765625 C41.10048828 70.09443359 40.11113281 70.09121094 39.09179688 70.08789062 C38.05087891 70.07951172 37.00996094 70.07113281 35.9375 70.0625 C34.89271484 70.05798828 33.84792969 70.05347656 32.77148438 70.04882812 C30.1809334 70.03699913 27.59049441 70.02051689 25 70 C22.56337655 63.24591846 20.12825854 56.49129544 17.6940918 49.73632812 C16.86922714 47.44779746 16.04404228 45.15938218 15.21850586 42.87109375 C10.07227657 28.60555846 4.98605788 14.32236761 0 0 Z " fill="#FFFFFF" transform="translate(794,264)"/>
<path d="M0 0 C13.86 0 27.72 0 42 0 C42 4.29 42 8.58 42 13 C38.37 13 34.74 13 31 13 C31 27.52 31 42.04 31 57 C34.63 57 38.26 57 42 57 C42 61.29 42 65.58 42 70 C28.14 70 14.28 70 0 70 C0 65.71 0 61.42 0 57 C3.96 57 7.92 57 12 57 C12 42.48 12 27.96 12 13 C8.04 13 4.08 13 0 13 C0 8.71 0 4.42 0 0 Z " fill="#FFFFFF" transform="translate(997,264)"/>
<path d="M0 0 C13.86 0 27.72 0 42 0 C42 4.29 42 8.58 42 13 C38.04 13 34.08 13 30 13 C30 27.52 30 42.04 30 57 C33.96 57 37.92 57 42 57 C42 61.29 42 65.58 42 70 C28.14 70 14.28 70 0 70 C0 65.71 0 61.42 0 57 C3.63 57 7.26 57 11 57 C11 42.48 11 27.96 11 13 C7.37 13 3.74 13 0 13 C0 8.71 0 4.42 0 0 Z " fill="#FFFFFF" transform="translate(874,264)"/>
<path d="M0 0 C6.27 0 12.54 0 19 0 C19 18.48 19 36.96 19 56 C29.56 56 40.12 56 51 56 C51 60.62 51 65.24 51 70 C34.17 70 17.34 70 0 70 C0 46.9 0 23.8 0 0 Z " fill="#FFFFFF" transform="translate(593,264)"/>
<path d="M0 0 C3.2175 -0.061875 6.435 -0.12375 9.75 -0.1875 C10.75772461 -0.21481201 11.76544922 -0.24212402 12.80371094 -0.27026367 C14.00688965 -0.28150269 14.00688965 -0.28150269 15.234375 -0.29296875 C16.05131836 -0.3086792 16.86826172 -0.32438965 17.70996094 -0.34057617 C20.55379434 0.08236067 21.91629308 1.05182831 24 3 C24.390625 5.12109375 24.390625 5.12109375 24.25 7.4375 C24.21390625 8.19933594 24.1778125 8.96117187 24.140625 9.74609375 C24.07101562 10.86177734 24.07101562 10.86177734 24 12 C23.7018576 15.7763932 23.7018576 15.7763932 25 18 C25.55988858 23.78551532 25.55988858 23.78551532 25 26 C22.82428137 28.59638772 21.109556 29.84761971 17.71386719 30.31396484 C15.02400274 30.39397786 12.37729265 30.34808683 9.6875 30.25 C6.490625 30.1675 3.29375 30.085 0 30 C0 20.1 0 10.2 0 0 Z M5 5 C5 7.31 5 9.62 5 12 C6.79158489 12.02696365 8.58328473 12.04637917 10.375 12.0625 C11.87160156 12.07990234 11.87160156 12.07990234 13.3984375 12.09765625 C15.98432453 12.18006602 15.98432453 12.18006602 18 11 C18 9.35 18 7.7 18 6 C15.35541621 4.67770811 13.32238699 4.90322806 10.375 4.9375 C8.87066406 4.95103516 8.87066406 4.95103516 7.3359375 4.96484375 C6.17964844 4.98224609 6.17964844 4.98224609 5 5 Z M5 17 C5 19.64 5 22.28 5 25 C6.95803507 25.05389087 8.91648909 25.09274217 10.875 25.125 C11.96554687 25.14820313 13.05609375 25.17140625 14.1796875 25.1953125 C17.1371051 25.30060534 17.1371051 25.30060534 19 23 C18.67958603 20.39719432 18.67958603 20.39719432 18 18 C14.98509443 16.99503148 12.95818308 16.89664697 9.8125 16.9375 C8.91144531 16.94652344 8.01039063 16.95554687 7.08203125 16.96484375 C6.05142578 16.98224609 6.05142578 16.98224609 5 17 Z " fill="#FFFFFF" transform="translate(865,363)"/>
<path d="M0 0 C3.3825 -0.0825 6.765 -0.165 10.25 -0.25 C11.30993164 -0.28641602 12.36986328 -0.32283203 13.46191406 -0.36035156 C20.38931317 -0.44247369 20.38931317 -0.44247369 23.609375 1.890625 C26.22804829 5.86276987 26.07638867 8.16047485 25.5234375 12.80078125 C24.8155783 15.77484641 23.42280129 17.20243775 21 19 C21.28875 19.70125 21.5775 20.4025 21.875 21.125 C23.02133588 24.05452503 24.02625654 27.00921653 25 30 C22.375 30.5625 22.375 30.5625 19 30 C16.30767599 26.99842256 13 23.17107607 13 19 C10.69 19 8.38 19 6 19 C6 22.63 6 26.26 6 30 C4.02 30 2.04 30 0 30 C0 20.1 0 10.2 0 0 Z M6 5 C6 7.97 6 10.94 6 14 C7.77007714 14.08114106 9.54122098 14.13925505 11.3125 14.1875 C12.29863281 14.22230469 13.28476562 14.25710938 14.30078125 14.29296875 C17.01462459 14.22341678 17.01462459 14.22341678 18.8671875 12.65234375 C20.27180485 10.97128605 20.27180485 10.97128605 19.8125 8.375 C19.25355766 5.83447997 19.25355766 5.83447997 17 5 C15.12620395 4.92966231 13.24998898 4.9156978 11.375 4.9375 C9.87066406 4.95103516 9.87066406 4.95103516 8.3359375 4.96484375 C7.17964844 4.98224609 7.17964844 4.98224609 6 5 Z " fill="#FFFFFF" transform="translate(926,363)"/>
<path d="M0 0 C4.7953125 -0.1546875 4.7953125 -0.1546875 9.6875 -0.3125 C11.18543091 -0.38078003 11.18543091 -0.38078003 12.71362305 -0.45043945 C17.2129226 -0.52070559 19.36077061 -0.46153166 23.10546875 2.2421875 C25.52903068 5.77009415 25.71601459 7.62327586 25.5078125 11.7734375 C24.65965939 15.49226268 22.69831685 17.36914107 20 20 C21.65 23.3 23.3 26.6 25 30 C21.875 30.625 21.875 30.625 18 30 C16.25416327 27.53915979 14.94970432 24.96612259 13.5546875 22.29296875 C12.22091738 19.89983312 12.22091738 19.89983312 10.0703125 19.11328125 C7.93399802 18.79857055 7.93399802 18.79857055 5 19 C5 22.63 5 26.26 5 30 C3.35 30 1.7 30 0 30 C0 20.1 0 10.2 0 0 Z M5 5 C5 7.97 5 10.94 5 14 C6.95803507 14.05389087 8.91648909 14.09274217 10.875 14.125 C11.96554687 14.14820313 13.05609375 14.17140625 14.1796875 14.1953125 C17.1371051 14.30060534 17.1371051 14.30060534 19 12 C19.41666667 9.5 19.41666667 9.5 19 7 C15.57905758 4.71937172 14.31812778 4.78074993 10.3125 4.875 C9.31863281 4.89304687 8.32476563 4.91109375 7.30078125 4.9296875 C6.54152344 4.95289063 5.78226563 4.97609375 5 5 Z " fill="#FFFFFF" transform="translate(1100,363)"/>
<path d="M0 0 C3.2175 -0.061875 6.435 -0.12375 9.75 -0.1875 C10.75772461 -0.21481201 11.76544922 -0.24212402 12.80371094 -0.27026367 C14.00688965 -0.28150269 14.00688965 -0.28150269 15.234375 -0.29296875 C16.05131836 -0.3086792 16.86826172 -0.32438965 17.70996094 -0.34057617 C20.57634189 0.08571396 21.90840308 1.02154841 24 3 C25.53784153 7.6135246 25.74741859 11.43721569 23.625 15.875 C22 18 22 18 20 19 C20.28875 19.70125 20.5775 20.4025 20.875 21.125 C22.02133588 24.05452503 23.02625654 27.00921653 24 30 C21.375 30.625 21.375 30.625 18 30 C16.51171875 27.80859375 16.51171875 27.80859375 15.0625 25.0625 C13.26031476 21.37986375 13.26031476 21.37986375 10.06640625 19.11328125 C7.93336773 18.79847075 7.93336773 18.79847075 5 19 C5 22.63 5 26.26 5 30 C3.35 30 1.7 30 0 30 C0 20.1 0 10.2 0 0 Z M5 5 C5 7.97 5 10.94 5 14 C6.95803507 14.05389087 8.91648909 14.09274217 10.875 14.125 C11.96554687 14.14820313 13.05609375 14.17140625 14.1796875 14.1953125 C17.1371051 14.30060534 17.1371051 14.30060534 19 12 C19.41666667 9.5 19.41666667 9.5 19 7 C15.57905758 4.71937172 14.31812778 4.78074993 10.3125 4.875 C9.31863281 4.89304687 8.32476563 4.91109375 7.30078125 4.9296875 C6.54152344 4.95289063 5.78226563 4.97609375 5 5 Z " fill="#FFFFFF" transform="translate(554,363)"/>
<path d="M0 0 C1.423125 0.7425 1.423125 0.7425 2.875 1.5 C1.885 3.15 0.895 4.8 -0.125 6.5 C-0.95257812 6.25443359 -0.95257812 6.25443359 -1.796875 6.00390625 C-4.39114007 5.44239586 -6.72335411 5.40260992 -9.375 5.4375 C-10.71304688 5.45103516 -10.71304688 5.45103516 -12.078125 5.46484375 C-12.75359375 5.47644531 -13.4290625 5.48804688 -14.125 5.5 C-14.455 6.82 -14.785 8.14 -15.125 9.5 C-14.17238281 9.65855469 -13.21976563 9.81710937 -12.23828125 9.98046875 C-10.98402344 10.21378906 -9.72976563 10.44710938 -8.4375 10.6875 C-7.19613281 10.90792969 -5.95476563 11.12835938 -4.67578125 11.35546875 C-0.58170716 12.67512079 1.20802632 14.16253012 3.875 17.5 C4.5 21 4.5 21 3.875 24.5 C1.80486071 27.14517798 0.14521757 28.93059212 -2.9375 30.3125 C-9.91345801 30.91043926 -15.7135435 30.55841907 -22.125 27.5 C-22.455 26.84 -22.785 26.18 -23.125 25.5 C-21.805 24.18 -20.485 22.86 -19.125 21.5 C-18.58359375 21.82742188 -18.0421875 22.15484375 -17.484375 22.4921875 C-14.61780933 23.71664767 -12.4797013 23.69892146 -9.375 23.625 C-8.39015625 23.60695313 -7.4053125 23.58890625 -6.390625 23.5703125 C-5.64296875 23.54710937 -4.8953125 23.52390625 -4.125 23.5 C-3.795 22.18 -3.465 20.86 -3.125 19.5 C-6.29303962 18.06927243 -9.28953293 17.25300712 -12.6875 16.625 C-15.53722699 15.99806006 -17.18570694 15.46150292 -19.6875 13.875 C-21.76860346 10.43665516 -21.93717158 7.41611446 -21.125 3.5 C-16.25884795 -3.04413552 -7.07060595 -3.05911931 0 0 Z " fill="#FFFFFF" transform="translate(992.125,363.5)"/>
<path d="M0 0 C1.98 0 3.96 0 6 0 C7.71348735 4.09155867 9.42236208 8.18500311 11.12695312 12.28027344 C11.7077131 13.67370761 12.28973926 15.06661475 12.87304688 16.45898438 C13.71035383 18.45826832 14.54311689 20.45939176 15.375 22.4609375 C16.12910156 24.26763916 16.12910156 24.26763916 16.8984375 26.11083984 C18 29 18 29 18 31 C16.02 31 14.04 31 12 31 C11.34 29.35 10.68 27.7 10 26 C7.70759993 26.05985379 5.41593794 26.14859027 3.125 26.25 C1.84882812 26.29640625 0.57265625 26.3428125 -0.7421875 26.390625 C-4.09188105 26.62555056 -4.09188105 26.62555056 -5.4453125 29.046875 C-5.62835937 29.69140625 -5.81140625 30.3359375 -6 31 C-7.98 31 -9.96 31 -12 31 C-9.76188601 23.99593453 -7.12994735 17.22723357 -4.3125 10.4375 C-3.89677734 9.42880859 -3.48105469 8.42011719 -3.05273438 7.38085938 C-2.03784021 4.9194494 -1.02021747 2.45920717 0 0 Z M2 9 C0.68 12.63 -0.64 16.26 -2 20 C0.97 20 3.94 20 7 20 C6.55123384 18.35153231 6.09069512 16.70626545 5.625 15.0625 C5.24214844 13.68771484 5.24214844 13.68771484 4.8515625 12.28515625 C4.23339896 9.83254913 4.23339896 9.83254913 2 9 Z " fill="#FFFFFF" transform="translate(595,362)"/>
<path d="M0 0 C1.4540625 0.0309375 1.4540625 0.0309375 2.9375 0.0625 C4.64867059 4.31577531 6.35760968 8.56993753 8.06445312 12.82495117 C8.64586551 14.27344192 9.22789555 15.7216849 9.81054688 17.16967773 C10.64614345 19.24658996 11.47954147 21.32437236 12.3125 23.40234375 C12.57498535 24.05339584 12.8374707 24.70444794 13.10791016 25.37522888 C14.9375 29.94862829 14.9375 29.94862829 14.9375 31.0625 C12.6275 31.0625 10.3175 31.0625 7.9375 31.0625 C7.4425 28.5875 7.4425 28.5875 6.9375 26.0625 C4.64509993 26.12235379 2.35343794 26.21109027 0.0625 26.3125 C-1.21367188 26.35890625 -2.48984375 26.4053125 -3.8046875 26.453125 C-7.15438105 26.68805056 -7.15438105 26.68805056 -8.5078125 29.109375 C-8.69085937 29.75390625 -8.87390625 30.3984375 -9.0625 31.0625 C-11.0425 31.0625 -13.0225 31.0625 -15.0625 31.0625 C-12.8831242 24.31829982 -10.46540619 17.6832067 -7.9375 11.0625 C-7.57785156 10.10988281 -7.21820312 9.15726562 -6.84765625 8.17578125 C-6.50347656 7.27214844 -6.15929687 6.36851562 -5.8046875 5.4375 C-5.4938623 4.62023437 -5.18303711 3.80296875 -4.86279297 2.9609375 C-3.57489368 -0.09418905 -3.54267598 0.07229951 0 0 Z M-1.0625 9.0625 C-2.3825 12.6925 -3.7025 16.3225 -5.0625 20.0625 C-2.0925 20.0625 0.8775 20.0625 3.9375 20.0625 C3.48873384 18.41403231 3.02819512 16.76876545 2.5625 15.125 C2.17964844 13.75021484 2.17964844 13.75021484 1.7890625 12.34765625 C1.17089896 9.89504913 1.17089896 9.89504913 -1.0625 9.0625 Z " fill="#FFFFFF" transform="translate(740.0625,361.9375)"/>
<path d="M0 0 C7.26 0 14.52 0 22 0 C22 1.65 22 3.3 22 5 C16.72 5 11.44 5 6 5 C6 7.31 6 9.62 6 12 C11.28 12 16.56 12 22 12 C22 13.65 22 15.3 22 17 C16.72 17 11.44 17 6 17 C6 19.64 6 22.28 6 25 C11.28 25 16.56 25 22 25 C22 26.65 22 28.3 22 30 C14.74 30 7.48 30 0 30 C0 20.1 0 10.2 0 0 Z " fill="#FFFFFF" transform="translate(1003,363)"/>
<path d="M0 0 C3.3825 -0.0825 6.765 -0.165 10.25 -0.25 C11.30993164 -0.28641602 12.36986328 -0.32283203 13.46191406 -0.36035156 C20.33575253 -0.44183875 20.33575253 -0.44183875 23.61328125 1.73828125 C25.85469073 5.39398853 26.2045561 8.75735498 26 13 C24.43818681 16.670261 23.34089404 17.7727373 20 20 C16.64453125 20.1953125 16.64453125 20.1953125 12.8125 20.125 C11.54019531 20.10695313 10.26789062 20.08890625 8.95703125 20.0703125 C7.98121094 20.04710937 7.00539063 20.02390625 6 20 C6 23.3 6 26.6 6 30 C4.02 30 2.04 30 0 30 C0 20.1 0 10.2 0 0 Z M6 5 C6 8.3 6 11.6 6 15 C7.5675 15.061875 9.135 15.12375 10.75 15.1875 C11.63171875 15.22230469 12.5134375 15.25710938 13.421875 15.29296875 C16.44671583 14.94923684 17.75583602 13.99772541 20 12 C19.65772428 9.02934491 19.65772428 9.02934491 19 6 C16.35541621 4.67770811 14.32238699 4.90322806 11.375 4.9375 C9.87066406 4.95103516 9.87066406 4.95103516 8.3359375 4.96484375 C7.17964844 4.98224609 7.17964844 4.98224609 6 5 Z " fill="#FFFFFF" transform="translate(521,363)"/>
<path d="M0 0 C7.26 0 14.52 0 22 0 C22 1.65 22 3.3 22 5 C16.72 5 11.44 5 6 5 C6 7.31 6 9.62 6 12 C10.95 12 15.9 12 21 12 C21 13.65 21 15.3 21 17 C16.05 17 11.1 17 6 17 C6 19.64 6 22.28 6 25 C11.28 25 16.56 25 22 25 C22 26.65 22 28.3 22 30 C14.74 30 7.48 30 0 30 C0 20.1 0 10.2 0 0 Z " fill="#FFFFFF" transform="translate(897,363)"/>
<path d="M0 0 C0.804375 0.495 1.60875 0.99 2.4375 1.5 C2.4375 2.82 2.4375 4.14 2.4375 5.5 C0.4575 6.49 0.4575 6.49 -1.5625 7.5 C-2.5525 6.84 -3.5425 6.18 -4.5625 5.5 C-10.06821489 4.95734371 -10.06821489 4.95734371 -15.0625 6.875 C-17.4065582 10.97710185 -17.29680028 14.8953253 -16.5625 19.5 C-15.26808862 22.29504081 -15.26808862 22.29504081 -12.5625 23.5 C-7.58239858 23.97429537 -4.10013968 23.76881984 0.4375 21.5 C1.4275 22.49 2.4175 23.48 3.4375 24.5 C2.8125 26.375 2.8125 26.375 1.4375 28.5 C-4.50657879 31.33051371 -10.16176646 31.22022006 -16.3125 29.375 C-20.03764165 27.22587982 -22.29210657 25.61186513 -23.5625 21.5 C-25.00372199 8.97474083 -25.00372199 8.97474083 -22 3.8125 C-15.7115251 -2.15348901 -7.83739001 -3.29995369 0 0 Z " fill="#FFFFFF" transform="translate(1054.5625,363.5)"/>
<path d="M0 0 C1.4540625 0.7425 1.4540625 0.7425 2.9375 1.5 C2.625 3.375 2.625 3.375 1.9375 5.5 C0.9475 6.16 -0.0425 6.82 -1.0625 7.5 C-1.578125 7.17 -2.09375 6.84 -2.625 6.5 C-6.66636304 4.84200491 -10.37309912 4.83313123 -14.4375 6.4375 C-17.05314527 9.75735746 -17.26637553 13.34967679 -17.0625 17.5 C-15.72748121 20.55147152 -15.03876566 22.01186717 -12.0625 23.5 C-7.11980019 23.7430836 -3.57240242 23.75495121 0.9375 21.5 C2.4375 22.875 2.4375 22.875 3.9375 24.5 C3.9375 25.16 3.9375 25.82 3.9375 26.5 C-2.31027367 30.22207793 -7.07923182 31.6630608 -14.23828125 29.9921875 C-17.77803132 28.86619753 -19.6524944 28.0158135 -22 25.0625 C-24.57627593 18.84912864 -24.91188133 13.18225683 -22.875 6.75 C-18.06010399 -1.88360664 -8.79884866 -3.79909555 0 0 Z " fill="#FFFFFF" transform="translate(718.0625,363.5)"/>
<path d="M0 0 C0.804375 0.495 1.60875 0.99 2.4375 1.5 C2.4375 2.82 2.4375 4.14 2.4375 5.5 C0.4575 6.49 0.4575 6.49 -1.5625 7.5 C-2.5525 6.84 -3.5425 6.18 -4.5625 5.5 C-8.41139483 5.29006028 -11.87483808 5.31994818 -15.5625 6.5 C-17.23019477 11.50308432 -17.23019477 17.49691568 -15.5625 22.5 C-10.91089376 24.05053541 -5.62474735 24.32489894 -1.0625 22.5 C-0.5675 22.17 -0.0725 21.84 0.4375 21.5 C1.4275 22.49 2.4175 23.48 3.4375 24.5 C2.8125 26.375 2.8125 26.375 1.4375 28.5 C-3.76126171 30.97560082 -9.25620512 31.54098014 -14.74609375 29.8125 C-18.18781548 28.29687942 -20.22978479 26.92629137 -22.5625 23.9375 C-24.30144606 17.95987294 -24.54524196 11.53647578 -22.5625 5.5625 C-17.46050854 -2.24992443 -8.2298664 -3.46520691 0 0 Z " fill="#FFFFFF" transform="translate(639.5625,363.5)"/>
<path d="M0 0 C-0.3125 1.875 -0.3125 1.875 -1 4 C-1.99 4.66 -2.98 5.32 -4 6 C-4.515625 5.67 -5.03125 5.34 -5.5625 5 C-9.60386304 3.34200491 -13.31059912 3.33313123 -17.375 4.9375 C-19.99064527 8.25735746 -20.20387553 11.84967679 -20 16 C-18.66498121 19.05147152 -17.97626566 20.51186717 -15 22 C-10.05730019 22.2430836 -6.50990242 22.25495121 -2 20 C-1.01 20.99 -0.02 21.98 1 23 C0 26 0 26 -3.0625 27.6875 C-8.59936572 29.82751558 -13.13757945 29.58976651 -18.75 27.8125 C-22.68915689 25.6156625 -25.01356801 23.38387731 -26.75 19.1875 C-27.50819548 12.55328953 -27.31731451 7.94828809 -24 2 C-16.85763955 -4.95922301 -8.41323822 -4.20661911 0 0 Z " fill="#FFFFFF" transform="translate(825,365)"/>
<path d="M0 0 C1.65 0 3.3 0 5 0 C5.02505615 0.59014893 5.0501123 1.18029785 5.07592773 1.78833008 C5.19200052 4.46326814 5.31467572 7.1378638 5.4375 9.8125 C5.47681641 10.74126953 5.51613281 11.67003906 5.55664062 12.62695312 C5.59853516 13.51962891 5.64042969 14.41230469 5.68359375 15.33203125 C5.72025146 16.15421143 5.75690918 16.9763916 5.79467773 17.82348633 C5.93427772 20.17905178 5.93427772 20.17905178 7 23 C9.24512262 24.12256131 10.51456649 24.13413762 13 24.125 C13.70125 24.12757813 14.4025 24.13015625 15.125 24.1328125 C17.09153775 24.11377236 17.09153775 24.11377236 19 23 C19.9300889 20.2097333 20.18698769 18.23470458 20.31640625 15.33203125 C20.35830078 14.43935547 20.40019531 13.54667969 20.44335938 12.62695312 C20.48267578 11.69818359 20.52199219 10.76941406 20.5625 9.8125 C20.60568359 8.87212891 20.64886719 7.93175781 20.69335938 6.96289062 C20.79938665 4.64207146 20.90145029 2.32114675 21 0 C22.65 0 24.3 0 26 0 C26.14547545 4.06212212 26.23413226 8.12357287 26.3125 12.1875 C26.35439453 13.33798828 26.39628906 14.48847656 26.43945312 15.67382812 C26.56327917 24.21782508 26.56327917 24.21782508 23.66796875 28.23828125 C18.65307451 31.54972679 13.83560066 31.5173083 8 31 C3.88724091 29.45771534 2.44219062 28.66328593 0 25 C-0.22705078 22.36450195 -0.22705078 22.36450195 -0.1953125 19.23828125 C-0.18886719 18.12001953 -0.18242188 17.00175781 -0.17578125 15.84960938 C-0.15902344 14.68236328 -0.14226562 13.51511719 -0.125 12.3125 C-0.11597656 11.13365234 -0.10695313 9.95480469 -0.09765625 8.74023438 C-0.07406423 5.82661974 -0.0411454 2.91341108 0 0 Z " fill="#FFFFFF" transform="translate(1065,363)"/>
<path d="M0 0 C3.0625 -0.625 3.0625 -0.625 7 0 C10.29461913 3.57294648 12.82958265 7.65916531 15 12 C16.14747465 10.37615858 17.2929291 8.75088944 18.4375 7.125 C19.07558594 6.22007812 19.71367188 5.31515625 20.37109375 4.3828125 C21.99518138 2.12261419 21.99518138 2.12261419 23 0 C25.31 0 27.62 0 30 0 C27.75270222 4.7642713 25.33027965 8.9907415 22.3125 13.3125 C18.7122896 18.80512868 17.91205542 23.50466454 18 30 C16.02 30 14.04 30 12 30 C12.05542969 29.33097656 12.11085938 28.66195313 12.16796875 27.97265625 C12.23812076 17.52000655 6.87522463 10.64410268 0.99389648 2.48364258 C0 1 0 1 0 0 Z " fill="#FFFFFF" transform="translate(829,363)"/>
<path d="M0 0 C2.76171875 -0.3046875 2.76171875 -0.3046875 6 0 C8.08203125 2.1171875 8.08203125 2.1171875 9.8125 4.875 C10.39644531 5.77992188 10.98039062 6.68484375 11.58203125 7.6171875 C12.43528678 9.05103288 13.25381536 10.50763072 14 12 C14.58007812 11.13375 15.16015625 10.2675 15.7578125 9.375 C16.54582668 8.24926545 17.33494774 7.12430514 18.125 6 C18.50398438 5.42765625 18.88296875 4.8553125 19.2734375 4.265625 C20.4453125 2.625 20.4453125 2.625 23 0 C26.3046875 -0.375 26.3046875 -0.375 29 0 C27.72811017 3.71141623 25.93016918 6.66343575 23.67358398 9.86083984 C19.0422483 16.47076117 16.57561003 21.68195665 17 30 C15.02 30 13.04 30 11 30 C11.04382812 29.319375 11.08765625 28.63875 11.1328125 27.9375 C11.10783668 18.54659058 7.2659485 12.76773599 2.15234375 5.2734375 C0 2 0 2 0 0 Z " fill="#FFFFFF" transform="translate(1176,363)"/>
<path d="M0 0 C8.91 0 17.82 0 27 0 C27 1.65 27 3.3 27 5 C23.7 5 20.4 5 17 5 C17 13.25 17 21.5 17 30 C15.02 30 13.04 30 11 30 C11 21.75 11 13.5 11 5 C7.37 5 3.74 5 0 5 C0 3.35 0 1.7 0 0 Z " fill="#FFFFFF" transform="translate(1145,363)"/>
<path d="M0 0 C8.91 0 17.82 0 27 0 C27 1.65 27 3.3 27 5 C23.37 5 19.74 5 16 5 C16 13.25 16 21.5 16 30 C14.02 30 12.04 30 10 30 C10 21.75 10 13.5 10 5 C6.7 5 3.4 5 0 5 C0 3.35 0 1.7 0 0 Z " fill="#FFFFFF" transform="translate(648,363)"/>
<path d="M0 0 C1.98 0 3.96 0 6 0 C6 8.25 6 16.5 6 25 C10.95 25 15.9 25 21 25 C21 26.65 21 28.3 21 30 C14.07 30 7.14 30 0 30 C0 20.1 0 10.2 0 0 Z " fill="#FFFFFF" transform="translate(761,363)"/>
<path d="M0 0 C1.98 0 3.96 0 6 0 C6 9.9 6 19.8 6 30 C4.02 30 2.04 30 0 30 C0 20.1 0 10.2 0 0 Z " fill="#FFFFFF" transform="translate(1133,363)"/>
<path d="M0 0 C1.98 0 3.96 0 6 0 C6 9.9 6 19.8 6 30 C4.02 30 2.04 30 0 30 C0 20.1 0 10.2 0 0 Z " fill="#FFFFFF" transform="translate(681,363)"/>
<path d="M0 0 C-7 3.5 -7 3.5 -14 7 C-14 6.34 -14 5.68 -14 5 C-14.99 5 -15.98 5 -17 5 C-17 4.01 -17 3.02 -17 2 C-18.65 2 -20.3 2 -22 2 C-20.5 0.75 -20.5 0.75 -18 -1 C-17.44054687 -1.41765625 -16.88109375 -1.8353125 -16.3046875 -2.265625 C-9.89615824 -6.36500809 -6.00129094 -3.88608184 0 0 Z " fill="#B4B7D0" transform="translate(728,127)"/>
<path d="M0 0 C0.66 0.33 1.32 0.66 2 1 C1.835 1.7425 1.67 2.485 1.5 3.25 C0.88074304 6.19006578 0.88074304 6.19006578 1 10 C0.030625 10.28875 -0.93875 10.5775 -1.9375 10.875 C-5.10664203 11.64214682 -5.10664203 11.64214682 -6 14 C-8.97 12.02 -11.94 10.04 -15 8 C-12.05213324 6.03475549 -9.09027063 4.42527817 -5.9375 2.8125 C-4.87402344 2.26207031 -3.81054688 1.71164063 -2.71484375 1.14453125 C-1.81894531 0.76683594 -0.92304687 0.38914062 0 0 Z " fill="#C4C6DA" transform="translate(741,110)"/>
<path d="M0 0 C2.06898442 1.32185116 3.64943045 2.58420894 5.25 4.4375 C2.625 6.5625 2.625 6.5625 -0.75 8.4375 C-4.69816287 7.74076538 -7.20319453 6.55026225 -9.75 3.4375 C-3.51521739 -0.71902174 -3.51521739 -0.71902174 0 0 Z " fill="#FDFDFE" transform="translate(728.75,118.5625)"/>
<path d="M0 0 C1.36741555 2.25221384 2.04066478 3.52557758 1.8125 6.1875 C1.544375 6.785625 1.27625 7.38375 1 8 C0.01 8.33 -0.98 8.66 -2 9 C-2 8.34 -2 7.68 -2 7 C-2.99 7 -3.98 7 -5 7 C-5 6.01 -5 5.02 -5 4 C-6.65 4 -8.3 4 -10 4 C-4.7826087 0 -4.7826087 0 0 0 Z " fill="#CCCEDF" transform="translate(716,125)"/>
<path d="M0 0 C0 0.99 0 1.98 0 3 C0.66 3 1.32 3 2 3 C3.625 5 3.625 5 5 7 C4.34 7 3.68 7 3 7 C2.67 7.66 2.34 8.32 2 9 C-0.97 7.02 -3.94 5.04 -7 3 C-2.5 0 -2.5 0 0 0 Z " fill="#B1B4CE" transform="translate(733,115)"/>
<path d="M0 0 C0.66 0.33 1.32 0.66 2 1 C1.835 1.7425 1.67 2.485 1.5 3.25 C0.88074304 6.19006578 0.88074304 6.19006578 1 10 C0.01 10 -0.98 10 -2 10 C-2 8.68 -2 7.36 -2 6 C-2.66 6 -3.32 6 -4 6 C-4 4.68 -4 3.36 -4 2 C-2.125 0.9375 -2.125 0.9375 0 0 Z " fill="#D4D5E4" transform="translate(741,110)"/>
</svg>
