<?xml version="1.0" encoding="UTF-8"?>
<svg version="1.1" xmlns="http://www.w3.org/2000/svg" width="1201" height="743">
<path d="M0 0 C2.84199713 1.53306963 5.79191895 2.72983867 8.77685547 3.95849609 C9.43685547 4.28849609 10.09685547 4.61849609 10.77685547 4.95849609 C10.77685547 5.61849609 10.77685547 6.27849609 10.77685547 6.95849609 C11.33115234 7.20728516 11.88544922 7.45607422 12.45654297 7.71240234 C27.5617549 15.8244606 37.23207105 30.13346043 44.77685547 44.95849609 C45.35564453 46.07611328 45.93443359 47.19373047 46.53076172 48.34521484 C61.73428598 79.32382444 58.27874991 114.46247069 47.72070312 146.25048828 C45.60800003 152.3120772 43.15293929 158.2011445 40.57373047 164.07617188 C39.33871285 166.99344696 38.30213625 169.98368097 37.21435547 172.95849609 C34.33722573 180.18621824 30.68172073 186.91520364 26.90185547 193.70849609 C26.32491943 194.75005859 25.7479834 195.79162109 25.15356445 196.86474609 C21.65164925 203.04592304 17.8497895 208.82380513 13.56933594 214.49462891 C11.7260745 216.94879486 11.7260745 216.94879486 10.15795898 219.67944336 C7.26757779 224.44905773 2.04161213 226.28576596 -3.12939453 227.82177734 C-11.79634432 229.64228355 -17.64425219 228.03195678 -25.53564453 224.45849609 C-30.4241476 219.91105138 -32.38895243 213.82603145 -34.22314453 207.52099609 C-34.22314453 195.44799178 -28.23973462 185.96149593 -22.03710938 176.06640625 C-10.91898019 158.29087608 -1.92146664 138.158857 2.96435547 117.70849609 C3.21088867 116.72623047 3.21088867 116.72623047 3.46240234 115.72412109 C7.53674206 99.09685616 7.5549978 81.42281706 -1.24267578 66.27880859 C-13.88711682 46.32222597 -34.92070663 37.37568106 -57.03564453 32.20849609 C-117.66965971 18.95352225 -184.57497859 33.12419066 -242.71142578 51.32958984 C-246.16089146 52.39562105 -249.53754706 53.25574866 -253.09033203 53.89208984 C-259.62013258 55.11403703 -265.78287465 57.37977648 -272.03564453 59.58349609 C-273.32440059 60.03330028 -274.61321978 60.48292363 -275.90209961 60.93237305 C-288.45172334 65.32673195 -300.86835685 70.04553609 -313.23095703 74.93896484 C-314.44489136 75.41716675 -314.44489136 75.41716675 -315.68334961 75.9050293 C-317.18777037 76.4988344 -318.69040581 77.09719569 -320.19067383 77.70141602 C-324.10652693 79.25051911 -327.92943862 80.3819503 -332.0378418 81.35058594 C-336.59344749 82.61786984 -340.92418136 84.52385849 -345.28564453 86.33349609 C-346.24019531 86.72021484 -347.19474609 87.10693359 -348.17822266 87.50537109 C-353.4371879 89.66847895 -358.3623426 92.00560948 -363.22314453 94.95849609 C-362.50126953 95.36841797 -361.77939453 95.77833984 -361.03564453 96.20068359 C-360.10751953 96.73951172 -359.17939453 97.27833984 -358.22314453 97.83349609 C-357.29501953 98.36716797 -356.36689453 98.90083984 -355.41064453 99.45068359 C-354.68876953 99.94826172 -353.96689453 100.44583984 -353.22314453 100.95849609 C-353.22314453 101.61849609 -353.22314453 102.27849609 -353.22314453 102.95849609 C-352.58376953 103.18537109 -351.94439453 103.41224609 -351.28564453 103.64599609 C-341.97885726 107.63461921 -332.9268611 113.23984709 -325.76220703 120.42724609 C-323.11367323 123.06763056 -320.35612467 125.23962243 -317.34814453 127.45849609 C-316.29755859 128.23708984 -315.24697266 129.01568359 -314.16455078 129.81787109 C-311.88780391 131.47478648 -309.5981249 133.10246577 -307.28564453 134.70849609 C-304.26417179 136.92835362 -301.86020457 139.29860437 -299.22314453 141.95849609 C-297.1181475 143.95945422 -294.98473103 145.92886085 -292.84814453 147.89599609 C-292.27306152 148.42741211 -291.69797852 148.95882812 -291.10546875 149.50634766 C-288.2396424 152.14436716 -285.35355012 154.72903648 -282.34814453 157.20849609 C-279.20611548 159.85400698 -276.56323122 162.82543923 -273.91845703 165.96240234 C-272.8428445 167.22884936 -271.73610869 168.47000024 -270.59033203 169.67333984 C-265.01684236 175.62493057 -262.0702712 182.26630672 -261.72314453 190.45849609 C-262.0275502 197.6221761 -264.06197411 203.48105683 -268.78564453 208.89599609 C-274.23332987 212.7616516 -281.31399542 214.39870492 -287.91064453 213.77099609 C-289.35212208 213.52220015 -290.79009736 213.25197992 -292.22314453 212.95849609 C-292.90119141 212.86697266 -293.57923828 212.77544922 -294.27783203 212.68115234 C-302.60030174 211.24010214 -307.53639821 204.65638777 -313.21777344 198.91918945 C-313.8176709 198.31341064 -314.41756836 197.70763184 -315.03564453 197.08349609 C-315.64069824 196.47062744 -316.24575195 195.85775879 -316.86914062 195.22631836 C-321.23147298 190.84591165 -325.78872761 186.87306072 -330.64111328 183.03662109 C-333.2818353 180.91125935 -335.78441533 178.68327878 -338.28564453 176.39599609 C-342.384286 172.66225753 -346.6193559 169.16607717 -350.97705078 165.73974609 C-352.83113783 164.26937445 -354.62611201 162.76108672 -356.41064453 161.20849609 C-358.91642323 159.20387313 -361.41010017 157.69391325 -364.21533203 156.15771484 C-366.60652084 154.72951452 -368.79822218 153.11774661 -371.03564453 151.45849609 C-376.11189525 147.71476119 -381.29467047 144.15520235 -386.53564453 140.64599609 C-387.68286987 139.87255859 -387.68286987 139.87255859 -388.85327148 139.08349609 C-392.87511807 136.40314441 -396.87401063 134.0826297 -401.22314453 131.95849609 C-404.50975299 129.94425183 -407.75666321 127.87456808 -411.00439453 125.79833984 C-415.37593407 123.19250545 -415.37593407 123.19250545 -420.22314453 121.95849609 C-423.60135303 123.28498316 -426.55419987 125.18609776 -429.59814453 127.14599609 C-438.92386305 132.98567222 -438.92386305 132.98567222 -443.46533203 134.60693359 C-447.02450955 135.88705357 -449.80276856 137.35977396 -452.97314453 139.39599609 C-454.63410156 140.44207031 -454.63410156 140.44207031 -456.32861328 141.50927734 C-456.9401123 141.8955127 -457.55161133 142.28174805 -458.18164062 142.6796875 C-468.41872056 149.09224726 -478.68869993 155.43921571 -489.59814453 160.64599609 C-493.29344249 162.49364507 -496.77036981 164.653347 -500.26220703 166.85693359 C-502.22314453 167.95849609 -502.22314453 167.95849609 -504.22314453 167.95849609 C-504.22314453 168.61849609 -504.22314453 169.27849609 -504.22314453 169.95849609 C-505.65673828 171.00830078 -505.65673828 171.00830078 -507.66064453 172.13037109 C-508.38711182 172.54464355 -509.1135791 172.95891602 -509.86206055 173.38574219 C-510.64121826 173.82225098 -511.42037598 174.25875977 -512.22314453 174.70849609 C-517.53887877 177.74808835 -522.6147237 180.77825998 -527.39257812 184.62841797 C-529.19712162 185.93958801 -530.92158247 186.83719216 -532.94580078 187.76318359 C-537.39476676 189.9388695 -541.18871351 192.68877119 -545.09814453 195.70849609 C-545.79286865 196.23636719 -546.48759277 196.76423828 -547.20336914 197.30810547 C-551.1175783 200.29434379 -554.96856433 203.3487156 -558.78564453 206.45849609 C-561.87201833 208.96457 -564.8786921 210.98864317 -568.38720703 212.83349609 C-570.82074726 214.3246867 -572.91029201 216.12743183 -575.09814453 217.95849609 C-582.68493245 224.10345102 -590.27857782 227.5322211 -600.22314453 226.95849609 C-607.72462275 225.28053386 -612.92579231 222.64248318 -617.40283203 216.28271484 C-620.90213193 210.45457053 -621.06880942 204.59568413 -620.22314453 197.95849609 C-618.58948035 191.65971602 -616.24187384 187.19653418 -611.22314453 182.95849609 C-609.72042934 181.62822363 -608.22067562 180.29460178 -606.72314453 178.95849609 C-605.62486328 177.99943359 -605.62486328 177.99943359 -604.50439453 177.02099609 C-602.92111727 175.58953994 -601.39214255 174.09661228 -599.91064453 172.56005859 C-596.72314107 169.47448112 -593.31589491 166.92312211 -589.72314453 164.33349609 C-589.07216797 163.85654297 -588.42119141 163.37958984 -587.75048828 162.88818359 C-584.3262606 160.39783619 -580.86595621 158.1210348 -577.22314453 155.95849609 C-575.58556218 154.78840837 -573.96127894 153.59956522 -572.34814453 152.39599609 C-565.4621065 147.34561367 -558.36524771 142.63573922 -551.22314453 137.95849609 C-550.43681641 137.44029297 -549.65048828 136.92208984 -548.84033203 136.38818359 C-545.51648294 134.24853985 -542.16254475 132.4187172 -538.59814453 130.70849609 C-533.74831229 128.33911241 -529.27152099 125.50134424 -524.765625 122.54858398 C-519.71417938 119.24497956 -514.56958297 116.12233314 -509.37280273 113.05322266 C-506.52262109 111.36405186 -503.73562282 109.63093325 -500.98486328 107.78271484 C-498.48249791 106.12980872 -496.06733636 104.99756075 -493.29345703 103.88427734 C-489.59183231 102.22902251 -486.10359685 100.16382837 -482.57861328 98.16552734 C-480.22314453 96.95849609 -480.22314453 96.95849609 -478.22314453 96.95849609 C-478.22314453 96.29849609 -478.22314453 95.63849609 -478.22314453 94.95849609 C-477.56314453 94.62849609 -476.90314453 94.29849609 -476.22314453 93.95849609 C-479.52440779 92.56284008 -482.83329368 91.18642501 -486.14648438 89.81933594 C-487.62502129 89.20643667 -489.10172077 88.58909679 -490.57714844 87.96875 C-493.14230491 86.89207312 -495.71345839 85.83075609 -498.28564453 84.77099609 C-499.09936523 84.42617187 -499.91308594 84.08134766 -500.75146484 83.72607422 C-504.95488042 82.00977749 -508.91138379 80.7423072 -513.39892578 80.01708984 C-519.9036136 78.960812 -526.04989243 76.92092427 -532.29580688 74.87683105 C-558.2008028 66.44098013 -584.35939827 61.21693675 -611.22314453 56.95849609 C-612.26615723 56.78688965 -613.30916992 56.6152832 -614.38378906 56.43847656 C-689.93215775 44.14113894 -778.3466528 48.20288683 -849.37158203 78.10302734 C-852.59321131 79.43063769 -855.52990001 80.25407162 -858.96923828 80.78662109 C-865.29618074 81.91877177 -870.78436362 84.84316503 -876.44604492 87.76123047 C-878.27976384 88.70546795 -880.12235118 89.63014696 -881.96728516 90.55224609 C-888.69512746 93.94686553 -895.06195159 97.61783294 -901.22314453 101.95849609 C-903.97823367 103.72962482 -906.44019626 105.04459069 -909.49267578 106.25537109 C-913.21239744 107.8374605 -916.12755697 109.98230119 -919.28564453 112.52099609 C-923.9621309 116.23083444 -928.71374921 119.77699587 -933.59814453 123.20849609 C-937.7141146 126.11624054 -941.71991202 129.05481367 -945.47314453 132.42333984 C-947.72043552 134.39473573 -950.06953645 136.22457647 -952.41064453 138.08349609 C-958.79886834 143.28218857 -964.48290662 149.07022913 -970.22314453 154.95849609 C-971.04298828 155.77447266 -971.86283203 156.59044922 -972.70751953 157.43115234 C-979.87092589 164.6279286 -986.93147266 171.86756828 -992.43017578 180.44677734 C-994.02029786 182.67433398 -995.68132675 184.62262846 -997.50830078 186.65380859 C-1001.3730326 191.01947712 -1004.63749455 195.66100788 -1007.84814453 200.52099609 C-1008.44643066 201.42285645 -1009.0447168 202.3247168 -1009.66113281 203.25390625 C-1016.37894316 213.52208025 -1022.35467149 224.18883626 -1028.22314453 234.95849609 C-1028.64917969 235.73612305 -1029.07521484 236.51375 -1029.51416016 237.31494141 C-1034.29439802 246.05784781 -1038.5764902 254.51434649 -1041.35693359 264.09765625 C-1042.33422403 267.32535898 -1043.42176271 270.50311087 -1044.52783203 273.68896484 C-1058.72093923 314.70806099 -1064.24891444 355.76901878 -1057.22314453 398.95849609 C-1057.06749023 399.93028809 -1056.91183594 400.90208008 -1056.75146484 401.90332031 C-1054.01576153 418.26566558 -1048.89347858 433.59692952 -1043.17529297 449.10961914 C-1039.73766508 459.39517808 -1040.38833563 469.24100889 -1045.22314453 478.95849609 C-1049.32872554 484.63385808 -1055.73025176 487.20203966 -1062.52001953 488.34521484 C-1069.86413444 488.72283777 -1076.90060266 486.02637538 -1082.66064453 481.52099609 C-1086.94109423 477.2405464 -1088.98733631 472.38996628 -1091.03564453 466.77099609 C-1091.2928125 466.06958496 -1091.54998047 465.36817383 -1091.81494141 464.64550781 C-1092.62491957 462.41905325 -1093.42397167 460.18884824 -1094.22314453 457.95849609 C-1094.47499512 457.27094238 -1094.7268457 456.58338867 -1094.98632812 455.875 C-1119.13176948 389.64435362 -1115.89222786 314.1387158 -1089.97631836 248.95239258 C-1089.19550692 246.88533033 -1088.53159654 244.8013754 -1087.87158203 242.69287109 C-1085.96899267 236.90440591 -1083.31826258 231.49432337 -1080.66064453 226.02099609 C-1080.13341797 224.92795166 -1079.60619141 223.83490723 -1079.06298828 222.70874023 C-1074.77429464 213.90390269 -1070.13508961 205.34574088 -1065.26367188 196.85327148 C-1064.25611083 195.01852693 -1063.36726417 193.15885497 -1062.48095703 191.26318359 C-1059.48246075 185.17926733 -1055.44571035 179.71260165 -1051.59814453 174.14599609 C-1050.81382493 173.00373742 -1050.02996731 171.86116138 -1049.24658203 170.71826172 C-1047.81579013 168.6329322 -1046.38291781 166.54902744 -1044.94726562 164.46704102 C-1043.69184189 162.64043681 -1042.4525999 160.80267915 -1041.22314453 158.95849609 C-1040.56314453 158.95849609 -1039.90314453 158.95849609 -1039.22314453 158.95849609 C-1039.06120605 158.08233643 -1039.06120605 158.08233643 -1038.89599609 157.18847656 C-1038.1364608 154.67120684 -1037.13169664 153.29473042 -1035.45751953 151.27880859 C-1034.89677734 150.59689453 -1034.33603516 149.91498047 -1033.75830078 149.21240234 C-1033.16919922 148.50986328 -1032.58009766 147.80732422 -1031.97314453 147.08349609 C-1031.39951172 146.38869141 -1030.82587891 145.69388672 -1030.23486328 144.97802734 C-1029.10324089 143.60925402 -1027.96781373 142.24361623 -1026.82836914 140.88134766 C-1025.80420351 139.65452963 -1024.78611862 138.42259188 -1023.77612305 137.18408203 C-1021.84785891 134.82504691 -1020.07354428 132.84173492 -1017.66064453 130.95849609 C-1015.09685769 129.0637518 -1015.09685769 129.0637518 -1013.50048828 126.27880859 C-1010.932242 122.32100591 -1007.69368399 119.13641721 -1004.34814453 115.83349609 C-1003.44902344 114.92277344 -1003.44902344 114.92277344 -1002.53173828 113.99365234 C-999.8204297 111.29410649 -997.30367917 109.01131557 -994.09033203 106.90380859 C-991.33067386 105.03145196 -989.59447285 103.09176544 -987.54541016 100.48876953 C-985.19854977 97.77272063 -982.33376111 95.72866579 -979.47314453 93.58349609 C-974.53692134 89.81347739 -969.85015405 85.94401662 -965.38330078 81.61474609 C-963.08695869 79.85407874 -960.77019103 78.87895236 -958.09887695 77.80273438 C-954.77059124 76.30472422 -951.8455315 74.21119067 -948.84814453 72.14599609 C-948.18967529 71.70022217 -947.53120605 71.25444824 -946.8527832 70.79516602 C-944.97248915 69.52167206 -943.09695982 68.24149726 -941.22314453 66.95849609 C-932.93622923 61.29852025 -924.56970063 55.69141941 -915.22314453 51.95849609 C-912.95899585 50.77065454 -910.71383338 49.56367821 -908.47314453 48.33349609 C-891.93548414 39.40659291 -873.96003818 29.77212186 -855.51220703 25.78271484 C-852.03513645 24.91138243 -848.71639866 23.79379858 -845.33349609 22.61645508 C-760.72379717 -6.81334948 -667.0119676 -4.73367342 -520.38720703 25.12646484 C-516.37318114 26.35118958 -512.36186572 27.4278975 -508.27783203 28.39208984 C-501.56407935 30.03233798 -495.17956481 32.38754848 -488.72314453 34.83349609 C-487.59005859 35.25501953 -486.45697266 35.67654297 -485.28955078 36.11083984 C-475.70672671 39.70028254 -466.19602137 43.45201214 -456.97314453 47.89599609 C-451.49443622 50.46189055 -445.94558239 52.5846579 -440.2578125 54.62255859 C-434.30255217 56.80744773 -428.83954956 59.64219352 -423.30908203 62.73583984 C-419.58556255 64.21110769 -418.03645595 64.10877254 -414.22314453 62.95849609 C-411.59018382 61.81302912 -409.06799744 60.49721311 -406.53564453 59.14599609 C-402.06184633 56.83014164 -397.69834823 54.62690298 -392.91064453 53.02099609 C-388.00791359 51.35059661 -383.43901694 49.21211443 -378.78564453 46.95849609 C-362.72411844 39.2190893 -346.27836511 31.56770762 -329.23095703 26.26708984 C-324.8935446 24.89505122 -320.65593688 23.27075199 -316.40063477 21.66503906 C-291.30765214 12.20169119 -266.09587786 3.33428219 -239.87353516 -2.43554688 C-235.85351025 -3.35464247 -231.88660416 -4.45016502 -227.91064453 -5.54150391 C-215.46743892 -8.89123378 -202.85130529 -11.495032 -190.22314453 -14.04150391 C-189.25957031 -14.23631348 -188.29599609 -14.43112305 -187.30322266 -14.63183594 C-174.54280372 -17.15781262 -161.70491058 -18.78405981 -148.78564453 -20.22900391 C-148.03114014 -20.31386047 -147.27663574 -20.39871704 -146.49926758 -20.48614502 C-97.50022098 -25.93983347 -43.84870282 -25.15081803 0 0 Z " fill="#174480" transform="translate(1113.22314453125,26.04150390625)"/>
<path d="M0 0 C3.66818457 3.18574759 6.17921758 6.86577774 7.72265625 11.49609375 C8.27953125 10.42359375 8.83640625 9.35109375 9.41015625 8.24609375 C12.51481958 2.88054319 16.61679184 0.0154292 22.42578125 -1.9609375 C30.59603471 -3.89234095 38.5235882 -2.84542258 45.72265625 1.49609375 C53.11611676 7.53895978 55.29394623 15.12590599 56.41015625 24.30859375 C57.23161887 35.80553469 56.59761073 47.32158142 55.91015625 58.80859375 C55.84438385 59.9168602 55.84438385 59.9168602 55.77728271 61.04751587 C53.96134877 91.07992759 49.00363822 118.67363123 35.8515625 146.01953125 C34.55770809 148.85795235 33.52626028 151.74778862 32.47265625 154.68359375 C27.99305994 166.48963263 21.04887087 177.14915163 14.31152344 187.77441406 C11.85752685 191.64703805 9.52881859 195.55855612 7.28515625 199.55859375 C4.4843444 204.4084556 1.38011587 208.96499721 -1.90234375 213.49609375 C-2.35794678 214.13168213 -2.8135498 214.76727051 -3.28295898 215.42211914 C-5.97061409 219.06432325 -8.69845165 221.68660516 -12.27734375 224.49609375 C-13.58539206 226.16039913 -14.83438977 227.87244754 -16.02734375 229.62109375 C-21.58009111 237.44921502 -27.70735864 244.29287065 -35.0546875 250.45703125 C-37.95103463 253.11413705 -40.52747984 256.01164579 -43.15234375 258.93359375 C-48.90415598 265.29930742 -55.03432994 270.69751018 -62.21484375 275.43359375 C-65.01101913 277.31673227 -67.4597639 279.31813148 -70.02734375 281.49609375 C-79.94467769 289.69279735 -90.88458207 297.01003214 -102.30859375 302.93359375 C-104.7576025 304.22254572 -107.15797225 305.55823768 -109.55859375 306.93359375 C-135.94109165 322.0018202 -135.94109165 322.0018202 -149.83984375 318.9296875 C-160.72123155 315.8369121 -160.72123155 315.8369121 -163.6484375 311.43359375 C-167.87483654 303.77100059 -169.40020146 296.7727178 -167.08984375 288.24609375 C-164.37059254 280.39594773 -160.252562 275.61559312 -152.921875 271.70703125 C-151.64666823 271.09061154 -150.36919358 270.47886803 -149.08984375 269.87109375 C-131.42688552 261.34776098 -131.42688552 261.34776098 -115.42578125 250.15234375 C-111.88437208 247.42223923 -107.97874013 245.33588883 -104.07421875 243.171875 C-99.155066 240.22450554 -95.28244011 236.56949408 -91.27734375 232.49609375 C-81.11344713 222.77278458 -81.11344713 222.77278458 -76.15234375 220.05859375 C-71.65530699 217.44594284 -68.93232303 213.65784916 -65.76953125 209.59765625 C-63.04034915 206.20115063 -60.13745139 203.0407994 -57.15234375 199.87109375 C-51.1768517 193.47735476 -45.51215884 187.06258255 -41.3125 179.3359375 C-40.00891333 177.01899667 -38.59710528 174.79014108 -37.15234375 172.55859375 C-36.40597656 171.40037109 -36.40597656 171.40037109 -35.64453125 170.21875 C-34.96777344 169.36603516 -34.96777344 169.36603516 -34.27734375 168.49609375 C-33.61734375 168.49609375 -32.95734375 168.49609375 -32.27734375 168.49609375 C-32.04917969 167.84253906 -31.82101562 167.18898438 -31.5859375 166.515625 C-30.20423049 163.32738763 -28.54223463 160.48949129 -26.7487793 157.52050781 C-19.5763946 145.62411788 -13.82177527 133.21690268 -8.27734375 120.49609375 C-7.79177002 119.40554688 -7.79177002 119.40554688 -7.29638672 118.29296875 C0.23118594 101.32942473 3.47701426 83.90101352 4.72265625 65.49609375 C4.80725098 64.34778076 4.80725098 64.34778076 4.89355469 63.17626953 C5.73426568 51.61276238 5.83829865 40.08603218 5.72265625 28.49609375 C5.13226562 29.41777344 4.541875 30.33945312 3.93359375 31.2890625 C-1.67202463 39.42018033 -10.24387583 44.27636626 -18.5 49.390625 C-20.14258963 50.41227965 -21.77305927 51.45335168 -23.40234375 52.49609375 C-30.44108433 56.94917452 -37.66809429 60.87621413 -45.05517578 64.71459961 C-50.2007011 67.39066143 -55.29373904 70.13703555 -60.33984375 72.99609375 C-60.97849365 73.35719238 -61.61714355 73.71829102 -62.27514648 74.09033203 C-65.03802936 75.65480193 -67.79861372 77.22325147 -70.55712891 78.79541016 C-86.17812293 87.68160436 -86.17812293 87.68160436 -93.6171875 90.38671875 C-97.35009965 91.94346919 -100.84937231 93.88179305 -104.40234375 95.80859375 C-110.63771929 99.18269979 -116.925645 102.1975532 -123.4519043 104.96313477 C-127.96978904 106.88799042 -132.34900293 108.99919629 -136.71484375 111.24609375 C-141.0917719 113.47407862 -145.28837286 115.28428997 -149.9765625 116.70703125 C-152.80524262 117.67713886 -155.44627945 118.91055218 -158.15234375 120.18359375 C-177.40387684 129.23003175 -197.44736272 138.10200975 -218.02734375 143.5625 C-221.5156309 144.56454402 -224.8325066 145.80533544 -228.21484375 147.12109375 C-258.00956966 158.6374949 -289.07702739 166.85708587 -320.24609375 173.61669922 C-323.57697367 174.34019517 -326.90286716 175.0842421 -330.22787476 175.834198 C-373.17316113 185.49654115 -417.13729621 191.70760055 -461.21484375 191.74609375 C-462.02905792 191.74710083 -462.84327209 191.74810791 -463.68215942 191.74914551 C-488.36957431 191.72877808 -513.11943478 189.76374211 -537.27734375 184.49609375 C-538.1472998 184.30740723 -539.01725586 184.1187207 -539.91357422 183.92431641 C-551.8005473 181.24101189 -563.07875149 177.22011847 -574.33984375 172.62109375 C-575.52852051 172.13962891 -576.71719727 171.65816406 -577.94189453 171.16210938 C-591.29576895 165.54374512 -604.23657132 158.07961064 -614.27734375 147.49609375 C-615.66953125 146.16578125 -615.66953125 146.16578125 -617.08984375 144.80859375 C-619.27734375 142.49609375 -619.27734375 142.49609375 -619.27734375 140.49609375 C-620.26734375 140.16609375 -621.25734375 139.83609375 -622.27734375 139.49609375 C-627.30362156 131.60813953 -629.74916535 123.78379559 -628.27734375 114.49609375 C-626.56427259 107.68187734 -624.19419232 103.32464283 -618.27734375 99.49609375 C-611.46605408 95.54554574 -604.05690124 95.26479501 -596.45703125 97.22265625 C-591.29119797 99.11936518 -587.91144368 101.28818856 -584.27734375 105.49609375 C-577.92527268 112.78921239 -570.7211631 117.03699814 -562.27734375 121.49609375 C-562.27734375 122.15609375 -562.27734375 122.81609375 -562.27734375 123.49609375 C-561.6649585 123.67277588 -561.05257324 123.84945801 -560.42163086 124.03149414 C-555.29396428 125.53651794 -550.26595961 127.18971155 -545.25561523 129.04589844 C-534.73114208 132.91320358 -524.34176097 135.70790511 -513.27734375 137.49609375 C-512.39014648 137.645625 -511.50294922 137.79515625 -510.58886719 137.94921875 C-476.22359111 143.47242211 -439.70443572 141.86560349 -405.27734375 137.49609375 C-403.9184571 137.32812442 -402.55957038 137.16015568 -401.20068359 136.9921875 C-368.34365758 132.86864077 -336.13993856 125.57490104 -304.17176819 117.0435791 C-300.90158882 116.17381639 -297.62854452 115.33101734 -294.33740234 114.54394531 C-284.25133893 112.12684794 -274.47142704 109.07774838 -264.65234375 105.74609375 C-263.05923721 105.21047382 -261.46605597 104.675076 -259.87280273 104.13989258 C-250.45010564 100.96413807 -241.07134457 97.6841918 -231.74975586 94.22143555 C-226.65581333 92.33415223 -221.53739279 90.58085506 -216.36694336 88.91479492 C-204.66671013 85.13750339 -193.49110079 80.52276424 -182.27734375 75.49609375 C-181.10413574 74.97112305 -179.93092773 74.44615234 -178.72216797 73.90527344 C-173.67058563 71.64363206 -168.61948028 69.38112065 -163.57617188 67.10107422 C-158.19292158 64.67144586 -152.80794544 62.28573153 -147.3359375 60.0625 C-140.85108743 57.38478054 -134.5866342 54.30183232 -128.32373047 51.1496582 C-126.41406225 50.18948576 -124.50028692 49.23790782 -122.5859375 48.28710938 C-114.98177915 44.48822873 -107.57125647 40.45215662 -100.24145508 36.14672852 C-96.6604553 34.15256498 -93.13782426 32.85064832 -89.27734375 31.49609375 C-87.97153505 30.7925666 -86.67927736 30.06326412 -85.40234375 29.30859375 C-82.27734375 27.49609375 -82.27734375 27.49609375 -80.27734375 27.49609375 C-80.27734375 26.83609375 -80.27734375 26.17609375 -80.27734375 25.49609375 C-79.64755615 25.15876221 -79.01776855 24.82143066 -78.36889648 24.47387695 C-75.48153406 22.92371314 -72.59818687 21.3662199 -69.71484375 19.80859375 C-68.72419922 19.27814453 -67.73355469 18.74769531 -66.71289062 18.20117188 C-62.42448625 15.8788798 -58.24728336 13.58469863 -54.3203125 10.68359375 C-51.72332166 8.81669404 -50.17842502 7.88804587 -47.15234375 7.18359375 C-42.90983451 5.93749171 -39.65683236 3.91772069 -35.96484375 1.49609375 C-24.3163297 -5.85372536 -11.91150403 -8.24266295 0 0 Z " fill="#174480" transform="translate(923.27734375,415.50390625)"/>
<path d="M0 0 C1.13418365 -0.00167175 2.26836731 -0.00334351 3.43692017 -0.00506592 C22.91935106 -0.00678876 42.43802994 0.13189998 61.375 5.25 C61.95492333 25.83281743 61.89931102 45.23057765 56.375 65.25 C56.14458008 66.11592773 55.91416016 66.98185547 55.67675781 67.87402344 C44.18680766 109.81154024 17.07509476 148.16579926 -12.2109375 179.625 C-14.07874747 181.65601667 -15.87619446 183.71237736 -17.66796875 185.80859375 C-22.20179344 191.00700543 -27.08303406 195.85794614 -31.9675293 200.72290039 C-33.55958966 202.30959946 -35.1462299 203.90157742 -36.73242188 205.49414062 C-42.1884783 210.95338866 -47.70579915 216.2877239 -53.625 221.25 C-52.24767001 225.35284014 -50.38856341 227.91842384 -47.4375 231.0625 C-44.72518069 233.9743244 -42.05674869 236.90307256 -39.46484375 239.921875 C-34.98510197 245.05839606 -30.19091886 249.86810645 -25.375 254.6875 C-24.49714844 255.57759766 -23.61929688 256.46769531 -22.71484375 257.38476562 C-16.66807794 263.4448113 -10.33920522 268.94374245 -3.625 274.25 C-2.53718299 275.12558518 -1.44980712 276.00171939 -0.36328125 276.87890625 C0.43722656 277.51699219 1.23773438 278.15507812 2.0625 278.8125 C2.89136719 279.47378906 3.72023438 280.13507813 4.57421875 280.81640625 C5.16847656 281.28949219 5.76273438 281.76257813 6.375 282.25 C10.47784014 280.87267001 13.04342384 279.01356341 16.1875 276.0625 C17.49654297 274.85013672 17.49654297 274.85013672 18.83203125 273.61328125 C19.67121094 272.83339844 20.51039063 272.05351562 21.375 271.25 C22.70289696 270.07714939 24.03579403 268.90992079 25.375 267.75 C33.55175041 260.61274073 41.48486195 253.30494544 49.14428711 245.61108398 C50.56837492 244.18160283 51.99778044 242.75759489 53.42773438 241.33398438 C58.61943626 236.13504667 63.63708585 230.86549431 68.375 225.25 C68.91568115 224.61602295 69.4563623 223.9820459 70.01342773 223.32885742 C91.50213853 197.99436345 110.05287461 170.17476544 124.43212891 140.19628906 C125.36396224 138.27278431 126.32539081 136.36666881 127.29296875 134.4609375 C139.25581512 110.5082609 146.73917412 84.34279001 152.375 58.25 C151.694375 57.981875 151.01375 57.71375 150.3125 57.4375 C146.97794866 56.08948988 143.67928001 54.67056797 140.375 53.25 C140.19026123 53.9212793 140.00552246 54.59255859 139.81518555 55.28417969 C130.23253311 89.72465767 116.37509963 121.40534109 98.375 152.25 C97.95863281 152.96913574 97.54226563 153.68827148 97.11328125 154.42919922 C81.8204258 180.79371666 63.64455231 205.46224016 43.81054688 228.57177734 C42.29831776 230.33964519 40.79696278 232.11635317 39.296875 233.89453125 C34.44632565 239.62672229 29.5820531 245.21520428 24.18359375 250.4453125 C22.23450055 252.39019599 20.42769171 254.4190916 18.625 256.5 C17.77228516 257.48033203 17.77228516 257.48033203 16.90234375 258.48046875 C15.65941755 259.92048299 14.42255108 261.36572588 13.1875 262.8125 C11.375 264.25 11.375 264.25 9.5 264.0625 C6.85632486 263.05168303 5.52084381 261.72561341 3.5625 259.6875 C2.87542969 258.97464844 2.18835938 258.26179688 1.48046875 257.52734375 C-1.62880893 254.16424748 -4.65659654 250.73787406 -7.625 247.25 C-4.15940626 243.05480758 -0.55994625 239.13764919 3.3125 235.3125 C7.55080211 231.11192758 11.49972315 226.78235655 15.375 222.25 C16.35169567 221.13569311 17.32968052 220.02251553 18.30859375 218.91015625 C25.13303504 211.13594268 31.72649999 203.23529851 38.015625 195.02148438 C39.36570178 193.26211707 40.72940336 191.51393777 42.09375 189.765625 C68.8303346 155.16014126 91.58558582 116.4458682 106.375 75.25 C106.69017578 74.3945459 107.00535156 73.5390918 107.33007812 72.65771484 C113.93037596 54.65157873 117.66740998 36.02544697 121.375 17.25 C141.03044469 20.64115518 164.24090433 33.11590433 178.375 47.25 C178.74975772 53.84702814 177.97279311 59.96520034 176.75 66.4375 C176.57106201 67.39237305 176.39212402 68.34724609 176.20776367 69.33105469 C171.03472571 95.94023688 162.17358139 121.86697792 150.375 146.25 C150.0361377 146.9527002 149.69727539 147.65540039 149.34814453 148.37939453 C147.40853971 152.37693047 145.41554639 156.34403183 143.37988281 160.29345703 C142.36377261 162.27186013 141.36548825 164.25865539 140.3671875 166.24609375 C127.70089455 191.13945488 111.27081561 213.88418964 93.375 235.25 C92.88177246 235.84232422 92.38854492 236.43464844 91.88037109 237.04492188 C78.82254291 252.68815644 64.91027207 268.2671458 49.390625 281.515625 C47.07385379 283.50912581 44.82080016 285.56554388 42.5625 287.625 C37.85179784 291.86463194 33.04232344 295.94769876 28.08105469 299.89160156 C26.81514764 300.89954473 25.55341853 301.91273982 24.29394531 302.92871094 C22.01923479 304.75813382 19.730148 306.5681258 17.4375 308.375 C16.70329834 308.96829102 15.96909668 309.56158203 15.21264648 310.17285156 C14.51469971 310.71651367 13.81675293 311.26017578 13.09765625 311.8203125 C12.47640869 312.31289551 11.85516113 312.80547852 11.21508789 313.31298828 C9.375 314.25 9.375 314.25 7.32250977 314.01342773 C-1.66930697 310.48861754 -10.27214513 302.36436186 -17.625 296.25 C-18.60855469 295.44046875 -19.59210938 294.6309375 -20.60546875 293.796875 C-35.89564893 281.11088472 -50.77771483 267.4282272 -63.625 252.25 C-64.42164063 251.3425 -65.21828125 250.435 -66.0390625 249.5 C-71.59147178 243.13037063 -76.7354189 236.53541822 -81.6875 229.6875 C-82.24775879 228.9135791 -82.80801758 228.1396582 -83.38525391 227.34228516 C-85.734143 224.05557445 -87.88909765 220.90824783 -89.625 217.25 C-87.68853934 215.60293092 -85.75095232 213.95722283 -83.8125 212.3125 C-83.22154541 211.81032959 -82.63059082 211.30815918 -82.02172852 210.79077148 C-78.41543819 207.73542201 -74.76209107 204.75486483 -71.0625 201.8125 C-66.36639085 197.99947843 -62.1259872 193.87115256 -57.90087891 189.55541992 C-55.17616623 186.77685389 -52.4151484 184.13000579 -49.4375 181.625 C-45.64404719 178.38459678 -42.39265347 174.78253711 -39.1015625 171.0390625 C-37.34918565 169.06556554 -35.58447782 167.12858086 -33.7734375 165.2109375 C-27.06039273 158.09515381 -20.87138958 150.73071792 -14.93652344 142.95556641 C-13.67468895 141.31461783 -12.39257455 139.69226703 -11.1015625 138.07421875 C15.22226842 104.7334676 31.13156661 68.10938293 37.375 26.25 C18.3539754 25.42252051 -0.58780432 25.11378052 -19.625 25.25 C-19.80240723 25.86746094 -19.97981445 26.48492187 -20.16259766 27.12109375 C-29.67061228 59.59290976 -46.9316207 89.91184627 -66.625 117.25 C-67.09905273 117.9095166 -67.57310547 118.5690332 -68.06152344 119.24853516 C-79.69914732 135.33675334 -92.88574757 149.93986451 -106.625 164.25 C-107.25051758 164.91773438 -107.87603516 165.58546875 -108.52050781 166.2734375 C-109.13506836 166.91539062 -109.74962891 167.55734375 -110.3828125 168.21875 C-110.93340332 168.80076172 -111.48399414 169.38277344 -112.05126953 169.98242188 C-113.625 171.25 -113.625 171.25 -116.625 171.25 C-139.08780995 132.1999642 -152.25978176 87.43872372 -153.625 42.25 C-127.76335354 24.86698148 -100.7133792 13.91865601 -70.375 7.1875 C-69.66715363 7.0289856 -68.95930725 6.87047119 -68.23001099 6.70715332 C-66.21294956 6.26042574 -64.19341094 5.82831486 -62.171875 5.40234375 C-61.00495117 5.15476318 -59.83802734 4.90718262 -58.63574219 4.65209961 C-55.85324978 4.28048389 -54.23163029 4.31271719 -51.625 5.25 C-57.08234309 16.26644386 -62.54224573 27.27782846 -68.35424805 38.11254883 C-70.93320029 42.94789733 -73.4151043 47.82298426 -75.83638 52.73872375 C-77.4167709 55.9422622 -79.01399869 59.13729357 -80.61178589 62.33218384 C-81.4077011 63.93487731 -82.19583614 65.54145976 -82.9758606 67.15194702 C-84.08255921 69.4346627 -85.21602052 71.70224331 -86.35546875 73.96875 C-86.8442601 75.0034417 -86.8442601 75.0034417 -87.34292603 76.05903625 C-89.17850488 79.64065009 -90.51342028 81.18931449 -94.08325195 83.13085938 C-96.91241184 84.02483255 -99.65610991 84.85622198 -102.5625 85.4375 C-103.33464844 85.59605469 -104.10679687 85.75460937 -104.90234375 85.91796875 C-105.47082031 86.02753906 -106.03929687 86.13710938 -106.625 86.25 C-107.79634222 82.62649379 -108.96127802 79.00096001 -110.125 75.375 C-110.45886719 74.34246094 -110.79273438 73.30992187 -111.13671875 72.24609375 C-111.45253906 71.25996094 -111.76835937 70.27382812 -112.09375 69.2578125 C-112.38701172 68.34660645 -112.68027344 67.43540039 -112.98242188 66.49658203 C-113.625 64.25 -113.625 64.25 -113.625 62.25 C-111.15 61.755 -111.15 61.755 -108.625 61.25 C-108.35945313 60.39148438 -108.09390625 59.53296875 -107.8203125 58.6484375 C-106.61476199 55.22089192 -105.15255614 52.10826202 -103.5 48.875 C-102.96117187 47.81539062 -102.42234375 46.75578125 -101.8671875 45.6640625 C-101.45726562 44.86742187 -101.04734375 44.07078125 -100.625 43.25 C-108.42891112 46.30125894 -115.71063091 49.79096031 -123.0078125 53.89453125 C-125.625 55.25 -125.625 55.25 -127.625 55.25 C-126.65907605 60.59006736 -125.65017939 65.92106751 -124.625 71.25 C-124.45339355 72.14976562 -124.28178711 73.04953125 -124.10498047 73.9765625 C-121.88155362 85.51692274 -119.33168602 96.89458676 -116.0625 108.1875 C-115.78180664 109.16332031 -115.50111328 110.13914062 -115.21191406 111.14453125 C-113.44432796 117.07343796 -111.29025619 122.66668087 -108.625 128.25 C-96.76485572 115.79085853 -86.86321078 101.72358818 -77.625 87.25 C-76.92246094 86.15300781 -76.21992188 85.05601562 -75.49609375 83.92578125 C-60.85921206 60.53858985 -48.11170938 34.95687679 -41.06811523 8.19677734 C-39.80815965 3.43315965 -39.80815965 3.43315965 -37.625 1.25 C-25.50792489 -1.00953097 -12.26936487 0.00951174 0 0 Z " fill="#335497" transform="translate(297.625,177.75)"/>
<path d="M0 0 C0.87717682 -0.00067474 1.75435364 -0.00134949 2.65811157 -0.00204468 C40.28019205 0.04367801 82.41952031 5.37672514 111.75 31.25 C112.34554688 31.70375 112.94109375 32.1575 113.5546875 32.625 C128.80306257 44.4301936 137.08059308 64.0576707 140.33203125 82.5625 C145.73487724 130.22873007 121.85612293 174.60891956 96.75 213.25 C93.7780615 212.12548273 91.41559313 211.02706209 88.75 209.25 C90.29660795 206.02467605 92.07575582 203.00158087 93.9453125 199.953125 C104.04815529 183.41075419 104.04815529 183.41075419 112.85839844 166.16455078 C113.80195417 164.13843795 114.77982127 162.13078632 115.7578125 160.12109375 C129.07464722 132.14784237 136.98779127 98.28661254 126.68359375 68.12890625 C118.34676889 46.53020157 102.41662322 32.65456038 81.75 23.25 C72.56376163 19.26814986 63.06755649 16.68252306 53.3125 14.5 C52.43271484 14.30124268 51.55292969 14.10248535 50.64648438 13.89770508 C33.7665209 10.34346728 16.87644197 9.84422987 -0.3125 9.875 C-1.40816284 9.87521149 -2.50382568 9.87542297 -3.63269043 9.87564087 C-22.50608681 9.91182637 -40.62027159 11.25379811 -59.25 14.25 C-61.79017782 14.62885851 -64.33054361 15.00645878 -66.87109375 15.3828125 C-102.34082475 20.80528585 -137.08920415 30.39009089 -171.25 41.25 C-172.39452637 41.6114209 -173.53905273 41.9728418 -174.71826172 42.34521484 C-177.89708075 43.35027219 -181.07381166 44.36166374 -184.25 45.375 C-185.30316406 45.70886719 -186.35632813 46.04273438 -187.44140625 46.38671875 C-193.10962068 48.19572335 -198.70229037 50.1024995 -204.25 52.25 C-205.26255859 52.63414063 -206.27511719 53.01828125 -207.31835938 53.4140625 C-233.05769245 63.18269086 -258.32122911 73.81760443 -283.27734375 85.4609375 C-284.24140137 85.91049805 -285.20545898 86.36005859 -286.19873047 86.82324219 C-288.40799445 87.85628257 -290.61507704 88.89399232 -292.82080078 89.93457031 C-293.99497559 90.48467773 -295.16915039 91.03478516 -296.37890625 91.6015625 C-297.45342041 92.10768066 -298.52793457 92.61379883 -299.63500977 93.13525391 C-302.25 94.25 -302.25 94.25 -304.25 94.25 C-304.25 94.91 -304.25 95.57 -304.25 96.25 C-303.24259766 96.62898438 -303.24259766 96.62898438 -302.21484375 97.015625 C-254.19184393 117.0093904 -211.3683814 155.70838175 -175.25 192.25 C-176.64332574 195.61720387 -178.2289286 197.2359524 -181.25 199.25 C-182.34501831 198.13927124 -182.34501831 198.13927124 -183.4621582 197.00610352 C-186.22080604 194.21074053 -188.98649093 191.42242486 -191.75415039 188.63598633 C-192.94189696 187.43829777 -194.12782948 186.23880696 -195.31176758 185.03735352 C-202.63580581 177.60784417 -210.055184 170.72165075 -218.25 164.25 C-219.37499469 163.30324926 -220.49461485 162.35002224 -221.60546875 161.38671875 C-245.07965664 141.0855935 -271.50907672 123.82251904 -298.59521484 108.73925781 C-300.47420458 107.68519883 -302.33783921 106.6035478 -304.18994141 105.50292969 C-305.63699463 104.6622998 -305.63699463 104.6622998 -307.11328125 103.8046875 C-307.97864502 103.29147949 -308.84400879 102.77827148 -309.7355957 102.24951172 C-313.34125301 100.8162113 -315.62044108 101.56564542 -319.1015625 103.02758789 C-319.97941406 103.49539673 -319.97941406 103.49539673 -320.875 103.97265625 C-321.5661792 104.3377832 -322.2573584 104.70291016 -322.96948242 105.07910156 C-323.72205322 105.48612305 -324.47462402 105.89314453 -325.25 106.3125 C-326.06251221 106.7465918 -326.87502441 107.18068359 -327.7121582 107.62792969 C-330.56376145 109.15837851 -333.40756174 110.7025968 -336.25 112.25 C-337.90201416 113.1479126 -337.90201416 113.1479126 -339.58740234 114.06396484 C-354.28721023 122.06527123 -368.85662269 130.26060611 -383.28125 138.75 C-388.53481231 141.84074117 -393.81851994 144.87648538 -399.10839844 147.90454102 C-428.38311664 164.68232943 -457.06785017 182.71868985 -483.00390625 204.40625 C-485.98311255 206.85178978 -489.07689598 209.06408389 -492.25 211.25 C-493.95884005 209.62660195 -495.62446717 207.95680947 -497.25 206.25 C-497.25 205.59 -497.25 204.93 -497.25 204.25 C-495.5546875 202.69140625 -495.5546875 202.69140625 -493.125 200.8125 C-492.2071875 200.09707031 -491.289375 199.38164062 -490.34375 198.64453125 C-489.3228125 197.85433594 -488.301875 197.06414062 -487.25 196.25 C-486.17591199 195.40121976 -485.10302391 194.55091918 -484.03125 193.69921875 C-470.49711081 182.95771349 -456.77432739 172.61995807 -442.25 163.25 C-441.57759277 162.81284668 -440.90518555 162.37569336 -440.21240234 161.92529297 C-425.77975614 152.56330531 -410.92378797 143.92502824 -396.04803467 135.29418945 C-393.23959172 133.66321617 -390.43465757 132.02622315 -387.62890625 130.390625 C-366.74460764 118.24814704 -345.62362921 106.51022389 -324.25 95.25 C-391.66130121 63.18487291 -460.99720197 42.64477635 -535.25 35.25 C-536.39871582 35.13140625 -537.54743164 35.0128125 -538.73095703 34.890625 C-576.27745143 31.16205337 -614.78346394 32.04578521 -652.25 36.25 C-653.30155273 36.36746582 -654.35310547 36.48493164 -655.43652344 36.60595703 C-727.72554821 45.06059782 -796.36842494 72.89697774 -853.25 118.25 C-853.84006836 118.72002441 -854.43013672 119.19004883 -855.03808594 119.67431641 C-864.41133166 127.24542807 -872.94721881 135.71879644 -881.5 144.1875 C-882.04985565 144.72772797 -882.5997113 145.26795593 -883.16622925 145.82455444 C-891.2638297 153.80058428 -898.38788093 162.19631775 -905.25 171.25 C-906.42411212 172.74842664 -907.60069517 174.24492531 -908.78125 175.73828125 C-916.18541159 185.23085799 -922.98689639 194.96818192 -929.25 205.25 C-929.72791992 206.03294434 -930.20583984 206.81588867 -930.69824219 207.62255859 C-952.3485121 243.45182861 -966.9916275 282.84845887 -973.25 324.25 C-973.36714355 324.97477539 -973.48428711 325.69955078 -973.60498047 326.44628906 C-978.94377798 360.44641703 -975.11127111 396.02882855 -967.25 429.25 C-966.96020264 430.48121582 -966.96020264 430.48121582 -966.66455078 431.73730469 C-964.27390926 441.64168516 -960.98399073 450.87233803 -956.75268555 460.14770508 C-956.24475464 461.27921997 -956.24475464 461.27921997 -955.7265625 462.43359375 C-955.41799316 463.09931396 -955.10942383 463.76503418 -954.79150391 464.45092773 C-954.25 466.25 -954.25 466.25 -955.25 469.25 C-957.85242414 470.89820195 -959.11248779 471.25 -962.25 471.25 C-980.86669184 425.04735232 -988.98715854 375.90295108 -982.25 326.25 C-982.0646167 324.86216309 -982.0646167 324.86216309 -981.87548828 323.44628906 C-973.69087729 264.37819958 -946.81968781 206.6497367 -908.25 161.25 C-907.445625 160.27289063 -906.64125 159.29578125 -905.8125 158.2890625 C-890.70534205 140.00205226 -874.01101345 122.81116191 -855.25 108.25 C-854.67733398 107.80479004 -854.10466797 107.35958008 -853.51464844 106.90087891 C-778.07325867 48.53348238 -685.75959941 22.9370192 -591.125 23.0625 C-589.83790634 23.06340637 -589.83790634 23.06340637 -588.52481079 23.06433105 C-537.61871972 23.1603836 -485.40109463 28.71103347 -436.25 42.25 C-435.19844727 42.53955566 -434.14689453 42.82911133 -433.06347656 43.12744141 C-396.24227755 53.4123583 -360.45574842 66.76635479 -326.27148438 83.89550781 C-325.15451172 84.45206055 -324.03753906 85.00861328 -322.88671875 85.58203125 C-321.91436279 86.07421143 -320.94200684 86.5663916 -319.94018555 87.07348633 C-315.83310705 88.8696576 -313.38105987 89.62238826 -309.0703125 88.203125 C-307.83202903 87.64976601 -306.60067384 87.08075448 -305.375 86.5 C-304.67777832 86.18345459 -303.98055664 85.86690918 -303.26220703 85.54077148 C-299.28569183 83.71931837 -295.35026708 81.81718603 -291.421875 79.89453125 C-273.67231679 71.2284423 -255.50611645 63.65330865 -237.26708984 56.08731079 C-234.36022317 54.88064623 -231.45553336 53.66877561 -228.55078125 52.45703125 C-226.78391599 51.72120571 -225.0169979 50.98550698 -223.25 50.25 C-222.578479 49.96995117 -221.90695801 49.68990234 -221.21508789 49.40136719 C-213.11054412 46.03675692 -204.94312321 43.08024624 -196.60009766 40.36401367 C-192.66872725 39.07861097 -188.81596374 37.72908328 -185 36.125 C-180.03898797 34.05648114 -174.92721712 32.67239214 -169.7421875 31.27734375 C-166.22913663 30.29637064 -166.22913663 30.29637064 -162.828125 28.92578125 C-156.07746724 26.34322275 -149.0710378 24.47879581 -142.125 22.5 C-140.96701904 22.17002014 -140.96701904 22.17002014 -139.78564453 21.83337402 C-94.31523418 8.92828274 -47.39152124 0.03302077 0 0 Z " fill="#647AB9" transform="translate(1009.25,24.75)"/>
<path d="M0 0 C8.2069511 1.10904745 16.05771327 2.65742109 24 5 C19.07389192 72.12482346 -10.67732409 134.97886949 -54 186 C-54.89381311 187.06721955 -55.78701115 188.13495443 -56.6796875 189.203125 C-61.62389411 195.10277543 -66.64774565 200.91463174 -71.828125 206.609375 C-73.28644098 208.21457172 -74.7342691 209.8293543 -76.171875 211.453125 C-81.87765369 217.88730097 -87.87073652 223.97384563 -94 230 C-97.97058906 228.40425499 -100.62939954 225.63330816 -103.5625 222.625 C-104.04396484 222.14289063 -104.52542969 221.66078125 -105.02148438 221.1640625 C-107.5725273 218.58143857 -109.91003058 215.96958619 -112 213 C-110.51891127 209.5465583 -108.57178301 207.35078674 -105.89453125 204.734375 C-105.07533203 203.92613281 -104.25613281 203.11789062 -103.41210938 202.28515625 C-102.12530273 201.03025391 -102.12530273 201.03025391 -100.8125 199.75 C-94.96128474 194.02021657 -89.27692486 188.2662 -84 182 C-83.1790686 181.03078613 -83.1790686 181.03078613 -82.34155273 180.04199219 C-68.38559078 163.45765398 -55.72595193 146.23238141 -44 128 C-43.54915039 127.30390625 -43.09830078 126.6078125 -42.63378906 125.890625 C-29.94635513 106.08198497 -20.70733111 84.25711648 -13.3125 62 C-13.06220032 61.2503598 -12.81190063 60.5007196 -12.55401611 59.72836304 C-7.82726875 45.45609751 -4.86963255 31.22437291 -2.875 16.3125 C-2.54156543 13.84992022 -2.20574606 11.38766181 -1.8671875 8.92578125 C-1.72394043 7.85755127 -1.58069336 6.78932129 -1.43310547 5.6887207 C-1 3 -1 3 0 0 Z " fill="#314C90" transform="translate(376,185)"/>
<path d="M0 0 C0.87717682 -0.00067474 1.75435364 -0.00134949 2.65811157 -0.00204468 C40.28019205 0.04367801 82.41952031 5.37672514 111.75 31.25 C112.34554688 31.70375 112.94109375 32.1575 113.5546875 32.625 C128.80306257 44.4301936 137.08059308 64.0576707 140.33203125 82.5625 C145.73487724 130.22873007 121.85612293 174.60891956 96.75 213.25 C93.7780615 212.12548273 91.41559313 211.02706209 88.75 209.25 C90.29660795 206.02467605 92.07575582 203.00158087 93.9453125 199.953125 C104.04815529 183.41075419 104.04815529 183.41075419 112.85839844 166.16455078 C113.80195417 164.13843795 114.77982127 162.13078632 115.7578125 160.12109375 C129.07464722 132.14784237 136.98779127 98.28661254 126.68359375 68.12890625 C118.34676889 46.53020157 102.41662322 32.65456038 81.75 23.25 C72.56376163 19.26814986 63.06755649 16.68252306 53.3125 14.5 C52.43271484 14.30124268 51.55292969 14.10248535 50.64648438 13.89770508 C33.7665209 10.34346728 16.87644197 9.84422987 -0.3125 9.875 C-1.40816284 9.87521149 -2.50382568 9.87542297 -3.63269043 9.87564087 C-22.50608681 9.91182637 -40.62027159 11.25379811 -59.25 14.25 C-61.79017782 14.62885851 -64.33054361 15.00645878 -66.87109375 15.3828125 C-102.34082475 20.80528585 -137.08920415 30.39009089 -171.25 41.25 C-172.39452637 41.6114209 -173.53905273 41.9728418 -174.71826172 42.34521484 C-177.89708075 43.35027219 -181.07381166 44.36166374 -184.25 45.375 C-185.30316406 45.70886719 -186.35632813 46.04273438 -187.44140625 46.38671875 C-193.10962068 48.19572335 -198.70229037 50.1024995 -204.25 52.25 C-205.26255859 52.63414063 -206.27511719 53.01828125 -207.31835938 53.4140625 C-236.02742845 64.3097693 -264.03095309 76.49304425 -291.86425781 89.46875 C-294.11264177 90.51189874 -296.36724365 91.53983491 -298.625 92.5625 C-299.2550293 92.85874268 -299.88505859 93.15498535 -300.53417969 93.46020508 C-303.11441271 94.61450079 -304.82530281 95.30841304 -307.6640625 94.91796875 C-308.44910156 94.58732422 -308.44910156 94.58732422 -309.25 94.25 C-309.25 93.59 -309.25 92.93 -309.25 92.25 C-309.91 92.25 -310.57 92.25 -311.25 92.25 C-310.21492998 89.11174665 -309.26487304 88.25888918 -306.37792969 86.53344727 C-305.14873185 85.94800106 -303.91279519 85.37657736 -302.671875 84.81640625 C-302.00102371 84.50197571 -301.33017242 84.18754517 -300.63899231 83.86358643 C-298.43171072 82.83369749 -296.21631283 81.82278936 -294 80.8125 C-292.46575256 80.10248021 -290.9318201 79.39177942 -289.39819336 78.68041992 C-275.8333028 72.41502442 -262.13294218 66.47076851 -248.38867188 60.61157227 C-245.38530507 59.30869605 -242.41217818 57.95341584 -239.44140625 56.578125 C-234.91157055 54.50289634 -230.34709947 52.76728119 -225.625 51.1875 C-219.12299277 48.96152817 -219.12299277 48.96152817 -212.8125 46.25 C-207.68241947 43.84527475 -202.28174948 42.21718028 -196.90356445 40.46533203 C-192.87138685 39.14567984 -188.9128929 37.77321691 -185 36.125 C-180.03898797 34.05648114 -174.92721712 32.67239214 -169.7421875 31.27734375 C-166.22913663 30.29637064 -166.22913663 30.29637064 -162.828125 28.92578125 C-156.07746724 26.34322275 -149.0710378 24.47879581 -142.125 22.5 C-141.3530127 22.28001343 -140.58102539 22.06002686 -139.78564453 21.83337402 C-94.31523418 8.92828274 -47.39152124 0.03302077 0 0 Z " fill="#BCC1DF" transform="translate(1009.25,24.75)"/>
<path d="M0 0 C2.5625 2.25 2.5625 2.25 5 5 C4.9387207 6.97753906 4.9387207 6.97753906 4 9 C2.03588867 10.57714844 2.03588867 10.57714844 -0.58203125 12.109375 C-1.56179932 12.69058105 -2.54156738 13.27178711 -3.55102539 13.87060547 C-4.62731201 14.49080566 -5.70359863 15.11100586 -6.8125 15.75 C-7.93325928 16.40758301 -9.05401855 17.06516602 -10.20874023 17.74267578 C-13.19942337 19.49526483 -16.19979145 21.23056857 -19.20288086 22.96179199 C-22.06246641 24.61379411 -24.91295997 26.28139635 -27.765625 27.9453125 C-45.26330376 38.09530603 -63.04811483 47.67998154 -81 57 C-81.59643311 57.31024109 -82.19286621 57.62048218 -82.80737305 57.94012451 C-102.49302475 68.16879572 -122.6150968 77.28259864 -142.95648193 86.1126709 C-144.86062437 86.93948081 -146.7636106 87.76895207 -148.66650391 88.59863281 C-212.99045714 116.57041106 -280.87888787 137.83605256 -350 150 C-351.02175323 150.18048889 -351.02175323 150.18048889 -352.06414795 150.36462402 C-421.0271932 162.44648703 -513.13433556 170.34271547 -574 129 C-581.97435987 123.37104009 -589.12861567 116.82851244 -595 109 C-593.84826645 106.53199953 -592.95216435 104.95216435 -591 103 C-590.01 103 -589.02 103 -588 103 C-586.4921875 104.6875 -586.4921875 104.6875 -584.875 107 C-567.3568057 130.38202503 -535.97300269 139.51524736 -508.5625 144.75 C-507.52867187 144.94883789 -506.49484375 145.14767578 -505.4296875 145.35253906 C-486.60179414 148.72789633 -467.86636452 149.30149419 -448.77685547 149.20581055 C-444.97747142 149.18739078 -441.17833066 149.18530285 -437.37890625 149.18554688 C-434.91926876 149.18063504 -432.45963289 149.17480819 -430 149.16796875 C-428.88616943 149.16685593 -427.77233887 149.1657431 -426.62475586 149.16459656 C-413.62871414 149.38796832 -413.62871414 149.38796832 -401 147 C-397.80620626 146.77161293 -394.61890313 146.60939015 -391.41992188 146.48242188 C-386.68990655 146.24344112 -382.22326019 145.51009009 -377.5925293 144.52856445 C-374.11756513 143.82008932 -370.62467841 143.29265884 -367.11914062 142.76000977 C-361.40500682 141.88775733 -355.7024534 140.94519819 -350 140 C-349.02453217 139.83914917 -349.02453217 139.83914917 -348.02935791 139.67504883 C-308.20465237 133.0764723 -269.20714638 122.35865284 -230.92224121 109.63812256 C-229.03033968 109.0100718 -227.13676314 108.38707402 -225.24316406 107.76416016 C-186.84163498 95.07766723 -149.54216437 79.28185892 -113 62 C-112.38344543 61.70869202 -111.76689087 61.41738403 -111.13165283 61.11724854 C-94.68870209 53.3421257 -78.45556671 45.31861925 -62.57861328 36.4296875 C-59.98103127 34.98948297 -57.36751839 33.58378315 -54.74609375 32.1875 C-40.53925988 24.59971497 -26.8109026 16.32766218 -13.09570312 7.89550781 C-8.74838561 5.23363295 -4.37794479 2.61112249 0 0 Z " fill="#8D99CA" transform="translate(909,428)"/>
<path d="M0 0 C8.25 0 16.5 0 25 0 C19.53170012 51.70028979 -16.03560248 95.47264972 -49.8359375 132.6171875 C-51.26926665 134.1954019 -52.6913678 135.78389285 -54.1015625 137.3828125 C-62.47569432 146.8531943 -71.1279292 156.03637257 -81.125 163.8125 C-81.66930664 164.23917969 -82.21361328 164.66585937 -82.77441406 165.10546875 C-86.61840984 168 -86.61840984 168 -90 168 C-91.44213867 166.1640625 -91.44213867 166.1640625 -92.91796875 163.625 C-93.44970703 162.72265625 -93.98144531 161.8203125 -94.52929688 160.890625 C-95.07650391 159.93671875 -95.62371094 158.9828125 -96.1875 158 C-96.74630859 157.04609375 -97.30511719 156.0921875 -97.88085938 155.109375 C-99.2639153 152.74517684 -100.63634282 150.37542321 -102 148 C-99.02569985 144.98417385 -96.00916763 142.08993253 -92.8125 139.3125 C-81.81792922 129.45700637 -71.0281485 119.07327642 -61.92578125 107.42578125 C-59.92509316 104.90564474 -57.8064161 102.55229259 -55.625 100.1875 C-50.06269509 94.06412781 -44.99470296 87.58883366 -40 81 C-39.58105469 80.44860352 -39.16210938 79.89720703 -38.73046875 79.32910156 C-20.69456975 55.38143567 -7.27083537 29.0833415 0 0 Z " fill="#E91D24" transform="translate(289,213)"/>
<path d="M0 0 C23 0 23 0 27.9921875 4.3203125 C29.55859375 7.13671875 29.55859375 7.13671875 30.875 10.125 C31.87065011 12.02435364 32.86807691 13.92277688 33.8671875 15.8203125 C35.41792969 18.87925781 35.41792969 18.87925781 37 22 C39.97 26.62 42.94 31.24 46 36 C46.33 24.12 46.66 12.24 47 0 C52.61 0 58.22 0 64 0 C64 23.1 64 46.2 64 70 C45 70 45 70 40.5390625 65.70703125 C39.01025391 62.88500977 39.01025391 62.88500977 37.625 59.8125 C36.52320488 57.71229581 35.41897638 55.61336667 34.3125 53.515625 C33.77496094 52.43861328 33.23742188 51.36160156 32.68359375 50.25195312 C29.96486799 45.00058609 26.78740979 40.05417821 23.625 35.0625 C20.840625 30.5765625 20.840625 30.5765625 18 26 C17.67 40.52 17.34 55.04 17 70 C11.39 70 5.78 70 0 70 C0 46.9 0 23.8 0 0 Z " fill="#333333" transform="translate(1133,267)"/>
<path d="M0 0 C6.744375 -0.0825 13.48875 -0.165 20.4375 -0.25 C22.54825928 -0.28641602 24.65901855 -0.32283203 26.83374023 -0.36035156 C28.53368111 -0.37204967 30.23363331 -0.38223883 31.93359375 -0.390625 C33.2248114 -0.4213208 33.2248114 -0.4213208 34.54211426 -0.45263672 C40.72904746 -0.45614853 45.66302416 0.79144505 51 4 C55.58282331 8.81196448 56.29862 12.00085752 56.21484375 18.4609375 C55.79626494 23.40777798 53.96687346 26.14555369 50.3125 29.375 C49.549375 29.91125 48.78625 30.4475 48 31 C48.53109375 31.30292969 49.0621875 31.60585938 49.609375 31.91796875 C54.43495785 34.77985639 58.51766411 37.41768826 60.75 42.8125 C61.58729183 50.13880348 61.14998766 55.72864993 57 62 C50.81556852 68.17127312 44.33386635 70.22870284 35.72827148 70.22631836 C34.83052002 70.21608643 33.93276855 70.20585449 33.0078125 70.1953125 C32.16855225 70.19329834 31.32929199 70.19128418 30.46459961 70.18920898 C27.35134356 70.1788024 24.23816587 70.15088007 21.125 70.125 C14.15375 70.08375 7.1825 70.0425 0 70 C0 46.9 0 23.8 0 0 Z M19 13 C19 17.62 19 22.24 19 27 C27.63132433 27.77662842 27.63132433 27.77662842 35.375 24.875 C37.26140542 22.08792369 37.26140542 22.08792369 37 18.8125 C36.21262767 15.70976172 36.21262767 15.70976172 33 14 C28.34092271 13.42507312 23.69100034 13.2582202 19 13 Z M19 40 C19 45.61 19 51.22 19 57 C29.47489791 57.55510967 29.47489791 57.55510967 39 54 C41.32749345 50.50875983 41.50299316 49.10777749 41 45 C38.6171028 41.85117156 36.82555791 40.65913329 33 40 C28.32977236 39.86792343 23.67317059 39.9567299 19 40 Z " fill="#333333" transform="translate(514,267)"/>
<path d="M0 0 C1.2386755 1.0485054 2.44882121 2.131839 3.625 3.25 C4.45644531 4.03890625 4.45644531 4.03890625 5.3046875 4.84375 C12.59192101 12.52978733 14.97438639 22.63047356 14.7734375 33.01953125 C14.21017994 41.4832172 12.30185681 48.15556797 7.625 55.25 C7.068125 56.136875 6.51125 57.02375 5.9375 57.9375 C-2.08349493 65.95849493 -11.15363597 68.23663313 -22.125 68.625 C-33.36225828 68.39492682 -42.16835819 65.73885088 -50.27734375 57.76171875 C-59.30754566 46.94901889 -59.31313494 34.6736073 -58.375 21.25 C-56.87543187 12.40457448 -51.99326028 6.13411552 -45.375 0.25 C-33.06543701 -8.41837546 -12.24815486 -8.7087641 0 0 Z M-32.078125 11.76953125 C-38.36585746 18.77455358 -39.43971335 25.98520511 -39.375 35.25 C-38.40107203 42.15343059 -35.75565621 47.72446031 -30.375 52.25 C-25.67181952 54.7038333 -21.39782925 54.6061639 -16.375 53.25 C-10.73852883 50.54015809 -8.52627008 46.89846297 -6.375 41.25 C-3.94408426 33.2972028 -4.60026554 23.66106199 -8.375 16.25 C-11.68572985 12.15632729 -14.88115795 9.69553184 -19.9375 8.1875 C-24.63081988 8.27283309 -28.44200149 8.52537518 -32.078125 11.76953125 Z " fill="#333333" transform="translate(1104.375,270.75)"/>
<path d="M0 0 C2.05078125 0.03255208 4.1015625 0.06510417 6.15234375 0.09765625 C6.72543508 42.22427752 6.72543508 42.22427752 4.83984375 62.97265625 C4.75142715 63.98582916 4.75142715 63.98582916 4.66122437 65.01947021 C3.46685056 78.35265284 0.91806672 91.07399436 -3.66015625 103.66015625 C-4.04051025 104.70953369 -4.42086426 105.75891113 -4.81274414 106.84008789 C-9.87635764 120.36587969 -16.27656188 133.25344077 -22.84765625 146.09765625 C-23.29753906 146.98066406 -23.74742187 147.86367188 -24.2109375 148.7734375 C-35.22587005 170.13890984 -49.5458916 190.21080994 -65.8203125 207.88671875 C-67.60908965 209.83748536 -69.32608744 211.8274602 -71.03515625 213.84765625 C-74.45974422 217.77633077 -78.10946615 221.46844479 -81.78515625 225.16015625 C-82.64500122 226.02688965 -82.64500122 226.02688965 -83.5222168 226.91113281 C-107.02886468 250.33474181 -135.39431869 267.84952566 -164.84765625 282.72265625 C-165.71527588 283.16125977 -166.58289551 283.59986328 -167.47680664 284.05175781 C-168.6813147 284.65068848 -168.6813147 284.65068848 -169.91015625 285.26171875 C-170.62300781 285.6170166 -171.33585938 285.97231445 -172.0703125 286.33837891 C-173.84765625 287.09765625 -173.84765625 287.09765625 -175.84765625 287.09765625 C-176.50765625 284.78765625 -177.16765625 282.47765625 -177.84765625 280.09765625 C-175.09677455 277.90864341 -172.44011877 276.32401382 -169.234375 274.890625 C-149.81002912 266.01353675 -131.35145794 255.73831604 -114.84765625 242.09765625 C-113.46126953 240.99550781 -113.46126953 240.99550781 -112.046875 239.87109375 C-95.28167184 226.44944596 -78.89474088 211.18910862 -65.84765625 194.09765625 C-64.82374146 192.78971848 -63.79893004 191.48248235 -62.7734375 190.17578125 C-40.45484517 161.57312255 -22.54017577 129.50540672 -10.84765625 95.09765625 C-10.21730469 93.24527344 -10.21730469 93.24527344 -9.57421875 91.35546875 C-2.59784053 67.38400375 -3.45992578 40.65101495 -3.13793945 15.91943359 C-3.11732704 14.45525749 -3.11732704 14.45525749 -3.09629822 12.96150208 C-3.0716199 11.11006932 -3.05162962 9.25856668 -3.03688049 7.4070282 C-2.94478597 0.15564408 -2.94478597 0.15564408 0 0 Z " fill="#B0B7DA" transform="translate(952.84765625,430.90234375)"/>
<path d="M0 0 C1 1 1 1 1.09765625 4.81640625 C1.09098089 6.39846682 1.07901875 7.98051159 1.0625 9.5625 C1.05798828 10.36880859 1.05347656 11.17511719 1.04882812 12.00585938 C1.03700518 14.00393756 1.01906914 16.00197783 1 18 C-2.29988585 17.44716938 -4.89497117 16.69017398 -7.8125 15.0625 C-14.626158 11.54701041 -22.41811533 9.42672749 -30.0234375 11.5703125 C-32.18118602 12.35806464 -32.18118602 12.35806464 -35 14 C-35.33 14.99 -35.66 15.98 -36 17 C-32.38246366 21.7795941 -27.92907092 22.26610889 -22.375 23.4375 C-12.20402299 25.7932007 -3.10994763 27.9336261 3 37 C4.96006086 42.88018258 4.82815527 49.60270843 2.8125 55.4375 C-2.7631941 63.32037786 -9.67153216 67.70847595 -19.0625 69.625 C-32.34900493 70.89038142 -44.94219851 70.02890075 -57 64 C-57 58.39 -57 52.78 -57 47 C-51.4719764 47 -51.4719764 47 -48.375 49.3125 C-41.30188556 54.00126889 -32.45562535 56.19205245 -24 55 C-21.33359198 54.26322936 -19.45008746 53.37817419 -17 52 C-15.68130302 49.13751716 -15.68130302 49.13751716 -16.84765625 46.9609375 C-20.20409659 43.90298278 -24.07250271 43.52585944 -28.4375 42.625 C-48.61541466 38.00240344 -48.61541466 38.00240344 -53.6875 30.8125 C-56.63095947 24.50508685 -57.47851125 17.34898674 -55.19921875 10.64453125 C-51.57408309 4.20399813 -45.59227708 0.53954732 -38.9375 -2.3125 C-26.1837555 -5.29741893 -12.40841009 -4.12865725 0 0 Z " fill="#333333" transform="translate(979,269)"/>
<path d="M0 0 C6.27 0 12.54 0 19 0 C19.01981934 1.35681885 19.03963867 2.7136377 19.06005859 4.11157227 C19.13635341 9.16416414 19.22503383 14.21647699 19.31738281 19.26879883 C19.35557405 21.45201086 19.39044384 23.6352837 19.421875 25.81860352 C19.46773979 28.96392491 19.52569896 32.10883124 19.5859375 35.25390625 C19.59748871 36.2239711 19.60903992 37.19403595 19.62094116 38.1934967 C19.67844006 47.1639382 19.67844006 47.1639382 23.6875 54.875 C28.14132502 57.04172568 31.90728091 57.18211985 36.75 56.375 C40.74887123 54.68316987 41.31328 53.97059404 43 50 C43.47007898 46.19427609 43.48879325 42.4055233 43.51171875 38.57421875 C43.52966995 37.47149124 43.54762115 36.36876373 43.56611633 35.23262024 C43.62021004 31.71761881 43.6541129 28.20275313 43.6875 24.6875 C43.7206738 22.30141341 43.75516352 19.91534473 43.79101562 17.52929688 C43.87593641 11.68629585 43.94275271 5.84333504 44 0 C50.27 0 56.54 0 63 0 C63.09924142 7.38318 63.17164627 14.76596744 63.21972656 22.1496582 C63.23978062 24.65884164 63.26703085 27.16797869 63.30175781 29.67700195 C63.35054754 33.29389933 63.37303182 36.9101761 63.390625 40.52734375 C63.41127014 41.64020248 63.43191528 42.75306122 63.45318604 43.89964294 C63.45533284 51.4346842 62.56029963 58.08614976 57.32159424 63.84507751 C48.89493788 71.73454358 38.84407171 72.33264335 27.82421875 72.203125 C18.61776013 71.71412005 12.47115455 69.54687568 5.8125 63.0546875 C1.02570626 57.62827907 -0.13136451 51.88898245 -0.11352539 44.8425293 C-0.11344986 43.84186935 -0.11337433 42.84120941 -0.11329651 41.81022644 C-0.10813522 40.7423439 -0.10297394 39.67446136 -0.09765625 38.57421875 C-0.0962413 37.47149124 -0.09482635 36.36876373 -0.09336853 35.23262024 C-0.08778004 31.71755233 -0.07522959 28.20254859 -0.0625 24.6875 C-0.05748352 22.30143321 -0.05292087 19.91536543 -0.04882812 17.52929688 C-0.03781437 11.68617327 -0.02055758 5.84309751 0 0 Z " fill="#333333" transform="translate(650,267)"/>
<path d="M0 0 C16.83 0 33.66 0 51 0 C51 4.62 51 9.24 51 14 C40.44 14 29.88 14 19 14 C19 17.63 19 21.26 19 25 C28.9 25 38.8 25 49 25 C49 29.95 49 34.9 49 40 C39.1 40 29.2 40 19 40 C19 45.28 19 50.56 19 56 C29.56 56 40.12 56 51 56 C51 60.62 51 65.24 51 70 C34.17 70 17.34 70 0 70 C0 46.9 0 23.8 0 0 Z " fill="#333333" transform="translate(731,267)"/>
<path d="M0 0 C6.6 0 13.2 0 20 0 C30.76595745 30.10638298 30.76595745 30.10638298 36 45 C41.36106387 30.00970183 46.71600066 15.01768234 52 0 C58.6 0 65.2 0 72 0 C69.69629287 7.98919242 66.99192901 15.78196158 64.1484375 23.59375 C63.68409019 24.87496624 63.21995217 26.15625836 62.75601196 27.43762207 C61.79118209 30.10063394 60.8245478 32.76298083 59.85644531 35.42480469 C58.61516185 38.83789846 57.37742259 42.25226413 56.14087486 45.66707611 C55.18622681 48.3027777 54.23028269 50.9380076 53.27388382 53.57307434 C52.5948525 55.44418422 51.91648614 57.31553537 51.23812866 59.18688965 C50.82745148 60.31566528 50.41677429 61.44444092 49.99365234 62.60742188 C49.63185883 63.60318237 49.27006531 64.59894287 48.89730835 65.62487793 C48 68 48 68 47 70 C39.74 70 32.48 70 25 70 C19.69052455 56.54457765 14.67351633 43.00205953 9.78149414 29.38964844 C8.54394009 25.9483906 7.30044713 22.50931472 6.05664062 19.0703125 C5.26787468 16.88033598 4.47944995 14.69023652 3.69140625 12.5 C3.3196376 11.47310059 2.94786896 10.44620117 2.56483459 9.38818359 C2.2270549 8.44539551 1.88927521 7.50260742 1.54125977 6.53125 C1.24260513 5.70173828 0.9439505 4.87222656 0.63624573 4.01757812 C0 2 0 2 0 0 Z " fill="#333333" transform="translate(790,267)"/>
<path d="M0 0 C13.86 0 27.72 0 42 0 C42 4.29 42 8.58 42 13 C38.04 13 34.08 13 30 13 C30 27.52 30 42.04 30 57 C33.96 57 37.92 57 42 57 C42 61.29 42 65.58 42 70 C28.14 70 14.28 70 0 70 C0 65.71 0 61.42 0 57 C3.63 57 7.26 57 11 57 C11 42.48 11 27.96 11 13 C7.37 13 3.74 13 0 13 C0 8.71 0 4.42 0 0 Z " fill="#333333" transform="translate(993,267)"/>
<path d="M0 0 C13.86 0 27.72 0 42 0 C42 4.29 42 8.58 42 13 C38.37 13 34.74 13 31 13 C31 27.52 31 42.04 31 57 C34.63 57 38.26 57 42 57 C42 61.29 42 65.58 42 70 C28.14 70 14.28 70 0 70 C0 65.71 0 61.42 0 57 C3.96 57 7.92 57 12 57 C12 42.48 12 27.96 12 13 C8.04 13 4.08 13 0 13 C0 8.71 0 4.42 0 0 Z " fill="#333333" transform="translate(869,267)"/>
<path d="M0 0 C6.27 0 12.54 0 19 0 C19 18.48 19 36.96 19 56 C29.56 56 40.12 56 51 56 C51 60.62 51 65.24 51 70 C34.17 70 17.34 70 0 70 C0 46.9 0 23.8 0 0 Z " fill="#333333" transform="translate(589,267)"/>
<path d="M0 0 C0.49991455 0.3206543 0.9998291 0.64130859 1.51489258 0.97167969 C1.51489258 1.63167969 1.51489258 2.29167969 1.51489258 2.97167969 C0.93860107 3.2671167 0.36230957 3.56255371 -0.23144531 3.86694336 C-14.16751753 11.02939475 -27.88293395 18.50131327 -41.48901367 26.27001953 C-45.68949727 28.65572444 -49.90921719 31.0063905 -54.12890625 33.35791016 C-64.12373793 38.92964179 -74.07325416 44.55800241 -83.89526367 50.42919922 C-86.44671135 51.94881144 -89.00444632 53.45751512 -91.56311035 54.9649353 C-117.59214936 70.31485749 -143.01650371 86.70941901 -166.23901367 106.12792969 C-169.21821997 108.57346947 -172.3120034 110.78576358 -175.48510742 112.97167969 C-177.19394747 111.34828164 -178.85957459 109.67848916 -180.48510742 107.97167969 C-180.48510742 107.31167969 -180.48510742 106.65167969 -180.48510742 105.97167969 C-178.78979492 104.41308594 -178.78979492 104.41308594 -176.36010742 102.53417969 C-175.44229492 101.81875 -174.52448242 101.10332031 -173.57885742 100.36621094 C-172.55791992 99.57601562 -171.53698242 98.78582031 -170.48510742 97.97167969 C-169.41101941 97.12289945 -168.33813134 96.27259887 -167.26635742 95.42089844 C-153.73221823 84.67939317 -140.00943481 74.34163776 -125.48510742 64.97167969 C-124.8127002 64.53452637 -124.14029297 64.09737305 -123.44750977 63.64697266 C-109.01486356 54.284985 -94.15889539 45.64670792 -79.28314209 37.01586914 C-76.47469914 35.38489586 -73.66976499 33.74790284 -70.86401367 32.11230469 C-55.9097698 23.41699676 -40.84106069 14.94269374 -25.63500977 6.69677734 C-22.86302659 5.17865356 -20.11856768 3.62252052 -17.37963867 2.04589844 C-15.97804597 1.26980095 -14.57578052 0.49491617 -13.17260742 -0.27832031 C-12.04209961 -0.92285156 -10.9115918 -1.56738281 -9.74682617 -2.23144531 C-5.49524038 -3.27015609 -3.67577751 -2.13418238 0 0 Z " fill="#4762AC" transform="translate(692.485107421875,123.0283203125)"/>
<path d="M0 0 C3.43321401 1.48742049 6.63853313 3.31529402 9.875 5.1875 C10.85025635 5.7455835 11.8255127 6.30366699 12.83032227 6.87866211 C33.3264273 18.84249484 53.38965373 32.27082698 72 47 C72.89203125 47.69480469 73.7840625 48.38960937 74.703125 49.10546875 C92.63320838 63.22963821 108.96837945 78.78052019 125 95 C123.60667426 98.36720387 122.0210714 99.9859524 119 102 C118.26998779 101.25951416 117.53997559 100.51902832 116.7878418 99.75610352 C114.02919396 96.96074053 111.26350907 94.17242486 108.49584961 91.38598633 C107.30810304 90.18829777 106.12217052 88.98880696 104.93823242 87.78735352 C97.61419419 80.35784417 90.194816 73.47165075 82 67 C80.87500531 66.05324926 79.75538515 65.10002224 78.64453125 64.13671875 C55.14582604 43.81439025 28.76189078 26.82830332 1.75683594 11.56787109 C-3.18758146 8.755876 -8.09203363 5.87500185 -13 3 C-8.34654461 -0.56764913 -5.78310933 -1.5800329 0 0 Z " fill="#E1E2F0" transform="translate(709,122)"/>
<path d="M0 0 C4.7953125 -0.1546875 4.7953125 -0.1546875 9.6875 -0.3125 C11.18543091 -0.38078003 11.18543091 -0.38078003 12.71362305 -0.45043945 C17.2726892 -0.52163897 19.35700318 -0.47942745 23.1171875 2.32421875 C25.3863925 5.54912628 25.58808032 7.13547218 25 11 C24.01 12.485 24.01 12.485 23 14 C23.66 14.66 24.32 15.32 25 16 C26.47727273 22.93181818 26.47727273 22.93181818 24.6875 26.9375 C23 29 23 29 21 30 C19.40552536 30.08400529 17.80759455 30.10727467 16.2109375 30.09765625 C15.36321777 30.09515869 14.51549805 30.09266113 13.64208984 30.09008789 C12.5639502 30.08098389 11.48581055 30.07187988 10.375 30.0625 C6.95125 30.041875 3.5275 30.02125 0 30 C0 20.1 0 10.2 0 0 Z M6 5 C6 7.31 6 9.62 6 12 C7.79133978 12.05391993 9.58313899 12.09275571 11.375 12.125 C12.37273438 12.14820313 13.37046875 12.17140625 14.3984375 12.1953125 C17.16262173 12.27216848 17.16262173 12.27216848 19 10 C18.83333333 7.91666667 18.83333333 7.91666667 18 6 C15.47524538 4.73762269 13.68799534 4.90143596 10.875 4.9375 C9.96492187 4.94652344 9.05484375 4.95554687 8.1171875 4.96484375 C7.06917969 4.98224609 7.06917969 4.98224609 6 5 Z M6 18 C6 20.31 6 22.62 6 25 C9.96 25 13.92 25 18 25 C18.66 23.35 19.32 21.7 20 20 C18.1371051 17.69939466 18.1371051 17.69939466 15.1796875 17.8046875 C14.08914063 17.82789063 12.99859375 17.85109375 11.875 17.875 C10.23144531 17.90207031 10.23144531 17.90207031 8.5546875 17.9296875 C7.71164062 17.95289063 6.86859375 17.97609375 6 18 Z " fill="#808282" transform="translate(860,366)"/>
<path d="M0 0 C3.196875 -0.0825 6.39375 -0.165 9.6875 -0.25 C10.68612061 -0.28641602 11.68474121 -0.32283203 12.71362305 -0.36035156 C16.92816138 -0.41300675 19.37833545 -0.36480442 23.08203125 1.80859375 C25.77921716 4.89030718 26 6.93123654 26 11 C24.9090152 15.09945805 23.61994771 17.58670153 20 20 C20.3609375 20.55429687 20.721875 21.10859375 21.09375 21.6796875 C21.5578125 22.40414063 22.021875 23.12859375 22.5 23.875 C23.19609375 24.95394531 23.19609375 24.95394531 23.90625 26.0546875 C25 28 25 28 25 30 C22.69 30 20.38 30 18 30 C17.72027344 29.36191406 17.44054688 28.72382813 17.15234375 28.06640625 C15.91706518 25.52038192 14.71732191 23.2529223 13 21 C9.33515719 19.7819227 9.33515719 19.7819227 6 20 C6 23.3 6 26.6 6 30 C4.02 30 2.04 30 0 30 C0 20.1 0 10.2 0 0 Z M6 5 C6 7.97 6 10.94 6 14 C9.96 14 13.92 14 18 14 C18.66 12.35 19.32 10.7 20 9 C19.12140418 6.5783052 19.12140418 6.5783052 17 5 C14.2613775 4.51659568 14.2613775 4.51659568 11.3125 4.75 C10.31863281 4.78609375 9.32476563 4.8221875 8.30078125 4.859375 C7.54152344 4.90578125 6.78226563 4.9521875 6 5 Z " fill="#808282" transform="translate(1095,366)"/>
<path d="M0 0 C3.196875 -0.0825 6.39375 -0.165 9.6875 -0.25 C10.68612061 -0.28641602 11.68474121 -0.32283203 12.71362305 -0.36035156 C16.84870256 -0.41201402 19.40884698 -0.31899955 23.10546875 1.67578125 C26.00658625 5.23488417 25.68559552 7.92665163 25.5078125 12.359375 C24.74289781 16.33693139 23.22354391 17.66293066 20 20 C21.65 23.3 23.3 26.6 25 30 C22.69 30 20.38 30 18 30 C17.72027344 29.36191406 17.44054687 28.72382813 17.15234375 28.06640625 C15.91706518 25.52038192 14.71732191 23.2529223 13 21 C9.33515719 19.7819227 9.33515719 19.7819227 6 20 C6 23.3 6 26.6 6 30 C4.02 30 2.04 30 0 30 C0 20.1 0 10.2 0 0 Z M6 5 C6 7.97 6 10.94 6 14 C7.79158489 14.02696365 9.58328473 14.04637917 11.375 14.0625 C12.87160156 14.07990234 12.87160156 14.07990234 14.3984375 14.09765625 C16.98432453 14.18006602 16.98432453 14.18006602 19 13 C20.0146239 11.1935345 20.0146239 11.1935345 20 9 C18.78198446 6.52520122 18.78198446 6.52520122 16 5 C12.64031743 4.66350597 9.36456408 4.76884674 6 5 Z " fill="#808282" transform="translate(549,366)"/>
<path d="M0 0 C4.7953125 -0.1546875 4.7953125 -0.1546875 9.6875 -0.3125 C11.18543091 -0.38078003 11.18543091 -0.38078003 12.71362305 -0.45043945 C17.2129226 -0.52070559 19.36077061 -0.46153166 23.10546875 2.2421875 C25.52903068 5.77009415 25.71601459 7.62327586 25.5078125 11.7734375 C24.65965939 15.49226268 22.69831685 17.36914107 20 20 C21.65 23.3 23.3 26.6 25 30 C22.69 30 20.38 30 18 30 C17.72027344 29.36191406 17.44054687 28.72382813 17.15234375 28.06640625 C15.91706518 25.52038192 14.71732191 23.2529223 13 21 C9.33515719 19.7819227 9.33515719 19.7819227 6 20 C6 23.3 6 26.6 6 30 C4.02 30 2.04 30 0 30 C0 20.1 0 10.2 0 0 Z M6 5 C6 7.97 6 10.94 6 14 C7.79158489 14.02696365 9.58328473 14.04637917 11.375 14.0625 C12.87160156 14.07990234 12.87160156 14.07990234 14.3984375 14.09765625 C16.98432453 14.18006602 16.98432453 14.18006602 19 13 C19.2502157 10.08365871 19.2502157 10.08365871 19 7 C15.68629 4.79086 14.6553979 4.77518447 10.8125 4.875 C9.46091797 4.90207031 9.46091797 4.90207031 8.08203125 4.9296875 C7.05142578 4.96449219 7.05142578 4.96449219 6 5 Z " fill="#808282" transform="translate(922,366)"/>
<path d="M0 0 C0.33 0.99 0.66 1.98 1 3 C0.01 4.485 0.01 4.485 -1 6 C-1.639375 5.835 -2.27875 5.67 -2.9375 5.5 C-6.97586652 4.84067485 -10.91807258 4.91996221 -15 5 C-15 6.32 -15 7.64 -15 9 C-13.94039062 9.26554687 -12.88078125 9.53109375 -11.7890625 9.8046875 C-10.40094837 10.16109518 -9.01293257 10.51788596 -7.625 10.875 C-6.92632813 11.04902344 -6.22765625 11.22304688 -5.5078125 11.40234375 C-0.2265625 12.7734375 -0.2265625 12.7734375 2 15 C2.99308205 18.97232821 3.19565804 21.39000729 1.9375 25.3125 C-0.53208387 28.73805182 -1.86788111 29.2347928 -6 30 C-12.57712837 30.68124682 -17.89552955 29.42447053 -24 27 C-23.42655063 24.13275314 -23.1385485 23.1385485 -21 21 C-20.43152344 21.22816406 -19.86304688 21.45632813 -19.27734375 21.69140625 C-13.97846026 23.66411246 -10.5194609 24.29178872 -5 23 C-4.67 21.35 -4.34 19.7 -4 18 C-5.04800781 17.81824219 -6.09601562 17.63648438 -7.17578125 17.44921875 C-8.55480095 17.19592942 -9.93370119 16.94198904 -11.3125 16.6875 C-12.00279297 16.56955078 -12.69308594 16.45160156 -13.40429688 16.33007812 C-16.26591489 15.7909327 -18.56374375 15.32233508 -20.9296875 13.57421875 C-23.14021402 10.32296988 -23.20086656 7.07965775 -22.5 3.3125 C-17.59485679 -4.24959579 -7.29535104 -2.7722334 0 0 Z " fill="#808282" transform="translate(989,367)"/>
<path d="M0 0 C1.98 0 3.96 0 6 0 C6.01981934 0.65597168 6.03963867 1.31194336 6.06005859 1.98779297 C6.15512507 4.95061069 6.26487752 7.91270532 6.375 10.875 C6.4059375 11.90753906 6.436875 12.94007813 6.46875 14.00390625 C6.50742188 14.99003906 6.54609375 15.97617187 6.5859375 16.9921875 C6.6173584 17.90339355 6.6487793 18.81459961 6.68115234 19.75341797 C6.79882511 22.19931186 6.79882511 22.19931186 9 24 C12.63 24 16.26 24 20 24 C20.33 16.08 20.66 8.16 21 0 C22.98 0 24.96 0 27 0 C27.08732726 3.89569135 27.14050185 7.79112982 27.1875 11.6875 C27.21263672 12.79029297 27.23777344 13.89308594 27.26367188 15.02929688 C27.27333984 16.09599609 27.28300781 17.16269531 27.29296875 18.26171875 C27.3086792 19.24100342 27.32438965 20.22028809 27.34057617 21.22924805 C26.93790374 24.50518315 25.94027574 26.35226541 24 29 C18.95353586 31.77933382 13.60674077 31.53436679 8 31 C2.7518657 29.15854937 2.7518657 29.15854937 0.85986328 26.24316406 C-0.19749272 23.48479185 -0.22671453 21.31116616 -0.1953125 18.359375 C-0.18886719 17.28945313 -0.18242188 16.21953125 -0.17578125 15.1171875 C-0.15902344 14.00601562 -0.14226562 12.89484375 -0.125 11.75 C-0.11597656 10.62335938 -0.10695313 9.49671875 -0.09765625 8.3359375 C-0.07410658 5.55707635 -0.0412168 2.7786461 0 0 Z " fill="#808282" transform="translate(1060,366)"/>
<path d="M0 0 C7.26 0 14.52 0 22 0 C22 1.65 22 3.3 22 5 C16.72 5 11.44 5 6 5 C6 7.31 6 9.62 6 12 C11.28 12 16.56 12 22 12 C22 13.65 22 15.3 22 17 C16.72 17 11.44 17 6 17 C6 19.64 6 22.28 6 25 C11.28 25 16.56 25 22 25 C22 26.65 22 28.3 22 30 C14.74 30 7.48 30 0 30 C0 20.1 0 10.2 0 0 Z " fill="#808282" transform="translate(892,366)"/>
<path d="M0 0 C2.31 0 4.62 0 7 0 C8.57328857 3.78753248 10.13966727 7.57784014 11.69970703 11.37084961 C12.23134392 12.66069346 12.76486022 13.94976435 13.30029297 15.23803711 C14.06972387 17.09023857 14.83183735 18.94547446 15.59375 20.80078125 C16.05458984 21.91622314 16.51542969 23.03166504 16.99023438 24.1809082 C18 27 18 27 18 30 C16.02 30 14.04 30 12 30 C11.505 27.525 11.505 27.525 11 25 C6.05 25 1.1 25 -4 25 C-4.33 26.65 -4.66 28.3 -5 30 C-6.98 30 -8.96 30 -11 30 C-10.34695118 26.10982879 -9.19461184 22.69556088 -7.71484375 19.04296875 C-7.26689453 17.93115234 -6.81894531 16.81933594 -6.35742188 15.67382812 C-5.88884766 14.52333984 -5.42027344 13.37285156 -4.9375 12.1875 C-4.46505859 11.01767578 -3.99261719 9.84785156 -3.50585938 8.64257812 C-2.34111284 5.76012457 -1.17236766 2.87936035 0 0 Z M3 8 C1.68 11.63 0.36 15.26 -1 19 C1.97 19 4.94 19 8 19 C6.68 15.37 5.36 11.74 4 8 C3.67 8 3.34 8 3 8 Z " fill="#808282" transform="translate(590,366)"/>
<path d="M0 0 C7.26 0 14.52 0 22 0 C22 1.65 22 3.3 22 5 C16.72 5 11.44 5 6 5 C6 7.31 6 9.62 6 12 C10.95 12 15.9 12 21 12 C21 13.65 21 15.3 21 17 C16.05 17 11.1 17 6 17 C6 19.64 6 22.28 6 25 C11.28 25 16.56 25 22 25 C22 26.65 22 28.3 22 30 C14.74 30 7.48 30 0 30 C0 20.1 0 10.2 0 0 Z " fill="#808282" transform="translate(999,366)"/>
<path d="M0 0 C2.31 0 4.62 0 7 0 C8.57328857 3.78753248 10.13966727 7.57784014 11.69970703 11.37084961 C12.23134392 12.66069346 12.76486022 13.94976435 13.30029297 15.23803711 C14.06972387 17.09023857 14.83183735 18.94547446 15.59375 20.80078125 C16.05458984 21.91622314 16.51542969 23.03166504 16.99023438 24.1809082 C18 27 18 27 18 30 C16.02 30 14.04 30 12 30 C11.81695313 29.35546875 11.63390625 28.7109375 11.4453125 28.046875 C10.09188105 25.62555056 10.09188105 25.62555056 6.7421875 25.390625 C4.82792969 25.32101562 4.82792969 25.32101562 2.875 25.25 C1.59367188 25.19328125 0.31234375 25.1365625 -1.0078125 25.078125 C-1.99523437 25.05234375 -2.98265625 25.0265625 -4 25 C-4.33 26.65 -4.66 28.3 -5 30 C-6.98 30 -8.96 30 -11 30 C-10.34695118 26.10982879 -9.19461184 22.69556088 -7.71484375 19.04296875 C-7.26689453 17.93115234 -6.81894531 16.81933594 -6.35742188 15.67382812 C-5.88884766 14.52333984 -5.42027344 13.37285156 -4.9375 12.1875 C-4.46505859 11.01767578 -3.99261719 9.84785156 -3.50585938 8.64257812 C-2.34111284 5.76012457 -1.17236766 2.87936035 0 0 Z M3 8 C2.32880451 9.4562545 1.66318193 10.91507867 1 12.375 C0.62875 13.18710937 0.2575 13.99921875 -0.125 14.8359375 C-1.12495013 16.91998433 -1.12495013 16.91998433 -1 19 C1.97 19 4.94 19 8 19 C6.68 15.37 5.36 11.74 4 8 C3.67 8 3.34 8 3 8 Z " fill="#808282" transform="translate(732,366)"/>
<path d="M0 0 C4.7953125 -0.1546875 4.7953125 -0.1546875 9.6875 -0.3125 C11.18543091 -0.38078003 11.18543091 -0.38078003 12.71362305 -0.45043945 C17.18892785 -0.52033086 19.3641503 -0.45189318 23.10546875 2.20703125 C25.09393955 5.1384882 25.67961036 6.50493725 25.625 10 C25.63789062 10.825 25.65078125 11.65 25.6640625 12.5 C24.67402837 16.22718733 23.06658518 17.70513824 20 20 C17.1612599 20.36771245 14.98179849 20.48630804 12.1875 20.3125 C11.49462891 20.28994141 10.80175781 20.26738281 10.08789062 20.24414062 C8.39098427 20.18562661 6.69520139 20.0959548 5 20 C5 23.3 5 26.6 5 30 C3.35 30 1.7 30 0 30 C0 20.1 0 10.2 0 0 Z M5 5 C5 8.3 5 11.6 5 15 C6.77049689 15.05410687 8.54146849 15.09284119 10.3125 15.125 C11.79169922 15.15980469 11.79169922 15.15980469 13.30078125 15.1953125 C16.22406527 15.20682639 16.22406527 15.20682639 19 13 C19.5 10 19.5 10 19 7 C15.57905758 4.71937172 14.31812778 4.78074993 10.3125 4.875 C9.31863281 4.89304687 8.32476563 4.91109375 7.30078125 4.9296875 C6.54152344 4.95289063 5.78226563 4.97609375 5 5 Z " fill="#808282" transform="translate(517,366)"/>
<path d="M0 0 C0 1.32 0 2.64 0 4 C-1.98 4.99 -1.98 4.99 -4 6 C-4.99 5.34 -5.98 4.68 -7 4 C-12.61611776 3.66086877 -12.61611776 3.66086877 -18 5 C-19.44853323 9.34559969 -19.50534581 13.45931927 -19 18 C-17.76922685 20.81426975 -17.76922685 20.81426975 -15 22 C-10.12061219 22.68042839 -6.32361853 22.45660144 -2 20 C-1.01 20.99 -0.02 21.98 1 23 C0.05796011 25.5691997 -0.65465675 26.78416047 -3 28.25 C-8.60016841 29.6500421 -13.8848545 29.7050485 -19.375 27.875 C-22.81493192 25.41790577 -24.24866493 23.90682438 -26 20 C-26.74760149 13.39758683 -27.20207675 6.50616954 -23 1 C-15.57430035 -4.5216741 -8.00561005 -3.92111513 0 0 Z " fill="#808282" transform="translate(716,368)"/>
<path d="M0 0 C0 1.32 0 2.64 0 4 C-1.98 4.99 -1.98 4.99 -4 6 C-4.99 5.34 -5.98 4.68 -7 4 C-10.84889483 3.79006028 -14.31233808 3.81994818 -18 5 C-19.45921112 10.2199422 -20.28922173 15.70182213 -17.5625 20.5625 C-13.80084698 22.67269559 -10.22262497 22.6393411 -6 22 C-3.7804647 21.04756527 -3.7804647 21.04756527 -2 20 C-1.01 20.99 -0.02 21.98 1 23 C0.05796011 25.5691997 -0.65465675 26.78416047 -3 28.25 C-8.65073813 29.66268453 -13.94365589 29.74776149 -19.4375 27.75 C-23.08737947 25.25739939 -24.60991427 23.1702572 -26 19 C-26.48234737 13.59138357 -26.92827807 7.93312053 -24.5 2.9375 C-17.87423547 -4.84777333 -8.57659625 -4.20078184 0 0 Z " fill="#808282" transform="translate(820,368)"/>
<path d="M0 0 C-0.66 1.32 -1.32 2.64 -2 4 C-5.72777104 4 -9.11383029 3.58862204 -12.78125 3.0234375 C-15.4682059 2.99505416 -16.796811 3.47251907 -19 5 C-20.75432673 9.50022943 -21.59732961 12.39888308 -19.75 16.9375 C-18.3409095 20.06067033 -18.3409095 20.06067033 -16 21 C-11.05730019 21.2430836 -7.50990242 21.25495121 -3 19 C-2.01 19.99 -1.02 20.98 0 22 C-0.94203989 24.5691997 -1.65465675 25.78416047 -4 27.25 C-9.66258992 28.66564748 -14.95988678 28.77895232 -20.4375 26.6875 C-24.00239205 24.33988816 -25.63835046 23.08494861 -27 19 C-27.46496976 12.86392368 -27.8413011 7.06819855 -25.5 1.3125 C-17.64533618 -5.95306403 -8.77114476 -5.1032115 0 0 Z " fill="#808282" transform="translate(639,369)"/>
<path d="M0 0 C0 1.32 0 2.64 0 4 C-0.99 4.66 -1.98 5.32 -3 6 C-3.515625 5.67 -4.03125 5.34 -4.5625 5 C-7.88247788 3.63795779 -10.44186248 3.68230915 -14 4 C-17.1850357 5.76015131 -17.83296972 6.49890916 -19 10 C-19.30538335 15.61687323 -19.30538335 15.61687323 -18 21 C-15.22947819 21.92350727 -13.43311242 22.16329585 -10.5625 22.1875 C-9.41974609 22.20876953 -9.41974609 22.20876953 -8.25390625 22.23046875 C-5.76652685 21.97612666 -4.15191894 21.24017196 -2 20 C-0.68 20.99 0.64 21.98 2 23 C1 26 1 26 -2 27.6875 C-7.74026113 29.9106749 -12.93883804 29.54063264 -18.8125 28 C-23.03516508 25.35048465 -24.61474165 22.74121161 -26 18 C-26.89879546 12.04548005 -26.00581431 7.28608724 -23 2 C-16.02699277 -4.79421218 -8.30803218 -4.06924025 0 0 Z " fill="#808282" transform="translate(1052,368)"/>
<path d="M0 0 C3.22265625 -0.375 3.22265625 -0.375 7 0 C9.43359375 2.625 9.43359375 2.625 11.4375 6 C12.11683594 7.11375 12.79617188 8.2275 13.49609375 9.375 C13.99238281 10.24125 14.48867187 11.1075 15 12 C15.74443359 10.700625 15.74443359 10.700625 16.50390625 9.375 C17.18324219 8.26125 17.86257813 7.1475 18.5625 6 C19.22378906 4.88625 19.88507813 3.7725 20.56640625 2.625 C23 0 23 0 26.77734375 -0.375 C27.84082031 -0.25125 28.90429688 -0.1275 30 0 C27.49892459 4.68121637 24.95998492 9.07904162 21.75 13.3125 C18.1468487 18.52321111 18.02094915 23.80952527 18 30 C16.02 30 14.04 30 12 30 C12.05542969 29.41476562 12.11085938 28.82953125 12.16796875 28.2265625 C12.24393499 18.10785876 6.41681063 10.69155228 0.99389648 2.59130859 C0 1 0 1 0 0 Z " fill="#808282" transform="translate(1171,366)"/>
<path d="M0 0 C3.0625 -0.6875 3.0625 -0.6875 7 0 C9.17615651 2.72890026 10.83429532 5.53950089 12.51953125 8.59375 C13.00808594 9.3878125 13.49664063 10.181875 14 11 C14.66 11 15.32 11 16 11 C17.11038121 9.19526431 18.16381356 7.35528527 19.1875 5.5 C21.046875 2.44921875 21.046875 2.44921875 23 0 C26.9375 -0.6875 26.9375 -0.6875 30 0 C28.91909567 1.87640133 27.83515594 3.75105424 26.75 5.625 C26.11320313 6.73101562 25.47640625 7.83703125 24.8203125 8.9765625 C23 12 23 12 20.625 15 C18.0683984 19.71987987 18.17129362 24.70702705 18 30 C16.02 30 14.04 30 12 30 C12.05542969 29.40316406 12.11085938 28.80632812 12.16796875 28.19140625 C12.24194166 18.23465302 6.57919232 11.37660822 0.99389648 3.61303711 C0 2 0 2 0 0 Z " fill="#808282" transform="translate(825,366)"/>
<path d="M0 0 C8.91 0 17.82 0 27 0 C27 1.65 27 3.3 27 5 C23.37 5 19.74 5 16 5 C16 13.25 16 21.5 16 30 C14.02 30 12.04 30 10 30 C10 21.75 10 13.5 10 5 C6.7 5 3.4 5 0 5 C0 3.35 0 1.7 0 0 Z " fill="#808282" transform="translate(1141,366)"/>
<path d="M0 0 C8.91 0 17.82 0 27 0 C27 1.65 27 3.3 27 5 C23.7 5 20.4 5 17 5 C17 13.25 17 21.5 17 30 C15.02 30 13.04 30 11 30 C11 21.75 11 13.5 11 5 C7.37 5 3.74 5 0 5 C0 3.35 0 1.7 0 0 Z " fill="#808282" transform="translate(643,366)"/>
<path d="M0 0 C1.98 0 3.96 0 6 0 C6 8.25 6 16.5 6 25 C10.95 25 15.9 25 21 25 C21 26.65 21 28.3 21 30 C14.07 30 7.14 30 0 30 C0 20.1 0 10.2 0 0 Z " fill="#808282" transform="translate(756,366)"/>
<path d="M0 0 C1.98 0 3.96 0 6 0 C6 9.9 6 19.8 6 30 C4.02 30 2.04 30 0 30 C0 20.1 0 10.2 0 0 Z " fill="#808282" transform="translate(1128,366)"/>
<path d="M0 0 C1.98 0 3.96 0 6 0 C6 9.9 6 19.8 6 30 C4.02 30 2.04 30 0 30 C0 20.1 0 10.2 0 0 Z " fill="#808282" transform="translate(677,366)"/>
</svg>
