<?xml version="1.0" encoding="UTF-8"?>
<svg version="1.1" xmlns="http://www.w3.org/2000/svg" width="323" height="117">
<path d="M0 0 C3.39581516 -0.0291544 6.79159786 -0.04685068 10.1875 -0.0625 C11.14720703 -0.07087891 12.10691406 -0.07925781 13.09570312 -0.08789062 C14.02705078 -0.09111328 14.95839844 -0.09433594 15.91796875 -0.09765625 C17.19837036 -0.10551147 17.19837036 -0.10551147 18.50463867 -0.11352539 C21.09246747 0.00420677 23.47661953 0.42892956 26 1 C27.23608047 18.13344879 19.73812205 31.76552169 8.875 44.4375 C5.39456722 48.44836412 1.79291306 52.28350093 -2 56 C2.03523352 60.81123996 6.04467233 65.13242719 11 69 C15.56189568 67.57648876 18.47086992 65.03543421 21.75 61.6875 C22.53552246 60.88735474 22.53552246 60.88735474 23.33691406 60.07104492 C34.91227522 47.97482783 44.85880229 31.86193197 47 15 C46.01 14.505 46.01 14.505 45 14 C44.89623047 14.55469971 44.79246094 15.10939941 44.68554688 15.6809082 C43.56608948 21.21437675 41.93745895 26.10259119 39.5 31.1875 C39.15106689 31.91799561 38.80213379 32.64849121 38.44262695 33.40112305 C33.39051396 43.62418308 26.64315178 52.40444012 19.0625 60.875 C18.60190186 61.39360596 18.14130371 61.91221191 17.66674805 62.4465332 C16.50864069 63.69380818 15.25977983 64.85550785 14 66 C11 66 11 66 9.3125 64.5 C8.879375 64.005 8.44625 63.51 8 63 C9.47882847 59.58791138 11.42469061 57.35018596 14 54.6875 C27.34475741 40.05546696 35.61570174 23.19832466 40 4 C50.8713355 7.18892508 50.8713355 7.18892508 55 11 C55.4505718 16.15301833 54.56789831 20.62614557 53 25.5 C52.77924805 26.1899707 52.55849609 26.87994141 52.33105469 27.59082031 C45.91351664 46.65238461 33.53047211 61.46974813 19 75 C18.13890625 75.8146875 17.2778125 76.629375 16.390625 77.46875 C14 79 14 79 11.55078125 79.0625 C8.16745618 77.65321299 5.78881625 75.50884742 3.1875 73 C2.66631592 72.50814209 2.14513184 72.01628418 1.6081543 71.50952148 C-11.09819217 59.37477464 -11.09819217 59.37477464 -12 54 C-11.33355469 53.44054687 -10.66710937 52.88109375 -9.98046875 52.3046875 C3.73476934 40.37338947 16.1305492 25.49201626 19 7 C16.36 7.33 13.72 7.66 11 8 C11.99 8.33 12.98 8.66 14 9 C13.75680914 23.34826097 4.1925995 33.92740202 -5 44 C-5.69996094 44.7940625 -6.39992188 45.588125 -7.12109375 46.40625 C-10.44919612 50.01348354 -10.44919612 50.01348354 -12 51 C-14.11328125 50.82421875 -14.11328125 50.82421875 -16 50 C-17.25 47.4375 -17.25 47.4375 -18 45 C-17.55011719 44.65710937 -17.10023437 44.31421875 -16.63671875 43.9609375 C-5.06305775 34.54429148 4.50362463 21.62120608 8 7 C7.01 7 6.02 7 5 7 C4.89558594 7.86496094 4.79117188 8.72992188 4.68359375 9.62109375 C2.31142171 21.34640126 -7.97301317 35.20651447 -17 43 C-17.99 43 -18.98 43 -20 43 C-25.36939868 32.40976308 -28.6074985 21.94747047 -28 10 C-19.78673993 5.5156799 -12.46860389 1.94686039 -3 1 C-3.62790529 5.76469307 -5.54871413 9.54975234 -7.75 13.75 C-8.25273438 14.77673828 -8.25273438 14.77673828 -8.765625 15.82421875 C-11.35521209 20.77778496 -11.35521209 20.77778496 -14.765625 21.953125 C-15.50296875 21.96859375 -16.2403125 21.9840625 -17 22 C-18.25 15.375 -18.25 15.375 -16 12 C-17.98 12.99 -17.98 12.99 -20 14 C-19.4618629 19.69051363 -18.8599867 25.34865884 -18 31 C-8.85136939 22.6586015 -3.74777324 11.63513236 0 0 Z " fill="#335497" transform="translate(59,18)"/>
<path d="M0 0 C2.31 0.33 4.62 0.66 7 1 C6.09241706 24.05260663 -6.74042304 41.69425819 -22 58 C-25.16115776 56.63016497 -25.9927092 56.0109362 -28 53 C-27.31035156 52.29617187 -26.62070312 51.59234375 -25.91015625 50.8671875 C-12.07083991 36.45339963 -2.18843737 20.26191154 0 0 Z " fill="#314D91" transform="translate(88,20)"/>
<path d="M0 0 C1.98 0.66 3.96 1.32 6 2 C5.75680914 16.34826097 -3.8074005 26.92740202 -13 37 C-13.69996094 37.7940625 -14.39992188 38.588125 -15.12109375 39.40625 C-18.44919612 43.01348354 -18.44919612 43.01348354 -20 44 C-22.11328125 43.82421875 -22.11328125 43.82421875 -24 43 C-25.25 40.4375 -25.25 40.4375 -26 38 C-25.55011719 37.65710937 -25.10023437 37.31421875 -24.63671875 36.9609375 C-13.06305775 27.54429148 -3.49637537 14.62120608 0 0 Z " fill="#E91D24" transform="translate(67,25)"/>
<path d="M0 0 C2.31 0 4.62 0 7 0 C8.32 2.31 9.64 4.62 11 7 C11.33 4.69 11.66 2.38 12 0 C13.65 0 15.3 0 17 0 C17 6.27 17 12.54 17 19 C15.02 19 13.04 19 11 19 C9.3203125 17.25 9.3203125 17.25 8.125 15 C7.71507812 14.2575 7.30515625 13.515 6.8828125 12.75 C6.59148437 12.1725 6.30015625 11.595 6 11 C5.67 13.64 5.34 16.28 5 19 C3.35 19 1.7 19 0 19 C0 12.73 0 6.46 0 0 Z " fill="#333333" transform="translate(274,40)"/>
<path d="M0 0 C11.625 -0.25 11.625 -0.25 15 2 C15.125 5.5625 15.125 5.5625 15 9 C15.33 9.33 15.66 9.66 16 10 C16.375 12.875 16.375 12.875 16 16 C13.58009553 18.50334945 11.65182721 18.95880306 8.21875 19.17578125 C5.47856062 19.18637477 2.73842166 19.0989791 0 19 C0 12.73 0 6.46 0 0 Z M6 4 C6 4.99 6 5.98 6 7 C6.99 7 7.98 7 9 7 C8.67 6.01 8.34 5.02 8 4 C7.34 4 6.68 4 6 4 Z M6 11 C6 11.99 6 12.98 6 14 C7.32 14 8.64 14 10 14 C10 13.01 10 12.02 10 11 C8.68 11 7.36 11 6 11 Z " fill="#333333" transform="translate(119,40)"/>
<path d="M0 0 C3.0625 1.9375 3.0625 1.9375 5 5 C5.69144269 8.16006451 5.69701524 10.84057844 5 14 C3 17.0625 3 17.0625 0 19 C-3.6046241 19.67095973 -6.86250568 19.35920873 -10.375 18.25 C-12.49609306 16.61838996 -13.16951953 15.56064812 -14 13 C-14.45431929 8.0024878 -14.0742446 5.02016601 -11 1 C-7.50797535 -0.74601232 -3.81017721 -0.55838804 0 0 Z M-6 4 C-8.56687367 7.8503105 -7.83288724 9.58569763 -7 14 C-5.10820797 14.6814823 -5.10820797 14.6814823 -3 15 C-0.62005632 13.05667668 -0.62005632 13.05667668 -0.75 9.5 C-0.62005632 5.94332332 -0.62005632 5.94332332 -3 4 C-3.99 4 -4.98 4 -6 4 Z " fill="#333333" transform="translate(266,40)"/>
<path d="M0 0 C1.98 0 3.96 0 6 0 C6 4.62 6 9.24 6 14 C7.32 14 8.64 14 10 14 C10.33 9.38 10.66 4.76 11 0 C12.98 0 14.96 0 17 0 C17.10826289 2.4178712 17.18739789 4.83087556 17.25 7.25 C17.30027344 8.27287109 17.30027344 8.27287109 17.3515625 9.31640625 C17.41754172 12.71433632 17.25147176 14.6448811 15.265625 17.44921875 C12.76570048 19.16037398 11.50169867 19.56763989 8.5 19.5625 C7.7471875 19.58441406 6.994375 19.60632813 6.21875 19.62890625 C2.80425016 18.66106387 1.78669354 17.01001525 0 14 C-0.390625 10.44921875 -0.390625 10.44921875 -0.25 6.6875 C-0.21390625 5.43324219 -0.1778125 4.17898437 -0.140625 2.88671875 C-0.07101563 1.45779297 -0.07101563 1.45779297 0 0 Z " fill="#333333" transform="translate(153,40)"/>
<path d="M0 0 C2.2421875 0.2734375 2.2421875 0.2734375 4.2421875 1.2734375 C4.2421875 2.9234375 4.2421875 4.5734375 4.2421875 6.2734375 C1.2721875 5.9434375 -1.6978125 5.6134375 -4.7578125 5.2734375 C-0.3028125 7.2534375 -0.3028125 7.2534375 4.2421875 9.2734375 C4.72171095 15.62712328 4.72171095 15.62712328 2.8046875 18.2109375 C-1.92332703 20.17133377 -6.95502507 19.87436664 -11.7578125 18.2734375 C-11.7578125 16.2934375 -11.7578125 14.3134375 -11.7578125 12.2734375 C-7.3028125 13.2634375 -7.3028125 13.2634375 -2.7578125 14.2734375 C-6.40695748 12.35903015 -6.40695748 12.35903015 -8.9453125 11.4609375 C-10.7578125 10.2734375 -10.7578125 10.2734375 -11.7578125 7.9609375 C-11.7578125 5.2734375 -11.7578125 5.2734375 -10.4453125 2.4609375 C-6.88132894 -0.43997935 -4.46596561 -0.17227761 0 0 Z " fill="#333333" transform="translate(232.7578125,39.7265625)"/>
<path d="M0 0 C4.62 0 9.24 0 14 0 C14 1.65 14 3.3 14 5 C11.36 5 8.72 5 6 5 C6 5.66 6 6.32 6 7 C8.31 7 10.62 7 13 7 C13 8.32 13 9.64 13 11 C10.69 11 8.38 11 6 11 C6 11.99 6 12.98 6 14 C8.64 14 11.28 14 14 14 C14 15.65 14 17.3 14 19 C9.38 19 4.76 19 0 19 C0 12.73 0 6.46 0 0 Z " fill="#333333" transform="translate(173,40)"/>
<path d="M0 0 C1.98 0 3.96 0 6 0 C7.32 2.97 8.64 5.94 10 9 C10.99 6.03 11.98 3.06 13 0 C14.98 0 16.96 0 19 0 C18.28739906 4.28379643 16.93078264 8.25093853 15.4375 12.3125 C15.20353516 12.95767578 14.96957031 13.60285156 14.72851562 14.26757812 C14.15552993 15.84621219 13.57820536 17.42327026 13 19 C11.02 19 9.04 19 7 19 C4.05223604 12.80520671 1.82221376 6.61242722 0 0 Z " fill="#333333" transform="translate(188,40)"/>
<path d="M0 0 C3.63 0 7.26 0 11 0 C11 1.32 11 2.64 11 4 C10.01 4 9.02 4 8 4 C8 7.63 8 11.26 8 15 C8.99 15 9.98 15 11 15 C11 16.32 11 17.64 11 19 C7.37 19 3.74 19 0 19 C0 17.68 0 16.36 0 15 C0.99 15 1.98 15 3 15 C3 11.37 3 7.74 3 4 C2.01 4 1.02 4 0 4 C0 2.68 0 1.36 0 0 Z " fill="#333333" transform="translate(239,40)"/>
<path d="M0 0 C3.63 0 7.26 0 11 0 C11 1.32 11 2.64 11 4 C10.01 4 9.02 4 8 4 C8 7.63 8 11.26 8 15 C8.99 15 9.98 15 11 15 C11 16.32 11 17.64 11 19 C7.37 19 3.74 19 0 19 C0 17.68 0 16.36 0 15 C0.99 15 1.98 15 3 15 C3 11.37 3 7.74 3 4 C2.01 4 1.02 4 0 4 C0 2.68 0 1.36 0 0 Z " fill="#333333" transform="translate(208,40)"/>
<path d="M0 0 C1.65 0 3.3 0 5 0 C5 4.62 5 9.24 5 14 C7.97 14 10.94 14 14 14 C14 15.65 14 17.3 14 19 C9.38 19 4.76 19 0 19 C0 12.73 0 6.46 0 0 Z " fill="#333333" transform="translate(138,40)"/>
<path d="M0 0 C4.66666667 0 9.33333333 0 14 0 C14 0.99 14 1.98 14 3 C12.68 2.67 11.36 2.34 10 2 C10 3.32 10 4.64 10 6 C11.65 6 13.3 6 15 6 C15 6.66 15 7.32 15 8 C11.84740535 9.01333399 10.15492577 8.81126663 7 8 C4.66699067 7.96111651 2.33290199 7.9551365 0 8 C0 5.36 0 2.72 0 0 Z M3 2 C7 3 7 3 7 3 Z M3 5 C7 6 7 6 7 6 Z " fill="#808282" transform="translate(240,65)"/>
<path d="M0 0 C1.98 0 3.96 0 6 0 C6.33 1.65 6.66 3.3 7 5 C8.93798263 2.22739701 8.93798263 2.22739701 10 0 C10.99 0 11.98 0 13 0 C13.99 2.64 14.98 5.28 16 8 C12.04 8 8.08 8 4 8 C4 7.34 4 6.68 4 6 C3.34 6 2.68 6 2 6 C2 6.66 2 7.32 2 8 C1.34 8 0.68 8 0 8 C0 5.36 0 2.72 0 0 Z M2 2 C2 2.66 2 3.32 2 4 C2.99 3.67 3.98 3.34 5 3 C4.01 2.67 3.02 2.34 2 2 Z " fill="#808282" transform="translate(128,65)"/>
<path d="M0 0 C0.78375 0.04125 1.5675 0.0825 2.375 0.125 C2.375 1.115 2.375 2.105 2.375 3.125 C1.055 2.795 -0.265 2.465 -1.625 2.125 C-1.625 3.445 -1.625 4.765 -1.625 6.125 C0.355 6.125 2.335 6.125 4.375 6.125 C4.705 4.475 5.035 2.825 5.375 1.125 C6.695 1.125 8.015 1.125 9.375 1.125 C10.035 3.435 10.695 5.745 11.375 8.125 C9.27222877 8.34697585 7.16767698 8.55213637 5.0625 8.75 C3.89074219 8.86601563 2.71898437 8.98203125 1.51171875 9.1015625 C-1.625 9.125 -1.625 9.125 -4.625 7.125 C-4.9375 4.625 -4.9375 4.625 -4.625 2.125 C-2.625 0.125 -2.625 0.125 0 0 Z " fill="#808282" transform="translate(167.625,64.875)"/>
<path d="M0 0 C1.23556641 0.01740234 1.23556641 0.01740234 2.49609375 0.03515625 C3.32238281 0.04417969 4.14867187 0.05320312 5 0.0625 C5.63808594 0.07410156 6.27617187 0.08570312 6.93359375 0.09765625 C6.93359375 0.75765625 6.93359375 1.41765625 6.93359375 2.09765625 C8.58359375 1.43765625 10.23359375 0.77765625 11.93359375 0.09765625 C11.62421875 0.86078125 11.31484375 1.62390625 10.99609375 2.41015625 C10.25465782 4.28555302 9.57131158 6.18450277 8.93359375 8.09765625 C8.27359375 8.09765625 7.61359375 8.09765625 6.93359375 8.09765625 C6.72734375 7.29328125 6.52109375 6.48890625 6.30859375 5.66015625 C5.85484375 4.81453125 5.40109375 3.96890625 4.93359375 3.09765625 C1.8808691 2.19934786 1.8808691 2.19934786 -1.06640625 2.09765625 C-1.06640625 3.41765625 -1.06640625 4.73765625 -1.06640625 6.09765625 C0.58359375 6.09765625 2.23359375 6.09765625 3.93359375 6.09765625 C3.93359375 6.75765625 3.93359375 7.41765625 3.93359375 8.09765625 C1.62109375 8.78515625 1.62109375 8.78515625 -1.06640625 9.09765625 C-2.94140625 7.97265625 -2.94140625 7.97265625 -4.06640625 6.09765625 C-3.50143654 0.16547432 -3.50143654 0.16547432 0 0 Z " fill="#808282" transform="translate(193.06640625,64.90234375)"/>
<path d="M0 0 C13 0 13 0 16 1 C15.01 3.31 14.02 5.62 13 8 C12.34 8 11.68 8 11 8 C10.525625 7.195625 10.05125 6.39125 9.5625 5.5625 C8.20016328 2.7081924 8.20016328 2.7081924 5 2 C5 3.98 5 5.96 5 8 C4.34 8 3.68 8 3 8 C3 6.02 3 4.04 3 2 C2.01 2 1.02 2 0 2 C0 1.34 0 0.68 0 0 Z " fill="#808282" transform="translate(276,65)"/>
<path d="M0 0 C1.99954746 -0.04254356 4.00041636 -0.04080783 6 0 C7 1 7 1 7.0625 4.5625 C7.041875 5.696875 7.02125 6.83125 7 8 C4.69 8 2.38 8 0 8 C0 5.36 0 2.72 0 0 Z " fill="#808282" transform="translate(206,65)"/>
<path d="M0 0 C1.98 0 3.96 0 6 0 C6 2.64 6 5.28 6 8 C2.98968256 8.93423645 2.13349732 9.04449911 -1 8 C-1 4.88742431 -0.82638376 2.89234315 0 0 Z " fill="#808282" transform="translate(233,65)"/>
<path d="M0 0 C2.31 0 4.62 0 7 0 C7 2.64 7 5.28 7 8 C6.01 8 5.02 8 4 8 C4 7.34 4 6.68 4 6 C3.34 6 2.68 6 2 6 C2 6.66 2 7.32 2 8 C1.34 8 0.68 8 0 8 C0 5.36 0 2.72 0 0 Z M2 2 C2 2.66 2 3.32 2 4 C2.99 3.67 3.98 3.34 5 3 C4.01 2.67 3.02 2.34 2 2 Z " fill="#808282" transform="translate(221,65)"/>
<path d="M0 0 C1.98 0 3.96 0 6 0 C6.68707555 2.49064888 7 4.37886292 7 7 C4 8 4 8 0 8 C0 5.36 0 2.72 0 0 Z M2 2 C2 2.66 2 3.32 2 4 C2.66 4 3.32 4 4 4 C4 3.34 4 2.68 4 2 C3.34 2 2.68 2 2 2 Z " fill="#808282" transform="translate(265,65)"/>
<path d="M0 0 C0.66 0 1.32 0 2 0 C2 1.98 2 3.96 2 6 C2.99 6 3.98 6 5 6 C5 4.02 5 2.04 5 0 C5.66 0 6.32 0 7 0 C7 2.64 7 5.28 7 8 C2.25 9.125 2.25 9.125 0 8 C0 5.36 0 2.72 0 0 Z " fill="#808282" transform="translate(256,65)"/>
<path d="M0 0 C1.98 0 3.96 0 6 0 C6 2.64 6 5.28 6 8 C4.02 8 2.04 8 0 8 C0 5.36 0 2.72 0 0 Z " fill="#808282" transform="translate(214,65)"/>
<path d="M0 0 C1.4540625 0.0309375 1.4540625 0.0309375 2.9375 0.0625 C2.9375 1.0525 2.9375 2.0425 2.9375 3.0625 C1.6175 3.0625 0.2975 3.0625 -1.0625 3.0625 C-1.3925 4.0525 -1.7225 5.0425 -2.0625 6.0625 C-0.4125 6.0625 1.2375 6.0625 2.9375 6.0625 C2.9375 6.7225 2.9375 7.3825 2.9375 8.0625 C1.125 8.6875 1.125 8.6875 -1.0625 9.0625 C-2.0525 8.4025 -3.0425 7.7425 -4.0625 7.0625 C-4.3125 4 -4.3125 4 -4.0625 1.0625 C-3.0625 0.0625 -3.0625 0.0625 0 0 Z " fill="#808282" transform="translate(148.0625,64.9375)"/>
<path d="M0 0 C1.98 0 3.96 0 6 0 C6.33 1.65 6.66 3.3 7 5 C5.35 5.33 3.7 5.66 2 6 C2 6.66 2 7.32 2 8 C1.34 8 0.68 8 0 8 C0 5.36 0 2.72 0 0 Z M2 2 C2 2.66 2 3.32 2 4 C2.99 3.67 3.98 3.34 5 3 C4.01 2.67 3.02 2.34 2 2 Z " fill="#808282" transform="translate(120,65)"/>
<path d="M0 0 C2.31 0 4.62 0 7 0 C7 0.66 7 1.32 7 2 C6.01 2 5.02 2 4 2 C4 3.98 4 5.96 4 8 C3.34 8 2.68 8 2 8 C2 6.02 2 4.04 2 2 C1.34 2 0.68 2 0 2 C0 1.34 0 0.68 0 0 Z " fill="#808282" transform="translate(152,65)"/>
<path d="M0 0 C0.66 0 1.32 0 2 0 C2 1.98 2 3.96 2 6 C3.32 6 4.64 6 6 6 C6 6.66 6 7.32 6 8 C4.02 8 2.04 8 0 8 C0 5.36 0 2.72 0 0 Z " fill="#808282" transform="translate(180,65)"/>
<path d="M0 0 C0.66 0 1.32 0 2 0 C2 2.64 2 5.28 2 8 C1.34 8 0.68 8 0 8 C0 5.36 0 2.72 0 0 Z " fill="#808282" transform="translate(273,65)"/>
<path d="M0 0 C0.66 0 1.32 0 2 0 C2 2.64 2 5.28 2 8 C1.34 8 0.68 8 0 8 C0 5.36 0 2.72 0 0 Z " fill="#808282" transform="translate(160,65)"/>
</svg>
