
<!-- Generator: visioncortex VTracer 0.6.4 -->
<svg version="1.1" xmlns="http://www.w3.org/2000/svg" viewBox="0 0 94 90" preserveAspectRatio="xMidYMid meet">
<path d="M0 0 C7.658 -0.046 15.316 -0.082 22.974 -0.104 C26.53 -0.114 30.086 -0.128 33.642 -0.151 C37.727 -0.177 41.813 -0.186 45.898 -0.195 C47.179 -0.206 48.459 -0.216 49.778 -0.227 C50.959 -0.227 52.14 -0.227 53.357 -0.227 C54.922 -0.234 54.922 -0.234 56.52 -0.241 C59 0 59 0 61 2 C60.67 5.297 60.377 6.623 58 9 C57.01 9 56.02 9 55 9 C55 14.94 55 20.88 55 27 C54.01 27 53.02 27 52 27 C52 25.68 52 24.36 52 23 C51.399 23.005 50.799 23.01 50.18 23.016 C47.474 23.037 44.768 23.05 42.062 23.062 C41.117 23.071 40.171 23.079 39.197 23.088 C37.849 23.093 37.849 23.093 36.473 23.098 C35.224 23.106 35.224 23.106 33.949 23.114 C32 23 32 23 31 22 C31 19.36 31 16.72 31 14 C20.77 14 10.54 14 0 14 C0 13.01 0 12.02 0 11 C17.16 11 34.32 11 52 11 C52 10.34 52 9.68 52 9 C35.17 9 18.34 9 1 9 C0.67 8.01 0.34 7.02 0 6 C28.215 5.505 28.215 5.505 57 5 C57.33 4.34 57.66 3.68 58 3 C38.86 3 19.72 3 0 3 C0 2.01 0 1.02 0 0 Z M34 14 C34.33 15.65 34.66 17.3 35 19 C40.61 19 46.22 19 52 19 C52 17.35 52 15.7 52 14 C46.06 14 40.12 14 34 14 Z " fill="#E1E1E1" transform="translate(11,55)"/>
<path d="M0 0 C3.914 -0.466 5.704 -0.178 9.125 1.875 C12.928 5.377 14.694 10.082 16 15 C16.102 17.812 16.102 17.812 16 20 C16.66 20 17.32 20 18 20 C19.125 24.75 19.125 24.75 18 27 C14.547 28.727 11.842 29.22 8 29 C7.567 27.824 7.567 27.824 7.125 26.625 C6.151 23.903 6.151 23.903 4 22 C0.37 23.32 -3.26 24.64 -7 26 C-7.33 28.31 -7.66 30.62 -8 33 C-8.99 33 -9.98 33 -11 33 C-11.33 31.35 -11.66 29.7 -12 28 C-12.66 28 -13.32 28 -14 28 C-14.309 28.639 -14.619 29.279 -14.938 29.938 C-16 32 -16 32 -17 33 C-18.853 33.072 -20.708 33.084 -22.562 33.062 C-23.574 33.053 -24.586 33.044 -25.629 33.035 C-26.803 33.018 -26.803 33.018 -28 33 C-25.238 30.238 -22.793 30.421 -19 30 C-18.299 26.847 -18 24.273 -18 21 C-19.65 21 -21.3 21 -23 21 C-23 22.65 -23 24.3 -23 26 C-25.578 27.202 -28.161 28.387 -30.75 29.562 C-31.844 30.076 -31.844 30.076 -32.961 30.6 C-33.67 30.919 -34.379 31.238 -35.109 31.566 C-36.083 32.014 -36.083 32.014 -37.077 32.471 C-39.437 33.12 -40.732 32.874 -43 32 C-44.721 29.418 -45 28.151 -45 25 C-44.01 25 -43.02 25 -42 25 C-41.67 26.32 -41.34 27.64 -41 29 C-32.021 26.666 -32.021 26.666 -25.625 20.688 C-25.089 19.801 -24.552 18.914 -24 18 C-19.44 17.337 -16.122 18.002 -12 20 C-12.324 17.47 -12.324 17.47 -14 15 C-16.941 13.93 -19.906 13.427 -23 13 C-22.67 12.01 -22.34 11.02 -22 10 C-16.726 10.414 -13.823 11.29 -10 15 C-9.505 15.99 -9.505 15.99 -9 17 C-5.317 16.4 -1.655 15.752 2 15 C2.144 14.422 2.289 13.845 2.438 13.25 C3 11 3 11 3.812 9 C3.905 8.01 3.905 8.01 4 7 C2.709 5.626 1.374 4.291 0 3 C0 2.01 0 1.02 0 0 Z M8 6 C8.062 7.176 8.062 7.176 8.125 8.375 C8 11 8 11 6 13 C6 14.32 6 15.64 6 17 C5.01 17.33 4.02 17.66 3 18 C5.64 18.66 8.28 19.32 11 20 C12.229 18.296 12.229 18.296 13 16 C12.377 13.356 12.377 13.356 11.125 10.75 C10.736 9.858 10.346 8.966 9.945 8.047 C9.633 7.371 9.321 6.696 9 6 C8.67 6 8.34 6 8 6 Z M-11 22 C-11.99 22.33 -12.98 22.66 -14 23 C-13.67 23.66 -13.34 24.32 -13 25 C-11.68 24.34 -10.36 23.68 -9 23 C-9.66 22.67 -10.32 22.34 -11 22 Z M11 23 C11 23.99 11 24.98 11 26 C12.32 25.34 13.64 24.68 15 24 C13.68 23.67 12.36 23.34 11 23 Z " fill="#F9F9F9" transform="translate(67,20)"/>
<path d="M0 0 C7.658 -0.046 15.316 -0.082 22.974 -0.104 C26.53 -0.114 30.086 -0.128 33.642 -0.151 C37.727 -0.177 41.813 -0.186 45.898 -0.195 C47.179 -0.206 48.459 -0.216 49.778 -0.227 C50.959 -0.227 52.14 -0.227 53.357 -0.227 C54.922 -0.234 54.922 -0.234 56.52 -0.241 C59 0 59 0 61 2 C60.67 5.297 60.377 6.623 58 9 C55.558 9.203 55.558 9.203 52.449 9.135 C51.288 9.115 50.127 9.095 48.93 9.074 C47.672 9.042 46.414 9.01 45.117 8.977 C43.833 8.952 42.548 8.927 41.225 8.901 C37.808 8.834 34.392 8.755 30.976 8.674 C27.491 8.593 24.005 8.523 20.52 8.453 C13.679 8.313 6.84 8.161 0 8 C0 7.34 0 6.68 0 6 C28.215 5.505 28.215 5.505 57 5 C57.33 4.34 57.66 3.68 58 3 C38.86 3 19.72 3 0 3 C0 2.01 0 1.02 0 0 Z " fill="#FCFDFC" transform="translate(11,55)"/>
<path d="M0 0 C3.914 -0.466 5.704 -0.178 9.125 1.875 C12.946 5.413 14.753 10.02 16 15 C15.75 18.625 15.75 18.625 15 21 C14.01 21.33 13.02 21.66 12 22 C11.951 21.397 11.902 20.793 11.852 20.172 C11.777 19.373 11.702 18.573 11.625 17.75 C11.521 16.567 11.521 16.567 11.414 15.359 C10.985 12.914 10.214 11.152 9 9 C7.458 11.855 7.458 11.855 6.84 15.004 C6 17 6 17 3.094 18.23 C1.908 18.546 0.722 18.862 -0.5 19.188 C-4.56 19.994 -4.56 19.994 -8 22 C-9.666 22.041 -11.334 22.043 -13 22 C-13.33 19.69 -13.66 17.38 -14 15 C-18.455 14.01 -18.455 14.01 -23 13 C-22.67 12.01 -22.34 11.02 -22 10 C-16.726 10.414 -13.823 11.29 -10 15 C-9.67 15.66 -9.34 16.32 -9 17 C-5.317 16.4 -1.655 15.752 2 15 C2.144 14.422 2.289 13.845 2.438 13.25 C3 11 3 11 3.812 9 C3.905 8.01 3.905 8.01 4 7 C2.709 5.626 1.374 4.291 0 3 C0 2.01 0 1.02 0 0 Z " fill="#F9F9F9" transform="translate(67,20)"/>
<path d="M0 0 C3.35 1.71 5.451 4.117 7.438 7.312 C8.557 12.661 7.704 16.642 5.25 21.375 C2.807 24.225 1.649 25.236 -2 26 C-8.094 25.889 -10.839 24.161 -15 20 C-16.355 15.935 -16.537 12.251 -16 8 C-12.188 0.77 -7.893 -1.32 0 0 Z M-12 7 C-13.555 10.11 -13.286 12.563 -13 16 C-11.608 19.463 -11.608 19.463 -9 22 C-5.563 22.982 -3.224 23.306 0.25 22.438 C2.902 20.259 3.845 18.221 5 15 C5 10.609 4.443 8.595 1.812 5.062 C-0.839 2.806 -0.839 2.806 -4 2.438 C-7.659 3.124 -9.352 4.427 -12 7 Z " fill="#F8F8F8" transform="translate(39,8)"/>
<path d="M0 0 C3.914 -0.466 5.704 -0.178 9.125 1.875 C12.946 5.413 14.753 10.02 16 15 C15.75 18.625 15.75 18.625 15 21 C14.01 21.33 13.02 21.66 12 22 C11.963 21.42 11.925 20.84 11.887 20.242 C11.457 15.14 10.53 11.534 8 7 C7.312 4.625 7.312 4.625 7 3 C6.34 4.32 5.68 5.64 5 7 C2.5 5.187 2.5 5.187 0 3 C0 2.01 0 1.02 0 0 Z " fill="#F9F9F9" transform="translate(67,20)"/>
<path d="M0 0 C1.178 -0.008 1.178 -0.008 2.379 -0.016 C4.438 0.25 4.438 0.25 6.438 2.25 C6.108 2.91 5.778 3.57 5.438 4.25 C4.221 4.147 3.004 4.044 1.75 3.938 C-1.747 3.95 -2.513 4.216 -5.562 6.312 C-8.046 9.959 -8.035 11.916 -7.562 16.25 C-7.134 18.56 -7.134 18.56 -6.562 20.25 C-7.553 20.58 -8.543 20.91 -9.562 21.25 C-12.011 16.921 -12.265 13.136 -11.562 8.25 C-8.752 2.92 -6.192 -0.041 0 0 Z " fill="#F7F7F6" transform="translate(34.5625,7.75)"/>
<path d="M0 0 C0.99 0.33 1.98 0.66 3 1 C2.988 3.754 2.988 3.754 2 7 C-0.385 8.834 -3.025 9.847 -5.812 10.938 C-6.538 11.253 -7.263 11.568 -8.01 11.893 C-14.17 14.446 -14.17 14.446 -18 13 C-19.721 10.418 -20 9.151 -20 6 C-19.01 6 -18.02 6 -17 6 C-16.67 7.32 -16.34 8.64 -16 10 C-13.889 9.292 -11.786 8.558 -9.688 7.812 C-8.516 7.406 -7.344 7 -6.137 6.582 C-2.654 4.826 -1.621 3.482 0 0 Z " fill="#F9FAF9" transform="translate(42,39)"/>
<path d="M0 0 C2.188 0.875 2.188 0.875 3.188 2.875 C2.248 3.148 2.248 3.148 1.289 3.426 C0.472 3.677 -0.345 3.929 -1.188 4.188 C-2.406 4.553 -2.406 4.553 -3.648 4.926 C-6.144 5.789 -6.144 5.789 -7.812 8.875 C-8.107 11.262 -8.305 13.661 -8.438 16.062 C-8.512 17.335 -8.587 18.607 -8.664 19.918 C-8.713 20.894 -8.762 21.87 -8.812 22.875 C-9.803 22.875 -10.793 22.875 -11.812 22.875 C-11.894 20.646 -11.952 18.417 -12 16.188 C-12.035 14.946 -12.07 13.705 -12.105 12.426 C-11.792 8.625 -11.098 6.878 -8.812 3.875 C-3.911 -0.174 -3.911 -0.174 0 0 Z " fill="#F9FAF9" transform="translate(22.8125,30.125)"/>
<path d="M0 0 C0.33 0 0.66 0 1 0 C1.33 4.29 1.66 8.58 2 13 C1.01 13 0.02 13 -1 13 C-1 11.68 -1 10.36 -1 9 C-7.6 9 -14.2 9 -21 9 C-20.67 8.01 -20.34 7.02 -20 6 C-13.4 6 -6.8 6 0 6 C0 4.02 0 2.04 0 0 Z " fill="#F6F7F8" transform="translate(64,69)"/>
<path d="M0 0 C4.217 -0.074 8.435 -0.129 12.653 -0.165 C14.087 -0.18 15.522 -0.2 16.956 -0.226 C19.019 -0.263 21.081 -0.28 23.145 -0.293 C25.006 -0.317 25.006 -0.317 26.906 -0.341 C30 0 30 0 31.928 1.331 C33 3 33 3 33 6 C38.61 6 44.22 6 50 6 C50 6.33 50 6.66 50 7 C49.435 7.025 48.87 7.05 48.288 7.076 C45.733 7.192 43.179 7.315 40.625 7.438 C39.291 7.496 39.291 7.496 37.93 7.557 C37.079 7.599 36.228 7.64 35.352 7.684 C34.566 7.72 33.781 7.757 32.971 7.795 C30.925 7.891 30.925 7.891 29 9 C29 6.36 29 3.72 29 1 C19.43 1 9.86 1 0 1 C0 0.67 0 0.34 0 0 Z " fill="#DADBDB" transform="translate(13,68)"/>
<path d="M0 0 C24.255 0.495 24.255 0.495 49 1 C49 1.33 49 1.66 49 2 C47.94 2.026 46.881 2.052 45.789 2.078 C44.401 2.134 43.013 2.192 41.625 2.25 C40.577 2.271 40.577 2.271 39.508 2.293 C37.223 2.36 37.223 2.36 34 3 C32.435 4.914 32.435 4.914 32 7 C32 5.35 32 3.7 32 2 C16.16 2.495 16.16 2.495 0 3 C0 2.01 0 1.02 0 0 Z " fill="#FBFCFC" transform="translate(11,66)"/>
<path d="M0 0 C2.973 1.025 3.999 1.998 5.812 4.625 C7.344 8.978 6.852 11.505 6 16 C5.01 16 4.02 16 3 16 C3.062 14.969 3.124 13.938 3.188 12.875 C2.987 8.731 1.958 6.589 0 3 C0 2.01 0 1.02 0 0 Z " fill="#F9F9F9" transform="translate(40,10)"/>
<path d="M0 0 C3.96 0 7.92 0 12 0 C12 0.33 12 0.66 12 1 C14.97 1.33 17.94 1.66 21 2 C21 2.33 21 2.66 21 3 C14.07 3 7.14 3 0 3 C0 2.01 0 1.02 0 0 Z " fill="#F9FAFA" transform="translate(11,55)"/>
<path d="M0 0 C1.178 -0.008 1.178 -0.008 2.379 -0.016 C4.438 0.25 4.438 0.25 6.438 2.25 C6.108 2.91 5.778 3.57 5.438 4.25 C4.241 4.229 3.045 4.209 1.812 4.188 C-1.743 4.181 -5.068 4.551 -8.562 5.25 C-7.004 0.575 -4.565 -0.03 0 0 Z " fill="#EFEFEF" transform="translate(34.5625,7.75)"/>
<path d="M0 0 C0.66 0 1.32 0 2 0 C3.74 5.22 3.74 5.22 4 8 C2.312 10.5 2.312 10.5 0 12 C-0.99 12 -1.98 12 -3 12 C-2.379 9.413 -1.675 6.87 -0.938 4.312 C0.045 1.413 0.045 1.413 0 0 Z " fill="#F6F6F6" transform="translate(72,23)"/>
<path d="M0 0 C4.479 -0.176 8.026 -0.221 12 2 C12.33 2.99 12.66 3.98 13 5 C10.509 5.687 8.621 6 6 6 C6 5.01 6 4.02 6 3 C5.196 2.876 4.391 2.752 3.562 2.625 C2.717 2.419 1.871 2.212 1 2 C0.67 1.34 0.34 0.68 0 0 Z " fill="#F5F5F5" transform="translate(43,38)"/>
<path d="M0 0 C1.65 0 3.3 0 5 0 C5.33 0.99 5.66 1.98 6 3 C5.34 3 4.68 3 4 3 C4 4.98 4 6.96 4 9 C3.01 8.67 2.02 8.34 1 8 C1 6.35 1 4.7 1 3 C0.34 3 -0.32 3 -1 3 C-0.67 2.01 -0.34 1.02 0 0 Z " fill="#F6F8F7" transform="translate(80,51)"/>
<path d="M0 0 C0.33 0.99 0.66 1.98 1 3 C2.32 2.01 3.64 1.02 5 0 C5.66 0.33 6.32 0.66 7 1 C8.262 5.475 8.262 5.475 7 8 C3.634 6.557 1.49 4.667 -1 2 C-0.67 1.34 -0.34 0.68 0 0 Z " fill="#F1F3F2" transform="translate(78,39)"/>
<path d="M0 0 C0.99 0 1.98 0 3 0 C3.103 0.639 3.206 1.279 3.312 1.938 C3.539 2.618 3.766 3.299 4 4 C4.99 4.33 5.98 4.66 7 5 C7.33 5.66 7.66 6.32 8 7 C6.35 7.33 4.7 7.66 3 8 C0 3.375 0 3.375 0 0 Z " fill="#F8F8F8" transform="translate(22,45)"/>
<path d="M0 0 C0.33 0 0.66 0 1 0 C1.33 4.29 1.66 8.58 2 13 C1.01 13 0.02 13 -1 13 C-1.027 11.208 -1.046 9.417 -1.062 7.625 C-1.074 6.627 -1.086 5.63 -1.098 4.602 C-1 2 -1 2 0 0 Z " fill="#FCFDFC" transform="translate(12,40)"/>
<path d="M0 0 C-3.465 1.485 -3.465 1.485 -7 3 C-7 3.66 -7 4.32 -7 5 C-8.32 5.33 -9.64 5.66 -11 6 C-11 5.34 -11 4.68 -11 4 C-11.99 3.67 -12.98 3.34 -14 3 C-10.22 0.795 -4.078 -2.039 0 0 Z " fill="#F0F0F0" transform="translate(72,39)"/>
<path d="M0 0 C0.33 0 0.66 0 1 0 C1.66 2.97 2.32 5.94 3 9 C2.01 9.33 1.02 9.66 0 10 C-1.375 7.735 -2.08 6.543 -1.688 3.875 C-1 2 -1 2 0 0 Z " fill="#EFEFEE" transform="translate(25,19)"/>
<path d="M0 0 C0 0.99 0 1.98 0 3 C-4.455 4.485 -4.455 4.485 -9 6 C-9 5.01 -9 4.02 -9 3 C-2.25 0 -2.25 0 0 0 Z " fill="#FBFBFB" transform="translate(74,38)"/>
<path d="M0 0 C-0.33 2.64 -0.66 5.28 -1 8 C-1.99 8 -2.98 8 -4 8 C-3.744 5.657 -3.407 3.322 -3 1 C-1 0 -1 0 0 0 Z " fill="#FCFDFD" transform="translate(47,18)"/>
<path d="M0 0 C0.66 0 1.32 0 2 0 C1.67 1.98 1.34 3.96 1 6 C0.01 6.33 -0.98 6.66 -2 7 C-1.125 1.125 -1.125 1.125 0 0 Z " fill="#FCFDFD" transform="translate(81,35)"/>
<path d="M0 0 C2.438 0.375 2.438 0.375 5 1 C5.33 1.66 5.66 2.32 6 3 C3.69 3.33 1.38 3.66 -1 4 C-0.67 2.68 -0.34 1.36 0 0 Z " fill="#F7F8F8" transform="translate(20,30)"/>
<path d="M0 0 C0.897 0.526 0.897 0.526 1.812 1.062 C1.812 1.392 1.812 1.722 1.812 2.062 C-1.157 2.062 -4.127 2.062 -7.188 2.062 C-4.721 -0.404 -3.344 -1.433 0 0 Z " fill="#F3F5F4" transform="translate(46.1875,50.9375)"/>
<path d="M0 0 C0.66 0.99 1.32 1.98 2 3 C1.34 3.66 0.68 4.32 0 5 C0 5.99 0 6.98 0 8 C-0.99 8 -1.98 8 -3 8 C-2.372 5.071 -1.414 2.639 0 0 Z " fill="#F3F3F3" transform="translate(72,27)"/>
</svg>